<?xml version="1.0" encoding="iso-8859-1"?>
<!-- Generator: Adobe Illustrator 19.1.0, SVG Export Plug-In . SVG Version: 6.00 Build 0)  -->
<svg version="1.1" id="Layer_1" xmlns="http://www.w3.org/2000/svg" xmlns:xlink="http://www.w3.org/1999/xlink" x="0px" y="0px"
	 viewBox="0 0 133.91 113" style="enable-background:new 0 0 133.91 113;" xml:space="preserve">
<g>
	<defs>
		<rect id="SVGID_23_" x="0" y="0" width="133.91" height="113"/>
	</defs>
	<clipPath id="SVGID_1_">
		<use xlink:href="#SVGID_23_"  style="overflow:visible;"/>
	</clipPath>
	<g style="clip-path:url(#SVGID_1_);">
		<g>
			<path style="fill:#5FB7CB;" d="M129.977,103.204h-2.794c0-28.003,22.079-50.789,49.228-50.789v2.794
				C150.811,55.209,129.977,76.739,129.977,103.204z"/>
		</g>
	</g>
	<g style="clip-path:url(#SVGID_1_);">
		<g>
			<path style="fill:#5FB7CB;" d="M175.246,147.381c-26.716,0-48.453-21.041-48.453-46.903h2.802
				c0,24.324,20.478,44.098,45.651,44.098V147.381z"/>
		</g>
	</g>
	<g style="clip-path:url(#SVGID_1_);">
		<g>
			<path style="fill:#5FB7CB;" d="M34.863,150.882v-2.794c50.266,0,91.143-21.191,91.143-47.22h2.811
				C128.817,128.444,86.673,150.882,34.863,150.882z"/>
		</g>
	</g>
	<g style="clip-path:url(#SVGID_1_);">
		<g>
			<path style="fill:#5FB7CB;" d="M128.817,98.142h-2.811c0-36.11-35.471-65.487-79.095-65.487v-2.794
				C92.08,29.861,128.817,60.496,128.817,98.142z"/>
		</g>
	</g>
	<g style="clip-path:url(#SVGID_1_);">
		<g>
			<path style="fill:#5FB7CB;" d="M165.137,111.987c-18.652,0-38.731-2.992-38.731-9.563h2.802c0,2.361,12.346,6.764,35.929,6.764
				V111.987z"/>
		</g>
	</g>
	<g style="clip-path:url(#SVGID_1_);">
		<path style="fill:#0096AD;" d="M128.424,102.036h-2.799c0-9.065,16.325-16.175,37.185-16.175v2.794
			C142.246,88.655,128.424,95.577,128.424,102.036z"/>
	</g>
	<g style="clip-path:url(#SVGID_1_);">
		<path style="fill:#0096AD;" d="M97.475,159.433v-2.796c15.513,0,28.15-24.838,28.15-55.378h2.799
			C128.424,133.336,114.537,159.433,97.475,159.433z"/>
	</g>
	<g style="clip-path:url(#SVGID_1_);">
		<path style="fill:#0096AD;" d="M175.246,176.549c-27.788,0-50.404-36.22-50.404-80.737h2.808c0,42.97,21.357,77.935,47.596,77.935
			V176.549z"/>
	</g>
	<g style="clip-path:url(#SVGID_1_);">
		<path style="fill:#0096AD;" d="M129.24,100.052h-3.025c0-13.488-12.093-24.465-26.969-24.465v-3.012
			C115.785,72.574,129.24,84.9,129.24,100.052z"/>
	</g>
	<g style="clip-path:url(#SVGID_1_);">
		<path style="fill:#5FB7CB;" d="M128.062,38.644c-35.445,0-64.166,28.732-64.166,64.178c0,35.434,28.721,64.156,64.166,64.156
			c35.434,0,64.161-28.721,64.161-64.156C192.223,67.376,163.496,38.644,128.062,38.644z M127.666,141.313
			c-21.262,0-38.5-17.232-38.5-38.491c0-21.276,17.238-38.511,38.5-38.511c21.27,0,38.502,17.235,38.502,38.511
			C166.169,124.081,148.936,141.313,127.666,141.313z"/>
	</g>
</g>
</svg>
