<?xml version="1.0" encoding="iso-8859-1"?>
<!-- Generator: Adobe Illustrator 19.1.0, SVG Export Plug-In . SVG Version: 6.00 Build 0)  -->
<svg version="1.1" id="Layer_1" xmlns="http://www.w3.org/2000/svg" xmlns:xlink="http://www.w3.org/1999/xlink" x="0px" y="0px"
	 viewBox="0 0 549.333 197.755" style="enable-background:new 0 0 549.333 197.755;" xml:space="preserve">
<path id="cloud_x5F_3" style="fill:#FFFFFF;" d="M219.661,130.934c0.495-1.905,2.07-3.37,4.043-3.687
	c0.383-4.266,3.964-7.61,8.33-7.61c1.886,0,3.62,0.632,5.02,1.686c1.4-1.054,3.135-1.686,5.021-1.686
	c0.917,0,1.797,0.153,2.623,0.426c1.943-1.816,4.547-2.936,7.418-2.936c6.008,0,10.877,4.87,10.877,10.877
	c0,1.017-0.149,1.997-0.41,2.93H219.661z">
	<animateTransform attributeType="xml"
									 attributeName="transform"
									 type="translate"
									 from="-170 25"
									 to="800 25"
									 dur="50s"
									 repeatCount="indefinite"/>
</path>
<path id="cloud_x5F_1" style="fill:#FFFFFF;" d="M79.249,74.975c-0.496-1.905-2.07-3.37-4.043-3.687
	c-0.383-4.266-3.964-7.61-8.33-7.61c-1.886,0-3.621,0.632-5.021,1.686c-1.399-1.054-3.134-1.686-5.021-1.686
	c-0.917,0-1.798,0.153-2.624,0.426c-1.943-1.816-4.546-2.936-7.417-2.936c-6.008,0-10.877,4.87-10.877,10.877
	c0,1.017,0.149,1.997,0.411,2.93H79.249z">
	<animateTransform attributeType="xml"
									 attributeName="transform"
									 type="translate"
									 from="-170 25"
									 to="800 25"
									 dur="50s"
									 repeatCount="indefinite"/>
</path>
<path id="cloud_x5F_2" style="fill:#FFFFFF;" d="M426.311,34.245c0.495-1.905,2.07-3.37,4.043-3.687
	c0.383-4.266,3.964-7.61,8.33-7.61c1.886,0,3.62,0.632,5.02,1.686c1.4-1.054,3.135-1.686,5.022-1.686
	c0.917,0,1.797,0.153,2.623,0.426c1.943-1.816,4.547-2.936,7.418-2.936c6.008,0,10.877,4.87,10.877,10.877
	c0,1.017-0.149,1.997-0.41,2.93H426.311z">
	<animateTransform attributeType="xml"
									 attributeName="transform"
									 type="translate"
									 from="-170 25"
									 to="800 25"
									 dur="50s"
									 repeatCount="indefinite"/>
</path>
<rect x="208.276" y="157.719" style="fill:#A6D5E1;" width="26.559" height="39.452"/>
<polygon style="fill:#E25D3A;" points="235.031,157.921 208.277,157.921 212.966,149.719 230.342,149.719 "/>
<rect x="142.661" y="157.671" style="fill:#D7E03E;" width="62.616" height="39.451"/>
<polygon style="fill:#E25D3A;" points="205.738,157.873 142.662,157.873 148.189,149.671 200.21,149.671 "/>
<rect x="238.741" y="157.719" style="fill:#E2836A;" width="26.559" height="39.452"/>
<polygon style="fill:#ECF0F1;" points="265.495,157.921 238.741,157.921 243.43,149.719 260.806,149.719 "/>
<rect x="146.177" y="159.846" style="fill:#A6D5E1;" width="4.101" height="6.64"/>
<rect x="154.737" y="159.846" style="fill:#A6D5E1;" width="4.101" height="6.64"/>
<rect x="163.297" y="159.846" style="fill:#A6D5E1;" width="4.101" height="6.64"/>
<rect x="171.857" y="159.846" style="fill:#A6D5E1;" width="4.101" height="6.64"/>
<rect x="180.417" y="159.846" style="fill:#A6D5E1;" width="4.101" height="6.64"/>
<rect x="188.977" y="159.846" style="fill:#A6D5E1;" width="4.101" height="6.64"/>
<rect x="197.537" y="159.846" style="fill:#A6D5E1;" width="4.101" height="6.64"/>
<rect x="146.372" y="170.977" style="fill:#A6D5E1;" width="4.101" height="6.639"/>
<rect x="154.932" y="170.977" style="fill:#A6D5E1;" width="4.101" height="6.639"/>
<rect x="163.493" y="170.977" style="fill:#A6D5E1;" width="4.101" height="6.639"/>
<rect x="171.271" y="176.129" style="fill:#5FB7CB;" width="5.468" height="9.178"/>
<rect x="180.612" y="170.977" style="fill:#A6D5E1;" width="4.101" height="6.639"/>
<rect x="189.172" y="170.977" style="fill:#A6D5E1;" width="4.101" height="6.639"/>
<rect x="197.732" y="170.977" style="fill:#A6D5E1;" width="4.101" height="6.639"/>
<rect x="211.369" y="160.041" style="fill:#8EC5D3;" width="4.101" height="6.639"/>
<rect x="220.19" y="160.041" style="fill:#8EC5D3;" width="4.101" height="6.639"/>
<rect x="211.564" y="171.172" style="fill:#8EC5D3;" width="4.101" height="6.64"/>
<rect x="229.011" y="171.172" style="fill:#8EC5D3;" width="4.101" height="6.64"/>
<rect x="218.92" y="176.227" style="fill:#5FB7CB;" width="5.468" height="9.178"/>
<rect x="229.011" y="160.041" style="fill:#8EC5D3;" width="4.101" height="6.639"/>
<rect x="240.808" y="160.334" style="fill:#E25D3A;" width="4.101" height="6.639"/>
<rect x="249.629" y="160.334" style="fill:#E25D3A;" width="4.101" height="6.639"/>
<rect x="241.003" y="171.465" style="fill:#E25D3A;" width="4.101" height="6.64"/>
<rect x="258.449" y="171.465" style="fill:#E25D3A;" width="4.101" height="6.64"/>
<rect x="249.238" y="175.52" style="fill:#E25D3A;" width="5.468" height="9.178"/>
<rect x="258.449" y="160.334" style="fill:#E25D3A;" width="4.101" height="6.639"/>
<rect x="205.161" y="174.625" style="fill:#9C8160;" width="3" height="9.75"/>
<ellipse style="fill:#4FBA6F;" cx="205.661" cy="170.875" rx="4.75" ry="5.25"/>
<ellipse style="fill:#4FBA6F;" cx="208.786" cy="170.355" rx="3.375" ry="3.73"/>
<rect x="232.911" y="175.125" style="fill:#9C8160;" width="3" height="9.75"/>
<ellipse style="fill:#4FBA6F;" cx="233.411" cy="171.375" rx="4.75" ry="5.25"/>
<ellipse style="fill:#4FBA6F;" cx="236.536" cy="170.855" rx="3.375" ry="3.73"/>
<rect x="238.161" y="174.875" style="fill:#9C8160;" width="3" height="9.75"/>
<ellipse style="fill:#26B99A;" cx="238.661" cy="171.125" rx="4.75" ry="5.25"/>
<ellipse style="fill:#26B99A;" cx="241.786" cy="170.605" rx="3.375" ry="3.73"/>
<rect x="265.578" y="174.792" style="fill:#9C8160;" width="3" height="9.75"/>
<ellipse style="fill:#4FBA6F;" cx="266.078" cy="171.042" rx="4.75" ry="5.25"/>
<ellipse style="fill:#4FBA6F;" cx="269.203" cy="170.523" rx="3.375" ry="3.73"/>
<rect x="138.745" y="174.727" style="fill:#9C8160;" width="3" height="9.75"/>
<ellipse style="fill:#4FBA6F;" cx="139.245" cy="170.977" rx="4.75" ry="5.25"/>
<ellipse style="fill:#4FBA6F;" cx="142.37" cy="170.458" rx="3.375" ry="3.73"/>
<g>
	<rect x="57.328" y="147.375" style="fill:#BDC3C7;" width="56" height="37.083"/>
	<g>
		<rect x="50.665" y="118.126" style="fill:#BDC3C7;" width="26" height="67.334"/>
		<polygon style="fill:#ECF0F1;" points="50.665,118.501 63.665,100.081 76.665,118.501 		"/>
	</g>
	<g>
		<rect x="104.325" y="118.126" style="fill:#BDC3C7;" width="26" height="67.334"/>
		<polygon style="fill:#ECF0F1;" points="104.325,118.501 117.325,100.081 130.325,118.501 		"/>
	</g>
	<polygon style="fill:#BDC3C7;" points="73.952,151.876 90.119,133.456 106.286,151.876 	"/>
	<path style="fill:#7F8C8D;" d="M94.37,188.334c0,1.105-0.534,2-1.192,2h-5.365c-0.659,0-1.192-0.895-1.192-2v-14
		c0-1.104,0.534-2,1.192-2h5.365c0.659,0,1.192,0.896,1.192,2V188.334z"/>
	<g>
		<rect x="54.978" y="121.584" style="fill:#7F8C8D;" width="1.875" height="5.936"/>
		<rect x="57.727" y="121.584" style="fill:#7F8C8D;" width="1.875" height="5.936"/>
		<rect x="60.477" y="121.584" style="fill:#7F8C8D;" width="1.875" height="5.936"/>
	</g>
	<g>
		<rect x="65.227" y="121.584" style="fill:#7F8C8D;" width="1.875" height="5.936"/>
		<rect x="67.977" y="121.584" style="fill:#7F8C8D;" width="1.875" height="5.936"/>
		<rect x="70.727" y="121.584" style="fill:#7F8C8D;" width="1.875" height="5.936"/>
	</g>
	<g>
		<rect x="55.103" y="131.971" style="fill:#7F8C8D;" width="1.875" height="5.935"/>
		<rect x="57.852" y="131.971" style="fill:#7F8C8D;" width="1.875" height="5.935"/>
		<rect x="60.602" y="131.971" style="fill:#7F8C8D;" width="1.875" height="5.935"/>
	</g>
	<g>
		<rect x="65.352" y="131.971" style="fill:#7F8C8D;" width="1.875" height="5.935"/>
		<rect x="68.102" y="131.971" style="fill:#7F8C8D;" width="1.875" height="5.935"/>
		<rect x="70.852" y="131.971" style="fill:#7F8C8D;" width="1.875" height="5.935"/>
	</g>
	<g>
		<rect x="55.228" y="141.523" style="fill:#7F8C8D;" width="1.875" height="5.936"/>
		<rect x="57.977" y="141.523" style="fill:#7F8C8D;" width="1.875" height="5.936"/>
		<rect x="60.727" y="141.523" style="fill:#7F8C8D;" width="1.875" height="5.936"/>
	</g>
	<g>
		<rect x="65.477" y="141.523" style="fill:#7F8C8D;" width="1.875" height="5.936"/>
		<rect x="68.227" y="141.523" style="fill:#7F8C8D;" width="1.875" height="5.936"/>
		<rect x="70.977" y="141.523" style="fill:#7F8C8D;" width="1.875" height="5.936"/>
	</g>
	<g>
		<rect x="108.596" y="120.834" style="fill:#7F8C8D;" width="1.875" height="5.936"/>
		<rect x="111.346" y="120.834" style="fill:#7F8C8D;" width="1.875" height="5.936"/>
		<rect x="114.096" y="120.834" style="fill:#7F8C8D;" width="1.875" height="5.936"/>
	</g>
	<g>
		<rect x="118.846" y="120.834" style="fill:#7F8C8D;" width="1.875" height="5.936"/>
		<rect x="121.596" y="120.834" style="fill:#7F8C8D;" width="1.875" height="5.936"/>
		<rect x="124.346" y="120.834" style="fill:#7F8C8D;" width="1.875" height="5.936"/>
	</g>
	<g>
		<rect x="108.721" y="131.221" style="fill:#7F8C8D;" width="1.875" height="5.935"/>
		<rect x="111.471" y="131.221" style="fill:#7F8C8D;" width="1.875" height="5.935"/>
		<rect x="114.221" y="131.221" style="fill:#7F8C8D;" width="1.875" height="5.935"/>
	</g>
	<g>
		<rect x="118.971" y="131.221" style="fill:#7F8C8D;" width="1.875" height="5.935"/>
		<rect x="121.721" y="131.221" style="fill:#7F8C8D;" width="1.875" height="5.935"/>
		<rect x="124.471" y="131.221" style="fill:#7F8C8D;" width="1.875" height="5.935"/>
	</g>
	<g>
		<rect x="108.846" y="140.773" style="fill:#7F8C8D;" width="1.875" height="5.936"/>
		<rect x="111.596" y="140.773" style="fill:#7F8C8D;" width="1.875" height="5.936"/>
		<rect x="114.346" y="140.773" style="fill:#7F8C8D;" width="1.875" height="5.936"/>
	</g>
	<g>
		<rect x="119.096" y="140.773" style="fill:#7F8C8D;" width="1.875" height="5.936"/>
		<rect x="121.846" y="140.773" style="fill:#7F8C8D;" width="1.875" height="5.936"/>
		<rect x="124.596" y="140.773" style="fill:#7F8C8D;" width="1.875" height="5.936"/>
	</g>
	<g>
		<rect x="86.349" y="144.032" style="fill:#7F8C8D;" width="1.875" height="3.436"/>
		<rect x="89.099" y="141.532" style="fill:#7F8C8D;" width="1.875" height="5.936"/>
		<rect x="91.849" y="144.032" style="fill:#7F8C8D;" width="1.875" height="3.436"/>
	</g>
	<path style="fill:#7F8C8D;" d="M67.04,166.375v-6.955c0-0.854-0.896-1.545-2-1.545h-1.375c-1.104,0-2,0.692-2,1.545v6.955H67.04z"
		/>
	<path style="fill:#7F8C8D;" d="M84.288,166.375v-6.955c0-0.854-0.896-1.545-2-1.545h-1.375c-1.104,0-2,0.692-2,1.545v6.955H84.288z
		"/>
	<path style="fill:#7F8C8D;" d="M93.036,166.375v-6.955c0-0.854-0.896-1.545-2-1.545h-1.375c-1.104,0-2,0.692-2,1.545v6.955H93.036z
		"/>
	<path style="fill:#7F8C8D;" d="M102.161,166.375v-6.955c0-0.854-0.895-1.545-2-1.545h-1.375c-1.104,0-2,0.692-2,1.545v6.955
		H102.161z"/>
	<path style="fill:#7F8C8D;" d="M120.29,166.375v-6.955c0-0.854-0.895-1.545-2-1.545h-1.375c-1.105,0-2,0.692-2,1.545v6.955H120.29z
		"/>
	<path style="fill:#95A5A5;" d="M80.788,154.25v-2.588c0-0.317-0.333-0.575-0.744-0.575h-0.512c-0.411,0-0.744,0.257-0.744,0.575
		v2.588H80.788z"/>
	<path style="fill:#95A5A5;" d="M83.806,154.25v-2.588c0-0.317-0.333-0.575-0.744-0.575H82.55c-0.411,0-0.744,0.257-0.744,0.575
		v2.588H83.806z"/>
	<path style="fill:#95A5A5;" d="M86.824,154.25v-2.588c0-0.317-0.333-0.575-0.744-0.575h-0.512c-0.411,0-0.744,0.257-0.744,0.575
		v2.588H86.824z"/>
	<path style="fill:#95A5A5;" d="M89.842,154.25v-2.588c0-0.317-0.333-0.575-0.744-0.575h-0.512c-0.411,0-0.744,0.257-0.744,0.575
		v2.588H89.842z"/>
	<path style="fill:#95A5A5;" d="M92.859,154.25v-2.588c0-0.317-0.333-0.575-0.744-0.575h-0.512c-0.411,0-0.744,0.257-0.744,0.575
		v2.588H92.859z"/>
	<path style="fill:#95A5A5;" d="M95.877,154.25v-2.588c0-0.317-0.333-0.575-0.744-0.575h-0.512c-0.411,0-0.744,0.257-0.744,0.575
		v2.588H95.877z"/>
	<path style="fill:#95A5A5;" d="M98.895,154.25v-2.588c0-0.317-0.333-0.575-0.744-0.575h-0.512c-0.411,0-0.744,0.257-0.744,0.575
		v2.588H98.895z"/>
	<path style="fill:#95A5A5;" d="M101.913,154.25v-2.588c0-0.317-0.333-0.575-0.744-0.575h-0.512c-0.411,0-0.744,0.257-0.744,0.575
		v2.588H101.913z"/>
</g>
<rect x="270.148" y="158.303" style="fill:#A6D5E1;" width="21.595" height="39.452"/>
<polygon style="fill:#E25D3A;" points="291.903,158.505 270.148,158.505 273.961,150.303 288.089,150.303 "/>
<rect x="272.662" y="160.625" style="fill:#8EC5D3;" width="3.335" height="6.639"/>
<rect x="279.835" y="160.625" style="fill:#8EC5D3;" width="3.334" height="6.639"/>
<rect x="272.821" y="171.756" style="fill:#8EC5D3;" width="3.335" height="6.64"/>
<rect x="287.008" y="171.756" style="fill:#8EC5D3;" width="3.333" height="6.64"/>
<rect x="278.802" y="176.811" style="fill:#5FB7CB;" width="4.447" height="9.178"/>
<rect x="287.008" y="160.625" style="fill:#8EC5D3;" width="3.333" height="6.639"/>
<g>
	<rect x="342.231" y="123.763" style="fill:#AC533A;" width="111.509" height="8.052"/>
	<rect x="341.21" y="131.816" style="fill:#E2836A;" width="112.53" height="55.643"/>
	<path style="fill:#E25D3A;" d="M481.622,119.273v66.076H452.31v-66.076h3.726v-6.21h3.849v-5.381h4.099v-5.962h5.962v5.962h4.099
		v5.381h3.85v6.21H481.622z"/>
	<path style="fill:#E25D3A;" d="M342.231,119.273v66.076h-29.309v-66.076h3.724v-6.21h3.849v-5.651h4.098v-5.962h5.963v5.962h4.098
		v5.651h3.85v6.21H342.231z"/>
	<rect x="397.636" y="75.958" style="fill:#2C3E50;" width="13.797" height="7.17"/>
	<g>
		<rect x="401.657" y="75.961" style="fill:#F1C119;" width="1.433" height="7.163"/>
		<rect x="397.609" y="78.826" style="fill:#F1C119;" width="13.849" height="1.433"/>
	</g>
	<g>
		<rect x="397.33" y="76.138" style="fill:#A6D5E1;" width="0.445" height="18.141"/>
	</g>
	<path style="fill:#E25D3A;" d="M418.241,124.363v61.604h-41.378v-61.604h4.917v-5.377h3.686v-6.053h3.073v-6.21h3.175v-6.124h3.38
		v-5.962h4.917v5.962h3.38v6.124h3.175v6.21h3.073v6.053h3.687v5.377H418.241z"/>
	<rect x="477.078" y="174.727" style="fill:#9C8160;" width="3" height="9.75"/>
	<ellipse style="fill:#4FBA6F;" cx="480.703" cy="170.458" rx="3.375" ry="3.73"/>
	<rect x="485.411" y="174.727" style="fill:#9C8160;" width="3" height="9.75"/>
	<ellipse style="fill:#26B99A;" cx="485.911" cy="170.977" rx="4.75" ry="5.25"/>
	<rect x="397.148" y="96.46" style="fill:#E2795D;" width="1.079" height="16.545"/>
	<rect x="393.342" y="103.778" style="fill:#E2795D;" width="1.079" height="9.227"/>
	<rect x="400.924" y="103.778" style="fill:#E2795D;" width="1.079" height="9.227"/>
	<rect x="327.093" y="104.013" style="fill:#E2836A;" width="1.079" height="15.646"/>
	<rect x="322.507" y="110.933" style="fill:#E2836A;" width="1.079" height="8.726"/>
	<rect x="331.409" y="110.933" style="fill:#E2836A;" width="1.079" height="8.726"/>
	<rect x="466.558" y="104.552" style="fill:#E2795D;" width="1.079" height="14.837"/>
	<rect x="461.972" y="111.115" style="fill:#E2795D;" width="1.079" height="8.274"/>
	<rect x="470.874" y="111.115" style="fill:#E2795D;" width="1.079" height="8.274"/>
	<g>
		<g>
			<rect x="353.242" y="144.066" style="fill:#E25D3A;" width="1.777" height="6.281"/>
			<path style="fill:#E25D3A;" d="M355.076,150.464h-1.89v-6.514h1.89V150.464z M353.299,150.231h1.664v-6.048h-1.664V150.231z"/>
		</g>
		<g>
			<path style="fill:#E25D3A;" d="M353.26,142.751c0,0,0.854-2.7,2.035-2.704c1.138-0.004,2.035,2.704,2.035,2.704H353.26z"/>
			<path style="fill:#E25D3A;" d="M357.415,142.822h-4.238l0.03-0.098c0.035-0.112,0.883-2.744,2.088-2.749c0.001,0,0.002,0,0.002,0
				c1.162,0,2.048,2.635,2.085,2.748L357.415,142.822z M353.345,142.68h3.897c-0.174-0.482-0.981-2.562-1.946-2.562
				c0,0-0.001,0-0.002,0C354.291,140.122,353.512,142.201,353.345,142.68z"/>
		</g>
		<g>
			<g>
				<rect x="353.749" y="144.067" style="fill:#E25D3A;" width="0.124" height="6.281"/>
			</g>
			<g>
				<rect x="354.388" y="144.067" style="fill:#E25D3A;" width="0.124" height="6.281"/>
			</g>
		</g>
		<g>
			<rect x="353.242" y="143.939" style="fill:#E25D3A;" width="1.777" height="0.232"/>
		</g>
		<g>
			<rect x="353.242" y="147.077" style="fill:#E25D3A;" width="1.777" height="0.258"/>
		</g>
		<g>
			<rect x="353.242" y="150.219" style="fill:#E25D3A;" width="1.777" height="0.258"/>
		</g>
		<g>
			<rect x="355.552" y="144.066" style="fill:#E25D3A;" width="1.777" height="6.281"/>
			<path style="fill:#E25D3A;" d="M357.386,150.464h-1.89v-6.514h1.89V150.464z M355.609,150.231h1.664v-6.048h-1.664V150.231z"/>
		</g>
		<g>
			<g>
				<rect x="356.059" y="144.067" style="fill:#E25D3A;" width="0.124" height="6.281"/>
			</g>
			<g>
				<rect x="356.698" y="144.067" style="fill:#E25D3A;" width="0.124" height="6.281"/>
			</g>
		</g>
		<g>
			<rect x="355.552" y="143.939" style="fill:#E25D3A;" width="1.777" height="0.232"/>
		</g>
		<g>
			<rect x="355.552" y="147.077" style="fill:#E25D3A;" width="1.777" height="0.258"/>
		</g>
		<g>
			<rect x="355.552" y="150.219" style="fill:#E25D3A;" width="1.777" height="0.258"/>
		</g>
		<g>
			<rect x="355.552" y="151.517" style="fill:#E25D3A;" width="1.777" height="6.281"/>
			<path style="fill:#E25D3A;" d="M357.386,157.915h-1.89v-6.514h1.89V157.915z M355.609,157.682h1.664v-6.048h-1.664V157.682z"/>
		</g>
		<g>
			<g>
				<rect x="356.059" y="151.517" style="fill:#E25D3A;" width="0.124" height="6.281"/>
			</g>
			<g>
				<rect x="356.698" y="151.517" style="fill:#E25D3A;" width="0.124" height="6.281"/>
			</g>
		</g>
		<g>
			<rect x="355.552" y="151.388" style="fill:#E25D3A;" width="1.777" height="0.258"/>
		</g>
		<g>
			<rect x="355.552" y="154.528" style="fill:#E25D3A;" width="1.777" height="0.258"/>
		</g>
		<g>
			<rect x="355.552" y="157.669" style="fill:#E25D3A;" width="1.777" height="0.258"/>
		</g>
		<g>
			<rect x="353.242" y="151.517" style="fill:#E25D3A;" width="1.777" height="6.281"/>
			<path style="fill:#E25D3A;" d="M355.076,157.915h-1.89v-6.514h1.89V157.915z M353.299,157.682h1.664v-6.048h-1.664V157.682z"/>
		</g>
		<g>
			<g>
				<rect x="353.749" y="151.517" style="fill:#E25D3A;" width="0.124" height="6.281"/>
			</g>
			<g>
				<rect x="354.388" y="151.517" style="fill:#E25D3A;" width="0.124" height="6.281"/>
			</g>
		</g>
		<g>
			<rect x="353.242" y="151.388" style="fill:#E25D3A;" width="1.777" height="0.258"/>
		</g>
		<g>
			<rect x="353.242" y="154.528" style="fill:#E25D3A;" width="1.777" height="0.258"/>
		</g>
		<g>
			<rect x="353.242" y="157.669" style="fill:#E25D3A;" width="1.777" height="0.258"/>
		</g>
		<g>
			<defs>
				<path id="SVGID_53_" d="M353.26,142.751c0,0,0.854-2.7,2.035-2.704c1.138-0.004,2.035,2.704,2.035,2.704H353.26z"/>
			</defs>
			<use xlink:href="#SVGID_53_"  style="overflow:visible;fill:#E25D3A;"/>
			<clipPath id="SVGID_1_">
				<use xlink:href="#SVGID_53_"  style="overflow:visible;"/>
			</clipPath>
			<g style="clip-path:url(#SVGID_1_);">
				<g>
					<g>
						<rect x="353.732" y="138.889" style="fill:#E25D3A;" width="0.124" height="3.831"/>
					</g>
					<g>
						<rect x="354.353" y="138.889" style="fill:#E25D3A;" width="0.124" height="3.831"/>
					</g>
				</g>
				<g>
					<g>
						<rect x="354.921" y="138.889" style="fill:#E25D3A;" width="0.124" height="3.831"/>
					</g>
					<g>
						<rect x="355.542" y="138.889" style="fill:#E25D3A;" width="0.124" height="3.831"/>
					</g>
				</g>
				<g>
					<g>
						<rect x="356.112" y="138.889" style="fill:#E25D3A;" width="0.124" height="3.831"/>
					</g>
					<g>
						<rect x="356.733" y="138.889" style="fill:#E25D3A;" width="0.124" height="3.831"/>
					</g>
				</g>
			</g>
			<g style="clip-path:url(#SVGID_1_);">
				<g>
					<g>
						<rect x="353.251" y="140.349" style="fill:#E25D3A;" width="4.397" height="0.157"/>
					</g>
				</g>
				<g>
					<g>
						<rect x="353.354" y="141.473" style="fill:#E25D3A;" width="4.397" height="0.157"/>
					</g>
					<g>
						<rect x="353.251" y="142.688" style="fill:#E25D3A;" width="4.397" height="0.157"/>
					</g>
				</g>
			</g>
		</g>
	</g>
	<g>
		<g>
			<rect x="346.178" y="144.066" style="fill:#E25D3A;" width="1.777" height="6.281"/>
			<path style="fill:#E25D3A;" d="M348.012,150.464h-1.89v-6.514h1.89V150.464z M346.235,150.231h1.664v-6.048h-1.664V150.231z"/>
		</g>
		<g>
			<path style="fill:#E25D3A;" d="M346.196,142.751c0,0,0.854-2.7,2.035-2.704c1.138-0.004,2.035,2.704,2.035,2.704H346.196z"/>
			<path style="fill:#E25D3A;" d="M350.351,142.822h-4.238l0.03-0.098c0.036-0.112,0.883-2.744,2.088-2.749c0.001,0,0.002,0,0.002,0
				c1.162,0,2.048,2.635,2.085,2.748L350.351,142.822z M346.282,142.68h3.897c-0.174-0.482-0.981-2.562-1.946-2.562
				c0,0-0.001,0-0.002,0C347.227,140.122,346.448,142.201,346.282,142.68z"/>
		</g>
		<g>
			<g>
				<rect x="346.685" y="144.067" style="fill:#E25D3A;" width="0.124" height="6.281"/>
			</g>
			<g>
				<rect x="347.325" y="144.067" style="fill:#E25D3A;" width="0.124" height="6.281"/>
			</g>
		</g>
		<g>
			<rect x="346.178" y="143.939" style="fill:#E25D3A;" width="1.777" height="0.232"/>
		</g>
		<g>
			<rect x="346.178" y="147.077" style="fill:#E25D3A;" width="1.777" height="0.258"/>
		</g>
		<g>
			<rect x="346.178" y="150.219" style="fill:#E25D3A;" width="1.777" height="0.258"/>
		</g>
		<g>
			<rect x="348.489" y="144.066" style="fill:#E25D3A;" width="1.777" height="6.281"/>
			<path style="fill:#E25D3A;" d="M350.322,150.464h-1.89v-6.514h1.89V150.464z M348.545,150.231h1.664v-6.048h-1.664V150.231z"/>
		</g>
		<g>
			<g>
				<rect x="348.995" y="144.067" style="fill:#E25D3A;" width="0.124" height="6.281"/>
			</g>
			<g>
				<rect x="349.635" y="144.067" style="fill:#E25D3A;" width="0.124" height="6.281"/>
			</g>
		</g>
		<g>
			<rect x="348.489" y="143.939" style="fill:#E25D3A;" width="1.777" height="0.232"/>
		</g>
		<g>
			<rect x="348.489" y="147.077" style="fill:#E25D3A;" width="1.777" height="0.258"/>
		</g>
		<g>
			<rect x="348.489" y="150.219" style="fill:#E25D3A;" width="1.777" height="0.258"/>
		</g>
		<g>
			<rect x="348.489" y="151.517" style="fill:#E25D3A;" width="1.777" height="6.281"/>
			<path style="fill:#E25D3A;" d="M350.322,157.915h-1.89v-6.514h1.89V157.915z M348.545,157.682h1.664v-6.048h-1.664V157.682z"/>
		</g>
		<g>
			<g>
				<rect x="348.995" y="151.517" style="fill:#E25D3A;" width="0.124" height="6.281"/>
			</g>
			<g>
				<rect x="349.635" y="151.517" style="fill:#E25D3A;" width="0.124" height="6.281"/>
			</g>
		</g>
		<g>
			<rect x="348.489" y="151.388" style="fill:#E25D3A;" width="1.777" height="0.258"/>
		</g>
		<g>
			<rect x="348.489" y="154.528" style="fill:#E25D3A;" width="1.777" height="0.258"/>
		</g>
		<g>
			<rect x="348.489" y="157.669" style="fill:#E25D3A;" width="1.777" height="0.258"/>
		</g>
		<g>
			<rect x="346.178" y="151.517" style="fill:#E25D3A;" width="1.777" height="6.281"/>
			<path style="fill:#E25D3A;" d="M348.012,157.915h-1.89v-6.514h1.89V157.915z M346.235,157.682h1.664v-6.048h-1.664V157.682z"/>
		</g>
		<g>
			<g>
				<rect x="346.685" y="151.517" style="fill:#E25D3A;" width="0.124" height="6.281"/>
			</g>
			<g>
				<rect x="347.325" y="151.517" style="fill:#E25D3A;" width="0.124" height="6.281"/>
			</g>
		</g>
		<g>
			<rect x="346.178" y="151.388" style="fill:#E25D3A;" width="1.777" height="0.258"/>
		</g>
		<g>
			<rect x="346.178" y="154.528" style="fill:#E25D3A;" width="1.777" height="0.258"/>
		</g>
		<g>
			<rect x="346.178" y="157.669" style="fill:#E25D3A;" width="1.777" height="0.258"/>
		</g>
		<g>
			<defs>
				<path id="SVGID_55_" d="M346.196,142.751c0,0,0.854-2.7,2.035-2.704c1.138-0.004,2.035,2.704,2.035,2.704H346.196z"/>
			</defs>
			<use xlink:href="#SVGID_55_"  style="overflow:visible;fill:#E25D3A;"/>
			<clipPath id="SVGID_2_">
				<use xlink:href="#SVGID_55_"  style="overflow:visible;"/>
			</clipPath>
			<g style="clip-path:url(#SVGID_2_);">
				<g>
					<g>
						<rect x="346.668" y="138.889" style="fill:#E25D3A;" width="0.124" height="3.831"/>
					</g>
					<g>
						<rect x="347.289" y="138.889" style="fill:#E25D3A;" width="0.124" height="3.831"/>
					</g>
				</g>
				<g>
					<g>
						<rect x="347.858" y="138.889" style="fill:#E25D3A;" width="0.124" height="3.831"/>
					</g>
					<g>
						<rect x="348.479" y="138.889" style="fill:#E25D3A;" width="0.124" height="3.831"/>
					</g>
				</g>
				<g>
					<g>
						<rect x="349.048" y="138.889" style="fill:#E25D3A;" width="0.124" height="3.831"/>
					</g>
					<g>
						<rect x="349.669" y="138.889" style="fill:#E25D3A;" width="0.124" height="3.831"/>
					</g>
				</g>
			</g>
			<g style="clip-path:url(#SVGID_2_);">
				<g>
					<g>
						<rect x="346.187" y="140.349" style="fill:#E25D3A;" width="4.397" height="0.157"/>
					</g>
				</g>
				<g>
					<g>
						<rect x="346.29" y="141.473" style="fill:#E25D3A;" width="4.397" height="0.157"/>
					</g>
					<g>
						<rect x="346.187" y="142.688" style="fill:#E25D3A;" width="4.397" height="0.157"/>
					</g>
				</g>
			</g>
		</g>
	</g>
	<g>
		<g>
			<rect x="367.369" y="144.066" style="fill:#E25D3A;" width="1.777" height="6.281"/>
			<path style="fill:#E25D3A;" d="M369.203,150.464h-1.89v-6.514h1.89V150.464z M367.426,150.231h1.664v-6.048h-1.664V150.231z"/>
		</g>
		<g>
			<path style="fill:#E25D3A;" d="M367.387,142.751c0,0,0.854-2.7,2.035-2.704c1.138-0.004,2.035,2.704,2.035,2.704H367.387z"/>
			<path style="fill:#E25D3A;" d="M371.542,142.822h-4.238l0.03-0.098c0.036-0.112,0.883-2.744,2.088-2.749c0.001,0,0.002,0,0.002,0
				c1.162,0,2.048,2.635,2.085,2.748L371.542,142.822z M367.473,142.68h3.897c-0.174-0.482-0.981-2.562-1.946-2.562
				c0,0-0.001,0-0.002,0C368.418,140.122,367.639,142.201,367.473,142.68z"/>
		</g>
		<g>
			<g>
				<rect x="367.876" y="144.067" style="fill:#E25D3A;" width="0.124" height="6.281"/>
			</g>
			<g>
				<rect x="368.516" y="144.067" style="fill:#E25D3A;" width="0.124" height="6.281"/>
			</g>
		</g>
		<g>
			<rect x="367.369" y="143.939" style="fill:#E25D3A;" width="1.777" height="0.232"/>
		</g>
		<g>
			<rect x="367.369" y="147.077" style="fill:#E25D3A;" width="1.777" height="0.258"/>
		</g>
		<g>
			<rect x="367.369" y="150.219" style="fill:#E25D3A;" width="1.777" height="0.258"/>
		</g>
		<g>
			<rect x="369.68" y="144.066" style="fill:#E25D3A;" width="1.777" height="6.281"/>
			<path style="fill:#E25D3A;" d="M371.513,150.464h-1.89v-6.514h1.89V150.464z M369.736,150.231h1.664v-6.048h-1.664V150.231z"/>
		</g>
		<g>
			<g>
				<rect x="370.186" y="144.067" style="fill:#E25D3A;" width="0.124" height="6.281"/>
			</g>
			<g>
				<rect x="370.826" y="144.067" style="fill:#E25D3A;" width="0.124" height="6.281"/>
			</g>
		</g>
		<g>
			<rect x="369.68" y="143.939" style="fill:#E25D3A;" width="1.777" height="0.232"/>
		</g>
		<g>
			<rect x="369.68" y="147.077" style="fill:#E25D3A;" width="1.777" height="0.258"/>
		</g>
		<g>
			<rect x="369.68" y="150.219" style="fill:#E25D3A;" width="1.777" height="0.258"/>
		</g>
		<g>
			<rect x="369.68" y="151.517" style="fill:#E25D3A;" width="1.777" height="6.281"/>
			<path style="fill:#E25D3A;" d="M371.513,157.915h-1.89v-6.514h1.89V157.915z M369.736,157.682h1.664v-6.048h-1.664V157.682z"/>
		</g>
		<g>
			<g>
				<rect x="370.186" y="151.517" style="fill:#E25D3A;" width="0.124" height="6.281"/>
			</g>
			<g>
				<rect x="370.826" y="151.517" style="fill:#E25D3A;" width="0.124" height="6.281"/>
			</g>
		</g>
		<g>
			<rect x="369.68" y="151.388" style="fill:#E25D3A;" width="1.777" height="0.258"/>
		</g>
		<g>
			<rect x="369.68" y="154.528" style="fill:#E25D3A;" width="1.777" height="0.258"/>
		</g>
		<g>
			<rect x="369.68" y="157.669" style="fill:#E25D3A;" width="1.777" height="0.258"/>
		</g>
		<g>
			<rect x="367.369" y="151.517" style="fill:#E25D3A;" width="1.777" height="6.281"/>
			<path style="fill:#E25D3A;" d="M369.203,157.915h-1.89v-6.514h1.89V157.915z M367.426,157.682h1.664v-6.048h-1.664V157.682z"/>
		</g>
		<g>
			<g>
				<rect x="367.876" y="151.517" style="fill:#E25D3A;" width="0.124" height="6.281"/>
			</g>
			<g>
				<rect x="368.516" y="151.517" style="fill:#E25D3A;" width="0.124" height="6.281"/>
			</g>
		</g>
		<g>
			<rect x="367.369" y="151.388" style="fill:#E25D3A;" width="1.777" height="0.258"/>
		</g>
		<g>
			<rect x="367.369" y="154.528" style="fill:#E25D3A;" width="1.777" height="0.258"/>
		</g>
		<g>
			<rect x="367.369" y="157.669" style="fill:#E25D3A;" width="1.777" height="0.258"/>
		</g>
		<g>
			<defs>
				<path id="SVGID_57_" d="M367.387,142.751c0,0,0.854-2.7,2.035-2.704c1.138-0.004,2.035,2.704,2.035,2.704H367.387z"/>
			</defs>
			<use xlink:href="#SVGID_57_"  style="overflow:visible;fill:#E25D3A;"/>
			<clipPath id="SVGID_4_">
				<use xlink:href="#SVGID_57_"  style="overflow:visible;"/>
			</clipPath>
			<g style="clip-path:url(#SVGID_4_);">
				<g>
					<g>
						<rect x="367.859" y="138.889" style="fill:#E25D3A;" width="0.124" height="3.831"/>
					</g>
					<g>
						<rect x="368.48" y="138.889" style="fill:#E25D3A;" width="0.124" height="3.831"/>
					</g>
				</g>
				<g>
					<g>
						<rect x="369.049" y="138.889" style="fill:#E25D3A;" width="0.124" height="3.831"/>
					</g>
					<g>
						<rect x="369.67" y="138.889" style="fill:#E25D3A;" width="0.124" height="3.831"/>
					</g>
				</g>
				<g>
					<g>
						<rect x="370.239" y="138.889" style="fill:#E25D3A;" width="0.124" height="3.831"/>
					</g>
					<g>
						<rect x="370.86" y="138.889" style="fill:#E25D3A;" width="0.124" height="3.831"/>
					</g>
				</g>
			</g>
			<g style="clip-path:url(#SVGID_4_);">
				<g>
					<g>
						<rect x="367.378" y="140.349" style="fill:#E25D3A;" width="4.397" height="0.157"/>
					</g>
				</g>
				<g>
					<g>
						<rect x="367.481" y="141.473" style="fill:#E25D3A;" width="4.397" height="0.157"/>
					</g>
					<g>
						<rect x="367.378" y="142.688" style="fill:#E25D3A;" width="4.397" height="0.157"/>
					</g>
				</g>
			</g>
		</g>
	</g>
	<g>
		<g>
			<rect x="360.306" y="144.066" style="fill:#E25D3A;" width="1.777" height="6.281"/>
			<path style="fill:#E25D3A;" d="M362.139,150.464h-1.89v-6.514h1.89V150.464z M360.362,150.231h1.664v-6.048h-1.664V150.231z"/>
		</g>
		<g>
			<path style="fill:#E25D3A;" d="M360.323,142.751c0,0,0.854-2.7,2.035-2.704c1.138-0.004,2.035,2.704,2.035,2.704H360.323z"/>
			<path style="fill:#E25D3A;" d="M364.478,142.822h-4.238l0.03-0.098c0.035-0.112,0.883-2.744,2.088-2.749c0.001,0,0.002,0,0.002,0
				c1.162,0,2.048,2.635,2.085,2.748L364.478,142.822z M360.409,142.68h3.897c-0.174-0.482-0.981-2.562-1.946-2.562
				c0,0-0.001,0-0.002,0C361.354,140.122,360.576,142.201,360.409,142.68z"/>
		</g>
		<g>
			<g>
				<rect x="360.812" y="144.067" style="fill:#E25D3A;" width="0.124" height="6.281"/>
			</g>
			<g>
				<rect x="361.452" y="144.067" style="fill:#E25D3A;" width="0.124" height="6.281"/>
			</g>
		</g>
		<g>
			<rect x="360.306" y="143.939" style="fill:#E25D3A;" width="1.777" height="0.232"/>
		</g>
		<g>
			<rect x="360.306" y="147.077" style="fill:#E25D3A;" width="1.777" height="0.258"/>
		</g>
		<g>
			<rect x="360.306" y="150.219" style="fill:#E25D3A;" width="1.777" height="0.258"/>
		</g>
		<g>
			<rect x="362.616" y="144.066" style="fill:#E25D3A;" width="1.777" height="6.281"/>
			<path style="fill:#E25D3A;" d="M364.45,150.464h-1.89v-6.514h1.89V150.464z M362.673,150.231h1.664v-6.048h-1.664V150.231z"/>
		</g>
		<g>
			<g>
				<rect x="363.122" y="144.067" style="fill:#E25D3A;" width="0.124" height="6.281"/>
			</g>
			<g>
				<rect x="363.762" y="144.067" style="fill:#E25D3A;" width="0.124" height="6.281"/>
			</g>
		</g>
		<g>
			<rect x="362.616" y="143.939" style="fill:#E25D3A;" width="1.777" height="0.232"/>
		</g>
		<g>
			<rect x="362.616" y="147.077" style="fill:#E25D3A;" width="1.777" height="0.258"/>
		</g>
		<g>
			<rect x="362.616" y="150.219" style="fill:#E25D3A;" width="1.777" height="0.258"/>
		</g>
		<g>
			<rect x="362.616" y="151.517" style="fill:#E25D3A;" width="1.777" height="6.281"/>
			<path style="fill:#E25D3A;" d="M364.45,157.915h-1.89v-6.514h1.89V157.915z M362.673,157.682h1.664v-6.048h-1.664V157.682z"/>
		</g>
		<g>
			<g>
				<rect x="363.122" y="151.517" style="fill:#E25D3A;" width="0.124" height="6.281"/>
			</g>
			<g>
				<rect x="363.762" y="151.517" style="fill:#E25D3A;" width="0.124" height="6.281"/>
			</g>
		</g>
		<g>
			<rect x="362.616" y="151.388" style="fill:#E25D3A;" width="1.777" height="0.258"/>
		</g>
		<g>
			<rect x="362.616" y="154.528" style="fill:#E25D3A;" width="1.777" height="0.258"/>
		</g>
		<g>
			<rect x="362.616" y="157.669" style="fill:#E25D3A;" width="1.777" height="0.258"/>
		</g>
		<g>
			<rect x="360.306" y="151.517" style="fill:#E25D3A;" width="1.777" height="6.281"/>
			<path style="fill:#E25D3A;" d="M362.139,157.915h-1.89v-6.514h1.89V157.915z M360.362,157.682h1.664v-6.048h-1.664V157.682z"/>
		</g>
		<g>
			<g>
				<rect x="360.812" y="151.517" style="fill:#E25D3A;" width="0.124" height="6.281"/>
			</g>
			<g>
				<rect x="361.452" y="151.517" style="fill:#E25D3A;" width="0.124" height="6.281"/>
			</g>
		</g>
		<g>
			<rect x="360.306" y="151.388" style="fill:#E25D3A;" width="1.777" height="0.258"/>
		</g>
		<g>
			<rect x="360.306" y="154.528" style="fill:#E25D3A;" width="1.777" height="0.258"/>
		</g>
		<g>
			<rect x="360.306" y="157.669" style="fill:#E25D3A;" width="1.777" height="0.258"/>
		</g>
		<g>
			<defs>
				<path id="SVGID_59_" d="M360.323,142.751c0,0,0.854-2.7,2.035-2.704c1.138-0.004,2.035,2.704,2.035,2.704H360.323z"/>
			</defs>
			<use xlink:href="#SVGID_59_"  style="overflow:visible;fill:#E25D3A;"/>
			<clipPath id="SVGID_6_">
				<use xlink:href="#SVGID_59_"  style="overflow:visible;"/>
			</clipPath>
			<g style="clip-path:url(#SVGID_6_);">
				<g>
					<g>
						<rect x="360.795" y="138.889" style="fill:#E25D3A;" width="0.124" height="3.831"/>
					</g>
					<g>
						<rect x="361.416" y="138.889" style="fill:#E25D3A;" width="0.124" height="3.831"/>
					</g>
				</g>
				<g>
					<g>
						<rect x="361.985" y="138.889" style="fill:#E25D3A;" width="0.124" height="3.831"/>
					</g>
					<g>
						<rect x="362.606" y="138.889" style="fill:#E25D3A;" width="0.124" height="3.831"/>
					</g>
				</g>
				<g>
					<g>
						<rect x="363.176" y="138.889" style="fill:#E25D3A;" width="0.124" height="3.831"/>
					</g>
					<g>
						<rect x="363.797" y="138.889" style="fill:#E25D3A;" width="0.124" height="3.831"/>
					</g>
				</g>
			</g>
			<g style="clip-path:url(#SVGID_6_);">
				<g>
					<g>
						<rect x="360.315" y="140.349" style="fill:#E25D3A;" width="4.397" height="0.157"/>
					</g>
				</g>
				<g>
					<g>
						<rect x="360.417" y="141.473" style="fill:#E25D3A;" width="4.397" height="0.157"/>
					</g>
					<g>
						<rect x="360.315" y="142.688" style="fill:#E25D3A;" width="4.397" height="0.157"/>
					</g>
				</g>
			</g>
		</g>
	</g>
	<g>
		<g>
			<rect x="429.677" y="144.066" style="fill:#E25D3A;" width="1.777" height="6.281"/>
			<path style="fill:#E25D3A;" d="M431.511,150.464h-1.89v-6.514h1.89V150.464z M429.734,150.231h1.664v-6.048h-1.664V150.231z"/>
		</g>
		<g>
			<path style="fill:#E25D3A;" d="M429.695,142.751c0,0,0.854-2.7,2.035-2.704c1.138-0.004,2.035,2.704,2.035,2.704H429.695z"/>
			<path style="fill:#E25D3A;" d="M433.85,142.822h-4.238l0.03-0.098c0.035-0.112,0.883-2.744,2.088-2.749c0.001,0,0.002,0,0.002,0
				c1.162,0,2.048,2.635,2.085,2.748L433.85,142.822z M429.781,142.68h3.897c-0.174-0.482-0.981-2.562-1.946-2.562
				c0,0-0.001,0-0.002,0C430.726,140.122,429.947,142.201,429.781,142.68z"/>
		</g>
		<g>
			<g>
				<rect x="430.184" y="144.067" style="fill:#E25D3A;" width="0.124" height="6.281"/>
			</g>
			<g>
				<rect x="430.823" y="144.067" style="fill:#E25D3A;" width="0.124" height="6.281"/>
			</g>
		</g>
		<g>
			<rect x="429.677" y="143.939" style="fill:#E25D3A;" width="1.777" height="0.232"/>
		</g>
		<g>
			<rect x="429.677" y="147.077" style="fill:#E25D3A;" width="1.777" height="0.258"/>
		</g>
		<g>
			<rect x="429.677" y="150.219" style="fill:#E25D3A;" width="1.777" height="0.258"/>
		</g>
		<g>
			<rect x="431.987" y="144.066" style="fill:#E25D3A;" width="1.777" height="6.281"/>
			<path style="fill:#E25D3A;" d="M433.821,150.464h-1.89v-6.514h1.89V150.464z M432.044,150.231h1.664v-6.048h-1.664V150.231z"/>
		</g>
		<g>
			<g>
				<rect x="432.494" y="144.067" style="fill:#E25D3A;" width="0.124" height="6.281"/>
			</g>
			<g>
				<rect x="433.134" y="144.067" style="fill:#E25D3A;" width="0.124" height="6.281"/>
			</g>
		</g>
		<g>
			<rect x="431.987" y="143.939" style="fill:#E25D3A;" width="1.777" height="0.232"/>
		</g>
		<g>
			<rect x="431.987" y="147.077" style="fill:#E25D3A;" width="1.777" height="0.258"/>
		</g>
		<g>
			<rect x="431.987" y="150.219" style="fill:#E25D3A;" width="1.777" height="0.258"/>
		</g>
		<g>
			<rect x="431.987" y="151.517" style="fill:#E25D3A;" width="1.777" height="6.281"/>
			<path style="fill:#E25D3A;" d="M433.821,157.915h-1.89v-6.514h1.89V157.915z M432.044,157.682h1.664v-6.048h-1.664V157.682z"/>
		</g>
		<g>
			<g>
				<rect x="432.494" y="151.517" style="fill:#E25D3A;" width="0.124" height="6.281"/>
			</g>
			<g>
				<rect x="433.134" y="151.517" style="fill:#E25D3A;" width="0.124" height="6.281"/>
			</g>
		</g>
		<g>
			<rect x="431.987" y="151.388" style="fill:#E25D3A;" width="1.777" height="0.258"/>
		</g>
		<g>
			<rect x="431.987" y="154.528" style="fill:#E25D3A;" width="1.777" height="0.258"/>
		</g>
		<g>
			<rect x="431.987" y="157.669" style="fill:#E25D3A;" width="1.777" height="0.258"/>
		</g>
		<g>
			<rect x="429.677" y="151.517" style="fill:#E25D3A;" width="1.777" height="6.281"/>
			<path style="fill:#E25D3A;" d="M431.511,157.915h-1.89v-6.514h1.89V157.915z M429.734,157.682h1.664v-6.048h-1.664V157.682z"/>
		</g>
		<g>
			<g>
				<rect x="430.184" y="151.517" style="fill:#E25D3A;" width="0.124" height="6.281"/>
			</g>
			<g>
				<rect x="430.823" y="151.517" style="fill:#E25D3A;" width="0.124" height="6.281"/>
			</g>
		</g>
		<g>
			<rect x="429.677" y="151.388" style="fill:#E25D3A;" width="1.777" height="0.258"/>
		</g>
		<g>
			<rect x="429.677" y="154.528" style="fill:#E25D3A;" width="1.777" height="0.258"/>
		</g>
		<g>
			<rect x="429.677" y="157.669" style="fill:#E25D3A;" width="1.777" height="0.258"/>
		</g>
		<g>
			<defs>
				<path id="SVGID_61_" d="M429.695,142.751c0,0,0.854-2.7,2.035-2.704c1.138-0.004,2.035,2.704,2.035,2.704H429.695z"/>
			</defs>
			<use xlink:href="#SVGID_61_"  style="overflow:visible;fill:#E25D3A;"/>
			<clipPath id="SVGID_8_">
				<use xlink:href="#SVGID_61_"  style="overflow:visible;"/>
			</clipPath>
			<g style="clip-path:url(#SVGID_8_);">
				<g>
					<g>
						<rect x="430.167" y="138.889" style="fill:#E25D3A;" width="0.124" height="3.831"/>
					</g>
					<g>
						<rect x="430.788" y="138.889" style="fill:#E25D3A;" width="0.124" height="3.831"/>
					</g>
				</g>
				<g>
					<g>
						<rect x="431.357" y="138.889" style="fill:#E25D3A;" width="0.124" height="3.831"/>
					</g>
					<g>
						<rect x="431.977" y="138.889" style="fill:#E25D3A;" width="0.124" height="3.831"/>
					</g>
				</g>
				<g>
					<g>
						<rect x="432.547" y="138.889" style="fill:#E25D3A;" width="0.124" height="3.831"/>
					</g>
					<g>
						<rect x="433.168" y="138.889" style="fill:#E25D3A;" width="0.124" height="3.831"/>
					</g>
				</g>
			</g>
			<g style="clip-path:url(#SVGID_8_);">
				<g>
					<g>
						<rect x="429.686" y="140.349" style="fill:#E25D3A;" width="4.397" height="0.157"/>
					</g>
				</g>
				<g>
					<g>
						<rect x="429.789" y="141.473" style="fill:#E25D3A;" width="4.397" height="0.157"/>
					</g>
					<g>
						<rect x="429.686" y="142.688" style="fill:#E25D3A;" width="4.397" height="0.157"/>
					</g>
				</g>
			</g>
		</g>
	</g>
	<g>
		<g>
			<rect x="422.614" y="144.066" style="fill:#E25D3A;" width="1.777" height="6.281"/>
			<path style="fill:#E25D3A;" d="M424.447,150.464h-1.89v-6.514h1.89V150.464z M422.67,150.231h1.664v-6.048h-1.664V150.231z"/>
		</g>
		<g>
			<path style="fill:#E25D3A;" d="M422.631,142.751c0,0,0.854-2.7,2.035-2.704c1.138-0.004,2.035,2.704,2.035,2.704H422.631z"/>
			<path style="fill:#E25D3A;" d="M426.786,142.822h-4.238l0.03-0.098c0.035-0.112,0.883-2.744,2.088-2.749c0.001,0,0.002,0,0.002,0
				c1.162,0,2.048,2.635,2.085,2.748L426.786,142.822z M422.717,142.68h3.897c-0.174-0.482-0.981-2.562-1.946-2.562
				c0,0-0.001,0-0.002,0C423.662,140.122,422.884,142.201,422.717,142.68z"/>
		</g>
		<g>
			<g>
				<rect x="423.12" y="144.067" style="fill:#E25D3A;" width="0.124" height="6.281"/>
			</g>
			<g>
				<rect x="423.76" y="144.067" style="fill:#E25D3A;" width="0.124" height="6.281"/>
			</g>
		</g>
		<g>
			<rect x="422.614" y="143.939" style="fill:#E25D3A;" width="1.777" height="0.232"/>
		</g>
		<g>
			<rect x="422.614" y="147.077" style="fill:#E25D3A;" width="1.777" height="0.258"/>
		</g>
		<g>
			<rect x="422.614" y="150.219" style="fill:#E25D3A;" width="1.777" height="0.258"/>
		</g>
		<g>
			<rect x="424.924" y="144.066" style="fill:#E25D3A;" width="1.777" height="6.281"/>
			<path style="fill:#E25D3A;" d="M426.758,150.464h-1.89v-6.514h1.89V150.464z M424.98,150.231h1.664v-6.048h-1.664V150.231z"/>
		</g>
		<g>
			<g>
				<rect x="425.43" y="144.067" style="fill:#E25D3A;" width="0.124" height="6.281"/>
			</g>
			<g>
				<rect x="426.07" y="144.067" style="fill:#E25D3A;" width="0.124" height="6.281"/>
			</g>
		</g>
		<g>
			<rect x="424.924" y="143.939" style="fill:#E25D3A;" width="1.777" height="0.232"/>
		</g>
		<g>
			<rect x="424.924" y="147.077" style="fill:#E25D3A;" width="1.777" height="0.258"/>
		</g>
		<g>
			<rect x="424.924" y="150.219" style="fill:#E25D3A;" width="1.777" height="0.258"/>
		</g>
		<g>
			<rect x="424.924" y="151.517" style="fill:#E25D3A;" width="1.777" height="6.281"/>
			<path style="fill:#E25D3A;" d="M426.758,157.915h-1.89v-6.514h1.89V157.915z M424.98,157.682h1.664v-6.048h-1.664V157.682z"/>
		</g>
		<g>
			<g>
				<rect x="425.43" y="151.517" style="fill:#E25D3A;" width="0.124" height="6.281"/>
			</g>
			<g>
				<rect x="426.07" y="151.517" style="fill:#E25D3A;" width="0.124" height="6.281"/>
			</g>
		</g>
		<g>
			<rect x="424.924" y="151.388" style="fill:#E25D3A;" width="1.777" height="0.258"/>
		</g>
		<g>
			<rect x="424.924" y="154.528" style="fill:#E25D3A;" width="1.777" height="0.258"/>
		</g>
		<g>
			<rect x="424.924" y="157.669" style="fill:#E25D3A;" width="1.777" height="0.258"/>
		</g>
		<g>
			<rect x="422.614" y="151.517" style="fill:#E25D3A;" width="1.777" height="6.281"/>
			<path style="fill:#E25D3A;" d="M424.447,157.915h-1.89v-6.514h1.89V157.915z M422.67,157.682h1.664v-6.048h-1.664V157.682z"/>
		</g>
		<g>
			<g>
				<rect x="423.12" y="151.517" style="fill:#E25D3A;" width="0.124" height="6.281"/>
			</g>
			<g>
				<rect x="423.76" y="151.517" style="fill:#E25D3A;" width="0.124" height="6.281"/>
			</g>
		</g>
		<g>
			<rect x="422.614" y="151.388" style="fill:#E25D3A;" width="1.777" height="0.258"/>
		</g>
		<g>
			<rect x="422.614" y="154.528" style="fill:#E25D3A;" width="1.777" height="0.258"/>
		</g>
		<g>
			<rect x="422.614" y="157.669" style="fill:#E25D3A;" width="1.777" height="0.258"/>
		</g>
	</g>
	<g>
		<g>
			<rect x="443.805" y="144.066" style="fill:#E25D3A;" width="1.777" height="6.281"/>
			<path style="fill:#E25D3A;" d="M445.638,150.464h-1.89v-6.514h1.89V150.464z M443.861,150.231h1.664v-6.048h-1.664V150.231z"/>
		</g>
		<g>
			<path style="fill:#E25D3A;" d="M443.822,142.751c0,0,0.854-2.7,2.035-2.704c1.138-0.004,2.035,2.704,2.035,2.704H443.822z"/>
			<path style="fill:#E25D3A;" d="M447.977,142.822h-4.238l0.03-0.098c0.036-0.112,0.883-2.744,2.088-2.749c0.001,0,0.002,0,0.002,0
				c1.162,0,2.048,2.635,2.085,2.748L447.977,142.822z M443.908,142.68h3.897c-0.174-0.482-0.981-2.562-1.946-2.562
				c0,0-0.001,0-0.002,0C444.853,140.122,444.074,142.201,443.908,142.68z"/>
		</g>
		<g>
			<g>
				<rect x="444.311" y="144.067" style="fill:#E25D3A;" width="0.124" height="6.281"/>
			</g>
			<g>
				<rect x="444.951" y="144.067" style="fill:#E25D3A;" width="0.124" height="6.281"/>
			</g>
		</g>
		<g>
			<rect x="443.805" y="143.939" style="fill:#E25D3A;" width="1.777" height="0.232"/>
		</g>
		<g>
			<rect x="443.805" y="147.077" style="fill:#E25D3A;" width="1.777" height="0.258"/>
		</g>
		<g>
			<rect x="443.805" y="150.219" style="fill:#E25D3A;" width="1.777" height="0.258"/>
		</g>
		<g>
			<rect x="446.115" y="144.066" style="fill:#E25D3A;" width="1.777" height="6.281"/>
			<path style="fill:#E25D3A;" d="M447.948,150.464h-1.89v-6.514h1.89V150.464z M446.171,150.231h1.664v-6.048h-1.664V150.231z"/>
		</g>
		<g>
			<g>
				<rect x="446.621" y="144.067" style="fill:#E25D3A;" width="0.124" height="6.281"/>
			</g>
			<g>
				<rect x="447.261" y="144.067" style="fill:#E25D3A;" width="0.124" height="6.281"/>
			</g>
		</g>
		<g>
			<rect x="446.115" y="143.939" style="fill:#E25D3A;" width="1.777" height="0.232"/>
		</g>
		<g>
			<rect x="446.115" y="147.077" style="fill:#E25D3A;" width="1.777" height="0.258"/>
		</g>
		<g>
			<rect x="446.115" y="150.219" style="fill:#E25D3A;" width="1.777" height="0.258"/>
		</g>
		<g>
			<rect x="446.115" y="151.517" style="fill:#E25D3A;" width="1.777" height="6.281"/>
			<path style="fill:#E25D3A;" d="M447.948,157.915h-1.89v-6.514h1.89V157.915z M446.171,157.682h1.664v-6.048h-1.664V157.682z"/>
		</g>
		<g>
			<g>
				<rect x="446.621" y="151.517" style="fill:#E25D3A;" width="0.124" height="6.281"/>
			</g>
			<g>
				<rect x="447.261" y="151.517" style="fill:#E25D3A;" width="0.124" height="6.281"/>
			</g>
		</g>
		<g>
			<rect x="446.115" y="151.388" style="fill:#E25D3A;" width="1.777" height="0.258"/>
		</g>
		<g>
			<rect x="446.115" y="154.528" style="fill:#E25D3A;" width="1.777" height="0.258"/>
		</g>
		<g>
			<rect x="446.115" y="157.669" style="fill:#E25D3A;" width="1.777" height="0.258"/>
		</g>
		<g>
			<rect x="443.805" y="151.517" style="fill:#E25D3A;" width="1.777" height="6.281"/>
			<path style="fill:#E25D3A;" d="M445.638,157.915h-1.89v-6.514h1.89V157.915z M443.861,157.682h1.664v-6.048h-1.664V157.682z"/>
		</g>
		<g>
			<g>
				<rect x="444.311" y="151.517" style="fill:#E25D3A;" width="0.124" height="6.281"/>
			</g>
			<g>
				<rect x="444.951" y="151.517" style="fill:#E25D3A;" width="0.124" height="6.281"/>
			</g>
		</g>
		<g>
			<rect x="443.805" y="151.388" style="fill:#E25D3A;" width="1.777" height="0.258"/>
		</g>
		<g>
			<rect x="443.805" y="154.528" style="fill:#E25D3A;" width="1.777" height="0.258"/>
		</g>
		<g>
			<rect x="443.805" y="157.669" style="fill:#E25D3A;" width="1.777" height="0.258"/>
		</g>
		<g>
			<defs>
				<path id="SVGID_63_" d="M443.822,142.751c0,0,0.854-2.7,2.035-2.704c1.138-0.004,2.035,2.704,2.035,2.704H443.822z"/>
			</defs>
			<use xlink:href="#SVGID_63_"  style="overflow:visible;fill:#E25D3A;"/>
			<clipPath id="SVGID_10_">
				<use xlink:href="#SVGID_63_"  style="overflow:visible;"/>
			</clipPath>
			<g style="clip-path:url(#SVGID_10_);">
				<g>
					<g>
						<rect x="444.294" y="138.889" style="fill:#E25D3A;" width="0.124" height="3.831"/>
					</g>
					<g>
						<rect x="444.915" y="138.889" style="fill:#E25D3A;" width="0.124" height="3.831"/>
					</g>
				</g>
				<g>
					<g>
						<rect x="445.484" y="138.889" style="fill:#E25D3A;" width="0.124" height="3.831"/>
					</g>
					<g>
						<rect x="446.105" y="138.889" style="fill:#E25D3A;" width="0.124" height="3.831"/>
					</g>
				</g>
				<g>
					<g>
						<rect x="446.675" y="138.889" style="fill:#E25D3A;" width="0.124" height="3.831"/>
					</g>
					<g>
						<rect x="447.295" y="138.889" style="fill:#E25D3A;" width="0.124" height="3.831"/>
					</g>
				</g>
			</g>
			<g style="clip-path:url(#SVGID_10_);">
				<g>
					<g>
						<rect x="443.813" y="140.349" style="fill:#E25D3A;" width="4.397" height="0.157"/>
					</g>
				</g>
				<g>
					<g>
						<rect x="443.916" y="141.473" style="fill:#E25D3A;" width="4.397" height="0.157"/>
					</g>
					<g>
						<rect x="443.813" y="142.688" style="fill:#E25D3A;" width="4.397" height="0.157"/>
					</g>
				</g>
			</g>
		</g>
	</g>
	<g>
		<g>
			<rect x="436.741" y="144.066" style="fill:#E25D3A;" width="1.777" height="6.281"/>
			<path style="fill:#E25D3A;" d="M438.575,150.464h-1.89v-6.514h1.89V150.464z M436.798,150.231h1.664v-6.048h-1.664V150.231z"/>
		</g>
		<g>
			<path style="fill:#E25D3A;" d="M436.758,142.751c0,0,0.854-2.7,2.035-2.704c1.138-0.004,2.035,2.704,2.035,2.704H436.758z"/>
			<path style="fill:#E25D3A;" d="M440.914,142.822h-4.238l0.03-0.098c0.035-0.112,0.883-2.744,2.088-2.749c0.001,0,0.002,0,0.002,0
				c1.162,0,2.048,2.635,2.085,2.748L440.914,142.822z M436.844,142.68h3.897c-0.174-0.482-0.981-2.562-1.946-2.562
				c0,0-0.001,0-0.002,0C437.789,140.122,437.011,142.201,436.844,142.68z"/>
		</g>
		<g>
			<g>
				<rect x="437.247" y="144.067" style="fill:#E25D3A;" width="0.124" height="6.281"/>
			</g>
			<g>
				<rect x="437.887" y="144.067" style="fill:#E25D3A;" width="0.124" height="6.281"/>
			</g>
		</g>
		<g>
			<rect x="436.741" y="143.939" style="fill:#E25D3A;" width="1.777" height="0.232"/>
		</g>
		<g>
			<rect x="436.741" y="147.077" style="fill:#E25D3A;" width="1.777" height="0.258"/>
		</g>
		<g>
			<rect x="436.741" y="150.219" style="fill:#E25D3A;" width="1.777" height="0.258"/>
		</g>
		<g>
			<rect x="439.051" y="144.066" style="fill:#E25D3A;" width="1.777" height="6.281"/>
			<path style="fill:#E25D3A;" d="M440.885,150.464h-1.89v-6.514h1.89V150.464z M439.108,150.231h1.664v-6.048h-1.664V150.231z"/>
		</g>
		<g>
			<g>
				<rect x="439.558" y="144.067" style="fill:#E25D3A;" width="0.124" height="6.281"/>
			</g>
			<g>
				<rect x="440.197" y="144.067" style="fill:#E25D3A;" width="0.124" height="6.281"/>
			</g>
		</g>
		<g>
			<rect x="439.051" y="143.939" style="fill:#E25D3A;" width="1.777" height="0.232"/>
		</g>
		<g>
			<rect x="439.051" y="147.077" style="fill:#E25D3A;" width="1.777" height="0.258"/>
		</g>
		<g>
			<rect x="439.051" y="150.219" style="fill:#E25D3A;" width="1.777" height="0.258"/>
		</g>
		<g>
			<rect x="439.051" y="151.517" style="fill:#E25D3A;" width="1.777" height="6.281"/>
			<path style="fill:#E25D3A;" d="M440.885,157.915h-1.89v-6.514h1.89V157.915z M439.108,157.682h1.664v-6.048h-1.664V157.682z"/>
		</g>
		<g>
			<g>
				<rect x="439.558" y="151.517" style="fill:#E25D3A;" width="0.124" height="6.281"/>
			</g>
			<g>
				<rect x="440.197" y="151.517" style="fill:#E25D3A;" width="0.124" height="6.281"/>
			</g>
		</g>
		<g>
			<rect x="439.051" y="151.388" style="fill:#E25D3A;" width="1.777" height="0.258"/>
		</g>
		<g>
			<rect x="439.051" y="154.528" style="fill:#E25D3A;" width="1.777" height="0.258"/>
		</g>
		<g>
			<rect x="439.051" y="157.669" style="fill:#E25D3A;" width="1.777" height="0.258"/>
		</g>
		<g>
			<rect x="436.741" y="151.517" style="fill:#E25D3A;" width="1.777" height="6.281"/>
			<path style="fill:#E25D3A;" d="M438.575,157.915h-1.89v-6.514h1.89V157.915z M436.798,157.682h1.664v-6.048h-1.664V157.682z"/>
		</g>
		<g>
			<g>
				<rect x="437.247" y="151.517" style="fill:#E25D3A;" width="0.124" height="6.281"/>
			</g>
			<g>
				<rect x="437.887" y="151.517" style="fill:#E25D3A;" width="0.124" height="6.281"/>
			</g>
		</g>
		<g>
			<rect x="436.741" y="151.388" style="fill:#E25D3A;" width="1.777" height="0.258"/>
		</g>
		<g>
			<rect x="436.741" y="154.528" style="fill:#E25D3A;" width="1.777" height="0.258"/>
		</g>
		<g>
			<rect x="436.741" y="157.669" style="fill:#E25D3A;" width="1.777" height="0.258"/>
		</g>
		<g>
			<defs>
				<path id="SVGID_65_" d="M436.758,142.751c0,0,0.854-2.7,2.035-2.704c1.138-0.004,2.035,2.704,2.035,2.704H436.758z"/>
			</defs>
			<use xlink:href="#SVGID_65_"  style="overflow:visible;fill:#E25D3A;"/>
			<clipPath id="SVGID_12_">
				<use xlink:href="#SVGID_65_"  style="overflow:visible;"/>
			</clipPath>
			<g style="clip-path:url(#SVGID_12_);">
				<g>
					<g>
						<rect x="437.231" y="138.889" style="fill:#E25D3A;" width="0.124" height="3.831"/>
					</g>
					<g>
						<rect x="437.852" y="138.889" style="fill:#E25D3A;" width="0.124" height="3.831"/>
					</g>
				</g>
				<g>
					<g>
						<rect x="438.42" y="138.889" style="fill:#E25D3A;" width="0.124" height="3.831"/>
					</g>
					<g>
						<rect x="439.041" y="138.889" style="fill:#E25D3A;" width="0.124" height="3.831"/>
					</g>
				</g>
				<g>
					<g>
						<rect x="439.611" y="138.889" style="fill:#E25D3A;" width="0.124" height="3.831"/>
					</g>
					<g>
						<rect x="440.232" y="138.889" style="fill:#E25D3A;" width="0.124" height="3.831"/>
					</g>
				</g>
			</g>
			<g style="clip-path:url(#SVGID_12_);">
				<g>
					<g>
						<rect x="436.75" y="140.349" style="fill:#E25D3A;" width="4.397" height="0.157"/>
					</g>
				</g>
				<g>
					<g>
						<rect x="436.853" y="141.473" style="fill:#E25D3A;" width="4.397" height="0.157"/>
					</g>
					<g>
						<rect x="436.75" y="142.688" style="fill:#E25D3A;" width="4.397" height="0.157"/>
					</g>
				</g>
			</g>
		</g>
	</g>
	<g>
		<g>
			<rect x="393.783" y="135.06" style="fill:#E2795D;" width="3.083" height="10.896"/>
			<path style="fill:#E2795D;" d="M396.964,146.158h-3.279v-11.3h3.279V146.158z M393.881,145.754h2.886v-10.492h-2.886V145.754z"/>
		</g>
		<g>
			<g>
				<rect x="394.662" y="135.06" style="fill:#E2795D;" width="0.216" height="10.896"/>
			</g>
			<g>
				<rect x="395.772" y="135.06" style="fill:#E2795D;" width="0.216" height="10.896"/>
			</g>
		</g>
		<g>
			<rect x="393.783" y="134.838" style="fill:#E2795D;" width="3.083" height="0.403"/>
		</g>
		<g>
			<rect x="393.783" y="140.283" style="fill:#E2795D;" width="3.083" height="0.447"/>
		</g>
		<g>
			<rect x="393.783" y="145.732" style="fill:#E2795D;" width="3.083" height="0.447"/>
		</g>
		<g>
			<rect x="397.791" y="135.06" style="fill:#E2795D;" width="3.083" height="10.896"/>
			<path style="fill:#E2795D;" d="M400.972,146.158h-3.279v-11.3h3.279V146.158z M397.889,145.754h2.886v-10.492h-2.886V145.754z"/>
		</g>
		<g>
			<g>
				<rect x="398.669" y="135.06" style="fill:#E2795D;" width="0.216" height="10.896"/>
			</g>
			<g>
				<rect x="399.779" y="135.06" style="fill:#E2795D;" width="0.216" height="10.896"/>
			</g>
		</g>
		<g>
			<rect x="397.791" y="134.838" style="fill:#E2795D;" width="3.083" height="0.403"/>
		</g>
		<g>
			<rect x="397.791" y="140.283" style="fill:#E2795D;" width="3.083" height="0.447"/>
		</g>
		<g>
			<rect x="397.791" y="145.732" style="fill:#E2795D;" width="3.083" height="0.447"/>
		</g>
		<g>
			<rect x="397.791" y="147.985" style="fill:#E2795D;" width="3.083" height="10.896"/>
			<path style="fill:#E2795D;" d="M400.972,159.083h-3.279v-11.3h3.279V159.083z M397.889,158.679h2.886v-10.492h-2.886V158.679z"/>
		</g>
		<g>
			<g>
				<rect x="398.669" y="147.985" style="fill:#E2795D;" width="0.216" height="10.896"/>
			</g>
			<g>
				<rect x="399.779" y="147.985" style="fill:#E2795D;" width="0.216" height="10.896"/>
			</g>
		</g>
		<g>
			<rect x="397.791" y="147.762" style="fill:#E2795D;" width="3.083" height="0.447"/>
		</g>
		<g>
			<rect x="397.791" y="153.208" style="fill:#E2795D;" width="3.083" height="0.447"/>
		</g>
		<g>
			<rect x="397.791" y="158.657" style="fill:#E2795D;" width="3.083" height="0.447"/>
		</g>
		<g>
			<rect x="393.783" y="147.985" style="fill:#E2795D;" width="3.083" height="10.896"/>
			<path style="fill:#E2795D;" d="M396.964,159.083h-3.279v-11.3h3.279V159.083z M393.881,158.679h2.886v-10.492h-2.886V158.679z"/>
		</g>
		<g>
			<g>
				<rect x="394.662" y="147.985" style="fill:#E2795D;" width="0.216" height="10.896"/>
			</g>
			<g>
				<rect x="395.772" y="147.985" style="fill:#E2795D;" width="0.216" height="10.896"/>
			</g>
		</g>
		<g>
			<rect x="393.783" y="147.762" style="fill:#E2795D;" width="3.083" height="0.447"/>
		</g>
		<g>
			<rect x="393.783" y="153.208" style="fill:#E2795D;" width="3.083" height="0.447"/>
		</g>
		<g>
			<rect x="393.783" y="158.657" style="fill:#E2795D;" width="3.083" height="0.447"/>
		</g>
		<g>
			<defs>
				<path id="SVGID_67_" d="M393.813,133.857c0,0,1.482-4.684,3.53-4.691c1.974-0.007,3.53,4.691,3.53,4.691H393.813z"/>
			</defs>
			<use xlink:href="#SVGID_67_"  style="overflow:visible;fill:#E2795D;"/>
			<clipPath id="SVGID_14_">
				<use xlink:href="#SVGID_67_"  style="overflow:visible;"/>
			</clipPath>
			<g style="clip-path:url(#SVGID_14_);">
				<g>
					<g>
						<rect x="394.633" y="127.158" style="fill:#E2795D;" width="0.216" height="6.646"/>
					</g>
					<g>
						<rect x="395.71" y="127.158" style="fill:#E2795D;" width="0.216" height="6.646"/>
					</g>
				</g>
				<g>
					<g>
						<rect x="396.696" y="127.158" style="fill:#E2795D;" width="0.216" height="6.646"/>
					</g>
					<g>
						<rect x="397.773" y="127.158" style="fill:#E2795D;" width="0.216" height="6.646"/>
					</g>
				</g>
				<g>
					<g>
						<rect x="398.762" y="127.158" style="fill:#E2795D;" width="0.216" height="6.646"/>
					</g>
					<g>
						<rect x="399.839" y="127.158" style="fill:#E2795D;" width="0.216" height="6.646"/>
					</g>
				</g>
			</g>
			<g style="clip-path:url(#SVGID_14_);">
				<g>
					<g>
						<rect x="393.799" y="129.689" style="fill:#E2795D;" width="7.628" height="0.273"/>
					</g>
				</g>
				<g>
					<g>
						<rect x="393.977" y="131.641" style="fill:#E2795D;" width="7.628" height="0.273"/>
					</g>
					<g>
						<rect x="393.799" y="133.747" style="fill:#E2795D;" width="7.628" height="0.273"/>
					</g>
				</g>
			</g>
		</g>
	</g>
	<g>
		<g>
			<rect x="384.623" y="145.333" style="fill:#E2795D;" width="1.777" height="6.281"/>
			<path style="fill:#E2795D;" d="M386.456,151.731h-1.89v-6.514h1.89V151.731z M384.679,151.498h1.664v-6.048h-1.664V151.498z"/>
		</g>
		<g>
			<path style="fill:#E2795D;" d="M384.639,144.579c0,0,0.854-2.7,2.035-2.704c1.138-0.004,2.035,2.704,2.035,2.704H384.639z"/>
			<path style="fill:#E2795D;" d="M388.794,144.65h-4.238l0.03-0.098c0.035-0.112,0.883-2.745,2.088-2.749c0.001,0,0.002,0,0.002,0
				c1.162,0,2.048,2.635,2.085,2.748L388.794,144.65z M384.724,144.508h3.897c-0.174-0.482-0.981-2.562-1.946-2.562
				c0,0-0.001,0-0.002,0C385.67,141.949,384.891,144.028,384.724,144.508z"/>
		</g>
		<g>
			<g>
				<rect x="385.129" y="145.333" style="fill:#E2795D;" width="0.124" height="6.281"/>
			</g>
			<g>
				<rect x="385.769" y="145.333" style="fill:#E2795D;" width="0.124" height="6.281"/>
			</g>
		</g>
		<g>
			<rect x="384.623" y="145.206" style="fill:#E2795D;" width="1.777" height="0.232"/>
		</g>
		<g>
			<rect x="384.623" y="148.344" style="fill:#E2795D;" width="1.777" height="0.258"/>
		</g>
		<g>
			<rect x="384.623" y="151.485" style="fill:#E2795D;" width="1.777" height="0.258"/>
		</g>
		<g>
			<rect x="386.933" y="145.333" style="fill:#E2795D;" width="1.777" height="6.281"/>
			<path style="fill:#E2795D;" d="M388.767,151.731h-1.89v-6.514h1.89V151.731z M386.99,151.498h1.664v-6.048h-1.664V151.498z"/>
		</g>
		<g>
			<g>
				<rect x="387.439" y="145.333" style="fill:#E2795D;" width="0.124" height="6.281"/>
			</g>
			<g>
				<rect x="388.079" y="145.333" style="fill:#E2795D;" width="0.124" height="6.281"/>
			</g>
		</g>
		<g>
			<rect x="386.933" y="145.206" style="fill:#E2795D;" width="1.777" height="0.232"/>
		</g>
		<g>
			<rect x="386.933" y="148.344" style="fill:#E2795D;" width="1.777" height="0.258"/>
		</g>
		<g>
			<rect x="386.933" y="151.485" style="fill:#E2795D;" width="1.777" height="0.258"/>
		</g>
		<g>
			<rect x="386.933" y="152.784" style="fill:#E2795D;" width="1.777" height="6.281"/>
			<path style="fill:#E2795D;" d="M388.767,159.182h-1.89v-6.514h1.89V159.182z M386.99,158.949h1.664v-6.048h-1.664V158.949z"/>
		</g>
		<g>
			<g>
				<rect x="387.439" y="152.784" style="fill:#E2795D;" width="0.124" height="6.281"/>
			</g>
			<g>
				<rect x="388.079" y="152.784" style="fill:#E2795D;" width="0.124" height="6.281"/>
			</g>
		</g>
		<g>
			<rect x="386.933" y="152.655" style="fill:#E2795D;" width="1.777" height="0.258"/>
		</g>
		<g>
			<rect x="386.933" y="155.795" style="fill:#E2795D;" width="1.777" height="0.258"/>
		</g>
		<g>
			<rect x="386.933" y="158.936" style="fill:#E2795D;" width="1.777" height="0.258"/>
		</g>
		<g>
			<rect x="384.623" y="152.784" style="fill:#E2795D;" width="1.777" height="6.281"/>
			<path style="fill:#E2795D;" d="M386.456,159.182h-1.89v-6.514h1.89V159.182z M384.679,158.949h1.664v-6.048h-1.664V158.949z"/>
		</g>
		<g>
			<g>
				<rect x="385.129" y="152.784" style="fill:#E2795D;" width="0.124" height="6.281"/>
			</g>
			<g>
				<rect x="385.769" y="152.784" style="fill:#E2795D;" width="0.124" height="6.281"/>
			</g>
		</g>
		<g>
			<rect x="384.623" y="152.655" style="fill:#E2795D;" width="1.777" height="0.258"/>
		</g>
		<g>
			<rect x="384.623" y="155.795" style="fill:#E2795D;" width="1.777" height="0.258"/>
		</g>
		<g>
			<rect x="384.623" y="158.936" style="fill:#E2795D;" width="1.777" height="0.258"/>
		</g>
	</g>
	<g>
		<g>
			<rect x="405.761" y="145.333" style="fill:#E2795D;" width="1.777" height="6.281"/>
			<path style="fill:#E2795D;" d="M407.594,151.731h-1.89v-6.514h1.89V151.731z M405.817,151.498h1.664v-6.048h-1.664V151.498z"/>
		</g>
		<g>
			<path style="fill:#E2795D;" d="M405.778,144.557c0,0,0.854-2.7,2.035-2.704c1.138-0.004,2.035,2.704,2.035,2.704H405.778z"/>
			<path style="fill:#E2795D;" d="M409.933,144.629h-4.238l0.03-0.097c0.035-0.112,0.883-2.745,2.088-2.749c0.001,0,0.002,0,0.002,0
				c1.162,0,2.048,2.635,2.085,2.748L409.933,144.629z M405.864,144.487h3.897c-0.174-0.482-0.981-2.562-1.946-2.562
				c0,0-0.001,0-0.002,0C406.809,141.928,406.031,144.007,405.864,144.487z"/>
		</g>
		<g>
			<g>
				<rect x="406.267" y="145.333" style="fill:#E2795D;" width="0.124" height="6.281"/>
			</g>
			<g>
				<rect x="406.907" y="145.333" style="fill:#E2795D;" width="0.124" height="6.281"/>
			</g>
		</g>
		<g>
			<rect x="405.761" y="145.206" style="fill:#E2795D;" width="1.777" height="0.232"/>
		</g>
		<g>
			<rect x="405.761" y="148.344" style="fill:#E2795D;" width="1.777" height="0.258"/>
		</g>
		<g>
			<rect x="405.761" y="151.485" style="fill:#E2795D;" width="1.777" height="0.258"/>
		</g>
		<g>
			<rect x="408.071" y="145.333" style="fill:#E2795D;" width="1.777" height="6.281"/>
			<path style="fill:#E2795D;" d="M409.905,151.731h-1.89v-6.514h1.89V151.731z M408.128,151.498h1.664v-6.048h-1.664V151.498z"/>
		</g>
		<g>
			<g>
				<rect x="408.577" y="145.333" style="fill:#E2795D;" width="0.124" height="6.281"/>
			</g>
			<g>
				<rect x="409.217" y="145.333" style="fill:#E2795D;" width="0.124" height="6.281"/>
			</g>
		</g>
		<g>
			<rect x="408.071" y="145.206" style="fill:#E2795D;" width="1.777" height="0.232"/>
		</g>
		<g>
			<rect x="408.071" y="148.344" style="fill:#E2795D;" width="1.777" height="0.258"/>
		</g>
		<g>
			<rect x="408.071" y="151.485" style="fill:#E2795D;" width="1.777" height="0.258"/>
		</g>
		<g>
			<rect x="408.071" y="152.784" style="fill:#E2795D;" width="1.777" height="6.281"/>
			<path style="fill:#E2795D;" d="M409.905,159.182h-1.89v-6.514h1.89V159.182z M408.128,158.949h1.664v-6.048h-1.664V158.949z"/>
		</g>
		<g>
			<g>
				<rect x="408.577" y="152.784" style="fill:#E2795D;" width="0.124" height="6.281"/>
			</g>
			<g>
				<rect x="409.217" y="152.784" style="fill:#E2795D;" width="0.124" height="6.281"/>
			</g>
		</g>
		<g>
			<rect x="408.071" y="152.655" style="fill:#E2795D;" width="1.777" height="0.258"/>
		</g>
		<g>
			<rect x="408.071" y="155.795" style="fill:#E2795D;" width="1.777" height="0.258"/>
		</g>
		<g>
			<rect x="408.071" y="158.936" style="fill:#E2795D;" width="1.777" height="0.258"/>
		</g>
		<g>
			<rect x="405.761" y="152.784" style="fill:#E2795D;" width="1.777" height="6.281"/>
			<path style="fill:#E2795D;" d="M407.594,159.182h-1.89v-6.514h1.89V159.182z M405.817,158.949h1.664v-6.048h-1.664V158.949z"/>
		</g>
		<g>
			<g>
				<rect x="406.267" y="152.784" style="fill:#E2795D;" width="0.124" height="6.281"/>
			</g>
			<g>
				<rect x="406.907" y="152.784" style="fill:#E2795D;" width="0.124" height="6.281"/>
			</g>
		</g>
		<g>
			<rect x="405.761" y="152.655" style="fill:#E2795D;" width="1.777" height="0.258"/>
		</g>
		<g>
			<rect x="405.761" y="155.795" style="fill:#E2795D;" width="1.777" height="0.258"/>
		</g>
		<g>
			<rect x="405.761" y="158.936" style="fill:#E2795D;" width="1.777" height="0.258"/>
		</g>
	</g>
	<path style="fill:#E2836A;" d="M381.412,157.511v4.252h32.62v-4.252H381.412z M384.008,160.325c0,0.297-0.243,0.54-0.539,0.54
		c-0.297,0-0.54-0.243-0.54-0.54v-1.376c0-0.297,0.243-0.54,0.54-0.54c0.297,0,0.539,0.243,0.539,0.54V160.325z M385.665,160.325
		c0,0.297-0.243,0.54-0.539,0.54c-0.297,0-0.539-0.243-0.539-0.54v-1.376c0-0.297,0.243-0.54,0.539-0.54
		c0.297,0,0.539,0.243,0.539,0.54V160.325z M388.896,160.325c0,0.297-0.243,0.54-0.54,0.54c-0.297,0-0.54-0.243-0.54-0.54v-1.376
		c0-0.297,0.243-0.54,0.54-0.54c0.297,0,0.54,0.243,0.54,0.54V160.325z M390.553,160.325c0,0.297-0.243,0.54-0.539,0.54
		c-0.297,0-0.539-0.243-0.539-0.54v-1.376c0-0.297,0.243-0.54,0.539-0.54c0.297,0,0.539,0.243,0.539,0.54V160.325z M393.931,160.325
		c0,0.297-0.243,0.54-0.54,0.54c-0.297,0-0.539-0.243-0.539-0.54v-1.376c0-0.297,0.243-0.54,0.539-0.54
		c0.297,0,0.54,0.243,0.54,0.54V160.325z M395.497,160.325c0,0.297-0.243,0.54-0.539,0.54c-0.297,0-0.54-0.243-0.54-0.54v-1.376
		c0-0.297,0.243-0.54,0.54-0.54c0.297,0,0.539,0.243,0.539,0.54V160.325z M397.062,160.325c0,0.297-0.243,0.54-0.54,0.54
		c-0.297,0-0.54-0.243-0.54-0.54v-1.376c0-0.297,0.243-0.54,0.54-0.54c0.297,0,0.54,0.243,0.54,0.54V160.325z M399.462,160.325
		c0,0.297-0.243,0.54-0.54,0.54c-0.297,0-0.539-0.243-0.539-0.54v-1.376c0-0.297,0.243-0.54,0.539-0.54
		c0.297,0,0.54,0.243,0.54,0.54V160.325z M401.027,160.325c0,0.297-0.243,0.54-0.54,0.54c-0.297,0-0.539-0.243-0.539-0.54v-1.376
		c0-0.297,0.243-0.54,0.539-0.54c0.297,0,0.54,0.243,0.54,0.54V160.325z M402.593,160.325c0,0.297-0.243,0.54-0.539,0.54
		c-0.297,0-0.54-0.243-0.54-0.54v-1.376c0-0.297,0.243-0.54,0.54-0.54c0.297,0,0.539,0.243,0.539,0.54V160.325z M405.971,160.325
		c0,0.297-0.243,0.54-0.539,0.54s-0.539-0.243-0.539-0.54v-1.376c0-0.297,0.243-0.54,0.539-0.54s0.539,0.243,0.539,0.54V160.325z
		 M407.627,160.325c0,0.297-0.243,0.54-0.54,0.54c-0.297,0-0.539-0.243-0.539-0.54v-1.376c0-0.297,0.243-0.54,0.539-0.54
		c0.297,0,0.54,0.243,0.54,0.54V160.325z M410.859,160.325c0,0.297-0.243,0.54-0.539,0.54c-0.297,0-0.54-0.243-0.54-0.54v-1.376
		c0-0.297,0.243-0.54,0.54-0.54c0.297,0,0.539,0.243,0.539,0.54V160.325z M412.516,160.325c0,0.297-0.243,0.54-0.54,0.54
		s-0.54-0.243-0.54-0.54v-1.376c0-0.297,0.243-0.54,0.54-0.54s0.54,0.243,0.54,0.54V160.325z"/>
	<rect x="382.747" y="161.763" style="fill:#E37254;" width="1.079" height="3.326"/>
	<rect x="392.311" y="161.763" style="fill:#E37254;" width="1.079" height="3.326"/>
	<rect x="401.874" y="161.763" style="fill:#E37254;" width="1.079" height="3.326"/>
	<rect x="411.437" y="161.763" style="fill:#E37254;" width="1.079" height="3.326"/>
	<rect x="387.529" y="161.763" style="fill:#E38065;" width="1.079" height="2.247"/>
	<rect x="397.092" y="161.763" style="fill:#E38065;" width="1.079" height="2.247"/>
	<rect x="406.655" y="161.763" style="fill:#E38065;" width="1.079" height="2.247"/>
	<g>
		<g>
			<rect x="407.708" y="171.202" style="fill:#E2795D;" width="1.777" height="5.879"/>
			<path style="fill:#E2795D;" d="M409.541,177.19h-1.89v-6.097h1.89V177.19z M407.764,176.972h1.664v-5.661h-1.664V176.972z"/>
		</g>
		<g>
			<path style="fill:#E2795D;" d="M407.725,170.016c0,0,0.854-2.7,2.035-2.704c1.138-0.004,2.035,2.704,2.035,2.704H407.725z"/>
			<path style="fill:#E2795D;" d="M411.88,170.088h-4.238l0.03-0.098c0.036-0.112,0.883-2.745,2.088-2.749c0.001,0,0.002,0,0.002,0
				c1.162,0,2.048,2.635,2.085,2.748L411.88,170.088z M407.811,169.946h3.897c-0.174-0.482-0.981-2.562-1.946-2.562
				c0,0-0.001,0-0.002,0C408.756,167.387,407.978,169.466,407.811,169.946z"/>
		</g>
		<g>
			<rect x="410.018" y="171.202" style="fill:#E2795D;" width="1.777" height="5.879"/>
			<path style="fill:#E2795D;" d="M411.852,177.19h-1.89v-6.097h1.89V177.19z M410.075,176.972h1.664v-5.661h-1.664V176.972z"/>
		</g>
	</g>
	<g>
		<g>
			<rect x="384.29" y="171.202" style="fill:#E2795D;" width="1.777" height="5.879"/>
			<path style="fill:#E2795D;" d="M386.123,177.19h-1.89v-6.097h1.89V177.19z M384.346,176.972h1.664v-5.661h-1.664V176.972z"/>
		</g>
		<g>
			<path style="fill:#E2795D;" d="M384.307,170.016c0,0,0.854-2.7,2.035-2.704c1.138-0.004,2.035,2.704,2.035,2.704H384.307z"/>
			<path style="fill:#E2795D;" d="M388.462,170.088h-4.238l0.03-0.097c0.035-0.112,0.883-2.745,2.088-2.749c0.001,0,0.002,0,0.002,0
				c1.162,0,2.048,2.635,2.085,2.748L388.462,170.088z M384.393,169.946h3.897c-0.174-0.482-0.981-2.562-1.946-2.562
				c0,0-0.001,0-0.002,0C385.338,167.387,384.559,169.466,384.393,169.946z"/>
		</g>
		<g>
			<rect x="386.6" y="171.202" style="fill:#E2795D;" width="1.777" height="5.879"/>
			<path style="fill:#E2795D;" d="M388.433,177.19h-1.89v-6.097h1.89V177.19z M386.656,176.972h1.664v-5.661h-1.664V176.972z"/>
		</g>
	</g>
	<g>
		<g>
			<g>
				<rect x="422.675" y="170.422" style="fill:#E25D3A;" width="3.976" height="6.281"/>
				<path style="fill:#E25D3A;" d="M426.778,176.82h-4.229v-6.514h4.229V176.82z M422.802,176.587h3.722v-6.048h-3.722V176.587z"/>
			</g>
			<g>
				<rect x="422.605" y="167.983" style="fill:#E25D3A;" width="1.777" height="1.824"/>
				<path style="fill:#E25D3A;" d="M424.438,169.841h-1.89v-1.892h1.89V169.841z M422.661,169.773h1.664v-1.757h-1.664V169.773z"/>
			</g>
			<g>
				<rect x="424.953" y="167.983" style="fill:#E25D3A;" width="1.777" height="1.824"/>
				<path style="fill:#E25D3A;" d="M426.786,169.841h-1.89v-1.892h1.89V169.841z M425.009,169.773h1.664v-1.757h-1.664V169.773z"/>
			</g>
			<g>
				<rect x="422.679" y="178.812" style="fill:#E25D3A;" width="3.976" height="3.847"/>
				<path style="fill:#E25D3A;" d="M426.782,182.731h-4.229v-3.99h4.229V182.731z M422.806,182.588h3.723v-3.705h-3.723V182.588z"/>
			</g>
		</g>
		<g>
			<rect x="429.738" y="170.422" style="fill:#E25D3A;" width="3.976" height="6.281"/>
			<path style="fill:#E25D3A;" d="M433.841,176.82h-4.229v-6.514h4.229V176.82z M429.865,176.587h3.723v-6.048h-3.723V176.587z"/>
		</g>
		<g>
			<rect x="429.668" y="167.983" style="fill:#E25D3A;" width="1.777" height="1.824"/>
			<path style="fill:#E25D3A;" d="M431.502,169.841h-1.89v-1.892h1.89V169.841z M429.725,169.773h1.664v-1.757h-1.664V169.773z"/>
		</g>
		<g>
			<rect x="432.016" y="167.983" style="fill:#E25D3A;" width="1.777" height="1.824"/>
			<path style="fill:#E25D3A;" d="M433.85,169.841h-1.89v-1.892h1.89V169.841z M432.073,169.773h1.664v-1.757h-1.664V169.773z"/>
		</g>
		<g>
			<rect x="429.743" y="178.812" style="fill:#E25D3A;" width="3.976" height="3.847"/>
			<path style="fill:#E25D3A;" d="M433.846,182.731h-4.23v-3.99h4.23V182.731z M429.87,182.588h3.723v-3.705h-3.723V182.588z"/>
		</g>
	</g>
	<g>
		<g>
			<rect x="436.802" y="170.422" style="fill:#E25D3A;" width="3.976" height="6.281"/>
			<path style="fill:#E25D3A;" d="M440.905,176.82h-4.229v-6.514h4.229V176.82z M436.929,176.587h3.723v-6.048h-3.723V176.587z"/>
		</g>
		<g>
			<rect x="436.732" y="167.983" style="fill:#E25D3A;" width="1.777" height="1.824"/>
			<path style="fill:#E25D3A;" d="M438.566,169.841h-1.89v-1.892h1.89V169.841z M436.789,169.773h1.664v-1.757h-1.664V169.773z"/>
		</g>
		<g>
			<rect x="439.08" y="167.983" style="fill:#E25D3A;" width="1.777" height="1.824"/>
			<path style="fill:#E25D3A;" d="M440.914,169.841h-1.89v-1.892h1.89V169.841z M439.137,169.773h1.664v-1.757h-1.664V169.773z"/>
		</g>
		<g>
			<rect x="436.807" y="178.812" style="fill:#E25D3A;" width="3.976" height="3.847"/>
			<path style="fill:#E25D3A;" d="M440.909,182.731h-4.229v-3.99h4.229V182.731z M436.933,182.588h3.723v-3.705h-3.723V182.588z"/>
		</g>
	</g>
	<g>
		<g>
			<rect x="443.694" y="170.422" style="fill:#E25D3A;" width="3.976" height="6.281"/>
			<path style="fill:#E25D3A;" d="M447.796,176.82h-4.229v-6.514h4.229V176.82z M443.82,176.587h3.722v-6.048h-3.722V176.587z"/>
		</g>
		<g>
			<rect x="443.623" y="167.983" style="fill:#E25D3A;" width="1.777" height="1.824"/>
			<path style="fill:#E25D3A;" d="M445.457,169.841h-1.89v-1.892h1.89V169.841z M443.68,169.773h1.664v-1.757h-1.664V169.773z"/>
		</g>
		<g>
			<rect x="445.971" y="167.983" style="fill:#E25D3A;" width="1.777" height="1.824"/>
			<path style="fill:#E25D3A;" d="M447.805,169.841h-1.89v-1.892h1.89V169.841z M446.028,169.773h1.664v-1.757h-1.664V169.773z"/>
		</g>
		<g>
			<rect x="443.698" y="178.812" style="fill:#E25D3A;" width="3.976" height="3.847"/>
			<path style="fill:#E25D3A;" d="M447.801,182.731h-4.229v-3.99h4.229V182.731z M443.825,182.588h3.723v-3.705h-3.723V182.588z"/>
		</g>
	</g>
	<g>
		<g>
			<g>
				<g>
					<rect x="346.249" y="170.422" style="fill:#E25D3A;" width="3.976" height="6.281"/>
					<path style="fill:#E25D3A;" d="M350.351,176.82h-4.229v-6.514h4.229V176.82z M346.375,176.587h3.722v-6.048h-3.722V176.587z"/>
				</g>
				<g>
					<rect x="346.178" y="167.983" style="fill:#E25D3A;" width="1.777" height="1.824"/>
					<path style="fill:#E25D3A;" d="M348.012,169.841h-1.89v-1.892h1.89V169.841z M346.235,169.773h1.664v-1.757h-1.664V169.773z"/>
				</g>
				<g>
					<rect x="348.526" y="167.983" style="fill:#E25D3A;" width="1.777" height="1.824"/>
					<path style="fill:#E25D3A;" d="M350.36,169.841h-1.89v-1.892h1.89V169.841z M348.583,169.773h1.664v-1.757h-1.664V169.773z"/>
				</g>
				<g>
					<rect x="346.253" y="178.812" style="fill:#E25D3A;" width="3.976" height="3.847"/>
					<path style="fill:#E25D3A;" d="M350.356,182.731h-4.229v-3.99h4.229V182.731z M346.38,182.588h3.723v-3.705h-3.723V182.588z"/>
				</g>
			</g>
			<g>
				<rect x="353.312" y="170.422" style="fill:#E25D3A;" width="3.976" height="6.281"/>
				<path style="fill:#E25D3A;" d="M357.415,176.82h-4.229v-6.514h4.229V176.82z M353.439,176.587h3.722v-6.048h-3.722V176.587z"/>
			</g>
			<g>
				<rect x="353.242" y="167.983" style="fill:#E25D3A;" width="1.777" height="1.824"/>
				<path style="fill:#E25D3A;" d="M355.076,169.841h-1.89v-1.892h1.89V169.841z M353.299,169.773h1.664v-1.757h-1.664V169.773z"/>
			</g>
			<g>
				<rect x="355.59" y="167.983" style="fill:#E25D3A;" width="1.777" height="1.824"/>
				<path style="fill:#E25D3A;" d="M357.424,169.841h-1.89v-1.892h1.89V169.841z M355.647,169.773h1.664v-1.757h-1.664V169.773z"/>
			</g>
			<g>
				<rect x="353.317" y="178.812" style="fill:#E25D3A;" width="3.976" height="3.847"/>
				<path style="fill:#E25D3A;" d="M357.419,182.731h-4.229v-3.99h4.229V182.731z M353.443,182.588h3.723v-3.705h-3.723V182.588z"/>
			</g>
		</g>
		<g>
			<g>
				<rect x="360.376" y="170.422" style="fill:#E25D3A;" width="3.976" height="6.281"/>
				<path style="fill:#E25D3A;" d="M364.478,176.82h-4.229v-6.514h4.229V176.82z M360.503,176.587h3.723v-6.048h-3.723V176.587z"/>
			</g>
			<g>
				<rect x="360.306" y="167.983" style="fill:#E25D3A;" width="1.777" height="1.824"/>
				<path style="fill:#E25D3A;" d="M362.139,169.841h-1.89v-1.892h1.89V169.841z M360.362,169.773h1.664v-1.757h-1.664V169.773z"/>
			</g>
			<g>
				<rect x="362.654" y="167.983" style="fill:#E25D3A;" width="1.777" height="1.824"/>
				<path style="fill:#E25D3A;" d="M364.487,169.841h-1.89v-1.892h1.89V169.841z M362.71,169.773h1.664v-1.757h-1.664V169.773z"/>
			</g>
			<g>
				<rect x="360.38" y="178.812" style="fill:#E25D3A;" width="3.976" height="3.847"/>
				<path style="fill:#E25D3A;" d="M364.483,182.731h-4.229v-3.99h4.229V182.731z M360.507,182.588h3.723v-3.705h-3.723V182.588z"/>
			</g>
		</g>
		<g>
			<g>
				<rect x="367.267" y="170.422" style="fill:#E25D3A;" width="3.976" height="6.281"/>
				<path style="fill:#E25D3A;" d="M371.37,176.82h-4.229v-6.514h4.229V176.82z M367.394,176.587h3.723v-6.048h-3.723V176.587z"/>
			</g>
			<g>
				<rect x="367.197" y="167.983" style="fill:#E25D3A;" width="1.777" height="1.824"/>
				<path style="fill:#E25D3A;" d="M369.031,169.841h-1.89v-1.892h1.89V169.841z M367.254,169.773h1.664v-1.757h-1.664V169.773z"/>
			</g>
			<g>
				<rect x="369.545" y="167.983" style="fill:#E25D3A;" width="1.777" height="1.824"/>
				<path style="fill:#E25D3A;" d="M371.379,169.841h-1.89v-1.892h1.89V169.841z M369.602,169.773h1.664v-1.757h-1.664V169.773z"/>
			</g>
			<g>
				<rect x="367.272" y="178.812" style="fill:#E25D3A;" width="3.976" height="3.847"/>
				<path style="fill:#E25D3A;" d="M371.374,182.731h-4.229v-3.99h4.229V182.731z M367.398,182.588h3.723v-3.705h-3.723V182.588z"/>
			</g>
		</g>
	</g>
	<g>
		<g>
			<g>
				<rect x="463.668" y="135.045" style="fill:#E2795D;" width="3.083" height="10.896"/>
				<path style="fill:#E2795D;" d="M466.849,146.143h-3.279v-11.3h3.279V146.143z M463.766,145.739h2.886v-10.492h-2.886V145.739z"
					/>
			</g>
			<g>
				<g>
					<rect x="464.546" y="135.045" style="fill:#E2795D;" width="0.216" height="10.896"/>
				</g>
				<g>
					<rect x="465.656" y="135.045" style="fill:#E2795D;" width="0.216" height="10.896"/>
				</g>
			</g>
			<g>
				<rect x="463.668" y="134.824" style="fill:#E2795D;" width="3.083" height="0.403"/>
			</g>
			<g>
				<rect x="463.668" y="140.268" style="fill:#E2795D;" width="3.083" height="0.447"/>
			</g>
			<g>
				<rect x="463.668" y="145.717" style="fill:#E2795D;" width="3.083" height="0.447"/>
			</g>
			<g>
				<rect x="467.676" y="135.045" style="fill:#E2795D;" width="3.083" height="10.896"/>
				<path style="fill:#E2795D;" d="M470.857,146.143h-3.279v-11.3h3.279V146.143z M467.774,145.739h2.886v-10.492h-2.886V145.739z"
					/>
			</g>
			<g>
				<g>
					<rect x="468.554" y="135.045" style="fill:#E2795D;" width="0.216" height="10.896"/>
				</g>
				<g>
					<rect x="469.664" y="135.045" style="fill:#E2795D;" width="0.216" height="10.896"/>
				</g>
			</g>
			<g>
				<rect x="467.676" y="134.824" style="fill:#E2795D;" width="3.083" height="0.403"/>
			</g>
			<g>
				<rect x="467.676" y="140.268" style="fill:#E2795D;" width="3.083" height="0.447"/>
			</g>
			<g>
				<rect x="467.676" y="145.717" style="fill:#E2795D;" width="3.083" height="0.447"/>
			</g>
			<g>
				<rect x="467.676" y="147.97" style="fill:#E2795D;" width="3.083" height="10.896"/>
				<path style="fill:#E2795D;" d="M470.857,159.068h-3.279v-11.3h3.279V159.068z M467.774,158.664h2.886v-10.492h-2.886V158.664z"
					/>
			</g>
			<g>
				<g>
					<rect x="468.554" y="147.971" style="fill:#E2795D;" width="0.216" height="10.896"/>
				</g>
				<g>
					<rect x="469.664" y="147.971" style="fill:#E2795D;" width="0.216" height="10.896"/>
				</g>
			</g>
			<g>
				<rect x="467.676" y="147.747" style="fill:#E2795D;" width="3.083" height="0.447"/>
			</g>
			<g>
				<rect x="467.676" y="153.194" style="fill:#E2795D;" width="3.083" height="0.447"/>
			</g>
			<g>
				<rect x="467.676" y="158.643" style="fill:#E2795D;" width="3.083" height="0.447"/>
			</g>
			<g>
				<rect x="463.668" y="147.97" style="fill:#E2795D;" width="3.083" height="10.896"/>
				<path style="fill:#E2795D;" d="M466.849,159.068h-3.279v-11.3h3.279V159.068z M463.766,158.664h2.886v-10.492h-2.886V158.664z"
					/>
			</g>
			<g>
				<g>
					<rect x="464.546" y="147.971" style="fill:#E2795D;" width="0.216" height="10.896"/>
				</g>
				<g>
					<rect x="465.656" y="147.971" style="fill:#E2795D;" width="0.216" height="10.896"/>
				</g>
			</g>
			<g>
				<rect x="463.668" y="147.747" style="fill:#E2795D;" width="3.083" height="0.447"/>
			</g>
			<g>
				<rect x="463.668" y="153.194" style="fill:#E2795D;" width="3.083" height="0.447"/>
			</g>
			<g>
				<rect x="463.668" y="158.643" style="fill:#E2795D;" width="3.083" height="0.447"/>
			</g>
			<g>
				<defs>
					<path id="SVGID_69_" d="M463.698,133.842c0,0,1.482-4.684,3.53-4.691c1.974-0.007,3.53,4.691,3.53,4.691H463.698z"/>
				</defs>
				<use xlink:href="#SVGID_69_"  style="overflow:visible;fill:#E2795D;"/>
				<clipPath id="SVGID_16_">
					<use xlink:href="#SVGID_69_"  style="overflow:visible;"/>
				</clipPath>
				<g style="clip-path:url(#SVGID_16_);">
					<g>
						<g>
							<rect x="464.518" y="127.143" style="fill:#E2795D;" width="0.216" height="6.646"/>
						</g>
						<g>
							<rect x="465.595" y="127.143" style="fill:#E2795D;" width="0.216" height="6.646"/>
						</g>
					</g>
					<g>
						<g>
							<rect x="466.581" y="127.143" style="fill:#E2795D;" width="0.216" height="6.646"/>
						</g>
						<g>
							<rect x="467.658" y="127.143" style="fill:#E2795D;" width="0.216" height="6.646"/>
						</g>
					</g>
					<g>
						<g>
							<rect x="468.647" y="127.143" style="fill:#E2795D;" width="0.216" height="6.646"/>
						</g>
						<g>
							<rect x="469.724" y="127.143" style="fill:#E2795D;" width="0.216" height="6.646"/>
						</g>
					</g>
				</g>
				<g style="clip-path:url(#SVGID_16_);">
					<g>
						<g>
							<rect x="463.683" y="129.674" style="fill:#E2795D;" width="7.628" height="0.273"/>
						</g>
					</g>
					<g>
						<g>
							<rect x="463.862" y="131.626" style="fill:#E2795D;" width="7.628" height="0.273"/>
						</g>
						<g>
							<rect x="463.683" y="133.733" style="fill:#E2795D;" width="7.628" height="0.273"/>
						</g>
					</g>
				</g>
			</g>
		</g>
		<rect x="457.444" y="161.718" style="fill:#E37254;" width="1.079" height="3.326"/>
		<rect x="467.007" y="161.718" style="fill:#E37254;" width="1.079" height="3.326"/>
		<rect x="476.57" y="161.718" style="fill:#E37254;" width="1.079" height="3.326"/>
		<rect x="462.225" y="161.718" style="fill:#E38065;" width="1.079" height="2.247"/>
		<rect x="471.789" y="161.718" style="fill:#E38065;" width="1.079" height="2.247"/>
		<path style="fill:#E2836A;" d="M456.442,161.748h22.269v-4.252h-22.269V161.748z M476.433,158.934c0-0.297,0.243-0.54,0.539-0.54
			c0.297,0,0.54,0.243,0.54,0.54v1.376c0,0.297-0.243,0.54-0.54,0.54c-0.297,0-0.539-0.243-0.539-0.54V158.934z M474.776,158.934
			c0-0.297,0.243-0.54,0.539-0.54c0.297,0,0.539,0.243,0.539,0.54v1.376c0,0.297-0.243,0.54-0.539,0.54
			c-0.297,0-0.539-0.243-0.539-0.54V158.934z M471.398,158.934c0-0.297,0.243-0.54,0.54-0.54c0.297,0,0.539,0.243,0.539,0.54v1.376
			c0,0.297-0.243,0.54-0.539,0.54c-0.297,0-0.54-0.243-0.54-0.54V158.934z M469.833,158.934c0-0.297,0.243-0.54,0.539-0.54
			c0.297,0,0.54,0.243,0.54,0.54v1.376c0,0.297-0.243,0.54-0.54,0.54c-0.297,0-0.539-0.243-0.539-0.54V158.934z M468.267,158.934
			c0-0.297,0.243-0.54,0.539-0.54c0.297,0,0.54,0.243,0.54,0.54v1.376c0,0.297-0.243,0.54-0.54,0.54
			c-0.297,0-0.539-0.243-0.539-0.54V158.934z M465.868,158.934c0-0.297,0.243-0.54,0.54-0.54c0.297,0,0.54,0.243,0.54,0.54v1.376
			c0,0.297-0.243,0.54-0.54,0.54c-0.297,0-0.54-0.243-0.54-0.54V158.934z M464.303,158.934c0-0.297,0.243-0.54,0.54-0.54
			c0.297,0,0.539,0.243,0.539,0.54v1.376c0,0.297-0.243,0.54-0.539,0.54c-0.297,0-0.54-0.243-0.54-0.54V158.934z M462.737,158.934
			c0-0.297,0.243-0.54,0.54-0.54c0.297,0,0.539,0.243,0.539,0.54v1.376c0,0.297-0.243,0.54-0.539,0.54
			c-0.297,0-0.54-0.243-0.54-0.54V158.934z M459.359,158.934c0-0.297,0.243-0.54,0.539-0.54s0.539,0.243,0.539,0.54v1.376
			c0,0.297-0.243,0.54-0.539,0.54s-0.539-0.243-0.539-0.54V158.934z M458.242,158.395c0.297,0,0.54,0.243,0.54,0.54v1.376
			c0,0.297-0.243,0.54-0.54,0.54c-0.297,0-0.54-0.243-0.54-0.54v-1.376C457.702,158.638,457.945,158.395,458.242,158.395z"/>
	</g>
	<ellipse style="fill:#4FBA6F;" cx="477.578" cy="170.977" rx="4.75" ry="5.25"/>
	<g>
		<g>
			<g>
				<rect x="323.723" y="135.025" style="fill:#E2795D;" width="3.083" height="10.896"/>
				<path style="fill:#E2795D;" d="M326.904,146.122h-3.279v-11.3h3.279V146.122z M323.822,145.719h2.886v-10.492h-2.886V145.719z"
					/>
			</g>
			<g>
				<g>
					<rect x="324.602" y="135.025" style="fill:#E2795D;" width="0.216" height="10.896"/>
				</g>
				<g>
					<rect x="325.712" y="135.025" style="fill:#E2795D;" width="0.216" height="10.896"/>
				</g>
			</g>
			<g>
				<rect x="323.723" y="134.803" style="fill:#E2795D;" width="3.083" height="0.403"/>
			</g>
			<g>
				<rect x="323.723" y="140.248" style="fill:#E2795D;" width="3.083" height="0.447"/>
			</g>
			<g>
				<rect x="323.723" y="145.697" style="fill:#E2795D;" width="3.083" height="0.447"/>
			</g>
			<g>
				<rect x="327.731" y="135.025" style="fill:#E2795D;" width="3.083" height="10.896"/>
				<path style="fill:#E2795D;" d="M330.912,146.122h-3.279v-11.3h3.279V146.122z M327.829,145.719h2.886v-10.492h-2.886V145.719z"
					/>
			</g>
			<g>
				<g>
					<rect x="328.61" y="135.025" style="fill:#E2795D;" width="0.216" height="10.896"/>
				</g>
				<g>
					<rect x="329.719" y="135.025" style="fill:#E2795D;" width="0.216" height="10.896"/>
				</g>
			</g>
			<g>
				<rect x="327.731" y="134.803" style="fill:#E2795D;" width="3.083" height="0.403"/>
			</g>
			<g>
				<rect x="327.731" y="140.248" style="fill:#E2795D;" width="3.083" height="0.447"/>
			</g>
			<g>
				<rect x="327.731" y="145.697" style="fill:#E2795D;" width="3.083" height="0.447"/>
			</g>
			<g>
				<rect x="327.731" y="147.95" style="fill:#E2795D;" width="3.083" height="10.896"/>
				<path style="fill:#E2795D;" d="M330.912,159.048h-3.279v-11.3h3.279V159.048z M327.829,158.644h2.886v-10.492h-2.886V158.644z"
					/>
			</g>
			<g>
				<g>
					<rect x="328.61" y="147.95" style="fill:#E2795D;" width="0.216" height="10.896"/>
				</g>
				<g>
					<rect x="329.719" y="147.95" style="fill:#E2795D;" width="0.216" height="10.896"/>
				</g>
			</g>
			<g>
				<rect x="327.731" y="147.726" style="fill:#E2795D;" width="3.083" height="0.447"/>
			</g>
			<g>
				<rect x="327.731" y="153.173" style="fill:#E2795D;" width="3.083" height="0.447"/>
			</g>
			<g>
				<rect x="327.731" y="158.622" style="fill:#E2795D;" width="3.083" height="0.447"/>
			</g>
			<g>
				<rect x="323.723" y="147.95" style="fill:#E2795D;" width="3.083" height="10.896"/>
				<path style="fill:#E2795D;" d="M326.904,159.048h-3.279v-11.3h3.279V159.048z M323.822,158.644h2.886v-10.492h-2.886V158.644z"
					/>
			</g>
			<g>
				<g>
					<rect x="324.602" y="147.95" style="fill:#E2795D;" width="0.216" height="10.896"/>
				</g>
				<g>
					<rect x="325.712" y="147.95" style="fill:#E2795D;" width="0.216" height="10.896"/>
				</g>
			</g>
			<g>
				<rect x="323.723" y="147.726" style="fill:#E2795D;" width="3.083" height="0.447"/>
			</g>
			<g>
				<rect x="323.723" y="153.173" style="fill:#E2795D;" width="3.083" height="0.447"/>
			</g>
			<g>
				<rect x="323.723" y="158.622" style="fill:#E2795D;" width="3.083" height="0.447"/>
			</g>
			<g>
				<defs>
					<path id="SVGID_71_" d="M323.754,133.822c0,0,1.482-4.684,3.53-4.691c1.974-0.007,3.53,4.691,3.53,4.691H323.754z"/>
				</defs>
				<use xlink:href="#SVGID_71_"  style="overflow:visible;fill:#E2795D;"/>
				<clipPath id="SVGID_18_">
					<use xlink:href="#SVGID_71_"  style="overflow:visible;"/>
				</clipPath>
				<g style="clip-path:url(#SVGID_18_);">
					<g>
						<g>
							<rect x="324.573" y="127.122" style="fill:#E2795D;" width="0.216" height="6.646"/>
						</g>
						<g>
							<rect x="325.65" y="127.122" style="fill:#E2795D;" width="0.216" height="6.646"/>
						</g>
					</g>
					<g>
						<g>
							<rect x="326.637" y="127.122" style="fill:#E2795D;" width="0.216" height="6.646"/>
						</g>
						<g>
							<rect x="327.714" y="127.122" style="fill:#E2795D;" width="0.216" height="6.646"/>
						</g>
					</g>
					<g>
						<g>
							<rect x="328.702" y="127.122" style="fill:#E2795D;" width="0.216" height="6.646"/>
						</g>
						<g>
							<rect x="329.779" y="127.122" style="fill:#E2795D;" width="0.216" height="6.646"/>
						</g>
					</g>
				</g>
				<g style="clip-path:url(#SVGID_18_);">
					<g>
						<g>
							<rect x="323.739" y="129.654" style="fill:#E2795D;" width="7.628" height="0.273"/>
						</g>
					</g>
					<g>
						<g>
							<rect x="323.917" y="131.605" style="fill:#E2795D;" width="7.628" height="0.273"/>
						</g>
						<g>
							<rect x="323.739" y="133.712" style="fill:#E2795D;" width="7.628" height="0.273"/>
						</g>
					</g>
				</g>
			</g>
		</g>
		<rect x="317.499" y="161.698" style="fill:#E37254;" width="1.079" height="3.326"/>
		<rect x="327.062" y="161.698" style="fill:#E37254;" width="1.079" height="3.326"/>
		<rect x="336.626" y="161.698" style="fill:#E37254;" width="1.079" height="3.326"/>
		<rect x="322.281" y="161.698" style="fill:#E38065;" width="1.079" height="2.247"/>
		<rect x="331.844" y="161.698" style="fill:#E38065;" width="1.079" height="2.247"/>
		<path style="fill:#E2836A;" d="M316.498,161.728h22.269v-4.252h-22.269V161.728z M336.489,158.914c0-0.297,0.243-0.54,0.539-0.54
			c0.297,0,0.539,0.243,0.539,0.54v1.376c0,0.297-0.243,0.539-0.539,0.539c-0.297,0-0.539-0.243-0.539-0.539V158.914z
			 M334.832,158.914c0-0.297,0.243-0.54,0.54-0.54c0.297,0,0.539,0.243,0.539,0.54v1.376c0,0.297-0.243,0.539-0.539,0.539
			c-0.297,0-0.54-0.243-0.54-0.539V158.914z M331.454,158.914c0-0.297,0.243-0.54,0.54-0.54c0.297,0,0.54,0.243,0.54,0.54v1.376
			c0,0.297-0.243,0.539-0.54,0.539c-0.297,0-0.54-0.243-0.54-0.539V158.914z M329.888,158.914c0-0.297,0.243-0.54,0.539-0.54
			s0.54,0.243,0.54,0.54v1.376c0,0.297-0.243,0.539-0.54,0.539s-0.539-0.243-0.539-0.539V158.914z M328.323,158.914
			c0-0.297,0.243-0.54,0.539-0.54c0.297,0,0.539,0.243,0.539,0.54v1.376c0,0.297-0.243,0.539-0.539,0.539
			c-0.297,0-0.539-0.243-0.539-0.539V158.914z M325.923,158.914c0-0.297,0.243-0.54,0.539-0.54c0.297,0,0.54,0.243,0.54,0.54v1.376
			c0,0.297-0.243,0.539-0.54,0.539c-0.297,0-0.539-0.243-0.539-0.539V158.914z M324.358,158.914c0-0.297,0.243-0.54,0.54-0.54
			c0.297,0,0.54,0.243,0.54,0.54v1.376c0,0.297-0.243,0.539-0.54,0.539c-0.297,0-0.54-0.243-0.54-0.539V158.914z M322.793,158.914
			c0-0.297,0.243-0.54,0.54-0.54c0.297,0,0.54,0.243,0.54,0.54v1.376c0,0.297-0.243,0.539-0.54,0.539
			c-0.297,0-0.54-0.243-0.54-0.539V158.914z M319.415,158.914c0-0.297,0.243-0.54,0.54-0.54c0.297,0,0.539,0.243,0.539,0.54v1.376
			c0,0.297-0.243,0.539-0.539,0.539c-0.297,0-0.54-0.243-0.54-0.539V158.914z M318.297,158.374c0.297,0,0.54,0.243,0.54,0.54v1.376
			c0,0.297-0.243,0.539-0.54,0.539c-0.297,0-0.539-0.243-0.539-0.539v-1.376C317.758,158.617,318,158.374,318.297,158.374z"/>
	</g>
	<g>
		<g>
			<rect x="465.554" y="170.422" style="fill:#E2836A;" width="3.976" height="6.281"/>
			<path style="fill:#E2836A;" d="M469.657,176.82h-4.229v-6.514h4.229V176.82z M465.681,176.587h3.723v-6.048h-3.723V176.587z"/>
		</g>
		<g>
			<rect x="465.484" y="167.983" style="fill:#E2836A;" width="1.777" height="1.824"/>
			<path style="fill:#E2836A;" d="M467.318,169.841h-1.89v-1.892h1.89V169.841z M465.541,169.773h1.664v-1.757h-1.664V169.773z"/>
		</g>
		<g>
			<rect x="467.832" y="167.983" style="fill:#E2836A;" width="1.777" height="1.824"/>
			<path style="fill:#E2836A;" d="M469.666,169.841h-1.89v-1.892h1.89V169.841z M467.889,169.773h1.664v-1.757h-1.664V169.773z"/>
		</g>
		<g>
			<rect x="465.559" y="178.812" style="fill:#E2836A;" width="3.976" height="3.847"/>
			<path style="fill:#E2836A;" d="M469.661,182.731h-4.229v-3.99h4.229V182.731z M465.685,182.588h3.722v-3.705h-3.722V182.588z"/>
		</g>
	</g>
	<g>
		<g>
			<rect x="325.01" y="170.422" style="fill:#E2836A;" width="3.976" height="6.281"/>
			<path style="fill:#E2836A;" d="M329.113,176.82h-4.229v-6.514h4.229V176.82z M325.137,176.587h3.723v-6.048h-3.723V176.587z"/>
		</g>
		<g>
			<rect x="324.94" y="167.983" style="fill:#E2836A;" width="1.777" height="1.824"/>
			<path style="fill:#E2836A;" d="M326.774,169.841h-1.89v-1.892h1.89V169.841z M324.997,169.773h1.664v-1.757h-1.664V169.773z"/>
		</g>
		<g>
			<rect x="327.288" y="167.983" style="fill:#E2836A;" width="1.777" height="1.824"/>
			<path style="fill:#E2836A;" d="M329.122,169.841h-1.89v-1.892h1.89V169.841z M327.345,169.773h1.664v-1.757h-1.664V169.773z"/>
		</g>
		<g>
			<rect x="325.015" y="178.812" style="fill:#E2836A;" width="3.976" height="3.847"/>
			<path style="fill:#E2836A;" d="M329.117,182.731h-4.229v-3.99h4.229V182.731z M325.141,182.588h3.723v-3.705h-3.723V182.588z"/>
		</g>
	</g>
	<rect x="376.863" y="180.736" style="fill:#E37254;" width="15.607" height="3.724"/>
	<path style="fill:#E37254;" d="M376.863,177.862v2.874h0.729v-1.568c0-0.235,0.173-0.427,0.385-0.427
		c0.212,0,0.385,0.192,0.385,0.427v1.568h0.917v-1.568c0-0.235,0.173-0.427,0.385-0.427c0.212,0,0.385,0.192,0.385,0.427v1.568
		h0.917v-1.568c0-0.235,0.173-0.427,0.385-0.427s0.385,0.192,0.385,0.427v1.568h0.917v-1.568c0-0.235,0.173-0.427,0.385-0.427
		c0.212,0,0.385,0.192,0.385,0.427v1.568h0.916v-1.568c0-0.235,0.173-0.427,0.385-0.427l0,0c0.212,0,0.385,0.192,0.385,0.427v1.568
		h0.917v-1.568c0-0.235,0.173-0.427,0.385-0.427s0.385,0.192,0.385,0.427v1.568h0.917v-1.568c0-0.235,0.173-0.427,0.385-0.427
		c0.212,0,0.385,0.192,0.385,0.427v1.568h0.917v-1.568c0-0.235,0.173-0.427,0.385-0.427c0.212,0,0.385,0.192,0.385,0.427v1.568
		h0.917v-1.568c0-0.235,0.173-0.427,0.385-0.427s0.385,0.192,0.385,0.427v1.568h1.128v-2.874H376.863z"/>
	<rect x="402.727" y="180.748" style="fill:#E37254;" width="15.514" height="3.723"/>
	<path style="fill:#E37254;" d="M401.658,177.874v2.874h0.75v-1.568c0-0.235,0.178-0.427,0.396-0.427
		c0.218,0,0.396,0.192,0.396,0.427v1.568h0.943v-1.568c0-0.235,0.178-0.427,0.396-0.427c0.218,0,0.396,0.192,0.396,0.427v1.568
		h0.943v-1.568c0-0.235,0.178-0.427,0.396-0.427c0.218,0,0.396,0.192,0.396,0.427v1.568h0.943v-1.568
		c0-0.235,0.178-0.427,0.396-0.427c0.218,0,0.396,0.192,0.396,0.427v1.568h0.943v-1.568c0-0.235,0.178-0.427,0.396-0.427h0
		c0.218,0,0.396,0.192,0.396,0.427v1.568h0.943v-1.568c0-0.235,0.178-0.427,0.396-0.427c0.218,0,0.396,0.192,0.396,0.427v1.568
		h0.943v-1.568c0-0.235,0.178-0.427,0.396-0.427c0.218,0,0.396,0.192,0.396,0.427v1.568h0.943v-1.568
		c0-0.235,0.178-0.427,0.396-0.427c0.218,0,0.396,0.192,0.396,0.427v1.568h0.943v-1.568c0-0.235,0.178-0.427,0.396-0.427
		c0.218,0,0.396,0.192,0.396,0.427v1.568h1.161v-2.874H401.658z"/>
	<g>
		<rect x="392.063" y="181.713" style="fill:#E38065;" width="8.46" height="0.423"/>
		<rect x="391.813" y="182.066" style="fill:#E2795D;" width="9.033" height="0.597"/>
		<rect x="392.545" y="182.47" style="fill:#E38065;" width="9.579" height="0.597"/>
		<rect x="391.983" y="182.973" style="fill:#E2795D;" width="10.637" height="0.597"/>
		<rect x="391.628" y="183.394" style="fill:#E38065;" width="10.991" height="0.597"/>
		<rect x="392.241" y="181.328" style="fill:#E2795D;" width="8.282" height="0.385"/>
	</g>
	<g>
		<polygon style="fill:#E2795D;" points="391.606,184.228 390.553,184.228 390.553,181.79 391.153,181.79 392.535,178.715
			392.535,182.607 		"/>
		<rect x="392.535" y="177.874" style="fill:#E2795D;" width="0.567" height="4.733"/>
	</g>
	<g>
		<polygon style="fill:#E2795D;" points="402.645,184.228 403.563,184.228 403.563,181.79 403.04,181.79 401.835,178.715
			401.835,182.607 		"/>
		<rect x="401.341" y="177.874" style="fill:#E2795D;" width="0.494" height="4.733"/>
	</g>
	<g>
		<path style="fill:#E2795D;" d="M394.053,170.016c0,0,1.255-2.7,2.991-2.704c1.673-0.004,2.991,2.704,2.991,2.704H394.053z"/>
		<path style="fill:#E2795D;" d="M400.161,170.088h-6.23l0.044-0.097c0.052-0.112,1.298-2.745,3.069-2.749c0.002,0,0.003,0,0.003,0
			c1.708,0,3.01,2.635,3.064,2.748L400.161,170.088z M394.179,169.946h5.729c-0.256-0.482-1.442-2.562-2.86-2.562
			c0,0-0.002,0-0.003,0C395.569,167.387,394.424,169.466,394.179,169.946z"/>
	</g>
	<rect x="394.016" y="171.093" style="fill:#E2795D;" width="2.912" height="10.269"/>
	<rect x="397.124" y="171.093" style="fill:#E2795D;" width="2.912" height="10.269"/>
	<rect x="395.038" y="175.206" style="fill:#E25D3A;" width="0.943" height="1.03"/>
	<rect x="395.038" y="176.915" style="fill:#E25D3A;" width="0.943" height="1.03"/>
	<rect x="398.108" y="175.206" style="fill:#E25D3A;" width="0.943" height="1.03"/>
	<rect x="398.108" y="176.915" style="fill:#E25D3A;" width="0.943" height="1.03"/>
	<rect x="394.217" y="171.363" style="fill:#E25D3A;" width="2.511" height="2.2"/>
	<rect x="397.324" y="171.363" style="fill:#E25D3A;" width="2.511" height="2.2"/>
	<rect x="312.922" y="118.04" style="fill:#8EC5D3;" width="3.724" height="1.233"/>
	<rect x="338.507" y="118.04" style="fill:#8EC5D3;" width="3.724" height="1.233"/>
	<rect x="334.614" y="111.836" style="fill:#8EC5D3;" width="3.909" height="1.233"/>
	<rect x="330.533" y="106.205" style="fill:#8EC5D3;" width="4.081" height="1.233"/>
	<rect x="324.632" y="100.439" style="fill:#8EC5D3;" width="5.901" height="1.011"/>
	<rect x="320.551" y="106.205" style="fill:#8EC5D3;" width="4.042" height="1.233"/>
	<rect x="316.642" y="111.836" style="fill:#8EC5D3;" width="3.909" height="1.233"/>
	<rect x="452.31" y="118.156" style="fill:#8EC5D3;" width="3.724" height="1.233"/>
	<rect x="477.886" y="118.156" style="fill:#8EC5D3;" width="3.736" height="1.233"/>
	<rect x="473.994" y="111.952" style="fill:#8EC5D3;" width="3.893" height="1.233"/>
	<rect x="469.913" y="106.5" style="fill:#8EC5D3;" width="4.081" height="1.233"/>
	<rect x="464.016" y="100.709" style="fill:#8EC5D3;" width="5.901" height="1.011"/>
	<rect x="459.886" y="106.5" style="fill:#8EC5D3;" width="4.13" height="1.233"/>
	<rect x="456.042" y="111.952" style="fill:#8EC5D3;" width="3.844" height="1.233"/>
	<rect x="413.33" y="123.147" style="fill:#8EC5D3;" width="4.911" height="1.233"/>
	<rect x="409.621" y="117.819" style="fill:#8EC5D3;" width="3.727" height="1.233"/>
	<rect x="406.586" y="111.772" style="fill:#8EC5D3;" width="3.035" height="1.233"/>
	<rect x="403.417" y="105.5" style="fill:#8EC5D3;" width="3.188" height="1.233"/>
	<rect x="400.011" y="99.363" style="fill:#8EC5D3;" width="3.406" height="1.233"/>
	<rect x="395.094" y="94.28" style="fill:#8EC5D3;" width="4.917" height="0.616"/>
	<rect x="381.757" y="117.819" style="fill:#8EC5D3;" width="3.727" height="1.233"/>
	<rect x="385.484" y="111.772" style="fill:#8EC5D3;" width="3.035" height="1.233"/>
	<rect x="388.501" y="105.5" style="fill:#8EC5D3;" width="3.188" height="1.233"/>
	<rect x="391.688" y="99.363" style="fill:#8EC5D3;" width="3.406" height="1.233"/>
	<rect x="376.863" y="123.147" style="fill:#8EC5D3;" width="4.911" height="1.233"/>
	<g>
		<rect x="343.57" y="129.324" style="fill:#E2795D;" width="1.776" height="1.619"/>
		<rect x="345.796" y="129.324" style="fill:#E2795D;" width="1.776" height="1.619"/>
	</g>
	<g>
		<rect x="352.479" y="129.324" style="fill:#E2795D;" width="1.776" height="1.619"/>
		<rect x="354.705" y="129.324" style="fill:#E2795D;" width="1.776" height="1.619"/>
	</g>
	<g>
		<rect x="361.388" y="129.324" style="fill:#E2795D;" width="1.776" height="1.619"/>
		<rect x="363.613" y="129.324" style="fill:#E2795D;" width="1.776" height="1.619"/>
	</g>
	<g>
		<rect x="370.296" y="129.324" style="fill:#E2795D;" width="1.776" height="1.619"/>
		<rect x="372.522" y="129.324" style="fill:#E2795D;" width="1.776" height="1.619"/>
	</g>
	<g>
		<rect x="419.616" y="129.152" style="fill:#E2795D;" width="1.776" height="1.619"/>
		<rect x="421.842" y="129.152" style="fill:#E2795D;" width="1.776" height="1.619"/>
	</g>
	<g>
		<rect x="428.525" y="129.152" style="fill:#E2795D;" width="1.776" height="1.619"/>
		<rect x="430.75" y="129.152" style="fill:#E2795D;" width="1.776" height="1.619"/>
	</g>
	<g>
		<rect x="437.433" y="129.152" style="fill:#E2795D;" width="1.776" height="1.619"/>
		<rect x="439.659" y="129.152" style="fill:#E2795D;" width="1.776" height="1.619"/>
	</g>
	<g>
		<rect x="446.342" y="129.152" style="fill:#E2795D;" width="1.776" height="1.619"/>
		<rect x="448.567" y="129.152" style="fill:#E2795D;" width="1.776" height="1.619"/>
	</g>
	<rect x="323.575" y="174.727" style="fill:#9C8160;" width="3" height="9.75"/>
	<ellipse style="fill:#26B99A;" cx="325.075" cy="170.977" rx="4.75" ry="5.25"/>
</g>
<rect x="20.993" y="183.991" style="fill:#5FB7CB;" width="496.999" height="13.764"/>
<path style="fill:#0096AD;" d="M-25.339,198.127c16.787-8.61,31.659-9.764,51-9c20,0.79,41.243,3.601,60.942,6.231
	c24.514,3.272,49.671-1.816,74.304-1.145c24.598,0.67,47.107-0.174,71.465-4.172c24.882-4.084,44.733-0.177,69.207,4
	c20.359,3.475,40.771-0.23,61.118-1.702c20.444-1.479,40.312,2.227,60.701,2.109c13.88-0.08,27.329-3.652,41.176-4.052
	c19.142-0.552,37.967,5.648,57.117,3.62c19.681-2.084,31.099,2.965,51.303,3.773c25,1-0.333,0.336-0.333,0.336"/>
</svg>
