<?xml version="1.0" encoding="iso-8859-1"?>
<!-- Generator: Adobe Illustrator 19.1.0, SVG Export Plug-In . SVG Version: 6.00 Build 0)  -->
<svg version="1.1" id="Layer_1" xmlns="http://www.w3.org/2000/svg" xmlns:xlink="http://www.w3.org/1999/xlink" x="0px" y="0px"
	 viewBox="0 0 549.333 197.755" style="enable-background:new 0 0 549.333 197.755;" xml:space="preserve">

	  <path id="cloud_x5F_3" style="fill:#FFFFFF;" d="M219.661,130.934c0.495-1.905,2.07-3.37,4.043-3.687
               	c0.383-4.266,3.964-7.61,8.33-7.61c1.886,0,3.62,0.632,5.02,1.686c1.4-1.054,3.135-1.686,5.021-1.686
               	c0.917,0,1.797,0.153,2.623,0.426c1.943-1.816,4.547-2.936,7.418-2.936c6.008,0,10.877,4.87,10.877,10.877
               	c0,1.017-0.149,1.997-0.41,2.93H219.661z">
               	<animateTransform attributeType="xml"
               									 attributeName="transform"
               									 type="translate"
               									 from="-170 25"
               									 to="800 25"
               									 dur="50s"
               									 repeatCount="indefinite"/>
               </path>
               <path id="cloud_x5F_1" style="fill:#FFFFFF;" d="M79.249,74.975c-0.496-1.905-2.07-3.37-4.043-3.687
               	c-0.383-4.266-3.964-7.61-8.33-7.61c-1.886,0-3.621,0.632-5.021,1.686c-1.399-1.054-3.134-1.686-5.021-1.686
               	c-0.917,0-1.798,0.153-2.624,0.426c-1.943-1.816-4.546-2.936-7.417-2.936c-6.008,0-10.877,4.87-10.877,10.877
               	c0,1.017,0.149,1.997,0.411,2.93H79.249z">
               	<animateTransform attributeType="xml"
               									 attributeName="transform"
               									 type="translate"
               									 from="-170 45"
               									 to="800 45"
               									 dur="50s"
               									 repeatCount="indefinite"/>
               </path>
<g>
	<polygon style="fill:#D1D3D4;" points="488.948,186.062 450.482,116.675 391.2,183.532 390.826,183.2 450.576,115.815 
		489.385,185.82 	"/>
</g>
<g>
	<polygon style="fill:#D1D3D4;" points="488.963,186.086 450.486,131.75 391.178,184.113 390.847,183.738 450.572,131.007 
		450.733,131.234 489.371,185.797 	"/>
</g>
<g>
	<polygon style="fill:#D1D3D4;" points="488.985,186.113 450.491,145.25 391.151,184.635 390.875,184.218 450.567,144.601 
		489.349,185.77 	"/>
</g>
<rect x="447.977" y="114.782" style="fill:#BDC3C7;" width="4.25" height="83.368"/>
<rect x="482.167" y="186.944" style="fill:#BDC3C7;" width="4" height="10.015"/>
<rect x="421.167" y="186.944" style="fill:#BDC3C7;" width="4" height="10.015"/>
<rect x="457.417" y="112.411" style="fill:#BDC3C7;" width="4.25" height="85.739"/>
<rect x="213.981" y="123.249" style="fill:#AC533A;" width="111.509" height="8.052"/>
<rect x="19.284" y="159.854" style="fill:#D7E03E;" width="62.616" height="39.451"/>
<polygon style="fill:#E25D3A;" points="82.362,160.055 19.285,160.055 24.813,151.854 76.834,151.854 "/>
<rect x="22.801" y="162.028" style="fill:#A6D5E1;" width="4.101" height="6.64"/>
<rect x="31.361" y="162.028" style="fill:#A6D5E1;" width="4.101" height="6.64"/>
<rect x="39.921" y="162.028" style="fill:#A6D5E1;" width="4.101" height="6.64"/>
<rect x="48.481" y="162.028" style="fill:#A6D5E1;" width="4.101" height="6.64"/>
<rect x="57.04" y="162.028" style="fill:#A6D5E1;" width="4.101" height="6.64"/>
<rect x="65.6" y="162.028" style="fill:#A6D5E1;" width="4.101" height="6.64"/>
<rect x="74.16" y="162.028" style="fill:#A6D5E1;" width="4.101" height="6.64"/>
<rect x="22.996" y="173.16" style="fill:#A6D5E1;" width="4.101" height="6.639"/>
<rect x="31.556" y="173.16" style="fill:#A6D5E1;" width="4.101" height="6.639"/>
<rect x="40.116" y="173.16" style="fill:#A6D5E1;" width="4.101" height="6.639"/>
<rect x="47.895" y="178.311" style="fill:#5FB7CB;" width="5.468" height="9.178"/>
<rect x="57.236" y="173.16" style="fill:#A6D5E1;" width="4.101" height="6.639"/>
<rect x="65.795" y="173.16" style="fill:#A6D5E1;" width="4.101" height="6.639"/>
<rect x="74.356" y="173.16" style="fill:#A6D5E1;" width="4.101" height="6.639"/>
<rect x="138.785" y="156.923" style="fill:#E2836A;" width="26.559" height="39.452"/>
<polygon style="fill:#ECF0F1;" points="165.539,157.126 138.786,157.126 143.475,148.923 160.85,148.923 "/>
<rect x="140.852" y="159.538" style="fill:#E25D3A;" width="4.101" height="6.639"/>
<rect x="149.673" y="159.538" style="fill:#E25D3A;" width="4.101" height="6.639"/>
<rect x="141.048" y="170.669" style="fill:#E25D3A;" width="4.101" height="6.64"/>
<rect x="158.493" y="170.669" style="fill:#E25D3A;" width="4.101" height="6.64"/>
<rect x="149.282" y="174.724" style="fill:#E25D3A;" width="5.468" height="9.178"/>
<rect x="158.493" y="159.538" style="fill:#E25D3A;" width="4.101" height="6.639"/>
<ellipse style="fill:#4FBA6F;" cx="136.581" cy="170.06" rx="3.375" ry="3.73"/>
<rect x="138.206" y="174.079" style="fill:#9C8160;" width="3" height="9.75"/>
<ellipse style="fill:#26B99A;" cx="138.706" cy="170.329" rx="4.75" ry="5.25"/>
<rect x="212.96" y="131.301" style="fill:#E2836A;" width="112.53" height="55.643"/>
<polygon style="fill:#E25D3A;" points="349.646,118.759 349.646,112.549 345.796,112.549 345.796,107.168 341.697,107.168 
	341.697,101.206 335.735,101.206 335.735,107.168 331.636,107.168 331.636,112.549 327.786,112.549 327.786,118.759 324.06,118.759 
	324.06,184.834 353.372,184.834 353.372,118.759 "/>
<polygon style="fill:#E25D3A;" points="210.255,118.759 210.255,112.549 206.404,112.549 206.404,106.897 202.306,106.897 
	202.306,100.935 196.343,100.935 196.343,106.897 192.245,106.897 192.245,112.549 188.396,112.549 188.396,118.759 
	184.672,118.759 184.672,184.835 213.981,184.835 213.981,118.759 "/>
<rect x="269.386" y="75.444" style="fill:#2C3E50;" width="13.797" height="7.17"/>
<g>
	<rect x="273.407" y="75.447" style="fill:#F1C119;" width="1.433" height="7.163"/>
	<rect x="269.359" y="78.312" style="fill:#F1C119;" width="13.849" height="1.433"/>
</g>
<rect x="70.244" y="146.753" style="fill:#95A5A5;" width="56" height="37.083"/>
<g>
	<rect x="63.581" y="117.504" style="fill:#95A5A5;" width="26" height="67.334"/>
	<polygon style="fill:#BDC3C7;" points="63.581,117.879 76.581,99.46 89.581,117.879 	"/>
</g>
<g>
	<rect x="117.241" y="117.504" style="fill:#95A5A5;" width="26" height="67.334"/>
	<polygon style="fill:#BDC3C7;" points="117.241,117.879 130.241,99.46 143.241,117.879 	"/>
</g>
<polygon style="fill:#95A5A5;" points="86.868,151.254 103.035,132.835 119.202,151.254 "/>
<path style="fill:#7F8C8D;" d="M107.286,187.712c0,1.104-0.534,2-1.192,2h-5.365c-0.659,0-1.192-0.896-1.192-2v-14
	c0-1.105,0.534-2,1.192-2h5.365c0.659,0,1.192,0.895,1.192,2V187.712z"/>
<g>
	<rect x="269.08" y="75.624" style="fill:#A6D5E1;" width="0.445" height="18.141"/>
</g>
<polygon style="fill:#E25D3A;" points="285.076,123.849 285.076,118.472 281.389,118.472 281.389,112.419 278.316,112.419 
	278.316,106.208 275.141,106.208 275.141,100.084 271.761,100.084 271.761,94.123 266.844,94.123 266.844,100.084 263.464,100.084 
	263.464,106.208 260.289,106.208 260.289,112.419 257.216,112.419 257.216,118.472 253.53,118.472 253.53,123.849 248.613,123.849 
	248.613,185.454 289.991,185.454 289.991,123.849 "/>
<g>
	<rect x="67.894" y="120.962" style="fill:#7F8C8D;" width="1.875" height="5.936"/>
	<rect x="70.643" y="120.962" style="fill:#7F8C8D;" width="1.875" height="5.936"/>
	<rect x="73.393" y="120.962" style="fill:#7F8C8D;" width="1.875" height="5.936"/>
</g>
<g>
	<rect x="78.143" y="120.962" style="fill:#7F8C8D;" width="1.875" height="5.936"/>
	<rect x="80.893" y="120.962" style="fill:#7F8C8D;" width="1.875" height="5.936"/>
	<rect x="83.643" y="120.962" style="fill:#7F8C8D;" width="1.875" height="5.936"/>
</g>
<g>
	<rect x="68.019" y="131.349" style="fill:#7F8C8D;" width="1.875" height="5.935"/>
	<rect x="70.768" y="131.349" style="fill:#7F8C8D;" width="1.875" height="5.935"/>
	<rect x="73.518" y="131.349" style="fill:#7F8C8D;" width="1.875" height="5.935"/>
</g>
<g>
	<rect x="78.268" y="131.349" style="fill:#7F8C8D;" width="1.875" height="5.935"/>
	<rect x="81.018" y="131.349" style="fill:#7F8C8D;" width="1.875" height="5.935"/>
	<rect x="83.768" y="131.349" style="fill:#7F8C8D;" width="1.875" height="5.935"/>
</g>
<g>
	<rect x="68.144" y="140.901" style="fill:#7F8C8D;" width="1.875" height="5.936"/>
	<rect x="70.893" y="140.901" style="fill:#7F8C8D;" width="1.875" height="5.936"/>
	<rect x="73.643" y="140.901" style="fill:#7F8C8D;" width="1.875" height="5.936"/>
</g>
<g>
	<rect x="78.393" y="140.901" style="fill:#7F8C8D;" width="1.875" height="5.936"/>
	<rect x="81.143" y="140.901" style="fill:#7F8C8D;" width="1.875" height="5.936"/>
	<rect x="83.893" y="140.901" style="fill:#7F8C8D;" width="1.875" height="5.936"/>
</g>
<g>
	<rect x="121.512" y="120.212" style="fill:#7F8C8D;" width="1.875" height="5.936"/>
	<rect x="124.262" y="120.212" style="fill:#7F8C8D;" width="1.875" height="5.936"/>
	<rect x="127.012" y="120.212" style="fill:#7F8C8D;" width="1.875" height="5.936"/>
</g>
<g>
	<rect x="131.762" y="120.212" style="fill:#7F8C8D;" width="1.875" height="5.936"/>
	<rect x="134.512" y="120.212" style="fill:#7F8C8D;" width="1.875" height="5.936"/>
	<rect x="137.262" y="120.212" style="fill:#7F8C8D;" width="1.875" height="5.936"/>
</g>
<g>
	<rect x="121.637" y="130.599" style="fill:#7F8C8D;" width="1.875" height="5.935"/>
	<rect x="124.387" y="130.599" style="fill:#7F8C8D;" width="1.875" height="5.935"/>
	<rect x="127.137" y="130.599" style="fill:#7F8C8D;" width="1.875" height="5.935"/>
</g>
<g>
	<rect x="131.887" y="130.599" style="fill:#7F8C8D;" width="1.875" height="5.935"/>
	<rect x="134.637" y="130.599" style="fill:#7F8C8D;" width="1.875" height="5.935"/>
	<rect x="137.387" y="130.599" style="fill:#7F8C8D;" width="1.875" height="5.935"/>
</g>
<g>
	<rect x="121.762" y="140.151" style="fill:#7F8C8D;" width="1.875" height="5.936"/>
	<rect x="124.512" y="140.151" style="fill:#7F8C8D;" width="1.875" height="5.936"/>
	<rect x="127.262" y="140.151" style="fill:#7F8C8D;" width="1.875" height="5.936"/>
</g>
<g>
	<rect x="132.012" y="140.151" style="fill:#7F8C8D;" width="1.875" height="5.936"/>
	<rect x="134.762" y="140.151" style="fill:#7F8C8D;" width="1.875" height="5.936"/>
	<rect x="137.512" y="140.151" style="fill:#7F8C8D;" width="1.875" height="5.936"/>
</g>
<g>
	<rect x="99.265" y="143.411" style="fill:#7F8C8D;" width="1.875" height="3.436"/>
	<rect x="102.015" y="140.911" style="fill:#7F8C8D;" width="1.875" height="5.936"/>
	<rect x="104.765" y="143.411" style="fill:#7F8C8D;" width="1.875" height="3.436"/>
</g>
<path style="fill:#7F8C8D;" d="M79.956,165.753v-6.955c0-0.854-0.896-1.545-2-1.545h-1.375c-1.104,0-2,0.692-2,1.545v6.955H79.956z"
	/>
<path style="fill:#7F8C8D;" d="M97.204,165.753v-6.955c0-0.854-0.896-1.545-2-1.545h-1.375c-1.104,0-2,0.692-2,1.545v6.955H97.204z"
	/>
<path style="fill:#7F8C8D;" d="M105.952,165.753v-6.955c0-0.854-0.896-1.545-2-1.545h-1.375c-1.104,0-2,0.692-2,1.545v6.955H105.952
	z"/>
<path style="fill:#7F8C8D;" d="M115.077,165.753v-6.955c0-0.854-0.896-1.545-2-1.545h-1.375c-1.104,0-2,0.692-2,1.545v6.955H115.077
	z"/>
<path style="fill:#7F8C8D;" d="M133.206,165.753v-6.955c0-0.854-0.896-1.545-2-1.545h-1.375c-1.105,0-2,0.692-2,1.545v6.955H133.206
	z"/>
<path style="fill:#95A5A5;" d="M93.704,153.628v-2.588c0-0.317-0.333-0.575-0.744-0.575h-0.512c-0.411,0-0.744,0.257-0.744,0.575
	v2.588H93.704z"/>
<path style="fill:#95A5A5;" d="M96.722,153.628v-2.588c0-0.317-0.333-0.575-0.744-0.575h-0.512c-0.411,0-0.744,0.257-0.744,0.575
	v2.588H96.722z"/>
<path style="fill:#95A5A5;" d="M99.74,153.628v-2.588c0-0.317-0.333-0.575-0.744-0.575h-0.512c-0.411,0-0.744,0.257-0.744,0.575
	v2.588H99.74z"/>
<path style="fill:#95A5A5;" d="M102.758,153.628v-2.588c0-0.317-0.333-0.575-0.744-0.575h-0.512c-0.411,0-0.744,0.257-0.744,0.575
	v2.588H102.758z"/>
<path style="fill:#95A5A5;" d="M105.775,153.628v-2.588c0-0.317-0.333-0.575-0.744-0.575h-0.512c-0.411,0-0.744,0.257-0.744,0.575
	v2.588H105.775z"/>
<path style="fill:#95A5A5;" d="M108.793,153.628v-2.588c0-0.317-0.333-0.575-0.744-0.575h-0.512c-0.411,0-0.744,0.257-0.744,0.575
	v2.588H108.793z"/>
<path style="fill:#95A5A5;" d="M111.811,153.628v-2.588c0-0.317-0.333-0.575-0.744-0.575h-0.512c-0.411,0-0.744,0.257-0.744,0.575
	v2.588H111.811z"/>
<path style="fill:#95A5A5;" d="M114.829,153.628v-2.588c0-0.317-0.333-0.575-0.744-0.575h-0.512c-0.411,0-0.744,0.257-0.744,0.575
	v2.588H114.829z"/>
<rect x="268.898" y="95.945" style="fill:#E2795D;" width="1.079" height="16.545"/>
<rect x="8.667" y="183.838" style="fill:#BDC3C7;" width="391.359" height="13.121"/>
<rect x="265.092" y="103.263" style="fill:#E2795D;" width="1.079" height="9.227"/>
<rect x="272.674" y="103.263" style="fill:#E2795D;" width="1.079" height="9.227"/>
<rect x="198.843" y="103.499" style="fill:#E2836A;" width="1.079" height="15.646"/>
<rect x="194.257" y="110.419" style="fill:#E2836A;" width="1.079" height="8.726"/>
<rect x="203.159" y="110.419" style="fill:#E2836A;" width="1.079" height="8.726"/>
<rect x="338.308" y="104.038" style="fill:#E2795D;" width="1.079" height="14.837"/>
<rect x="333.722" y="110.6" style="fill:#E2795D;" width="1.079" height="8.274"/>
<rect x="342.624" y="110.6" style="fill:#E2795D;" width="1.079" height="8.274"/>
<g>
	<g>
		<rect x="224.992" y="143.552" style="fill:#E25D3A;" width="1.777" height="6.281"/>
		<path style="fill:#E25D3A;" d="M226.826,149.95h-1.89v-6.514h1.89V149.95z M225.049,149.717h1.664v-6.048h-1.664V149.717z"/>
	</g>
	<g>
		<path style="fill:#E25D3A;" d="M225.01,142.237c0,0,0.854-2.7,2.035-2.704c1.138-0.004,2.035,2.704,2.035,2.704H225.01z"/>
		<path style="fill:#E25D3A;" d="M229.165,142.308h-4.238l0.03-0.098c0.035-0.112,0.883-2.745,2.088-2.749c0.001,0,0.002,0,0.002,0
			c1.162,0,2.048,2.635,2.085,2.748L229.165,142.308z M225.095,142.166h3.897c-0.174-0.482-0.981-2.562-1.946-2.562
			c0,0-0.001,0-0.002,0C226.041,139.607,225.262,141.686,225.095,142.166z"/>
	</g>
	<g>
		<g>
			<rect x="225.499" y="143.552" style="fill:#E25D3A;" width="0.124" height="6.281"/>
		</g>
		<g>
			<rect x="226.138" y="143.552" style="fill:#E25D3A;" width="0.124" height="6.281"/>
		</g>
	</g>
	<g>
		<rect x="224.992" y="143.425" style="fill:#E25D3A;" width="1.777" height="0.232"/>
	</g>
	<g>
		<rect x="224.992" y="146.563" style="fill:#E25D3A;" width="1.777" height="0.258"/>
	</g>
	<g>
		<rect x="224.992" y="149.704" style="fill:#E25D3A;" width="1.777" height="0.258"/>
	</g>
	<g>
		<rect x="227.302" y="143.552" style="fill:#E25D3A;" width="1.777" height="6.281"/>
		<path style="fill:#E25D3A;" d="M229.136,149.95h-1.89v-6.514h1.89V149.95z M227.359,149.717h1.664v-6.048h-1.664V149.717z"/>
	</g>
	<g>
		<g>
			<rect x="227.809" y="143.552" style="fill:#E25D3A;" width="0.124" height="6.281"/>
		</g>
		<g>
			<rect x="228.448" y="143.552" style="fill:#E25D3A;" width="0.124" height="6.281"/>
		</g>
	</g>
	<g>
		<rect x="227.302" y="143.425" style="fill:#E25D3A;" width="1.777" height="0.232"/>
	</g>
	<g>
		<rect x="227.302" y="146.563" style="fill:#E25D3A;" width="1.777" height="0.258"/>
	</g>
	<g>
		<rect x="227.302" y="149.704" style="fill:#E25D3A;" width="1.777" height="0.258"/>
	</g>
	<g>
		<rect x="227.302" y="151.003" style="fill:#E25D3A;" width="1.777" height="6.281"/>
		<path style="fill:#E25D3A;" d="M229.136,157.4h-1.89v-6.514h1.89V157.4z M227.359,157.168h1.664v-6.048h-1.664V157.168z"/>
	</g>
	<g>
		<g>
			<rect x="227.809" y="151.003" style="fill:#E25D3A;" width="0.124" height="6.281"/>
		</g>
		<g>
			<rect x="228.448" y="151.003" style="fill:#E25D3A;" width="0.124" height="6.281"/>
		</g>
	</g>
	<g>
		<rect x="227.302" y="150.874" style="fill:#E25D3A;" width="1.777" height="0.258"/>
	</g>
	<g>
		<rect x="227.302" y="154.014" style="fill:#E25D3A;" width="1.777" height="0.258"/>
	</g>
	<g>
		<rect x="227.302" y="157.155" style="fill:#E25D3A;" width="1.777" height="0.258"/>
	</g>
	<g>
		<rect x="224.992" y="151.003" style="fill:#E25D3A;" width="1.777" height="6.281"/>
		<path style="fill:#E25D3A;" d="M226.826,157.4h-1.89v-6.514h1.89V157.4z M225.049,157.168h1.664v-6.048h-1.664V157.168z"/>
	</g>
	<g>
		<g>
			<rect x="225.499" y="151.003" style="fill:#E25D3A;" width="0.124" height="6.281"/>
		</g>
		<g>
			<rect x="226.138" y="151.003" style="fill:#E25D3A;" width="0.124" height="6.281"/>
		</g>
	</g>
	<g>
		<rect x="224.992" y="150.874" style="fill:#E25D3A;" width="1.777" height="0.258"/>
	</g>
	<g>
		<rect x="224.992" y="154.014" style="fill:#E25D3A;" width="1.777" height="0.258"/>
	</g>
	<g>
		<rect x="224.992" y="157.155" style="fill:#E25D3A;" width="1.777" height="0.258"/>
	</g>
	<g>
		<defs>
			<path id="SVGID_53_" d="M225.01,142.237c0,0,0.854-2.7,2.035-2.704c1.138-0.004,2.035,2.704,2.035,2.704H225.01z"/>
		</defs>
		<use xlink:href="#SVGID_53_"  style="overflow:visible;fill:#E25D3A;"/>
		<clipPath id="SVGID_1_">
			<use xlink:href="#SVGID_53_"  style="overflow:visible;"/>
		</clipPath>
		<g style="clip-path:url(#SVGID_1_);">
			<g>
				<g>
					<rect x="225.482" y="138.375" style="fill:#E25D3A;" width="0.124" height="3.831"/>
				</g>
				<g>
					<rect x="226.103" y="138.375" style="fill:#E25D3A;" width="0.124" height="3.831"/>
				</g>
			</g>
			<g>
				<g>
					<rect x="226.671" y="138.375" style="fill:#E25D3A;" width="0.124" height="3.831"/>
				</g>
				<g>
					<rect x="227.292" y="138.375" style="fill:#E25D3A;" width="0.124" height="3.831"/>
				</g>
			</g>
			<g>
				<g>
					<rect x="227.862" y="138.375" style="fill:#E25D3A;" width="0.124" height="3.831"/>
				</g>
				<g>
					<rect x="228.483" y="138.375" style="fill:#E25D3A;" width="0.124" height="3.831"/>
				</g>
			</g>
		</g>
		<g style="clip-path:url(#SVGID_1_);">
			<g>
				<g>
					<rect x="225.001" y="139.834" style="fill:#E25D3A;" width="4.397" height="0.157"/>
				</g>
			</g>
			<g>
				<g>
					<rect x="225.104" y="140.959" style="fill:#E25D3A;" width="4.397" height="0.157"/>
				</g>
				<g>
					<rect x="225.001" y="142.174" style="fill:#E25D3A;" width="4.397" height="0.157"/>
				</g>
			</g>
		</g>
	</g>
</g>
<g>
	<g>
		<rect x="217.928" y="143.552" style="fill:#E25D3A;" width="1.777" height="6.281"/>
		<path style="fill:#E25D3A;" d="M219.762,149.95h-1.89v-6.514h1.89V149.95z M217.985,149.717h1.664v-6.048h-1.664V149.717z"/>
	</g>
	<g>
		<path style="fill:#E25D3A;" d="M217.946,142.237c0,0,0.854-2.7,2.035-2.704c1.138-0.004,2.035,2.704,2.035,2.704H217.946z"/>
		<path style="fill:#E25D3A;" d="M222.101,142.308h-4.238l0.03-0.098c0.036-0.112,0.883-2.745,2.088-2.749c0.001,0,0.002,0,0.002,0
			c1.162,0,2.048,2.635,2.085,2.748L222.101,142.308z M218.032,142.166h3.897c-0.174-0.482-0.981-2.562-1.946-2.562
			c0,0-0.001,0-0.002,0C218.977,139.607,218.198,141.686,218.032,142.166z"/>
	</g>
	<g>
		<g>
			<rect x="218.435" y="143.552" style="fill:#E25D3A;" width="0.124" height="6.281"/>
		</g>
		<g>
			<rect x="219.075" y="143.552" style="fill:#E25D3A;" width="0.124" height="6.281"/>
		</g>
	</g>
	<g>
		<rect x="217.928" y="143.425" style="fill:#E25D3A;" width="1.777" height="0.232"/>
	</g>
	<g>
		<rect x="217.928" y="146.563" style="fill:#E25D3A;" width="1.777" height="0.258"/>
	</g>
	<g>
		<rect x="217.928" y="149.704" style="fill:#E25D3A;" width="1.777" height="0.258"/>
	</g>
	<g>
		<rect x="220.239" y="143.552" style="fill:#E25D3A;" width="1.777" height="6.281"/>
		<path style="fill:#E25D3A;" d="M222.072,149.95h-1.89v-6.514h1.89V149.95z M220.295,149.717h1.664v-6.048h-1.664V149.717z"/>
	</g>
	<g>
		<g>
			<rect x="220.745" y="143.552" style="fill:#E25D3A;" width="0.124" height="6.281"/>
		</g>
		<g>
			<rect x="221.385" y="143.552" style="fill:#E25D3A;" width="0.124" height="6.281"/>
		</g>
	</g>
	<g>
		<rect x="220.239" y="143.425" style="fill:#E25D3A;" width="1.777" height="0.232"/>
	</g>
	<g>
		<rect x="220.239" y="146.563" style="fill:#E25D3A;" width="1.777" height="0.258"/>
	</g>
	<g>
		<rect x="220.239" y="149.704" style="fill:#E25D3A;" width="1.777" height="0.258"/>
	</g>
	<g>
		<rect x="220.239" y="151.003" style="fill:#E25D3A;" width="1.777" height="6.281"/>
		<path style="fill:#E25D3A;" d="M222.072,157.4h-1.89v-6.514h1.89V157.4z M220.295,157.168h1.664v-6.048h-1.664V157.168z"/>
	</g>
	<g>
		<g>
			<rect x="220.745" y="151.003" style="fill:#E25D3A;" width="0.124" height="6.281"/>
		</g>
		<g>
			<rect x="221.385" y="151.003" style="fill:#E25D3A;" width="0.124" height="6.281"/>
		</g>
	</g>
	<g>
		<rect x="220.239" y="150.874" style="fill:#E25D3A;" width="1.777" height="0.258"/>
	</g>
	<g>
		<rect x="220.239" y="154.014" style="fill:#E25D3A;" width="1.777" height="0.258"/>
	</g>
	<g>
		<rect x="220.239" y="157.155" style="fill:#E25D3A;" width="1.777" height="0.258"/>
	</g>
	<g>
		<rect x="217.928" y="151.003" style="fill:#E25D3A;" width="1.777" height="6.281"/>
		<path style="fill:#E25D3A;" d="M219.762,157.4h-1.89v-6.514h1.89V157.4z M217.985,157.168h1.664v-6.048h-1.664V157.168z"/>
	</g>
	<g>
		<g>
			<rect x="218.435" y="151.003" style="fill:#E25D3A;" width="0.124" height="6.281"/>
		</g>
		<g>
			<rect x="219.075" y="151.003" style="fill:#E25D3A;" width="0.124" height="6.281"/>
		</g>
	</g>
	<g>
		<rect x="217.928" y="150.874" style="fill:#E25D3A;" width="1.777" height="0.258"/>
	</g>
	<g>
		<rect x="217.928" y="154.014" style="fill:#E25D3A;" width="1.777" height="0.258"/>
	</g>
	<g>
		<rect x="217.928" y="157.155" style="fill:#E25D3A;" width="1.777" height="0.258"/>
	</g>
	<g>
		<defs>
			<path id="SVGID_55_" d="M217.946,142.237c0,0,0.854-2.7,2.035-2.704c1.138-0.004,2.035,2.704,2.035,2.704H217.946z"/>
		</defs>
		<use xlink:href="#SVGID_55_"  style="overflow:visible;fill:#E25D3A;"/>
		<clipPath id="SVGID_2_">
			<use xlink:href="#SVGID_55_"  style="overflow:visible;"/>
		</clipPath>
		<g style="clip-path:url(#SVGID_2_);">
			<g>
				<g>
					<rect x="218.418" y="138.375" style="fill:#E25D3A;" width="0.124" height="3.831"/>
				</g>
				<g>
					<rect x="219.039" y="138.375" style="fill:#E25D3A;" width="0.124" height="3.831"/>
				</g>
			</g>
			<g>
				<g>
					<rect x="219.608" y="138.375" style="fill:#E25D3A;" width="0.124" height="3.831"/>
				</g>
				<g>
					<rect x="220.229" y="138.375" style="fill:#E25D3A;" width="0.124" height="3.831"/>
				</g>
			</g>
			<g>
				<g>
					<rect x="220.798" y="138.375" style="fill:#E25D3A;" width="0.124" height="3.831"/>
				</g>
				<g>
					<rect x="221.419" y="138.375" style="fill:#E25D3A;" width="0.124" height="3.831"/>
				</g>
			</g>
		</g>
		<g style="clip-path:url(#SVGID_2_);">
			<g>
				<g>
					<rect x="217.937" y="139.834" style="fill:#E25D3A;" width="4.397" height="0.157"/>
				</g>
			</g>
			<g>
				<g>
					<rect x="218.04" y="140.959" style="fill:#E25D3A;" width="4.397" height="0.157"/>
				</g>
				<g>
					<rect x="217.937" y="142.174" style="fill:#E25D3A;" width="4.397" height="0.157"/>
				</g>
			</g>
		</g>
	</g>
</g>
<g>
	<g>
		<rect x="239.119" y="143.552" style="fill:#E25D3A;" width="1.777" height="6.281"/>
		<path style="fill:#E25D3A;" d="M240.953,149.95h-1.89v-6.514h1.89V149.95z M239.176,149.717h1.664v-6.048h-1.664V149.717z"/>
	</g>
	<g>
		<path style="fill:#E25D3A;" d="M239.137,142.237c0,0,0.854-2.7,2.035-2.704c1.138-0.004,2.035,2.704,2.035,2.704H239.137z"/>
		<path style="fill:#E25D3A;" d="M243.292,142.308h-4.238l0.03-0.098c0.036-0.112,0.883-2.745,2.088-2.749c0.001,0,0.002,0,0.002,0
			c1.162,0,2.048,2.635,2.085,2.748L243.292,142.308z M239.223,142.166h3.897c-0.174-0.482-0.981-2.562-1.946-2.562
			c0,0-0.001,0-0.002,0C240.168,139.607,239.389,141.686,239.223,142.166z"/>
	</g>
	<g>
		<g>
			<rect x="239.626" y="143.552" style="fill:#E25D3A;" width="0.124" height="6.281"/>
		</g>
		<g>
			<rect x="240.266" y="143.552" style="fill:#E25D3A;" width="0.124" height="6.281"/>
		</g>
	</g>
	<g>
		<rect x="239.119" y="143.425" style="fill:#E25D3A;" width="1.777" height="0.232"/>
	</g>
	<g>
		<rect x="239.119" y="146.563" style="fill:#E25D3A;" width="1.777" height="0.258"/>
	</g>
	<g>
		<rect x="239.119" y="149.704" style="fill:#E25D3A;" width="1.777" height="0.258"/>
	</g>
	<g>
		<rect x="241.43" y="143.552" style="fill:#E25D3A;" width="1.777" height="6.281"/>
		<path style="fill:#E25D3A;" d="M243.263,149.95h-1.89v-6.514h1.89V149.95z M241.486,149.717h1.664v-6.048h-1.664V149.717z"/>
	</g>
	<g>
		<g>
			<rect x="241.936" y="143.552" style="fill:#E25D3A;" width="0.124" height="6.281"/>
		</g>
		<g>
			<rect x="242.576" y="143.552" style="fill:#E25D3A;" width="0.124" height="6.281"/>
		</g>
	</g>
	<g>
		<rect x="241.43" y="143.425" style="fill:#E25D3A;" width="1.777" height="0.232"/>
	</g>
	<g>
		<rect x="241.43" y="146.563" style="fill:#E25D3A;" width="1.777" height="0.258"/>
	</g>
	<g>
		<rect x="241.43" y="149.704" style="fill:#E25D3A;" width="1.777" height="0.258"/>
	</g>
	<g>
		<rect x="241.43" y="151.003" style="fill:#E25D3A;" width="1.777" height="6.281"/>
		<path style="fill:#E25D3A;" d="M243.263,157.4h-1.89v-6.514h1.89V157.4z M241.486,157.168h1.664v-6.048h-1.664V157.168z"/>
	</g>
	<g>
		<g>
			<rect x="241.936" y="151.003" style="fill:#E25D3A;" width="0.124" height="6.281"/>
		</g>
		<g>
			<rect x="242.576" y="151.003" style="fill:#E25D3A;" width="0.124" height="6.281"/>
		</g>
	</g>
	<g>
		<rect x="241.43" y="150.874" style="fill:#E25D3A;" width="1.777" height="0.258"/>
	</g>
	<g>
		<rect x="241.43" y="154.014" style="fill:#E25D3A;" width="1.777" height="0.258"/>
	</g>
	<g>
		<rect x="241.43" y="157.155" style="fill:#E25D3A;" width="1.777" height="0.258"/>
	</g>
	<g>
		<rect x="239.119" y="151.003" style="fill:#E25D3A;" width="1.777" height="6.281"/>
		<path style="fill:#E25D3A;" d="M240.953,157.4h-1.89v-6.514h1.89V157.4z M239.176,157.168h1.664v-6.048h-1.664V157.168z"/>
	</g>
	<g>
		<g>
			<rect x="239.626" y="151.003" style="fill:#E25D3A;" width="0.124" height="6.281"/>
		</g>
		<g>
			<rect x="240.266" y="151.003" style="fill:#E25D3A;" width="0.124" height="6.281"/>
		</g>
	</g>
	<g>
		<rect x="239.119" y="150.874" style="fill:#E25D3A;" width="1.777" height="0.258"/>
	</g>
	<g>
		<rect x="239.119" y="154.014" style="fill:#E25D3A;" width="1.777" height="0.258"/>
	</g>
	<g>
		<rect x="239.119" y="157.155" style="fill:#E25D3A;" width="1.777" height="0.258"/>
	</g>
	<g>
		<defs>
			<path id="SVGID_57_" d="M239.137,142.237c0,0,0.854-2.7,2.035-2.704c1.138-0.004,2.035,2.704,2.035,2.704H239.137z"/>
		</defs>
		<use xlink:href="#SVGID_57_"  style="overflow:visible;fill:#E25D3A;"/>
		<clipPath id="SVGID_4_">
			<use xlink:href="#SVGID_57_"  style="overflow:visible;"/>
		</clipPath>
		<g style="clip-path:url(#SVGID_4_);">
			<g>
				<g>
					<rect x="239.609" y="138.375" style="fill:#E25D3A;" width="0.124" height="3.831"/>
				</g>
				<g>
					<rect x="240.23" y="138.375" style="fill:#E25D3A;" width="0.124" height="3.831"/>
				</g>
			</g>
			<g>
				<g>
					<rect x="240.799" y="138.375" style="fill:#E25D3A;" width="0.124" height="3.831"/>
				</g>
				<g>
					<rect x="241.42" y="138.375" style="fill:#E25D3A;" width="0.124" height="3.831"/>
				</g>
			</g>
			<g>
				<g>
					<rect x="241.989" y="138.375" style="fill:#E25D3A;" width="0.124" height="3.831"/>
				</g>
				<g>
					<rect x="242.61" y="138.375" style="fill:#E25D3A;" width="0.124" height="3.831"/>
				</g>
			</g>
		</g>
		<g style="clip-path:url(#SVGID_4_);">
			<g>
				<g>
					<rect x="239.128" y="139.834" style="fill:#E25D3A;" width="4.397" height="0.157"/>
				</g>
			</g>
			<g>
				<g>
					<rect x="239.231" y="140.959" style="fill:#E25D3A;" width="4.397" height="0.157"/>
				</g>
				<g>
					<rect x="239.128" y="142.174" style="fill:#E25D3A;" width="4.397" height="0.157"/>
				</g>
			</g>
		</g>
	</g>
</g>
<g>
	<g>
		<rect x="232.056" y="143.552" style="fill:#E25D3A;" width="1.777" height="6.281"/>
		<path style="fill:#E25D3A;" d="M233.889,149.95h-1.89v-6.514h1.89V149.95z M232.112,149.717h1.664v-6.048h-1.664V149.717z"/>
	</g>
	<g>
		<path style="fill:#E25D3A;" d="M232.073,142.237c0,0,0.854-2.7,2.035-2.704c1.138-0.004,2.035,2.704,2.035,2.704H232.073z"/>
		<path style="fill:#E25D3A;" d="M236.228,142.308h-4.238l0.03-0.098c0.035-0.112,0.883-2.745,2.088-2.749c0.001,0,0.002,0,0.002,0
			c1.162,0,2.048,2.635,2.085,2.748L236.228,142.308z M232.159,142.166h3.897c-0.174-0.482-0.981-2.562-1.946-2.562
			c0,0-0.001,0-0.002,0C233.104,139.607,232.326,141.686,232.159,142.166z"/>
	</g>
	<g>
		<g>
			<rect x="232.562" y="143.552" style="fill:#E25D3A;" width="0.124" height="6.281"/>
		</g>
		<g>
			<rect x="233.202" y="143.552" style="fill:#E25D3A;" width="0.124" height="6.281"/>
		</g>
	</g>
	<g>
		<rect x="232.056" y="143.425" style="fill:#E25D3A;" width="1.777" height="0.232"/>
	</g>
	<g>
		<rect x="232.056" y="146.563" style="fill:#E25D3A;" width="1.777" height="0.258"/>
	</g>
	<g>
		<rect x="232.056" y="149.704" style="fill:#E25D3A;" width="1.777" height="0.258"/>
	</g>
	<g>
		<rect x="234.366" y="143.552" style="fill:#E25D3A;" width="1.777" height="6.281"/>
		<path style="fill:#E25D3A;" d="M236.2,149.95h-1.89v-6.514h1.89V149.95z M234.423,149.717h1.664v-6.048h-1.664V149.717z"/>
	</g>
	<g>
		<g>
			<rect x="234.872" y="143.552" style="fill:#E25D3A;" width="0.124" height="6.281"/>
		</g>
		<g>
			<rect x="235.512" y="143.552" style="fill:#E25D3A;" width="0.124" height="6.281"/>
		</g>
	</g>
	<g>
		<rect x="234.366" y="143.425" style="fill:#E25D3A;" width="1.777" height="0.232"/>
	</g>
	<g>
		<rect x="234.366" y="146.563" style="fill:#E25D3A;" width="1.777" height="0.258"/>
	</g>
	<g>
		<rect x="234.366" y="149.704" style="fill:#E25D3A;" width="1.777" height="0.258"/>
	</g>
	<g>
		<rect x="234.366" y="151.003" style="fill:#E25D3A;" width="1.777" height="6.281"/>
		<path style="fill:#E25D3A;" d="M236.2,157.4h-1.89v-6.514h1.89V157.4z M234.423,157.168h1.664v-6.048h-1.664V157.168z"/>
	</g>
	<g>
		<g>
			<rect x="234.872" y="151.003" style="fill:#E25D3A;" width="0.124" height="6.281"/>
		</g>
		<g>
			<rect x="235.512" y="151.003" style="fill:#E25D3A;" width="0.124" height="6.281"/>
		</g>
	</g>
	<g>
		<rect x="234.366" y="150.874" style="fill:#E25D3A;" width="1.777" height="0.258"/>
	</g>
	<g>
		<rect x="234.366" y="154.014" style="fill:#E25D3A;" width="1.777" height="0.258"/>
	</g>
	<g>
		<rect x="234.366" y="157.155" style="fill:#E25D3A;" width="1.777" height="0.258"/>
	</g>
	<g>
		<rect x="232.056" y="151.003" style="fill:#E25D3A;" width="1.777" height="6.281"/>
		<path style="fill:#E25D3A;" d="M233.889,157.4h-1.89v-6.514h1.89V157.4z M232.112,157.168h1.664v-6.048h-1.664V157.168z"/>
	</g>
	<g>
		<g>
			<rect x="232.562" y="151.003" style="fill:#E25D3A;" width="0.124" height="6.281"/>
		</g>
		<g>
			<rect x="233.202" y="151.003" style="fill:#E25D3A;" width="0.124" height="6.281"/>
		</g>
	</g>
	<g>
		<rect x="232.056" y="150.874" style="fill:#E25D3A;" width="1.777" height="0.258"/>
	</g>
	<g>
		<rect x="232.056" y="154.014" style="fill:#E25D3A;" width="1.777" height="0.258"/>
	</g>
	<g>
		<rect x="232.056" y="157.155" style="fill:#E25D3A;" width="1.777" height="0.258"/>
	</g>
	<g>
		<defs>
			<path id="SVGID_59_" d="M232.073,142.237c0,0,0.854-2.7,2.035-2.704c1.138-0.004,2.035,2.704,2.035,2.704H232.073z"/>
		</defs>
		<use xlink:href="#SVGID_59_"  style="overflow:visible;fill:#E25D3A;"/>
		<clipPath id="SVGID_6_">
			<use xlink:href="#SVGID_59_"  style="overflow:visible;"/>
		</clipPath>
		<g style="clip-path:url(#SVGID_6_);">
			<g>
				<g>
					<rect x="232.545" y="138.375" style="fill:#E25D3A;" width="0.124" height="3.831"/>
				</g>
				<g>
					<rect x="233.166" y="138.375" style="fill:#E25D3A;" width="0.124" height="3.831"/>
				</g>
			</g>
			<g>
				<g>
					<rect x="233.735" y="138.375" style="fill:#E25D3A;" width="0.124" height="3.831"/>
				</g>
				<g>
					<rect x="234.356" y="138.375" style="fill:#E25D3A;" width="0.124" height="3.831"/>
				</g>
			</g>
			<g>
				<g>
					<rect x="234.926" y="138.375" style="fill:#E25D3A;" width="0.124" height="3.831"/>
				</g>
				<g>
					<rect x="235.547" y="138.375" style="fill:#E25D3A;" width="0.124" height="3.831"/>
				</g>
			</g>
		</g>
		<g style="clip-path:url(#SVGID_6_);">
			<g>
				<g>
					<rect x="232.065" y="139.834" style="fill:#E25D3A;" width="4.397" height="0.157"/>
				</g>
			</g>
			<g>
				<g>
					<rect x="232.167" y="140.959" style="fill:#E25D3A;" width="4.397" height="0.157"/>
				</g>
				<g>
					<rect x="232.065" y="142.174" style="fill:#E25D3A;" width="4.397" height="0.157"/>
				</g>
			</g>
		</g>
	</g>
</g>
<g>
	<g>
		<rect x="301.427" y="143.552" style="fill:#E25D3A;" width="1.777" height="6.281"/>
		<path style="fill:#E25D3A;" d="M303.261,149.95h-1.89v-6.514h1.89V149.95z M301.484,149.717h1.664v-6.048h-1.664V149.717z"/>
	</g>
	<g>
		<path style="fill:#E25D3A;" d="M301.445,142.237c0,0,0.854-2.7,2.035-2.704c1.138-0.004,2.035,2.704,2.035,2.704H301.445z"/>
		<path style="fill:#E25D3A;" d="M305.6,142.308h-4.238l0.03-0.098c0.035-0.112,0.883-2.745,2.088-2.749c0.001,0,0.002,0,0.002,0
			c1.162,0,2.048,2.635,2.085,2.748L305.6,142.308z M301.531,142.166h3.897c-0.174-0.482-0.981-2.562-1.946-2.562
			c0,0-0.001,0-0.002,0C302.476,139.607,301.697,141.686,301.531,142.166z"/>
	</g>
	<g>
		<g>
			<rect x="301.934" y="143.552" style="fill:#E25D3A;" width="0.124" height="6.281"/>
		</g>
		<g>
			<rect x="302.573" y="143.552" style="fill:#E25D3A;" width="0.124" height="6.281"/>
		</g>
	</g>
	<g>
		<rect x="301.427" y="143.425" style="fill:#E25D3A;" width="1.777" height="0.232"/>
	</g>
	<g>
		<rect x="301.427" y="146.563" style="fill:#E25D3A;" width="1.777" height="0.258"/>
	</g>
	<g>
		<rect x="301.427" y="149.704" style="fill:#E25D3A;" width="1.777" height="0.258"/>
	</g>
	<g>
		<rect x="303.737" y="143.552" style="fill:#E25D3A;" width="1.777" height="6.281"/>
		<path style="fill:#E25D3A;" d="M305.571,149.95h-1.89v-6.514h1.89V149.95z M303.794,149.717h1.664v-6.048h-1.664V149.717z"/>
	</g>
	<g>
		<g>
			<rect x="304.244" y="143.552" style="fill:#E25D3A;" width="0.124" height="6.281"/>
		</g>
		<g>
			<rect x="304.884" y="143.552" style="fill:#E25D3A;" width="0.124" height="6.281"/>
		</g>
	</g>
	<g>
		<rect x="303.737" y="143.425" style="fill:#E25D3A;" width="1.777" height="0.232"/>
	</g>
	<g>
		<rect x="303.737" y="146.563" style="fill:#E25D3A;" width="1.777" height="0.258"/>
	</g>
	<g>
		<rect x="303.737" y="149.704" style="fill:#E25D3A;" width="1.777" height="0.258"/>
	</g>
	<g>
		<rect x="303.737" y="151.003" style="fill:#E25D3A;" width="1.777" height="6.281"/>
		<path style="fill:#E25D3A;" d="M305.571,157.4h-1.89v-6.514h1.89V157.4z M303.794,157.168h1.664v-6.048h-1.664V157.168z"/>
	</g>
	<g>
		<g>
			<rect x="304.244" y="151.003" style="fill:#E25D3A;" width="0.124" height="6.281"/>
		</g>
		<g>
			<rect x="304.884" y="151.003" style="fill:#E25D3A;" width="0.124" height="6.281"/>
		</g>
	</g>
	<g>
		<rect x="303.737" y="150.874" style="fill:#E25D3A;" width="1.777" height="0.258"/>
	</g>
	<g>
		<rect x="303.737" y="154.014" style="fill:#E25D3A;" width="1.777" height="0.258"/>
	</g>
	<g>
		<rect x="303.737" y="157.155" style="fill:#E25D3A;" width="1.777" height="0.258"/>
	</g>
	<g>
		<rect x="301.427" y="151.003" style="fill:#E25D3A;" width="1.777" height="6.281"/>
		<path style="fill:#E25D3A;" d="M303.261,157.4h-1.89v-6.514h1.89V157.4z M301.484,157.168h1.664v-6.048h-1.664V157.168z"/>
	</g>
	<g>
		<g>
			<rect x="301.934" y="151.003" style="fill:#E25D3A;" width="0.124" height="6.281"/>
		</g>
		<g>
			<rect x="302.573" y="151.003" style="fill:#E25D3A;" width="0.124" height="6.281"/>
		</g>
	</g>
	<g>
		<rect x="301.427" y="150.874" style="fill:#E25D3A;" width="1.777" height="0.258"/>
	</g>
	<g>
		<rect x="301.427" y="154.014" style="fill:#E25D3A;" width="1.777" height="0.258"/>
	</g>
	<g>
		<rect x="301.427" y="157.155" style="fill:#E25D3A;" width="1.777" height="0.258"/>
	</g>
	<g>
		<defs>
			<path id="SVGID_61_" d="M301.445,142.237c0,0,0.854-2.7,2.035-2.704c1.138-0.004,2.035,2.704,2.035,2.704H301.445z"/>
		</defs>
		<use xlink:href="#SVGID_61_"  style="overflow:visible;fill:#E25D3A;"/>
		<clipPath id="SVGID_8_">
			<use xlink:href="#SVGID_61_"  style="overflow:visible;"/>
		</clipPath>
		<g style="clip-path:url(#SVGID_8_);">
			<g>
				<g>
					<rect x="301.917" y="138.375" style="fill:#E25D3A;" width="0.124" height="3.831"/>
				</g>
				<g>
					<rect x="302.538" y="138.375" style="fill:#E25D3A;" width="0.124" height="3.831"/>
				</g>
			</g>
			<g>
				<g>
					<rect x="303.107" y="138.375" style="fill:#E25D3A;" width="0.124" height="3.831"/>
				</g>
				<g>
					<rect x="303.727" y="138.375" style="fill:#E25D3A;" width="0.124" height="3.831"/>
				</g>
			</g>
			<g>
				<g>
					<rect x="304.297" y="138.375" style="fill:#E25D3A;" width="0.124" height="3.831"/>
				</g>
				<g>
					<rect x="304.918" y="138.375" style="fill:#E25D3A;" width="0.124" height="3.831"/>
				</g>
			</g>
		</g>
		<g style="clip-path:url(#SVGID_8_);">
			<g>
				<g>
					<rect x="301.436" y="139.834" style="fill:#E25D3A;" width="4.397" height="0.157"/>
				</g>
			</g>
			<g>
				<g>
					<rect x="301.539" y="140.959" style="fill:#E25D3A;" width="4.397" height="0.157"/>
				</g>
				<g>
					<rect x="301.436" y="142.174" style="fill:#E25D3A;" width="4.397" height="0.157"/>
				</g>
			</g>
		</g>
	</g>
</g>
<g>
	<g>
		<rect x="294.364" y="143.552" style="fill:#E25D3A;" width="1.777" height="6.281"/>
		<path style="fill:#E25D3A;" d="M296.197,149.95h-1.89v-6.514h1.89V149.95z M294.42,149.717h1.664v-6.048h-1.664V149.717z"/>
	</g>
	<g>
		<path style="fill:#E25D3A;" d="M294.381,142.237c0,0,0.854-2.7,2.035-2.704c1.138-0.004,2.035,2.704,2.035,2.704H294.381z"/>
		<path style="fill:#E25D3A;" d="M298.536,142.308h-4.238l0.03-0.098c0.035-0.112,0.883-2.745,2.088-2.749c0.001,0,0.002,0,0.002,0
			c1.162,0,2.048,2.635,2.085,2.748L298.536,142.308z M294.467,142.166h3.897c-0.174-0.482-0.981-2.562-1.946-2.562
			c0,0-0.001,0-0.002,0C295.412,139.607,294.634,141.686,294.467,142.166z"/>
	</g>
	<g>
		<g>
			<rect x="294.87" y="143.552" style="fill:#E25D3A;" width="0.124" height="6.281"/>
		</g>
		<g>
			<rect x="295.51" y="143.552" style="fill:#E25D3A;" width="0.124" height="6.281"/>
		</g>
	</g>
	<g>
		<rect x="294.364" y="143.425" style="fill:#E25D3A;" width="1.777" height="0.232"/>
	</g>
	<g>
		<rect x="294.364" y="146.563" style="fill:#E25D3A;" width="1.777" height="0.258"/>
	</g>
	<g>
		<rect x="294.364" y="149.704" style="fill:#E25D3A;" width="1.777" height="0.258"/>
	</g>
	<g>
		<rect x="296.674" y="143.552" style="fill:#E25D3A;" width="1.777" height="6.281"/>
		<path style="fill:#E25D3A;" d="M298.508,149.95h-1.89v-6.514h1.89V149.95z M296.73,149.717h1.664v-6.048h-1.664V149.717z"/>
	</g>
	<g>
		<g>
			<rect x="297.18" y="143.552" style="fill:#E25D3A;" width="0.124" height="6.281"/>
		</g>
		<g>
			<rect x="297.82" y="143.552" style="fill:#E25D3A;" width="0.124" height="6.281"/>
		</g>
	</g>
	<g>
		<rect x="296.674" y="143.425" style="fill:#E25D3A;" width="1.777" height="0.232"/>
	</g>
	<g>
		<rect x="296.674" y="146.563" style="fill:#E25D3A;" width="1.777" height="0.258"/>
	</g>
	<g>
		<rect x="296.674" y="149.704" style="fill:#E25D3A;" width="1.777" height="0.258"/>
	</g>
	<g>
		<rect x="296.674" y="151.003" style="fill:#E25D3A;" width="1.777" height="6.281"/>
		<path style="fill:#E25D3A;" d="M298.508,157.4h-1.89v-6.514h1.89V157.4z M296.73,157.168h1.664v-6.048h-1.664V157.168z"/>
	</g>
	<g>
		<g>
			<rect x="297.18" y="151.003" style="fill:#E25D3A;" width="0.124" height="6.281"/>
		</g>
		<g>
			<rect x="297.82" y="151.003" style="fill:#E25D3A;" width="0.124" height="6.281"/>
		</g>
	</g>
	<g>
		<rect x="296.674" y="150.874" style="fill:#E25D3A;" width="1.777" height="0.258"/>
	</g>
	<g>
		<rect x="296.674" y="154.014" style="fill:#E25D3A;" width="1.777" height="0.258"/>
	</g>
	<g>
		<rect x="296.674" y="157.155" style="fill:#E25D3A;" width="1.777" height="0.258"/>
	</g>
	<g>
		<rect x="294.364" y="151.003" style="fill:#E25D3A;" width="1.777" height="6.281"/>
		<path style="fill:#E25D3A;" d="M296.197,157.4h-1.89v-6.514h1.89V157.4z M294.42,157.168h1.664v-6.048h-1.664V157.168z"/>
	</g>
	<g>
		<g>
			<rect x="294.87" y="151.003" style="fill:#E25D3A;" width="0.124" height="6.281"/>
		</g>
		<g>
			<rect x="295.51" y="151.003" style="fill:#E25D3A;" width="0.124" height="6.281"/>
		</g>
	</g>
	<g>
		<rect x="294.364" y="150.874" style="fill:#E25D3A;" width="1.777" height="0.258"/>
	</g>
	<g>
		<rect x="294.364" y="154.014" style="fill:#E25D3A;" width="1.777" height="0.258"/>
	</g>
	<g>
		<rect x="294.364" y="157.155" style="fill:#E25D3A;" width="1.777" height="0.258"/>
	</g>
</g>
<g>
	<g>
		<rect x="315.555" y="143.552" style="fill:#E25D3A;" width="1.777" height="6.281"/>
		<path style="fill:#E25D3A;" d="M317.388,149.95h-1.89v-6.514h1.89V149.95z M315.611,149.717h1.664v-6.048h-1.664V149.717z"/>
	</g>
	<g>
		<path style="fill:#E25D3A;" d="M315.572,142.237c0,0,0.854-2.7,2.035-2.704c1.138-0.004,2.035,2.704,2.035,2.704H315.572z"/>
		<path style="fill:#E25D3A;" d="M319.727,142.308h-4.238l0.03-0.098c0.036-0.112,0.883-2.745,2.088-2.749c0.001,0,0.002,0,0.002,0
			c1.162,0,2.048,2.635,2.085,2.748L319.727,142.308z M315.658,142.166h3.897c-0.174-0.482-0.981-2.562-1.946-2.562
			c0,0-0.001,0-0.002,0C316.603,139.607,315.824,141.686,315.658,142.166z"/>
	</g>
	<g>
		<g>
			<rect x="316.061" y="143.552" style="fill:#E25D3A;" width="0.124" height="6.281"/>
		</g>
		<g>
			<rect x="316.701" y="143.552" style="fill:#E25D3A;" width="0.124" height="6.281"/>
		</g>
	</g>
	<g>
		<rect x="315.555" y="143.425" style="fill:#E25D3A;" width="1.777" height="0.232"/>
	</g>
	<g>
		<rect x="315.555" y="146.563" style="fill:#E25D3A;" width="1.777" height="0.258"/>
	</g>
	<g>
		<rect x="315.555" y="149.704" style="fill:#E25D3A;" width="1.777" height="0.258"/>
	</g>
	<g>
		<rect x="317.865" y="143.552" style="fill:#E25D3A;" width="1.777" height="6.281"/>
		<path style="fill:#E25D3A;" d="M319.698,149.95h-1.89v-6.514h1.89V149.95z M317.921,149.717h1.664v-6.048h-1.664V149.717z"/>
	</g>
	<g>
		<g>
			<rect x="318.371" y="143.552" style="fill:#E25D3A;" width="0.124" height="6.281"/>
		</g>
		<g>
			<rect x="319.011" y="143.552" style="fill:#E25D3A;" width="0.124" height="6.281"/>
		</g>
	</g>
	<g>
		<rect x="317.865" y="143.425" style="fill:#E25D3A;" width="1.777" height="0.232"/>
	</g>
	<g>
		<rect x="317.865" y="146.563" style="fill:#E25D3A;" width="1.777" height="0.258"/>
	</g>
	<g>
		<rect x="317.865" y="149.704" style="fill:#E25D3A;" width="1.777" height="0.258"/>
	</g>
	<g>
		<rect x="317.865" y="151.003" style="fill:#E25D3A;" width="1.777" height="6.281"/>
		<path style="fill:#E25D3A;" d="M319.698,157.4h-1.89v-6.514h1.89V157.4z M317.921,157.168h1.664v-6.048h-1.664V157.168z"/>
	</g>
	<g>
		<g>
			<rect x="318.371" y="151.003" style="fill:#E25D3A;" width="0.124" height="6.281"/>
		</g>
		<g>
			<rect x="319.011" y="151.003" style="fill:#E25D3A;" width="0.124" height="6.281"/>
		</g>
	</g>
	<g>
		<rect x="317.865" y="150.874" style="fill:#E25D3A;" width="1.777" height="0.258"/>
	</g>
	<g>
		<rect x="317.865" y="154.014" style="fill:#E25D3A;" width="1.777" height="0.258"/>
	</g>
	<g>
		<rect x="317.865" y="157.155" style="fill:#E25D3A;" width="1.777" height="0.258"/>
	</g>
	<g>
		<rect x="315.555" y="151.003" style="fill:#E25D3A;" width="1.777" height="6.281"/>
		<path style="fill:#E25D3A;" d="M317.388,157.4h-1.89v-6.514h1.89V157.4z M315.611,157.168h1.664v-6.048h-1.664V157.168z"/>
	</g>
	<g>
		<g>
			<rect x="316.061" y="151.003" style="fill:#E25D3A;" width="0.124" height="6.281"/>
		</g>
		<g>
			<rect x="316.701" y="151.003" style="fill:#E25D3A;" width="0.124" height="6.281"/>
		</g>
	</g>
	<g>
		<rect x="315.555" y="150.874" style="fill:#E25D3A;" width="1.777" height="0.258"/>
	</g>
	<g>
		<rect x="315.555" y="154.014" style="fill:#E25D3A;" width="1.777" height="0.258"/>
	</g>
	<g>
		<rect x="315.555" y="157.155" style="fill:#E25D3A;" width="1.777" height="0.258"/>
	</g>
	<g>
		<defs>
			<path id="SVGID_63_" d="M315.572,142.237c0,0,0.854-2.7,2.035-2.704c1.138-0.004,2.035,2.704,2.035,2.704H315.572z"/>
		</defs>
		<use xlink:href="#SVGID_63_"  style="overflow:visible;fill:#E25D3A;"/>
		<clipPath id="SVGID_10_">
			<use xlink:href="#SVGID_63_"  style="overflow:visible;"/>
		</clipPath>
		<g style="clip-path:url(#SVGID_10_);">
			<g>
				<g>
					<rect x="316.044" y="138.375" style="fill:#E25D3A;" width="0.124" height="3.831"/>
				</g>
				<g>
					<rect x="316.665" y="138.375" style="fill:#E25D3A;" width="0.124" height="3.831"/>
				</g>
			</g>
			<g>
				<g>
					<rect x="317.234" y="138.375" style="fill:#E25D3A;" width="0.124" height="3.831"/>
				</g>
				<g>
					<rect x="317.855" y="138.375" style="fill:#E25D3A;" width="0.124" height="3.831"/>
				</g>
			</g>
			<g>
				<g>
					<rect x="318.425" y="138.375" style="fill:#E25D3A;" width="0.124" height="3.831"/>
				</g>
				<g>
					<rect x="319.045" y="138.375" style="fill:#E25D3A;" width="0.124" height="3.831"/>
				</g>
			</g>
		</g>
		<g style="clip-path:url(#SVGID_10_);">
			<g>
				<g>
					<rect x="315.563" y="139.834" style="fill:#E25D3A;" width="4.397" height="0.157"/>
				</g>
			</g>
			<g>
				<g>
					<rect x="315.666" y="140.959" style="fill:#E25D3A;" width="4.397" height="0.157"/>
				</g>
				<g>
					<rect x="315.563" y="142.174" style="fill:#E25D3A;" width="4.397" height="0.157"/>
				</g>
			</g>
		</g>
	</g>
</g>
<g>
	<g>
		<rect x="308.491" y="143.552" style="fill:#E25D3A;" width="1.777" height="6.281"/>
		<path style="fill:#E25D3A;" d="M310.325,149.95h-1.89v-6.514h1.89V149.95z M308.548,149.717h1.664v-6.048h-1.664V149.717z"/>
	</g>
	<g>
		<path style="fill:#E25D3A;" d="M308.508,142.237c0,0,0.854-2.7,2.035-2.704c1.138-0.004,2.035,2.704,2.035,2.704H308.508z"/>
		<path style="fill:#E25D3A;" d="M312.664,142.308h-4.238l0.03-0.098c0.035-0.112,0.883-2.745,2.088-2.749c0.001,0,0.002,0,0.002,0
			c1.162,0,2.048,2.635,2.085,2.748L312.664,142.308z M308.594,142.166h3.897c-0.174-0.482-0.981-2.562-1.946-2.562
			c0,0-0.001,0-0.002,0C309.539,139.607,308.761,141.686,308.594,142.166z"/>
	</g>
	<g>
		<g>
			<rect x="308.997" y="143.552" style="fill:#E25D3A;" width="0.124" height="6.281"/>
		</g>
		<g>
			<rect x="309.637" y="143.552" style="fill:#E25D3A;" width="0.124" height="6.281"/>
		</g>
	</g>
	<g>
		<rect x="308.491" y="143.425" style="fill:#E25D3A;" width="1.777" height="0.232"/>
	</g>
	<g>
		<rect x="308.491" y="146.563" style="fill:#E25D3A;" width="1.777" height="0.258"/>
	</g>
	<g>
		<rect x="308.491" y="149.704" style="fill:#E25D3A;" width="1.777" height="0.258"/>
	</g>
	<g>
		<rect x="310.801" y="143.552" style="fill:#E25D3A;" width="1.777" height="6.281"/>
		<path style="fill:#E25D3A;" d="M312.635,149.95h-1.89v-6.514h1.89V149.95z M310.858,149.717h1.664v-6.048h-1.664V149.717z"/>
	</g>
	<g>
		<g>
			<rect x="311.308" y="143.552" style="fill:#E25D3A;" width="0.124" height="6.281"/>
		</g>
		<g>
			<rect x="311.947" y="143.552" style="fill:#E25D3A;" width="0.124" height="6.281"/>
		</g>
	</g>
	<g>
		<rect x="310.801" y="143.425" style="fill:#E25D3A;" width="1.777" height="0.232"/>
	</g>
	<g>
		<rect x="310.801" y="146.563" style="fill:#E25D3A;" width="1.777" height="0.258"/>
	</g>
	<g>
		<rect x="310.801" y="149.704" style="fill:#E25D3A;" width="1.777" height="0.258"/>
	</g>
	<g>
		<rect x="310.801" y="151.003" style="fill:#E25D3A;" width="1.777" height="6.281"/>
		<path style="fill:#E25D3A;" d="M312.635,157.4h-1.89v-6.514h1.89V157.4z M310.858,157.168h1.664v-6.048h-1.664V157.168z"/>
	</g>
	<g>
		<g>
			<rect x="311.308" y="151.003" style="fill:#E25D3A;" width="0.124" height="6.281"/>
		</g>
		<g>
			<rect x="311.947" y="151.003" style="fill:#E25D3A;" width="0.124" height="6.281"/>
		</g>
	</g>
	<g>
		<rect x="310.801" y="150.874" style="fill:#E25D3A;" width="1.777" height="0.258"/>
	</g>
	<g>
		<rect x="310.801" y="154.014" style="fill:#E25D3A;" width="1.777" height="0.258"/>
	</g>
	<g>
		<rect x="310.801" y="157.155" style="fill:#E25D3A;" width="1.777" height="0.258"/>
	</g>
	<g>
		<rect x="308.491" y="151.003" style="fill:#E25D3A;" width="1.777" height="6.281"/>
		<path style="fill:#E25D3A;" d="M310.325,157.4h-1.89v-6.514h1.89V157.4z M308.548,157.168h1.664v-6.048h-1.664V157.168z"/>
	</g>
	<g>
		<g>
			<rect x="308.997" y="151.003" style="fill:#E25D3A;" width="0.124" height="6.281"/>
		</g>
		<g>
			<rect x="309.637" y="151.003" style="fill:#E25D3A;" width="0.124" height="6.281"/>
		</g>
	</g>
	<g>
		<rect x="308.491" y="150.874" style="fill:#E25D3A;" width="1.777" height="0.258"/>
	</g>
	<g>
		<rect x="308.491" y="154.014" style="fill:#E25D3A;" width="1.777" height="0.258"/>
	</g>
	<g>
		<rect x="308.491" y="157.155" style="fill:#E25D3A;" width="1.777" height="0.258"/>
	</g>
	<g>
		<defs>
			<path id="SVGID_65_" d="M308.508,142.237c0,0,0.854-2.7,2.035-2.704c1.138-0.004,2.035,2.704,2.035,2.704H308.508z"/>
		</defs>
		<use xlink:href="#SVGID_65_"  style="overflow:visible;fill:#E25D3A;"/>
		<clipPath id="SVGID_12_">
			<use xlink:href="#SVGID_65_"  style="overflow:visible;"/>
		</clipPath>
		<g style="clip-path:url(#SVGID_12_);">
			<g>
				<g>
					<rect x="308.981" y="138.375" style="fill:#E25D3A;" width="0.124" height="3.831"/>
				</g>
				<g>
					<rect x="309.602" y="138.375" style="fill:#E25D3A;" width="0.124" height="3.831"/>
				</g>
			</g>
			<g>
				<g>
					<rect x="310.17" y="138.375" style="fill:#E25D3A;" width="0.124" height="3.831"/>
				</g>
				<g>
					<rect x="310.791" y="138.375" style="fill:#E25D3A;" width="0.124" height="3.831"/>
				</g>
			</g>
			<g>
				<g>
					<rect x="311.361" y="138.375" style="fill:#E25D3A;" width="0.124" height="3.831"/>
				</g>
				<g>
					<rect x="311.982" y="138.375" style="fill:#E25D3A;" width="0.124" height="3.831"/>
				</g>
			</g>
		</g>
		<g style="clip-path:url(#SVGID_12_);">
			<g>
				<g>
					<rect x="308.5" y="139.834" style="fill:#E25D3A;" width="4.397" height="0.157"/>
				</g>
			</g>
			<g>
				<g>
					<rect x="308.603" y="140.959" style="fill:#E25D3A;" width="4.397" height="0.157"/>
				</g>
				<g>
					<rect x="308.5" y="142.174" style="fill:#E25D3A;" width="4.397" height="0.157"/>
				</g>
			</g>
		</g>
	</g>
</g>
<g>
	<g>
		<rect x="265.533" y="134.545" style="fill:#E2795D;" width="3.083" height="10.896"/>
		<path style="fill:#E2795D;" d="M268.714,145.643h-3.279v-11.3h3.279V145.643z M265.631,145.239h2.886v-10.492h-2.886V145.239z"/>
	</g>
	<g>
		<g>
			<rect x="266.412" y="134.546" style="fill:#E2795D;" width="0.216" height="10.896"/>
		</g>
		<g>
			<rect x="267.522" y="134.546" style="fill:#E2795D;" width="0.216" height="10.896"/>
		</g>
	</g>
	<g>
		<rect x="265.533" y="134.324" style="fill:#E2795D;" width="3.083" height="0.403"/>
	</g>
	<g>
		<rect x="265.533" y="139.769" style="fill:#E2795D;" width="3.083" height="0.447"/>
	</g>
	<g>
		<rect x="265.533" y="145.218" style="fill:#E2795D;" width="3.083" height="0.447"/>
	</g>
	<g>
		<rect x="269.541" y="134.545" style="fill:#E2795D;" width="3.083" height="10.896"/>
		<path style="fill:#E2795D;" d="M272.722,145.643h-3.279v-11.3h3.279V145.643z M269.639,145.239h2.886v-10.492h-2.886V145.239z"/>
	</g>
	<g>
		<g>
			<rect x="270.419" y="134.546" style="fill:#E2795D;" width="0.216" height="10.896"/>
		</g>
		<g>
			<rect x="271.529" y="134.546" style="fill:#E2795D;" width="0.216" height="10.896"/>
		</g>
	</g>
	<g>
		<rect x="269.541" y="134.324" style="fill:#E2795D;" width="3.083" height="0.403"/>
	</g>
	<g>
		<rect x="269.541" y="139.769" style="fill:#E2795D;" width="3.083" height="0.447"/>
	</g>
	<g>
		<rect x="269.541" y="145.218" style="fill:#E2795D;" width="3.083" height="0.447"/>
	</g>
	<g>
		<rect x="269.541" y="147.471" style="fill:#E2795D;" width="3.083" height="10.896"/>
		<path style="fill:#E2795D;" d="M272.722,158.569h-3.279v-11.3h3.279V158.569z M269.639,158.165h2.886v-10.492h-2.886V158.165z"/>
	</g>
	<g>
		<g>
			<rect x="270.419" y="147.471" style="fill:#E2795D;" width="0.216" height="10.896"/>
		</g>
		<g>
			<rect x="271.529" y="147.471" style="fill:#E2795D;" width="0.216" height="10.896"/>
		</g>
	</g>
	<g>
		<rect x="269.541" y="147.247" style="fill:#E2795D;" width="3.083" height="0.447"/>
	</g>
	<g>
		<rect x="269.541" y="152.694" style="fill:#E2795D;" width="3.083" height="0.447"/>
	</g>
	<g>
		<rect x="269.541" y="158.143" style="fill:#E2795D;" width="3.083" height="0.447"/>
	</g>
	<g>
		<rect x="265.533" y="147.471" style="fill:#E2795D;" width="3.083" height="10.896"/>
		<path style="fill:#E2795D;" d="M268.714,158.569h-3.279v-11.3h3.279V158.569z M265.631,158.165h2.886v-10.492h-2.886V158.165z"/>
	</g>
	<g>
		<g>
			<rect x="266.412" y="147.471" style="fill:#E2795D;" width="0.216" height="10.896"/>
		</g>
		<g>
			<rect x="267.522" y="147.471" style="fill:#E2795D;" width="0.216" height="10.896"/>
		</g>
	</g>
	<g>
		<rect x="265.533" y="147.247" style="fill:#E2795D;" width="3.083" height="0.447"/>
	</g>
	<g>
		<rect x="265.533" y="152.694" style="fill:#E2795D;" width="3.083" height="0.447"/>
	</g>
	<g>
		<rect x="265.533" y="158.143" style="fill:#E2795D;" width="3.083" height="0.447"/>
	</g>
	<g>
		<defs>
			<path id="SVGID_67_" d="M265.563,133.343c0,0,1.482-4.684,3.53-4.691c1.975-0.007,3.53,4.691,3.53,4.691H265.563z"/>
		</defs>
		<use xlink:href="#SVGID_67_"  style="overflow:visible;fill:#E2795D;"/>
		<clipPath id="SVGID_14_">
			<use xlink:href="#SVGID_67_"  style="overflow:visible;"/>
		</clipPath>
		<g style="clip-path:url(#SVGID_14_);">
			<g>
				<g>
					<rect x="266.383" y="126.643" style="fill:#E2795D;" width="0.216" height="6.646"/>
				</g>
				<g>
					<rect x="267.46" y="126.643" style="fill:#E2795D;" width="0.216" height="6.646"/>
				</g>
			</g>
			<g>
				<g>
					<rect x="268.446" y="126.643" style="fill:#E2795D;" width="0.216" height="6.646"/>
				</g>
				<g>
					<rect x="269.523" y="126.643" style="fill:#E2795D;" width="0.216" height="6.646"/>
				</g>
			</g>
			<g>
				<g>
					<rect x="270.512" y="126.643" style="fill:#E2795D;" width="0.216" height="6.646"/>
				</g>
				<g>
					<rect x="271.589" y="126.643" style="fill:#E2795D;" width="0.216" height="6.646"/>
				</g>
			</g>
		</g>
		<g style="clip-path:url(#SVGID_14_);">
			<g>
				<g>
					<rect x="265.549" y="129.175" style="fill:#E2795D;" width="7.628" height="0.273"/>
				</g>
			</g>
			<g>
				<g>
					<rect x="265.727" y="131.126" style="fill:#E2795D;" width="7.628" height="0.273"/>
				</g>
				<g>
					<rect x="265.549" y="133.233" style="fill:#E2795D;" width="7.628" height="0.273"/>
				</g>
			</g>
		</g>
	</g>
</g>
<g>
	<g>
		<rect x="256.373" y="144.819" style="fill:#E2795D;" width="1.777" height="6.281"/>
		<path style="fill:#E2795D;" d="M258.206,151.216h-1.89v-6.514h1.89V151.216z M256.429,150.984h1.664v-6.048h-1.664V150.984z"/>
	</g>
	<g>
		<path style="fill:#E2795D;" d="M256.389,144.065c0,0,0.854-2.7,2.035-2.704c1.138-0.004,2.035,2.704,2.035,2.704H256.389z"/>
		<path style="fill:#E2795D;" d="M260.544,144.136h-4.238l0.03-0.098c0.036-0.112,0.883-2.745,2.088-2.749c0.001,0,0.002,0,0.002,0
			c1.162,0,2.048,2.635,2.085,2.748L260.544,144.136z M256.474,143.994h3.897c-0.174-0.482-0.981-2.562-1.946-2.562
			c0,0-0.001,0-0.002,0C257.42,141.435,256.641,143.514,256.474,143.994z"/>
	</g>
	<g>
		<g>
			<rect x="256.879" y="144.819" style="fill:#E2795D;" width="0.124" height="6.281"/>
		</g>
		<g>
			<rect x="257.519" y="144.819" style="fill:#E2795D;" width="0.124" height="6.281"/>
		</g>
	</g>
	<g>
		<rect x="256.373" y="144.691" style="fill:#E2795D;" width="1.777" height="0.232"/>
	</g>
	<g>
		<rect x="256.373" y="147.83" style="fill:#E2795D;" width="1.777" height="0.258"/>
	</g>
	<g>
		<rect x="256.373" y="150.971" style="fill:#E2795D;" width="1.777" height="0.258"/>
	</g>
	<g>
		<rect x="258.683" y="144.819" style="fill:#E2795D;" width="1.777" height="6.281"/>
		<path style="fill:#E2795D;" d="M260.517,151.216h-1.89v-6.514h1.89V151.216z M258.74,150.984h1.664v-6.048h-1.664V150.984z"/>
	</g>
	<g>
		<g>
			<rect x="259.189" y="144.819" style="fill:#E2795D;" width="0.124" height="6.281"/>
		</g>
		<g>
			<rect x="259.829" y="144.819" style="fill:#E2795D;" width="0.124" height="6.281"/>
		</g>
	</g>
	<g>
		<rect x="258.683" y="144.691" style="fill:#E2795D;" width="1.777" height="0.232"/>
	</g>
	<g>
		<rect x="258.683" y="147.83" style="fill:#E2795D;" width="1.777" height="0.258"/>
	</g>
	<g>
		<rect x="258.683" y="150.971" style="fill:#E2795D;" width="1.777" height="0.258"/>
	</g>
	<g>
		<rect x="258.683" y="152.27" style="fill:#E2795D;" width="1.777" height="6.281"/>
		<path style="fill:#E2795D;" d="M260.517,158.667h-1.89v-6.514h1.89V158.667z M258.74,158.434h1.664v-6.048h-1.664V158.434z"/>
	</g>
	<g>
		<g>
			<rect x="259.189" y="152.27" style="fill:#E2795D;" width="0.124" height="6.281"/>
		</g>
		<g>
			<rect x="259.829" y="152.27" style="fill:#E2795D;" width="0.124" height="6.281"/>
		</g>
	</g>
	<g>
		<rect x="258.683" y="152.141" style="fill:#E2795D;" width="1.777" height="0.258"/>
	</g>
	<g>
		<rect x="258.683" y="155.281" style="fill:#E2795D;" width="1.777" height="0.258"/>
	</g>
	<g>
		<rect x="258.683" y="158.422" style="fill:#E2795D;" width="1.777" height="0.258"/>
	</g>
	<g>
		<rect x="256.373" y="152.27" style="fill:#E2795D;" width="1.777" height="6.281"/>
		<path style="fill:#E2795D;" d="M258.206,158.667h-1.89v-6.514h1.89V158.667z M256.429,158.434h1.664v-6.048h-1.664V158.434z"/>
	</g>
	<g>
		<g>
			<rect x="256.879" y="152.27" style="fill:#E2795D;" width="0.124" height="6.281"/>
		</g>
		<g>
			<rect x="257.519" y="152.27" style="fill:#E2795D;" width="0.124" height="6.281"/>
		</g>
	</g>
	<g>
		<rect x="256.373" y="152.141" style="fill:#E2795D;" width="1.777" height="0.258"/>
	</g>
	<g>
		<rect x="256.373" y="155.281" style="fill:#E2795D;" width="1.777" height="0.258"/>
	</g>
	<g>
		<rect x="256.373" y="158.422" style="fill:#E2795D;" width="1.777" height="0.258"/>
	</g>
</g>
<g>
	<g>
		<rect x="277.511" y="144.819" style="fill:#E2795D;" width="1.777" height="6.281"/>
		<path style="fill:#E2795D;" d="M279.344,151.216h-1.89v-6.514h1.89V151.216z M277.567,150.984h1.664v-6.048h-1.664V150.984z"/>
	</g>
	<g>
		<path style="fill:#E2795D;" d="M277.528,144.043c0,0,0.854-2.7,2.035-2.704c1.138-0.004,2.035,2.704,2.035,2.704H277.528z"/>
		<path style="fill:#E2795D;" d="M281.683,144.114h-4.238l0.03-0.098c0.035-0.112,0.883-2.744,2.088-2.749c0.001,0,0.002,0,0.002,0
			c1.162,0,2.048,2.635,2.085,2.748L281.683,144.114z M277.614,143.972h3.897c-0.174-0.482-0.981-2.562-1.946-2.562
			c0,0-0.001,0-0.002,0C278.559,141.414,277.781,143.493,277.614,143.972z"/>
	</g>
	<g>
		<g>
			<rect x="278.017" y="144.819" style="fill:#E2795D;" width="0.124" height="6.281"/>
		</g>
		<g>
			<rect x="278.657" y="144.819" style="fill:#E2795D;" width="0.124" height="6.281"/>
		</g>
	</g>
	<g>
		<rect x="277.511" y="144.691" style="fill:#E2795D;" width="1.777" height="0.232"/>
	</g>
	<g>
		<rect x="277.511" y="147.83" style="fill:#E2795D;" width="1.777" height="0.258"/>
	</g>
	<g>
		<rect x="277.511" y="150.971" style="fill:#E2795D;" width="1.777" height="0.258"/>
	</g>
	<g>
		<rect x="279.821" y="144.819" style="fill:#E2795D;" width="1.777" height="6.281"/>
		<path style="fill:#E2795D;" d="M281.655,151.216h-1.89v-6.514h1.89V151.216z M279.878,150.984h1.664v-6.048h-1.664V150.984z"/>
	</g>
	<g>
		<g>
			<rect x="280.327" y="144.819" style="fill:#E2795D;" width="0.124" height="6.281"/>
		</g>
		<g>
			<rect x="280.967" y="144.819" style="fill:#E2795D;" width="0.124" height="6.281"/>
		</g>
	</g>
	<g>
		<rect x="279.821" y="144.691" style="fill:#E2795D;" width="1.777" height="0.232"/>
	</g>
	<g>
		<rect x="279.821" y="147.83" style="fill:#E2795D;" width="1.777" height="0.258"/>
	</g>
	<g>
		<rect x="279.821" y="150.971" style="fill:#E2795D;" width="1.777" height="0.258"/>
	</g>
	<g>
		<rect x="279.821" y="152.27" style="fill:#E2795D;" width="1.777" height="6.281"/>
		<path style="fill:#E2795D;" d="M281.655,158.667h-1.89v-6.514h1.89V158.667z M279.878,158.434h1.664v-6.048h-1.664V158.434z"/>
	</g>
	<g>
		<g>
			<rect x="280.327" y="152.27" style="fill:#E2795D;" width="0.124" height="6.281"/>
		</g>
		<g>
			<rect x="280.967" y="152.27" style="fill:#E2795D;" width="0.124" height="6.281"/>
		</g>
	</g>
	<g>
		<rect x="279.821" y="152.141" style="fill:#E2795D;" width="1.777" height="0.258"/>
	</g>
	<g>
		<rect x="279.821" y="155.281" style="fill:#E2795D;" width="1.777" height="0.258"/>
	</g>
	<g>
		<rect x="279.821" y="158.422" style="fill:#E2795D;" width="1.777" height="0.258"/>
	</g>
	<g>
		<rect x="277.511" y="152.27" style="fill:#E2795D;" width="1.777" height="6.281"/>
		<path style="fill:#E2795D;" d="M279.344,158.667h-1.89v-6.514h1.89V158.667z M277.567,158.434h1.664v-6.048h-1.664V158.434z"/>
	</g>
	<g>
		<g>
			<rect x="278.017" y="152.27" style="fill:#E2795D;" width="0.124" height="6.281"/>
		</g>
		<g>
			<rect x="278.657" y="152.27" style="fill:#E2795D;" width="0.124" height="6.281"/>
		</g>
	</g>
	<g>
		<rect x="277.511" y="152.141" style="fill:#E2795D;" width="1.777" height="0.258"/>
	</g>
	<g>
		<rect x="277.511" y="155.281" style="fill:#E2795D;" width="1.777" height="0.258"/>
	</g>
	<g>
		<rect x="277.511" y="158.422" style="fill:#E2795D;" width="1.777" height="0.258"/>
	</g>
</g>
<path style="fill:#E2836A;" d="M253.162,156.997v4.252h32.62v-4.252H253.162z M255.758,159.81c0,0.297-0.243,0.54-0.54,0.54
	c-0.297,0-0.54-0.243-0.54-0.54v-1.376c0-0.297,0.243-0.539,0.54-0.539c0.297,0,0.54,0.243,0.54,0.539V159.81z M257.415,159.81
	c0,0.297-0.243,0.54-0.539,0.54c-0.297,0-0.54-0.243-0.54-0.54v-1.376c0-0.297,0.243-0.539,0.54-0.539
	c0.297,0,0.539,0.243,0.539,0.539V159.81z M260.646,159.81c0,0.297-0.243,0.54-0.54,0.54c-0.297,0-0.539-0.243-0.539-0.54v-1.376
	c0-0.297,0.243-0.539,0.539-0.539c0.297,0,0.54,0.243,0.54,0.539V159.81z M262.303,159.81c0,0.297-0.243,0.54-0.539,0.54
	c-0.297,0-0.54-0.243-0.54-0.54v-1.376c0-0.297,0.243-0.539,0.54-0.539c0.297,0,0.539,0.243,0.539,0.539V159.81z M265.681,159.81
	c0,0.297-0.243,0.54-0.54,0.54c-0.297,0-0.539-0.243-0.539-0.54v-1.376c0-0.297,0.243-0.539,0.539-0.539
	c0.297,0,0.54,0.243,0.54,0.539V159.81z M267.247,159.81c0,0.297-0.243,0.54-0.54,0.54c-0.297,0-0.539-0.243-0.539-0.54v-1.376
	c0-0.297,0.243-0.539,0.539-0.539c0.297,0,0.54,0.243,0.54,0.539V159.81z M268.812,159.81c0,0.297-0.243,0.54-0.54,0.54
	c-0.297,0-0.539-0.243-0.539-0.54v-1.376c0-0.297,0.243-0.539,0.539-0.539c0.297,0,0.54,0.243,0.54,0.539V159.81z M271.212,159.81
	c0,0.297-0.243,0.54-0.539,0.54c-0.297,0-0.539-0.243-0.539-0.54v-1.376c0-0.297,0.243-0.539,0.539-0.539
	c0.297,0,0.539,0.243,0.539,0.539V159.81z M272.777,159.81c0,0.297-0.243,0.54-0.54,0.54c-0.297,0-0.539-0.243-0.539-0.54v-1.376
	c0-0.297,0.243-0.539,0.539-0.539c0.297,0,0.54,0.243,0.54,0.539V159.81z M274.343,159.81c0,0.297-0.243,0.54-0.54,0.54
	c-0.297,0-0.539-0.243-0.539-0.54v-1.376c0-0.297,0.243-0.539,0.539-0.539c0.297,0,0.54,0.243,0.54,0.539V159.81z M277.721,159.81
	c0,0.297-0.243,0.54-0.539,0.54s-0.54-0.243-0.54-0.54v-1.376c0-0.297,0.243-0.539,0.54-0.539s0.539,0.243,0.539,0.539V159.81z
	 M279.377,159.81c0,0.297-0.243,0.54-0.539,0.54c-0.297,0-0.539-0.243-0.539-0.54v-1.376c0-0.297,0.243-0.539,0.539-0.539
	c0.297,0,0.539,0.243,0.539,0.539V159.81z M282.609,159.81c0,0.297-0.243,0.54-0.539,0.54c-0.297,0-0.54-0.243-0.54-0.54v-1.376
	c0-0.297,0.243-0.539,0.54-0.539c0.297,0,0.539,0.243,0.539,0.539V159.81z M284.266,159.81c0,0.297-0.243,0.54-0.539,0.54
	s-0.54-0.243-0.54-0.54v-1.376c0-0.297,0.243-0.539,0.54-0.539s0.539,0.243,0.539,0.539V159.81z"/>
<rect x="254.497" y="161.249" style="fill:#E37254;" width="1.079" height="3.326"/>
<rect x="264.061" y="161.249" style="fill:#E37254;" width="1.079" height="3.326"/>
<rect x="273.624" y="161.249" style="fill:#E37254;" width="1.079" height="3.326"/>
<rect x="283.187" y="161.249" style="fill:#E37254;" width="1.079" height="3.326"/>
<rect x="259.279" y="161.249" style="fill:#E38065;" width="1.079" height="2.247"/>
<rect x="268.842" y="161.249" style="fill:#E38065;" width="1.079" height="2.247"/>
<rect x="278.405" y="161.249" style="fill:#E38065;" width="1.079" height="2.247"/>
<g>
	<g>
		<rect x="279.458" y="170.687" style="fill:#E2795D;" width="1.777" height="5.879"/>
		<path style="fill:#E2795D;" d="M281.291,176.675h-1.89v-6.097h1.89V176.675z M279.514,176.458h1.664v-5.661h-1.664V176.458z"/>
	</g>
	<g>
		<path style="fill:#E2795D;" d="M279.475,169.502c0,0,0.854-2.7,2.035-2.704c1.138-0.004,2.035,2.704,2.035,2.704H279.475z"/>
		<path style="fill:#E2795D;" d="M283.63,169.573h-4.238l0.03-0.098c0.035-0.112,0.883-2.744,2.088-2.749c0.001,0,0.002,0,0.002,0
			c1.162,0,2.048,2.635,2.085,2.748L283.63,169.573z M279.561,169.431h3.897c-0.174-0.482-0.981-2.562-1.946-2.562
			c0,0-0.001,0-0.002,0C280.506,166.873,279.728,168.952,279.561,169.431z"/>
	</g>
	<g>
		<rect x="281.768" y="170.687" style="fill:#E2795D;" width="1.777" height="5.879"/>
		<path style="fill:#E2795D;" d="M283.602,176.675h-1.89v-6.097h1.89V176.675z M281.825,176.458h1.664v-5.661h-1.664V176.458z"/>
	</g>
</g>
<g>
	<g>
		<rect x="256.04" y="170.687" style="fill:#E2795D;" width="1.777" height="5.879"/>
		<path style="fill:#E2795D;" d="M257.873,176.675h-1.89v-6.097h1.89V176.675z M256.096,176.457h1.664v-5.661h-1.664V176.457z"/>
	</g>
	<g>
		<path style="fill:#E2795D;" d="M256.057,169.502c0,0,0.854-2.7,2.035-2.704c1.138-0.004,2.035,2.704,2.035,2.704H256.057z"/>
		<path style="fill:#E2795D;" d="M260.212,169.573h-4.238l0.03-0.097c0.035-0.112,0.883-2.745,2.088-2.749c0.001,0,0.002,0,0.002,0
			c1.162,0,2.048,2.635,2.085,2.748L260.212,169.573z M256.143,169.431h3.897c-0.174-0.482-0.981-2.562-1.946-2.562
			c0,0-0.001,0-0.002,0C257.088,166.873,256.309,168.952,256.143,169.431z"/>
	</g>
	<g>
		<rect x="258.35" y="170.687" style="fill:#E2795D;" width="1.777" height="5.879"/>
		<path style="fill:#E2795D;" d="M260.183,176.675h-1.89v-6.097h1.89V176.675z M258.406,176.457h1.664v-5.661h-1.664V176.457z"/>
	</g>
</g>
<g>
	<g>
		<g>
			<rect x="294.425" y="169.908" style="fill:#E25D3A;" width="3.976" height="6.281"/>
			<path style="fill:#E25D3A;" d="M298.528,176.305h-4.229v-6.514h4.229V176.305z M294.552,176.072h3.723v-6.048h-3.723V176.072z"/>
		</g>
		<g>
			<rect x="294.355" y="167.468" style="fill:#E25D3A;" width="1.777" height="1.824"/>
			<path style="fill:#E25D3A;" d="M296.188,169.326h-1.89v-1.892h1.89V169.326z M294.411,169.259h1.664v-1.757h-1.664V169.259z"/>
		</g>
		<g>
			<rect x="296.703" y="167.468" style="fill:#E25D3A;" width="1.777" height="1.824"/>
			<path style="fill:#E25D3A;" d="M298.536,169.326h-1.89v-1.892h1.89V169.326z M296.759,169.259h1.664v-1.757h-1.664V169.259z"/>
		</g>
		<g>
			<rect x="294.429" y="178.298" style="fill:#E25D3A;" width="3.976" height="3.847"/>
			<path style="fill:#E25D3A;" d="M298.532,182.216h-4.229v-3.99h4.229V182.216z M294.556,182.074h3.723v-3.705h-3.723V182.074z"/>
		</g>
	</g>
	<g>
		<rect x="301.488" y="169.908" style="fill:#E25D3A;" width="3.976" height="6.281"/>
		<path style="fill:#E25D3A;" d="M305.591,176.305h-4.229v-6.514h4.229V176.305z M301.615,176.072h3.723v-6.048h-3.723V176.072z"/>
	</g>
	<g>
		<rect x="301.418" y="167.468" style="fill:#E25D3A;" width="1.777" height="1.824"/>
		<path style="fill:#E25D3A;" d="M303.252,169.326h-1.89v-1.892h1.89V169.326z M301.475,169.259h1.664v-1.757h-1.664V169.259z"/>
	</g>
	<g>
		<rect x="303.766" y="167.468" style="fill:#E25D3A;" width="1.777" height="1.824"/>
		<path style="fill:#E25D3A;" d="M305.6,169.326h-1.89v-1.892h1.89V169.326z M303.823,169.259h1.664v-1.757h-1.664V169.259z"/>
	</g>
	<g>
		<rect x="301.493" y="178.298" style="fill:#E25D3A;" width="3.976" height="3.847"/>
		<path style="fill:#E25D3A;" d="M305.596,182.216h-4.229v-3.99h4.229V182.216z M301.62,182.074h3.723v-3.705h-3.723V182.074z"/>
	</g>
</g>
<g>
	<g>
		<rect x="308.552" y="169.908" style="fill:#E25D3A;" width="3.976" height="6.281"/>
		<path style="fill:#E25D3A;" d="M312.655,176.305h-4.229v-6.514h4.229V176.305z M308.679,176.072h3.723v-6.048h-3.723V176.072z"/>
	</g>
	<g>
		<rect x="308.482" y="167.468" style="fill:#E25D3A;" width="1.777" height="1.824"/>
		<path style="fill:#E25D3A;" d="M310.316,169.326h-1.89v-1.892h1.89V169.326z M308.539,169.259h1.664v-1.757h-1.664V169.259z"/>
	</g>
	<g>
		<rect x="310.83" y="167.468" style="fill:#E25D3A;" width="1.777" height="1.824"/>
		<path style="fill:#E25D3A;" d="M312.664,169.326h-1.89v-1.892h1.89V169.326z M310.887,169.259h1.664v-1.757h-1.664V169.259z"/>
	</g>
	<g>
		<rect x="308.557" y="178.298" style="fill:#E25D3A;" width="3.976" height="3.847"/>
		<path style="fill:#E25D3A;" d="M312.659,182.216h-4.229v-3.99h4.229V182.216z M308.683,182.074h3.723v-3.705h-3.723V182.074z"/>
	</g>
</g>
<g>
	<g>
		<rect x="315.444" y="169.908" style="fill:#E25D3A;" width="3.976" height="6.281"/>
		<path style="fill:#E25D3A;" d="M319.546,176.305h-4.229v-6.514h4.229V176.305z M315.57,176.072h3.723v-6.048h-3.723V176.072z"/>
	</g>
	<g>
		<rect x="315.373" y="167.468" style="fill:#E25D3A;" width="1.777" height="1.824"/>
		<path style="fill:#E25D3A;" d="M317.207,169.326h-1.89v-1.892h1.89V169.326z M315.43,169.259h1.664v-1.757h-1.664V169.259z"/>
	</g>
	<g>
		<rect x="317.721" y="167.468" style="fill:#E25D3A;" width="1.777" height="1.824"/>
		<path style="fill:#E25D3A;" d="M319.555,169.326h-1.89v-1.892h1.89V169.326z M317.778,169.259h1.664v-1.757h-1.664V169.259z"/>
	</g>
	<g>
		<rect x="315.448" y="178.298" style="fill:#E25D3A;" width="3.976" height="3.847"/>
		<path style="fill:#E25D3A;" d="M319.551,182.216h-4.229v-3.99h4.229V182.216z M315.575,182.074h3.722v-3.705h-3.722V182.074z"/>
	</g>
</g>
<g>
	<g>
		<g>
			<g>
				<rect x="217.999" y="169.908" style="fill:#E25D3A;" width="3.976" height="6.281"/>
				<path style="fill:#E25D3A;" d="M222.101,176.305h-4.23v-6.514h4.23V176.305z M218.125,176.072h3.722v-6.048h-3.722V176.072z"/>
			</g>
			<g>
				<rect x="217.928" y="167.468" style="fill:#E25D3A;" width="1.777" height="1.824"/>
				<path style="fill:#E25D3A;" d="M219.762,169.326h-1.89v-1.892h1.89V169.326z M217.985,169.259h1.664v-1.757h-1.664V169.259z"/>
			</g>
			<g>
				<rect x="220.276" y="167.468" style="fill:#E25D3A;" width="1.777" height="1.824"/>
				<path style="fill:#E25D3A;" d="M222.11,169.326h-1.89v-1.892h1.89V169.326z M220.333,169.259h1.664v-1.757h-1.664V169.259z"/>
			</g>
			<g>
				<rect x="218.003" y="178.298" style="fill:#E25D3A;" width="3.976" height="3.847"/>
				<path style="fill:#E25D3A;" d="M222.106,182.216h-4.229v-3.99h4.229V182.216z M218.13,182.074h3.723v-3.705h-3.723V182.074z"/>
			</g>
		</g>
		<g>
			<rect x="225.062" y="169.908" style="fill:#E25D3A;" width="3.976" height="6.281"/>
			<path style="fill:#E25D3A;" d="M229.165,176.305h-4.229v-6.514h4.229V176.305z M225.189,176.072h3.722v-6.048h-3.722V176.072z"/>
		</g>
		<g>
			<rect x="224.992" y="167.468" style="fill:#E25D3A;" width="1.777" height="1.824"/>
			<path style="fill:#E25D3A;" d="M226.826,169.326h-1.89v-1.892h1.89V169.326z M225.049,169.259h1.664v-1.757h-1.664V169.259z"/>
		</g>
		<g>
			<rect x="227.34" y="167.468" style="fill:#E25D3A;" width="1.777" height="1.824"/>
			<path style="fill:#E25D3A;" d="M229.174,169.326h-1.89v-1.892h1.89V169.326z M227.397,169.259h1.664v-1.757h-1.664V169.259z"/>
		</g>
		<g>
			<rect x="225.067" y="178.298" style="fill:#E25D3A;" width="3.976" height="3.847"/>
			<path style="fill:#E25D3A;" d="M229.169,182.216h-4.229v-3.99h4.229V182.216z M225.193,182.074h3.722v-3.705h-3.722V182.074z"/>
		</g>
	</g>
	<g>
		<g>
			<rect x="232.126" y="169.908" style="fill:#E25D3A;" width="3.976" height="6.281"/>
			<path style="fill:#E25D3A;" d="M236.228,176.305h-4.229v-6.514h4.229V176.305z M232.253,176.072h3.723v-6.048h-3.723V176.072z"/>
		</g>
		<g>
			<rect x="232.056" y="167.468" style="fill:#E25D3A;" width="1.777" height="1.824"/>
			<path style="fill:#E25D3A;" d="M233.889,169.326h-1.89v-1.892h1.89V169.326z M232.112,169.259h1.664v-1.757h-1.664V169.259z"/>
		</g>
		<g>
			<rect x="234.404" y="167.468" style="fill:#E25D3A;" width="1.777" height="1.824"/>
			<path style="fill:#E25D3A;" d="M236.237,169.326h-1.89v-1.892h1.89V169.326z M234.46,169.259h1.664v-1.757h-1.664V169.259z"/>
		</g>
		<g>
			<rect x="232.13" y="178.298" style="fill:#E25D3A;" width="3.976" height="3.847"/>
			<path style="fill:#E25D3A;" d="M236.233,182.216h-4.23v-3.99h4.23V182.216z M232.257,182.074h3.722v-3.705h-3.722V182.074z"/>
		</g>
	</g>
	<g>
		<g>
			<rect x="239.017" y="169.908" style="fill:#E25D3A;" width="3.976" height="6.281"/>
			<path style="fill:#E25D3A;" d="M243.12,176.305h-4.229v-6.514h4.229V176.305z M239.144,176.072h3.723v-6.048h-3.723V176.072z"/>
		</g>
		<g>
			<rect x="238.947" y="167.468" style="fill:#E25D3A;" width="1.777" height="1.824"/>
			<path style="fill:#E25D3A;" d="M240.781,169.326h-1.89v-1.892h1.89V169.326z M239.004,169.259h1.664v-1.757h-1.664V169.259z"/>
		</g>
		<g>
			<rect x="241.295" y="167.468" style="fill:#E25D3A;" width="1.777" height="1.824"/>
			<path style="fill:#E25D3A;" d="M243.129,169.326h-1.89v-1.892h1.89V169.326z M241.352,169.259h1.664v-1.757h-1.664V169.259z"/>
		</g>
		<g>
			<rect x="239.022" y="178.298" style="fill:#E25D3A;" width="3.976" height="3.847"/>
			<path style="fill:#E25D3A;" d="M243.124,182.216h-4.229v-3.99h4.229V182.216z M239.148,182.074h3.723v-3.705h-3.723V182.074z"/>
		</g>
	</g>
</g>
<g>
	<g>
		<g>
			<rect x="335.418" y="134.531" style="fill:#E2795D;" width="3.083" height="10.896"/>
			<path style="fill:#E2795D;" d="M338.599,145.629h-3.279v-11.3h3.279V145.629z M335.516,145.225h2.886v-10.492h-2.886V145.225z"/>
		</g>
		<g>
			<g>
				<rect x="336.296" y="134.531" style="fill:#E2795D;" width="0.216" height="10.896"/>
			</g>
			<g>
				<rect x="337.406" y="134.531" style="fill:#E2795D;" width="0.216" height="10.896"/>
			</g>
		</g>
		<g>
			<rect x="335.418" y="134.309" style="fill:#E2795D;" width="3.083" height="0.403"/>
		</g>
		<g>
			<rect x="335.418" y="139.754" style="fill:#E2795D;" width="3.083" height="0.447"/>
		</g>
		<g>
			<rect x="335.418" y="145.203" style="fill:#E2795D;" width="3.083" height="0.447"/>
		</g>
		<g>
			<rect x="339.426" y="134.531" style="fill:#E2795D;" width="3.083" height="10.896"/>
			<path style="fill:#E2795D;" d="M342.607,145.629h-3.279v-11.3h3.279V145.629z M339.524,145.225h2.886v-10.492h-2.886V145.225z"/>
		</g>
		<g>
			<g>
				<rect x="340.304" y="134.531" style="fill:#E2795D;" width="0.216" height="10.896"/>
			</g>
			<g>
				<rect x="341.414" y="134.531" style="fill:#E2795D;" width="0.216" height="10.896"/>
			</g>
		</g>
		<g>
			<rect x="339.426" y="134.309" style="fill:#E2795D;" width="3.083" height="0.403"/>
		</g>
		<g>
			<rect x="339.426" y="139.754" style="fill:#E2795D;" width="3.083" height="0.447"/>
		</g>
		<g>
			<rect x="339.426" y="145.203" style="fill:#E2795D;" width="3.083" height="0.447"/>
		</g>
		<g>
			<rect x="339.426" y="147.456" style="fill:#E2795D;" width="3.083" height="10.896"/>
			<path style="fill:#E2795D;" d="M342.607,158.554h-3.279v-11.3h3.279V158.554z M339.524,158.15h2.886v-10.492h-2.886V158.15z"/>
		</g>
		<g>
			<g>
				<rect x="340.304" y="147.456" style="fill:#E2795D;" width="0.216" height="10.896"/>
			</g>
			<g>
				<rect x="341.414" y="147.456" style="fill:#E2795D;" width="0.216" height="10.896"/>
			</g>
		</g>
		<g>
			<rect x="339.426" y="147.232" style="fill:#E2795D;" width="3.083" height="0.447"/>
		</g>
		<g>
			<rect x="339.426" y="152.679" style="fill:#E2795D;" width="3.083" height="0.447"/>
		</g>
		<g>
			<rect x="339.426" y="158.128" style="fill:#E2795D;" width="3.083" height="0.447"/>
		</g>
		<g>
			<rect x="335.418" y="147.456" style="fill:#E2795D;" width="3.083" height="10.896"/>
			<path style="fill:#E2795D;" d="M338.599,158.554h-3.279v-11.3h3.279V158.554z M335.516,158.15h2.886v-10.492h-2.886V158.15z"/>
		</g>
		<g>
			<g>
				<rect x="336.296" y="147.456" style="fill:#E2795D;" width="0.216" height="10.896"/>
			</g>
			<g>
				<rect x="337.406" y="147.456" style="fill:#E2795D;" width="0.216" height="10.896"/>
			</g>
		</g>
		<g>
			<rect x="335.418" y="147.232" style="fill:#E2795D;" width="3.083" height="0.447"/>
		</g>
		<g>
			<rect x="335.418" y="152.679" style="fill:#E2795D;" width="3.083" height="0.447"/>
		</g>
		<g>
			<rect x="335.418" y="158.128" style="fill:#E2795D;" width="3.083" height="0.447"/>
		</g>
		<g>
			<defs>
				<path id="SVGID_69_" d="M335.448,133.328c0,0,1.482-4.684,3.53-4.691c1.974-0.007,3.53,4.691,3.53,4.691H335.448z"/>
			</defs>
			<use xlink:href="#SVGID_69_"  style="overflow:visible;fill:#E2795D;"/>
			<clipPath id="SVGID_16_">
				<use xlink:href="#SVGID_69_"  style="overflow:visible;"/>
			</clipPath>
			<g style="clip-path:url(#SVGID_16_);">
				<g>
					<g>
						<rect x="336.268" y="126.629" style="fill:#E2795D;" width="0.216" height="6.646"/>
					</g>
					<g>
						<rect x="337.345" y="126.629" style="fill:#E2795D;" width="0.216" height="6.646"/>
					</g>
				</g>
				<g>
					<g>
						<rect x="338.331" y="126.629" style="fill:#E2795D;" width="0.216" height="6.646"/>
					</g>
					<g>
						<rect x="339.408" y="126.629" style="fill:#E2795D;" width="0.216" height="6.646"/>
					</g>
				</g>
				<g>
					<g>
						<rect x="340.397" y="126.629" style="fill:#E2795D;" width="0.216" height="6.646"/>
					</g>
					<g>
						<rect x="341.474" y="126.629" style="fill:#E2795D;" width="0.216" height="6.646"/>
					</g>
				</g>
			</g>
			<g style="clip-path:url(#SVGID_16_);">
				<g>
					<g>
						<rect x="335.433" y="129.16" style="fill:#E2795D;" width="7.628" height="0.273"/>
					</g>
				</g>
				<g>
					<g>
						<rect x="335.612" y="131.112" style="fill:#E2795D;" width="7.628" height="0.273"/>
					</g>
					<g>
						<rect x="335.433" y="133.218" style="fill:#E2795D;" width="7.628" height="0.273"/>
					</g>
				</g>
			</g>
		</g>
	</g>
	<rect x="329.194" y="161.204" style="fill:#E37254;" width="1.079" height="3.326"/>
	<rect x="338.757" y="161.204" style="fill:#E37254;" width="1.079" height="3.326"/>
	<rect x="348.32" y="161.204" style="fill:#E37254;" width="1.079" height="3.326"/>
	<rect x="333.975" y="161.204" style="fill:#E38065;" width="1.079" height="2.247"/>
	<rect x="343.539" y="161.204" style="fill:#E38065;" width="1.079" height="2.247"/>
	<path style="fill:#E2836A;" d="M328.192,161.234h22.269v-4.252h-22.269V161.234z M348.183,158.42c0-0.297,0.243-0.54,0.539-0.54
		c0.297,0,0.54,0.243,0.54,0.54v1.376c0,0.297-0.243,0.539-0.54,0.539c-0.297,0-0.539-0.243-0.539-0.539V158.42z M346.526,158.42
		c0-0.297,0.243-0.54,0.539-0.54c0.297,0,0.539,0.243,0.539,0.54v1.376c0,0.297-0.243,0.539-0.539,0.539
		c-0.297,0-0.539-0.243-0.539-0.539V158.42z M343.148,158.42c0-0.297,0.243-0.54,0.54-0.54c0.297,0,0.539,0.243,0.539,0.54v1.376
		c0,0.297-0.243,0.539-0.539,0.539c-0.297,0-0.54-0.243-0.54-0.539V158.42z M341.583,158.42c0-0.297,0.243-0.54,0.539-0.54
		c0.297,0,0.54,0.243,0.54,0.54v1.376c0,0.297-0.243,0.539-0.54,0.539c-0.297,0-0.539-0.243-0.539-0.539V158.42z M340.017,158.42
		c0-0.297,0.243-0.54,0.539-0.54c0.297,0,0.54,0.243,0.54,0.54v1.376c0,0.297-0.243,0.539-0.54,0.539
		c-0.297,0-0.539-0.243-0.539-0.539V158.42z M337.618,158.42c0-0.297,0.243-0.54,0.539-0.54c0.297,0,0.54,0.243,0.54,0.54v1.376
		c0,0.297-0.243,0.539-0.54,0.539c-0.297,0-0.539-0.243-0.539-0.539V158.42z M336.053,158.42c0-0.297,0.243-0.54,0.539-0.54
		c0.297,0,0.54,0.243,0.54,0.54v1.376c0,0.297-0.243,0.539-0.54,0.539c-0.297,0-0.539-0.243-0.539-0.539V158.42z M334.487,158.42
		c0-0.297,0.243-0.54,0.539-0.54c0.297,0,0.54,0.243,0.54,0.54v1.376c0,0.297-0.243,0.539-0.54,0.539
		c-0.297,0-0.539-0.243-0.539-0.539V158.42z M331.109,158.42c0-0.297,0.243-0.54,0.54-0.54s0.539,0.243,0.539,0.54v1.376
		c0,0.297-0.243,0.539-0.539,0.539s-0.54-0.243-0.54-0.539V158.42z M329.992,157.881c0.297,0,0.54,0.243,0.54,0.54v1.376
		c0,0.297-0.243,0.539-0.54,0.539c-0.297,0-0.54-0.243-0.54-0.539v-1.376C329.452,158.123,329.695,157.881,329.992,157.881z"/>
</g>
<g>
	<g>
		<g>
			<rect x="195.473" y="134.51" style="fill:#E2795D;" width="3.083" height="10.896"/>
			<path style="fill:#E2795D;" d="M198.654,145.608h-3.279v-11.3h3.279V145.608z M195.572,145.204h2.886v-10.492h-2.886V145.204z"/>
		</g>
		<g>
			<g>
				<rect x="196.352" y="134.51" style="fill:#E2795D;" width="0.216" height="10.896"/>
			</g>
			<g>
				<rect x="197.462" y="134.51" style="fill:#E2795D;" width="0.216" height="10.896"/>
			</g>
		</g>
		<g>
			<rect x="195.473" y="134.289" style="fill:#E2795D;" width="3.083" height="0.403"/>
		</g>
		<g>
			<rect x="195.473" y="139.734" style="fill:#E2795D;" width="3.083" height="0.447"/>
		</g>
		<g>
			<rect x="195.473" y="145.182" style="fill:#E2795D;" width="3.083" height="0.447"/>
		</g>
		<g>
			<rect x="199.481" y="134.51" style="fill:#E2795D;" width="3.083" height="10.896"/>
			<path style="fill:#E2795D;" d="M202.662,145.608h-3.279v-11.3h3.279V145.608z M199.579,145.204h2.886v-10.492h-2.886V145.204z"/>
		</g>
		<g>
			<g>
				<rect x="200.36" y="134.51" style="fill:#E2795D;" width="0.216" height="10.896"/>
			</g>
			<g>
				<rect x="201.469" y="134.51" style="fill:#E2795D;" width="0.216" height="10.896"/>
			</g>
		</g>
		<g>
			<rect x="199.481" y="134.289" style="fill:#E2795D;" width="3.083" height="0.403"/>
		</g>
		<g>
			<rect x="199.481" y="139.734" style="fill:#E2795D;" width="3.083" height="0.447"/>
		</g>
		<g>
			<rect x="199.481" y="145.182" style="fill:#E2795D;" width="3.083" height="0.447"/>
		</g>
		<g>
			<rect x="199.481" y="147.435" style="fill:#E2795D;" width="3.083" height="10.896"/>
			<path style="fill:#E2795D;" d="M202.662,158.533h-3.279v-11.3h3.279V158.533z M199.579,158.129h2.886v-10.492h-2.886V158.129z"/>
		</g>
		<g>
			<g>
				<rect x="200.36" y="147.436" style="fill:#E2795D;" width="0.216" height="10.896"/>
			</g>
			<g>
				<rect x="201.469" y="147.436" style="fill:#E2795D;" width="0.216" height="10.896"/>
			</g>
		</g>
		<g>
			<rect x="199.481" y="147.212" style="fill:#E2795D;" width="3.083" height="0.447"/>
		</g>
		<g>
			<rect x="199.481" y="152.659" style="fill:#E2795D;" width="3.083" height="0.447"/>
		</g>
		<g>
			<rect x="199.481" y="158.108" style="fill:#E2795D;" width="3.083" height="0.447"/>
		</g>
		<g>
			<rect x="195.473" y="147.435" style="fill:#E2795D;" width="3.083" height="10.896"/>
			<path style="fill:#E2795D;" d="M198.654,158.533h-3.279v-11.3h3.279V158.533z M195.572,158.129h2.886v-10.492h-2.886V158.129z"/>
		</g>
		<g>
			<g>
				<rect x="196.352" y="147.436" style="fill:#E2795D;" width="0.216" height="10.896"/>
			</g>
			<g>
				<rect x="197.462" y="147.436" style="fill:#E2795D;" width="0.216" height="10.896"/>
			</g>
		</g>
		<g>
			<rect x="195.473" y="147.212" style="fill:#E2795D;" width="3.083" height="0.447"/>
		</g>
		<g>
			<rect x="195.473" y="152.659" style="fill:#E2795D;" width="3.083" height="0.447"/>
		</g>
		<g>
			<rect x="195.473" y="158.108" style="fill:#E2795D;" width="3.083" height="0.447"/>
		</g>
		<g>
			<defs>
				<path id="SVGID_71_" d="M195.504,133.307c0,0,1.482-4.684,3.53-4.691c1.974-0.007,3.53,4.691,3.53,4.691H195.504z"/>
			</defs>
			<use xlink:href="#SVGID_71_"  style="overflow:visible;fill:#E2795D;"/>
			<clipPath id="SVGID_18_">
				<use xlink:href="#SVGID_71_"  style="overflow:visible;"/>
			</clipPath>
			<g style="clip-path:url(#SVGID_18_);">
				<g>
					<g>
						<rect x="196.323" y="126.608" style="fill:#E2795D;" width="0.216" height="6.646"/>
					</g>
					<g>
						<rect x="197.4" y="126.608" style="fill:#E2795D;" width="0.216" height="6.646"/>
					</g>
				</g>
				<g>
					<g>
						<rect x="198.387" y="126.608" style="fill:#E2795D;" width="0.216" height="6.646"/>
					</g>
					<g>
						<rect x="199.464" y="126.608" style="fill:#E2795D;" width="0.216" height="6.646"/>
					</g>
				</g>
				<g>
					<g>
						<rect x="200.452" y="126.608" style="fill:#E2795D;" width="0.216" height="6.646"/>
					</g>
					<g>
						<rect x="201.529" y="126.608" style="fill:#E2795D;" width="0.216" height="6.646"/>
					</g>
				</g>
			</g>
			<g style="clip-path:url(#SVGID_18_);">
				<g>
					<g>
						<rect x="195.489" y="129.14" style="fill:#E2795D;" width="7.628" height="0.273"/>
					</g>
				</g>
				<g>
					<g>
						<rect x="195.667" y="131.091" style="fill:#E2795D;" width="7.628" height="0.273"/>
					</g>
					<g>
						<rect x="195.489" y="133.198" style="fill:#E2795D;" width="7.628" height="0.273"/>
					</g>
				</g>
			</g>
		</g>
	</g>
	<rect x="189.249" y="161.184" style="fill:#E37254;" width="1.079" height="3.326"/>
	<rect x="198.812" y="161.184" style="fill:#E37254;" width="1.079" height="3.326"/>
	<rect x="208.376" y="161.184" style="fill:#E37254;" width="1.079" height="3.326"/>
	<rect x="194.031" y="161.184" style="fill:#E38065;" width="1.079" height="2.247"/>
	<rect x="203.594" y="161.184" style="fill:#E38065;" width="1.079" height="2.247"/>
	<path style="fill:#E2836A;" d="M188.248,161.213h22.269v-4.252h-22.269V161.213z M208.239,158.4c0-0.297,0.243-0.54,0.54-0.54
		c0.297,0,0.539,0.243,0.539,0.54v1.376c0,0.297-0.243,0.54-0.539,0.54c-0.297,0-0.54-0.243-0.54-0.54V158.4z M206.582,158.4
		c0-0.297,0.243-0.54,0.54-0.54c0.297,0,0.54,0.243,0.54,0.54v1.376c0,0.297-0.243,0.54-0.54,0.54c-0.297,0-0.54-0.243-0.54-0.54
		V158.4z M203.204,158.4c0-0.297,0.243-0.54,0.54-0.54c0.297,0,0.54,0.243,0.54,0.54v1.376c0,0.297-0.243,0.54-0.54,0.54
		c-0.297,0-0.54-0.243-0.54-0.54V158.4z M201.638,158.4c0-0.297,0.243-0.54,0.54-0.54c0.297,0,0.54,0.243,0.54,0.54v1.376
		c0,0.297-0.243,0.54-0.54,0.54c-0.297,0-0.54-0.243-0.54-0.54V158.4z M200.073,158.4c0-0.297,0.243-0.54,0.54-0.54
		c0.297,0,0.539,0.243,0.539,0.54v1.376c0,0.297-0.243,0.54-0.539,0.54c-0.297,0-0.54-0.243-0.54-0.54V158.4z M197.673,158.4
		c0-0.297,0.243-0.54,0.54-0.54c0.297,0,0.54,0.243,0.54,0.54v1.376c0,0.297-0.243,0.54-0.54,0.54c-0.297,0-0.54-0.243-0.54-0.54
		V158.4z M196.108,158.4c0-0.297,0.243-0.54,0.54-0.54c0.297,0,0.54,0.243,0.54,0.54v1.376c0,0.297-0.243,0.54-0.54,0.54
		c-0.297,0-0.54-0.243-0.54-0.54V158.4z M194.543,158.4c0-0.297,0.243-0.54,0.54-0.54c0.297,0,0.54,0.243,0.54,0.54v1.376
		c0,0.297-0.243,0.54-0.54,0.54c-0.297,0-0.54-0.243-0.54-0.54V158.4z M191.165,158.4c0-0.297,0.243-0.54,0.54-0.54
		c0.297,0,0.54,0.243,0.54,0.54v1.376c0,0.297-0.243,0.54-0.54,0.54c-0.297,0-0.54-0.243-0.54-0.54V158.4z M190.047,157.86
		c0.297,0,0.54,0.243,0.54,0.54v1.376c0,0.297-0.243,0.54-0.54,0.54c-0.297,0-0.539-0.243-0.539-0.54V158.4
		C189.508,158.103,189.75,157.86,190.047,157.86z"/>
</g>
<g>
	<g>
		<rect x="337.304" y="169.908" style="fill:#E2836A;" width="3.976" height="6.281"/>
		<path style="fill:#E2836A;" d="M341.407,176.305h-4.229v-6.514h4.229V176.305z M337.431,176.072h3.723v-6.048h-3.723V176.072z"/>
	</g>
	<g>
		<rect x="337.234" y="167.468" style="fill:#E2836A;" width="1.777" height="1.824"/>
		<path style="fill:#E2836A;" d="M339.068,169.326h-1.89v-1.892h1.89V169.326z M337.291,169.259h1.664v-1.757h-1.664V169.259z"/>
	</g>
	<g>
		<rect x="339.582" y="167.468" style="fill:#E2836A;" width="1.777" height="1.824"/>
		<path style="fill:#E2836A;" d="M341.416,169.326h-1.89v-1.892h1.89V169.326z M339.639,169.259h1.664v-1.757h-1.664V169.259z"/>
	</g>
	<g>
		<rect x="337.309" y="178.298" style="fill:#E2836A;" width="3.976" height="3.847"/>
		<path style="fill:#E2836A;" d="M341.411,182.216h-4.229v-3.99h4.229V182.216z M337.435,182.074h3.723v-3.705h-3.723V182.074z"/>
	</g>
</g>
<g>
	<g>
		<rect x="196.76" y="169.908" style="fill:#E2836A;" width="3.976" height="6.281"/>
		<path style="fill:#E2836A;" d="M200.863,176.305h-4.229v-6.514h4.229V176.305z M196.887,176.072h3.723v-6.048h-3.723V176.072z"/>
	</g>
	<g>
		<rect x="196.69" y="167.468" style="fill:#E2836A;" width="1.777" height="1.824"/>
		<path style="fill:#E2836A;" d="M198.524,169.326h-1.89v-1.892h1.89V169.326z M196.747,169.259h1.664v-1.757h-1.664V169.259z"/>
	</g>
	<g>
		<rect x="199.038" y="167.468" style="fill:#E2836A;" width="1.777" height="1.824"/>
		<path style="fill:#E2836A;" d="M200.872,169.326h-1.89v-1.892h1.89V169.326z M199.095,169.259h1.664v-1.757h-1.664V169.259z"/>
	</g>
	<g>
		<rect x="196.765" y="178.298" style="fill:#E2836A;" width="3.976" height="3.847"/>
		<path style="fill:#E2836A;" d="M200.867,182.216h-4.229v-3.99h4.229V182.216z M196.891,182.074h3.723v-3.705h-3.723V182.074z"/>
	</g>
</g>
<rect x="256.286" y="180.716" style="fill:#E37254;" width="14.933" height="3.23"/>
<path style="fill:#E37254;" d="M248.613,177.347v2.874h0.729v-1.568c0-0.235,0.173-0.427,0.385-0.427
	c0.212,0,0.385,0.192,0.385,0.427v1.568h0.917v-1.568c0-0.235,0.173-0.427,0.385-0.427c0.212,0,0.385,0.192,0.385,0.427v1.568h0.917
	v-1.568c0-0.235,0.173-0.427,0.385-0.427c0.212,0,0.385,0.192,0.385,0.427v1.568h0.917v-1.568c0-0.235,0.173-0.427,0.385-0.427
	c0.212,0,0.385,0.192,0.385,0.427v1.568h0.916v-1.568c0-0.235,0.173-0.427,0.385-0.427l0,0c0.212,0,0.385,0.192,0.385,0.427v1.568
	h0.917v-1.568c0-0.235,0.173-0.427,0.385-0.427s0.385,0.192,0.385,0.427v1.568h0.917v-1.568c0-0.235,0.173-0.427,0.385-0.427
	c0.212,0,0.385,0.192,0.385,0.427v1.568h0.917v-1.568c0-0.235,0.173-0.427,0.385-0.427c0.212,0,0.385,0.192,0.385,0.427v1.568h0.917
	v-1.568c0-0.235,0.173-0.427,0.385-0.427s0.385,0.192,0.385,0.427v1.568h1.128v-2.874H248.613z"/>
<rect x="279.477" y="180.727" style="fill:#E37254;" width="15.157" height="3.23"/>
<path style="fill:#E37254;" d="M273.408,177.36v2.874h0.75v-1.568c0-0.235,0.178-0.427,0.396-0.427c0.218,0,0.396,0.192,0.396,0.427
	v1.568h0.943v-1.568c0-0.235,0.178-0.427,0.396-0.427c0.218,0,0.396,0.192,0.396,0.427v1.568h0.943v-1.568
	c0-0.235,0.178-0.427,0.396-0.427c0.218,0,0.396,0.192,0.396,0.427v1.568h0.943v-1.568c0-0.235,0.178-0.427,0.396-0.427
	c0.218,0,0.396,0.192,0.396,0.427v1.568h0.943v-1.568c0-0.235,0.178-0.427,0.396-0.427h0c0.218,0,0.396,0.192,0.396,0.427v1.568
	h0.943v-1.568c0-0.235,0.178-0.427,0.396-0.427c0.218,0,0.396,0.192,0.396,0.427v1.568h0.943v-1.568
	c0-0.235,0.178-0.427,0.396-0.427c0.218,0,0.396,0.192,0.396,0.427v1.568h0.943v-1.568c0-0.235,0.178-0.427,0.396-0.427
	c0.218,0,0.396,0.192,0.396,0.427v1.568h0.943v-1.568c0-0.235,0.178-0.427,0.396-0.427c0.218,0,0.396,0.192,0.396,0.427v1.568h1.161
	v-2.874H273.408z"/>
<rect x="276.408" y="181.679" style="fill:#E38065;" width="8.46" height="0.423"/>
<rect x="276.159" y="182.032" style="fill:#E2795D;" width="9.033" height="0.597"/>
<rect x="276.891" y="182.436" style="fill:#E38065;" width="9.579" height="0.597"/>
<rect x="276.328" y="182.939" style="fill:#E2795D;" width="10.637" height="0.597"/>
<rect x="275.974" y="183.361" style="fill:#E38065;" width="10.991" height="0.597"/>
<rect x="276.587" y="181.294" style="fill:#E2795D;" width="8.282" height="0.385"/>
<g>
	<polygon style="fill:#E2795D;" points="263.356,183.714 262.303,183.714 262.303,181.276 262.903,181.276 264.285,178.201 
		264.285,182.093 	"/>
	<rect x="264.285" y="177.36" style="fill:#E2795D;" width="0.567" height="4.733"/>
</g>
<g>
	<polygon style="fill:#E2795D;" points="274.284,183.714 275.202,183.714 275.202,181.276 274.679,181.276 273.474,178.201 
		273.474,182.093 	"/>
	<rect x="272.98" y="177.36" style="fill:#E2795D;" width="0.494" height="4.733"/>
</g>
<g>
	<path style="fill:#E2795D;" d="M265.803,169.502c0,0,1.256-2.7,2.991-2.704c1.673-0.004,2.991,2.704,2.991,2.704H265.803z"/>
	<path style="fill:#E2795D;" d="M271.911,169.573h-6.23l0.044-0.097c0.052-0.112,1.298-2.745,3.069-2.749c0.002,0,0.003,0,0.003,0
		c1.708,0,3.01,2.635,3.064,2.748L271.911,169.573z M265.929,169.431h5.729c-0.256-0.482-1.442-2.562-2.86-2.562
		c0,0-0.002,0-0.003,0C267.319,166.873,266.174,168.952,265.929,169.431z"/>
</g>
<rect x="265.766" y="170.579" style="fill:#E2795D;" width="2.912" height="10.269"/>
<rect x="268.874" y="170.579" style="fill:#E2795D;" width="2.912" height="10.269"/>
<rect x="266.788" y="174.691" style="fill:#E25D3A;" width="0.943" height="1.03"/>
<rect x="266.788" y="176.401" style="fill:#E25D3A;" width="0.943" height="1.03"/>
<rect x="269.858" y="174.691" style="fill:#E25D3A;" width="0.943" height="1.03"/>
<rect x="269.858" y="176.401" style="fill:#E25D3A;" width="0.943" height="1.03"/>
<rect x="265.967" y="170.848" style="fill:#E25D3A;" width="2.511" height="2.2"/>
<rect x="269.074" y="170.848" style="fill:#E25D3A;" width="2.511" height="2.2"/>
<rect x="184.672" y="117.526" style="fill:#8EC5D3;" width="3.724" height="1.233"/>
<rect x="210.257" y="117.526" style="fill:#8EC5D3;" width="3.724" height="1.233"/>
<rect x="206.364" y="111.322" style="fill:#8EC5D3;" width="3.909" height="1.233"/>
<rect x="202.283" y="105.69" style="fill:#8EC5D3;" width="4.081" height="1.233"/>
<rect x="196.382" y="99.924" style="fill:#8EC5D3;" width="5.901" height="1.011"/>
<rect x="192.301" y="105.69" style="fill:#8EC5D3;" width="4.042" height="1.233"/>
<rect x="188.392" y="111.322" style="fill:#8EC5D3;" width="3.909" height="1.233"/>
<rect x="324.06" y="117.642" style="fill:#8EC5D3;" width="3.724" height="1.233"/>
<rect x="349.636" y="117.642" style="fill:#8EC5D3;" width="3.736" height="1.233"/>
<rect x="345.744" y="111.437" style="fill:#8EC5D3;" width="3.893" height="1.233"/>
<rect x="341.663" y="105.986" style="fill:#8EC5D3;" width="4.081" height="1.233"/>
<rect x="335.766" y="100.195" style="fill:#8EC5D3;" width="5.901" height="1.011"/>
<rect x="331.636" y="105.986" style="fill:#8EC5D3;" width="4.13" height="1.233"/>
<rect x="327.792" y="111.437" style="fill:#8EC5D3;" width="3.844" height="1.233"/>
<rect x="285.08" y="122.632" style="fill:#8EC5D3;" width="4.911" height="1.233"/>
<rect x="281.371" y="117.305" style="fill:#8EC5D3;" width="3.727" height="1.233"/>
<rect x="278.336" y="111.258" style="fill:#8EC5D3;" width="3.035" height="1.233"/>
<rect x="275.167" y="104.986" style="fill:#8EC5D3;" width="3.188" height="1.233"/>
<rect x="271.761" y="98.849" style="fill:#8EC5D3;" width="3.406" height="1.233"/>
<rect x="266.844" y="93.765" style="fill:#8EC5D3;" width="4.917" height="0.616"/>
<rect x="253.507" y="117.305" style="fill:#8EC5D3;" width="3.727" height="1.233"/>
<rect x="257.234" y="111.258" style="fill:#8EC5D3;" width="3.035" height="1.233"/>
<rect x="260.251" y="104.986" style="fill:#8EC5D3;" width="3.188" height="1.233"/>
<rect x="263.438" y="98.849" style="fill:#8EC5D3;" width="3.406" height="1.233"/>
<rect x="248.613" y="122.632" style="fill:#8EC5D3;" width="4.911" height="1.233"/>
<g>
	<rect x="215.32" y="128.81" style="fill:#E2795D;" width="1.776" height="1.619"/>
	<rect x="217.546" y="128.81" style="fill:#E2795D;" width="1.776" height="1.619"/>
</g>
<g>
	<rect x="224.229" y="128.81" style="fill:#E2795D;" width="1.776" height="1.619"/>
	<rect x="226.455" y="128.81" style="fill:#E2795D;" width="1.776" height="1.619"/>
</g>
<g>
	<rect x="233.138" y="128.81" style="fill:#E2795D;" width="1.776" height="1.619"/>
	<rect x="235.363" y="128.81" style="fill:#E2795D;" width="1.776" height="1.619"/>
</g>
<g>
	<rect x="242.046" y="128.81" style="fill:#E2795D;" width="1.776" height="1.619"/>
	<rect x="244.272" y="128.81" style="fill:#E2795D;" width="1.776" height="1.619"/>
</g>
<g>
	<rect x="291.366" y="128.637" style="fill:#E2795D;" width="1.776" height="1.619"/>
	<rect x="293.592" y="128.637" style="fill:#E2795D;" width="1.776" height="1.619"/>
</g>
<g>
	<rect x="300.275" y="128.637" style="fill:#E2795D;" width="1.776" height="1.619"/>
	<rect x="302.5" y="128.637" style="fill:#E2795D;" width="1.776" height="1.619"/>
</g>
<g>
	<rect x="309.183" y="128.637" style="fill:#E2795D;" width="1.776" height="1.619"/>
	<rect x="311.409" y="128.637" style="fill:#E2795D;" width="1.776" height="1.619"/>
</g>
<g>
	<rect x="318.092" y="128.637" style="fill:#E2795D;" width="1.776" height="1.619"/>
	<rect x="320.317" y="128.637" style="fill:#E2795D;" width="1.776" height="1.619"/>
</g>
<g>
	<path style="fill:#BDC3C7;" d="M538.7,197.309c-0.334-0.682-3.697-4.211-37.14-6.735c-24.05-1.815-58.211-2.735-101.535-2.735v-4
		c45.004,0,80.115,0.99,104.357,2.943c33.654,2.711,38.293,6.595,38.293,10.388h-4C538.675,197.242,538.694,197.295,538.7,197.309z"
		/>
</g>
<path style="fill:#265387;" d="M0,198.506c15.019-8.61,28.324-9.764,45.628-9c17.893,0.79,36.898,3.601,54.523,6.231
	c21.931,3.272,44.439-1.816,66.477-1.145c22.007,0.67,42.145-0.174,63.937-4.172c22.261-4.084,40.021-0.177,61.917,4
	c18.215,3.475,36.476-0.229,54.68-1.702c18.291-1.479,36.066,2.227,54.307,2.109c12.418-0.08,24.45-3.652,36.839-4.052
	c17.125-0.552,33.967,5.648,51.101,3.62c17.608-2.084,33.345-1.719,51.267,0.773c23.991,3.336-5.666,3.336-5.666,3.336"/>
<g>
	<polygon style="fill:#d1d3d4;" points="497.963,185.984 459.495,119.104 400.21,183.547 399.841,183.208 459.589,118.264 
		498.396,185.735 	"/>
</g>
<g>
	<polygon style="fill:#d1d3d4;" points="497.978,186.008 459.499,133.635 400.188,184.107 399.863,183.727 459.584,132.906 
		459.743,133.123 498.381,185.712 	"/>
</g>
<g>
	<polygon style="fill:#d1d3d4;" points="498.001,186.035 459.505,146.648 400.16,184.61 399.891,184.189 459.578,146.007 
		498.358,185.685 	"/>
</g>
<g>
	<polygon style="fill:#d1d3d4;" points="498.039,186.067 459.514,159.934 400.123,185.122 399.928,184.662 459.57,159.367 
		498.32,185.653 	"/>
</g>
<g>
	<polygon style="fill:#d1d3d4;" points="498.065,186.083 459.52,166.307 400.102,185.366 399.949,184.889 459.564,165.768 
		459.656,165.814 498.294,185.637 	"/>
</g>
</svg>
