<?xml version="1.0" encoding="iso-8859-1"?>
<!-- Generator: Adobe Illustrator 19.1.0, SVG Export Plug-In . SVG Version: 6.00 Build 0)  -->
<svg version="1.1" id="Layer_1" xmlns="http://www.w3.org/2000/svg" xmlns:xlink="http://www.w3.org/1999/xlink" x="0px" y="0px"
	 viewBox="0 0 549.333 197.755" style="enable-background:new 0 0 549.333 197.755;" xml:space="preserve">

	 <path id="cloud_x5F_3" style="fill:#FFFFFF;" d="M219.661,130.934c0.495-1.905,2.07-3.37,4.043-3.687
          	c0.383-4.266,3.964-7.61,8.33-7.61c1.886,0,3.62,0.632,5.02,1.686c1.4-1.054,3.135-1.686,5.021-1.686
          	c0.917,0,1.797,0.153,2.623,0.426c1.943-1.816,4.547-2.936,7.418-2.936c6.008,0,10.877,4.87,10.877,10.877
          	c0,1.017-0.149,1.997-0.41,2.93H219.661z">
          	<animateTransform attributeType="xml"
          									 attributeName="transform"
          									 type="translate"
          									 from="-170 25"
          									 to="800 25"
          									 dur="50s"
          									 repeatCount="indefinite"/>
          </path>
          <path id="cloud_x5F_1" style="fill:#FFFFFF;" d="M79.249,74.975c-0.496-1.905-2.07-3.37-4.043-3.687
          	c-0.383-4.266-3.964-7.61-8.33-7.61c-1.886,0-3.621,0.632-5.021,1.686c-1.399-1.054-3.134-1.686-5.021-1.686
          	c-0.917,0-1.798,0.153-2.624,0.426c-1.943-1.816-4.546-2.936-7.417-2.936c-6.008,0-10.877,4.87-10.877,10.877
          	c0,1.017,0.149,1.997,0.411,2.93H79.249z">
          	<animateTransform attributeType="xml"
          									 attributeName="transform"
          									 type="translate"
          									 from="-170 45"
          									 to="800 45"
          									 dur="50s"
          									 repeatCount="indefinite"/>
          </path>

<rect x="361.147" y="123.142" style="fill:#AC533A;" width="111.509" height="8.052"/>
<rect x="25.284" y="159.853" style="fill:#D7E03E;" width="62.616" height="39.451"/>
<polygon style="fill:#E25D3A;" points="88.362,160.055 25.285,160.055 30.813,151.853 82.834,151.853 "/>
<rect x="28.801" y="162.028" style="fill:#A6D5E1;" width="4.101" height="6.64"/>
<rect x="37.361" y="162.028" style="fill:#A6D5E1;" width="4.101" height="6.64"/>
<rect x="45.921" y="162.028" style="fill:#A6D5E1;" width="4.101" height="6.64"/>
<rect x="54.481" y="162.028" style="fill:#A6D5E1;" width="4.101" height="6.64"/>
<rect x="63.04" y="162.028" style="fill:#A6D5E1;" width="4.101" height="6.64"/>
<rect x="71.6" y="162.028" style="fill:#A6D5E1;" width="4.101" height="6.64"/>
<rect x="80.16" y="162.028" style="fill:#A6D5E1;" width="4.101" height="6.64"/>
<rect x="28.996" y="173.16" style="fill:#A6D5E1;" width="4.101" height="6.639"/>
<rect x="37.556" y="173.16" style="fill:#A6D5E1;" width="4.101" height="6.639"/>
<rect x="46.116" y="173.16" style="fill:#A6D5E1;" width="4.101" height="6.639"/>
<rect x="53.895" y="178.311" style="fill:#5FB7CB;" width="5.468" height="9.178"/>
<rect x="63.236" y="173.16" style="fill:#A6D5E1;" width="4.101" height="6.639"/>
<rect x="71.795" y="173.16" style="fill:#A6D5E1;" width="4.101" height="6.639"/>
<rect x="80.356" y="173.16" style="fill:#A6D5E1;" width="4.101" height="6.639"/>
<rect x="144.785" y="156.923" style="fill:#E2836A;" width="26.559" height="39.452"/>
<polygon style="fill:#ECF0F1;" points="171.539,157.125 144.785,157.125 149.474,148.923 166.85,148.923 "/>
<rect x="146.852" y="159.538" style="fill:#E25D3A;" width="4.101" height="6.639"/>
<rect x="155.673" y="159.538" style="fill:#E25D3A;" width="4.101" height="6.639"/>
<rect x="147.048" y="170.669" style="fill:#E25D3A;" width="4.101" height="6.64"/>
<rect x="164.493" y="170.669" style="fill:#E25D3A;" width="4.101" height="6.64"/>
<rect x="155.282" y="174.724" style="fill:#E25D3A;" width="5.468" height="9.178"/>
<rect x="164.493" y="159.538" style="fill:#E25D3A;" width="4.101" height="6.639"/>
<ellipse style="fill:#4FBA6F;" cx="142.581" cy="170.06" rx="3.375" ry="3.73"/>
<rect x="144.206" y="174.079" style="fill:#9C8160;" width="3" height="9.75"/>
<ellipse style="fill:#26B99A;" cx="144.706" cy="170.329" rx="4.75" ry="5.25"/>
<rect x="176.193" y="157.507" style="fill:#A6D5E1;" width="21.595" height="39.452"/>
<polygon style="fill:#E25D3A;" points="197.947,157.709 176.193,157.709 180.006,149.507 194.134,149.507 "/>
<rect x="178.706" y="159.829" style="fill:#8EC5D3;" width="3.335" height="6.639"/>
<rect x="185.88" y="159.829" style="fill:#8EC5D3;" width="3.334" height="6.639"/>
<rect x="178.866" y="170.96" style="fill:#8EC5D3;" width="3.335" height="6.64"/>
<rect x="193.053" y="170.96" style="fill:#8EC5D3;" width="3.333" height="6.64"/>
<rect x="184.846" y="176.015" style="fill:#5FB7CB;" width="4.447" height="9.178"/>
<rect x="193.053" y="159.829" style="fill:#8EC5D3;" width="3.333" height="6.639"/>
<rect x="360.126" y="131.194" style="fill:#E2836A;" width="112.53" height="55.643"/>
<polygon style="fill:#E25D3A;" points="496.812,118.652 496.812,112.441 492.962,112.441 492.962,107.061 488.863,107.061 
	488.863,101.098 482.901,101.098 482.901,107.061 478.802,107.061 478.802,112.441 474.952,112.441 474.952,118.652 
	471.226,118.652 471.226,184.727 500.538,184.727 500.538,118.652 "/>
<polygon style="fill:#E25D3A;" points="357.421,118.652 357.421,112.441 353.57,112.441 353.57,106.79 349.472,106.79 
	349.472,100.828 343.509,100.828 343.509,106.79 339.411,106.79 339.411,112.441 335.562,112.441 335.562,118.652 331.838,118.652 
	331.838,184.727 361.147,184.727 361.147,118.652 "/>
<rect x="416.552" y="75.336" style="fill:#2C3E50;" width="13.797" height="7.17"/>
<g>
	<rect x="420.573" y="75.34" style="fill:#F1C119;" width="1.433" height="7.163"/>
	<rect x="416.525" y="78.205" style="fill:#F1C119;" width="13.849" height="1.433"/>
</g>
<rect x="76.244" y="146.753" style="fill:#95A5A5;" width="56" height="37.083"/>
<g>
	<rect x="69.581" y="117.504" style="fill:#95A5A5;" width="26" height="67.334"/>
	<polygon style="fill:#BDC3C7;" points="69.581,117.879 82.581,99.46 95.581,117.879 	"/>
</g>
<g>
	<rect x="123.241" y="117.504" style="fill:#95A5A5;" width="26" height="67.334"/>
	<polygon style="fill:#BDC3C7;" points="123.241,117.879 136.241,99.46 149.241,117.879 	"/>
</g>
<polygon style="fill:#95A5A5;" points="92.868,151.254 109.035,132.835 125.202,151.254 "/>
<path style="fill:#7F8C8D;" d="M113.286,187.712c0,1.104-0.534,2-1.192,2h-5.365c-0.659,0-1.192-0.896-1.192-2v-14
	c0-1.105,0.534-2,1.192-2h5.365c0.659,0,1.192,0.895,1.192,2V187.712z"/>
<g>
	<rect x="416.246" y="75.517" style="fill:#A6D5E1;" width="0.445" height="18.141"/>
</g>
<polygon style="fill:#E25D3A;" points="432.242,123.742 432.242,118.365 428.555,118.365 428.555,112.311 425.482,112.311 
	425.482,106.101 422.307,106.101 422.307,99.977 418.927,99.977 418.927,94.016 414.01,94.016 414.01,99.977 410.63,99.977 
	410.63,106.101 407.455,106.101 407.455,112.311 404.382,112.311 404.382,118.365 400.696,118.365 400.696,123.742 395.779,123.742 
	395.779,185.346 437.157,185.346 437.157,123.742 "/>
<g>
	<rect x="73.894" y="120.962" style="fill:#7F8C8D;" width="1.875" height="5.936"/>
	<rect x="76.643" y="120.962" style="fill:#7F8C8D;" width="1.875" height="5.936"/>
	<rect x="79.393" y="120.962" style="fill:#7F8C8D;" width="1.875" height="5.936"/>
</g>
<g>
	<rect x="84.143" y="120.962" style="fill:#7F8C8D;" width="1.875" height="5.936"/>
	<rect x="86.893" y="120.962" style="fill:#7F8C8D;" width="1.875" height="5.936"/>
	<rect x="89.643" y="120.962" style="fill:#7F8C8D;" width="1.875" height="5.936"/>
</g>
<g>
	<rect x="74.019" y="131.349" style="fill:#7F8C8D;" width="1.875" height="5.935"/>
	<rect x="76.768" y="131.349" style="fill:#7F8C8D;" width="1.875" height="5.935"/>
	<rect x="79.518" y="131.349" style="fill:#7F8C8D;" width="1.875" height="5.935"/>
</g>
<g>
	<rect x="84.268" y="131.349" style="fill:#7F8C8D;" width="1.875" height="5.935"/>
	<rect x="87.018" y="131.349" style="fill:#7F8C8D;" width="1.875" height="5.935"/>
	<rect x="89.768" y="131.349" style="fill:#7F8C8D;" width="1.875" height="5.935"/>
</g>
<g>
	<rect x="74.144" y="140.901" style="fill:#7F8C8D;" width="1.875" height="5.936"/>
	<rect x="76.893" y="140.901" style="fill:#7F8C8D;" width="1.875" height="5.936"/>
	<rect x="79.643" y="140.901" style="fill:#7F8C8D;" width="1.875" height="5.936"/>
</g>
<g>
	<rect x="84.393" y="140.901" style="fill:#7F8C8D;" width="1.875" height="5.936"/>
	<rect x="87.143" y="140.901" style="fill:#7F8C8D;" width="1.875" height="5.936"/>
	<rect x="89.893" y="140.901" style="fill:#7F8C8D;" width="1.875" height="5.936"/>
</g>
<g>
	<rect x="127.512" y="120.212" style="fill:#7F8C8D;" width="1.875" height="5.936"/>
	<rect x="130.262" y="120.212" style="fill:#7F8C8D;" width="1.875" height="5.936"/>
	<rect x="133.012" y="120.212" style="fill:#7F8C8D;" width="1.875" height="5.936"/>
</g>
<g>
	<rect x="137.762" y="120.212" style="fill:#7F8C8D;" width="1.875" height="5.936"/>
	<rect x="140.512" y="120.212" style="fill:#7F8C8D;" width="1.875" height="5.936"/>
	<rect x="143.262" y="120.212" style="fill:#7F8C8D;" width="1.875" height="5.936"/>
</g>
<g>
	<rect x="127.637" y="130.599" style="fill:#7F8C8D;" width="1.875" height="5.935"/>
	<rect x="130.387" y="130.599" style="fill:#7F8C8D;" width="1.875" height="5.935"/>
	<rect x="133.137" y="130.599" style="fill:#7F8C8D;" width="1.875" height="5.935"/>
</g>
<g>
	<rect x="137.887" y="130.599" style="fill:#7F8C8D;" width="1.875" height="5.935"/>
	<rect x="140.637" y="130.599" style="fill:#7F8C8D;" width="1.875" height="5.935"/>
	<rect x="143.387" y="130.599" style="fill:#7F8C8D;" width="1.875" height="5.935"/>
</g>
<g>
	<rect x="127.762" y="140.151" style="fill:#7F8C8D;" width="1.875" height="5.936"/>
	<rect x="130.512" y="140.151" style="fill:#7F8C8D;" width="1.875" height="5.936"/>
	<rect x="133.262" y="140.151" style="fill:#7F8C8D;" width="1.875" height="5.936"/>
</g>
<g>
	<rect x="138.012" y="140.151" style="fill:#7F8C8D;" width="1.875" height="5.936"/>
	<rect x="140.762" y="140.151" style="fill:#7F8C8D;" width="1.875" height="5.936"/>
	<rect x="143.512" y="140.151" style="fill:#7F8C8D;" width="1.875" height="5.936"/>
</g>
<g>
	<rect x="105.265" y="143.411" style="fill:#7F8C8D;" width="1.875" height="3.436"/>
	<rect x="108.015" y="140.911" style="fill:#7F8C8D;" width="1.875" height="5.936"/>
	<rect x="110.765" y="143.411" style="fill:#7F8C8D;" width="1.875" height="3.436"/>
</g>
<path style="fill:#7F8C8D;" d="M85.956,165.753v-6.955c0-0.854-0.896-1.545-2-1.545h-1.375c-1.104,0-2,0.692-2,1.545v6.955H85.956z"
	/>
<path style="fill:#7F8C8D;" d="M103.204,165.753v-6.955c0-0.854-0.896-1.545-2-1.545h-1.375c-1.104,0-2,0.692-2,1.545v6.955H103.204
	z"/>
<path style="fill:#7F8C8D;" d="M111.952,165.753v-6.955c0-0.854-0.896-1.545-2-1.545h-1.375c-1.105,0-2,0.692-2,1.545v6.955H111.952
	z"/>
<path style="fill:#7F8C8D;" d="M121.077,165.753v-6.955c0-0.854-0.896-1.545-2-1.545h-1.375c-1.104,0-2,0.692-2,1.545v6.955H121.077
	z"/>
<path style="fill:#7F8C8D;" d="M139.206,165.753v-6.955c0-0.854-0.895-1.545-2-1.545h-1.375c-1.104,0-2,0.692-2,1.545v6.955H139.206
	z"/>
<path style="fill:#95A5A5;" d="M99.704,153.628v-2.588c0-0.317-0.333-0.575-0.744-0.575h-0.512c-0.411,0-0.744,0.257-0.744,0.575
	v2.588H99.704z"/>
<path style="fill:#95A5A5;" d="M102.722,153.628v-2.588c0-0.317-0.333-0.575-0.744-0.575h-0.512c-0.411,0-0.744,0.257-0.744,0.575
	v2.588H102.722z"/>
<path style="fill:#95A5A5;" d="M105.74,153.628v-2.588c0-0.317-0.333-0.575-0.744-0.575h-0.512c-0.411,0-0.744,0.257-0.744,0.575
	v2.588H105.74z"/>
<path style="fill:#95A5A5;" d="M108.758,153.628v-2.588c0-0.317-0.333-0.575-0.744-0.575h-0.512c-0.411,0-0.744,0.257-0.744,0.575
	v2.588H108.758z"/>
<path style="fill:#95A5A5;" d="M111.775,153.628v-2.588c0-0.317-0.333-0.575-0.744-0.575h-0.512c-0.411,0-0.744,0.257-0.744,0.575
	v2.588H111.775z"/>
<path style="fill:#95A5A5;" d="M114.793,153.628v-2.588c0-0.317-0.333-0.575-0.744-0.575h-0.512c-0.411,0-0.744,0.257-0.744,0.575
	v2.588H114.793z"/>
<path style="fill:#95A5A5;" d="M117.811,153.628v-2.588c0-0.317-0.333-0.575-0.744-0.575h-0.512c-0.411,0-0.744,0.257-0.744,0.575
	v2.588H117.811z"/>
<path style="fill:#95A5A5;" d="M120.829,153.628v-2.588c0-0.317-0.333-0.575-0.744-0.575h-0.512c-0.411,0-0.744,0.257-0.744,0.575
	v2.588H120.829z"/>
<rect x="416.064" y="95.838" style="fill:#E2795D;" width="1.079" height="16.545"/>
<rect x="11.323" y="183.838" style="fill:#BDC3C7;" width="212.347" height="13.121"/>
<rect x="412.258" y="103.156" style="fill:#E2795D;" width="1.079" height="9.227"/>
<rect x="419.84" y="103.156" style="fill:#E2795D;" width="1.079" height="9.227"/>
<rect x="346.009" y="103.391" style="fill:#E2836A;" width="1.079" height="15.646"/>
<rect x="341.423" y="110.312" style="fill:#E2836A;" width="1.079" height="8.726"/>
<rect x="350.325" y="110.312" style="fill:#E2836A;" width="1.079" height="8.726"/>
<rect x="485.474" y="103.931" style="fill:#E2795D;" width="1.079" height="14.837"/>
<rect x="480.888" y="110.493" style="fill:#E2795D;" width="1.079" height="8.274"/>
<rect x="489.79" y="110.493" style="fill:#E2795D;" width="1.079" height="8.274"/>
<g>
	<g>
		<rect x="372.158" y="143.445" style="fill:#E25D3A;" width="1.777" height="6.281"/>
		<path style="fill:#E25D3A;" d="M373.992,149.842h-1.89v-6.514h1.89V149.842z M372.215,149.61h1.664v-6.048h-1.664V149.61z"/>
	</g>
	<g>
		<path style="fill:#E25D3A;" d="M372.176,142.13c0,0,0.854-2.7,2.035-2.704c1.138-0.004,2.035,2.704,2.035,2.704H372.176z"/>
		<path style="fill:#E25D3A;" d="M376.331,142.201h-4.238l0.03-0.098c0.036-0.112,0.883-2.745,2.088-2.749c0.001,0,0.002,0,0.002,0
			c1.162,0,2.048,2.635,2.085,2.748L376.331,142.201z M372.261,142.059h3.897c-0.174-0.482-0.981-2.562-1.946-2.562
			c0,0-0.001,0-0.002,0C373.207,139.5,372.428,141.579,372.261,142.059z"/>
	</g>
	<g>
		<g>
			<rect x="372.665" y="143.445" style="fill:#E25D3A;" width="0.124" height="6.281"/>
		</g>
		<g>
			<rect x="373.304" y="143.445" style="fill:#E25D3A;" width="0.124" height="6.281"/>
		</g>
	</g>
	<g>
		<rect x="372.158" y="143.317" style="fill:#E25D3A;" width="1.777" height="0.232"/>
	</g>
	<g>
		<rect x="372.158" y="146.456" style="fill:#E25D3A;" width="1.777" height="0.258"/>
	</g>
	<g>
		<rect x="372.158" y="149.597" style="fill:#E25D3A;" width="1.777" height="0.258"/>
	</g>
	<g>
		<rect x="374.468" y="143.445" style="fill:#E25D3A;" width="1.777" height="6.281"/>
		<path style="fill:#E25D3A;" d="M376.302,149.842h-1.89v-6.514h1.89V149.842z M374.525,149.61h1.664v-6.048h-1.664V149.61z"/>
	</g>
	<g>
		<g>
			<rect x="374.975" y="143.445" style="fill:#E25D3A;" width="0.124" height="6.281"/>
		</g>
		<g>
			<rect x="375.614" y="143.445" style="fill:#E25D3A;" width="0.124" height="6.281"/>
		</g>
	</g>
	<g>
		<rect x="374.468" y="143.317" style="fill:#E25D3A;" width="1.777" height="0.232"/>
	</g>
	<g>
		<rect x="374.468" y="146.456" style="fill:#E25D3A;" width="1.777" height="0.258"/>
	</g>
	<g>
		<rect x="374.468" y="149.597" style="fill:#E25D3A;" width="1.777" height="0.258"/>
	</g>
	<g>
		<rect x="374.468" y="150.896" style="fill:#E25D3A;" width="1.777" height="6.281"/>
		<path style="fill:#E25D3A;" d="M376.302,157.293h-1.89v-6.514h1.89V157.293z M374.525,157.06h1.664v-6.048h-1.664V157.06z"/>
	</g>
	<g>
		<g>
			<rect x="374.975" y="150.896" style="fill:#E25D3A;" width="0.124" height="6.281"/>
		</g>
		<g>
			<rect x="375.614" y="150.896" style="fill:#E25D3A;" width="0.124" height="6.281"/>
		</g>
	</g>
	<g>
		<rect x="374.468" y="150.767" style="fill:#E25D3A;" width="1.777" height="0.258"/>
	</g>
	<g>
		<rect x="374.468" y="153.907" style="fill:#E25D3A;" width="1.777" height="0.258"/>
	</g>
	<g>
		<rect x="374.468" y="157.048" style="fill:#E25D3A;" width="1.777" height="0.258"/>
	</g>
	<g>
		<rect x="372.158" y="150.896" style="fill:#E25D3A;" width="1.777" height="6.281"/>
		<path style="fill:#E25D3A;" d="M373.992,157.293h-1.89v-6.514h1.89V157.293z M372.215,157.06h1.664v-6.048h-1.664V157.06z"/>
	</g>
	<g>
		<g>
			<rect x="372.665" y="150.896" style="fill:#E25D3A;" width="0.124" height="6.281"/>
		</g>
		<g>
			<rect x="373.304" y="150.896" style="fill:#E25D3A;" width="0.124" height="6.281"/>
		</g>
	</g>
	<g>
		<rect x="372.158" y="150.767" style="fill:#E25D3A;" width="1.777" height="0.258"/>
	</g>
	<g>
		<rect x="372.158" y="153.907" style="fill:#E25D3A;" width="1.777" height="0.258"/>
	</g>
	<g>
		<rect x="372.158" y="157.048" style="fill:#E25D3A;" width="1.777" height="0.258"/>
	</g>
	<g>
		<defs>
			<path id="SVGID_53_" d="M372.176,142.13c0,0,0.854-2.7,2.035-2.704c1.138-0.004,2.035,2.704,2.035,2.704H372.176z"/>
		</defs>
		<use xlink:href="#SVGID_53_"  style="overflow:visible;fill:#E25D3A;"/>
		<clipPath id="SVGID_1_">
			<use xlink:href="#SVGID_53_"  style="overflow:visible;"/>
		</clipPath>
		<g style="clip-path:url(#SVGID_1_);">
			<g>
				<g>
					<rect x="372.648" y="138.268" style="fill:#E25D3A;" width="0.124" height="3.831"/>
				</g>
				<g>
					<rect x="373.269" y="138.268" style="fill:#E25D3A;" width="0.124" height="3.831"/>
				</g>
			</g>
			<g>
				<g>
					<rect x="373.837" y="138.268" style="fill:#E25D3A;" width="0.124" height="3.831"/>
				</g>
				<g>
					<rect x="374.458" y="138.268" style="fill:#E25D3A;" width="0.124" height="3.831"/>
				</g>
			</g>
			<g>
				<g>
					<rect x="375.028" y="138.268" style="fill:#E25D3A;" width="0.124" height="3.831"/>
				</g>
				<g>
					<rect x="375.649" y="138.268" style="fill:#E25D3A;" width="0.124" height="3.831"/>
				</g>
			</g>
		</g>
		<g style="clip-path:url(#SVGID_1_);">
			<g>
				<g>
					<rect x="372.167" y="139.727" style="fill:#E25D3A;" width="4.397" height="0.157"/>
				</g>
			</g>
			<g>
				<g>
					<rect x="372.27" y="140.852" style="fill:#E25D3A;" width="4.397" height="0.157"/>
				</g>
				<g>
					<rect x="372.167" y="142.066" style="fill:#E25D3A;" width="4.397" height="0.157"/>
				</g>
			</g>
		</g>
	</g>
</g>
<g>
	<g>
		<rect x="365.094" y="143.445" style="fill:#E25D3A;" width="1.777" height="6.281"/>
		<path style="fill:#E25D3A;" d="M366.928,149.842h-1.89v-6.514h1.89V149.842z M365.151,149.61h1.664v-6.048h-1.664V149.61z"/>
	</g>
	<g>
		<path style="fill:#E25D3A;" d="M365.112,142.13c0,0,0.854-2.7,2.035-2.704c1.138-0.004,2.035,2.704,2.035,2.704H365.112z"/>
		<path style="fill:#E25D3A;" d="M369.267,142.201h-4.238l0.03-0.098c0.036-0.112,0.883-2.745,2.088-2.749c0.001,0,0.002,0,0.002,0
			c1.162,0,2.048,2.635,2.085,2.748L369.267,142.201z M365.198,142.059h3.897c-0.174-0.482-0.981-2.562-1.946-2.562
			c0,0-0.001,0-0.002,0C366.143,139.5,365.364,141.579,365.198,142.059z"/>
	</g>
	<g>
		<g>
			<rect x="365.601" y="143.445" style="fill:#E25D3A;" width="0.124" height="6.281"/>
		</g>
		<g>
			<rect x="366.241" y="143.445" style="fill:#E25D3A;" width="0.124" height="6.281"/>
		</g>
	</g>
	<g>
		<rect x="365.094" y="143.317" style="fill:#E25D3A;" width="1.777" height="0.232"/>
	</g>
	<g>
		<rect x="365.094" y="146.456" style="fill:#E25D3A;" width="1.777" height="0.258"/>
	</g>
	<g>
		<rect x="365.094" y="149.597" style="fill:#E25D3A;" width="1.777" height="0.258"/>
	</g>
	<g>
		<rect x="367.405" y="143.445" style="fill:#E25D3A;" width="1.777" height="6.281"/>
		<path style="fill:#E25D3A;" d="M369.238,149.842h-1.89v-6.514h1.89V149.842z M367.461,149.61h1.664v-6.048h-1.664V149.61z"/>
	</g>
	<g>
		<g>
			<rect x="367.911" y="143.445" style="fill:#E25D3A;" width="0.124" height="6.281"/>
		</g>
		<g>
			<rect x="368.551" y="143.445" style="fill:#E25D3A;" width="0.124" height="6.281"/>
		</g>
	</g>
	<g>
		<rect x="367.405" y="143.317" style="fill:#E25D3A;" width="1.777" height="0.232"/>
	</g>
	<g>
		<rect x="367.405" y="146.456" style="fill:#E25D3A;" width="1.777" height="0.258"/>
	</g>
	<g>
		<rect x="367.405" y="149.597" style="fill:#E25D3A;" width="1.777" height="0.258"/>
	</g>
	<g>
		<rect x="367.405" y="150.896" style="fill:#E25D3A;" width="1.777" height="6.281"/>
		<path style="fill:#E25D3A;" d="M369.238,157.293h-1.89v-6.514h1.89V157.293z M367.461,157.06h1.664v-6.048h-1.664V157.06z"/>
	</g>
	<g>
		<g>
			<rect x="367.911" y="150.896" style="fill:#E25D3A;" width="0.124" height="6.281"/>
		</g>
		<g>
			<rect x="368.551" y="150.896" style="fill:#E25D3A;" width="0.124" height="6.281"/>
		</g>
	</g>
	<g>
		<rect x="367.405" y="150.767" style="fill:#E25D3A;" width="1.777" height="0.258"/>
	</g>
	<g>
		<rect x="367.405" y="153.907" style="fill:#E25D3A;" width="1.777" height="0.258"/>
	</g>
	<g>
		<rect x="367.405" y="157.048" style="fill:#E25D3A;" width="1.777" height="0.258"/>
	</g>
	<g>
		<rect x="365.094" y="150.896" style="fill:#E25D3A;" width="1.777" height="6.281"/>
		<path style="fill:#E25D3A;" d="M366.928,157.293h-1.89v-6.514h1.89V157.293z M365.151,157.06h1.664v-6.048h-1.664V157.06z"/>
	</g>
	<g>
		<g>
			<rect x="365.601" y="150.896" style="fill:#E25D3A;" width="0.124" height="6.281"/>
		</g>
		<g>
			<rect x="366.241" y="150.896" style="fill:#E25D3A;" width="0.124" height="6.281"/>
		</g>
	</g>
	<g>
		<rect x="365.094" y="150.767" style="fill:#E25D3A;" width="1.777" height="0.258"/>
	</g>
	<g>
		<rect x="365.094" y="153.907" style="fill:#E25D3A;" width="1.777" height="0.258"/>
	</g>
	<g>
		<rect x="365.094" y="157.048" style="fill:#E25D3A;" width="1.777" height="0.258"/>
	</g>
	<g>
		<defs>
			<path id="SVGID_55_" d="M365.112,142.13c0,0,0.854-2.7,2.035-2.704c1.138-0.004,2.035,2.704,2.035,2.704H365.112z"/>
		</defs>
		<use xlink:href="#SVGID_55_"  style="overflow:visible;fill:#E25D3A;"/>
		<clipPath id="SVGID_2_">
			<use xlink:href="#SVGID_55_"  style="overflow:visible;"/>
		</clipPath>
		<g style="clip-path:url(#SVGID_2_);">
			<g>
				<g>
					<rect x="365.584" y="138.268" style="fill:#E25D3A;" width="0.124" height="3.831"/>
				</g>
				<g>
					<rect x="366.205" y="138.268" style="fill:#E25D3A;" width="0.124" height="3.831"/>
				</g>
			</g>
			<g>
				<g>
					<rect x="366.774" y="138.268" style="fill:#E25D3A;" width="0.124" height="3.831"/>
				</g>
				<g>
					<rect x="367.395" y="138.268" style="fill:#E25D3A;" width="0.124" height="3.831"/>
				</g>
			</g>
			<g>
				<g>
					<rect x="367.964" y="138.268" style="fill:#E25D3A;" width="0.124" height="3.831"/>
				</g>
				<g>
					<rect x="368.585" y="138.268" style="fill:#E25D3A;" width="0.124" height="3.831"/>
				</g>
			</g>
		</g>
		<g style="clip-path:url(#SVGID_2_);">
			<g>
				<g>
					<rect x="365.103" y="139.727" style="fill:#E25D3A;" width="4.397" height="0.157"/>
				</g>
			</g>
			<g>
				<g>
					<rect x="365.206" y="140.852" style="fill:#E25D3A;" width="4.397" height="0.157"/>
				</g>
				<g>
					<rect x="365.103" y="142.066" style="fill:#E25D3A;" width="4.397" height="0.157"/>
				</g>
			</g>
		</g>
	</g>
</g>
<g>
	<g>
		<rect x="386.285" y="143.445" style="fill:#E25D3A;" width="1.777" height="6.281"/>
		<path style="fill:#E25D3A;" d="M388.119,149.842h-1.89v-6.514h1.89V149.842z M386.342,149.61h1.664v-6.048h-1.664V149.61z"/>
	</g>
	<g>
		<path style="fill:#E25D3A;" d="M386.303,142.13c0,0,0.854-2.7,2.035-2.704c1.138-0.004,2.035,2.704,2.035,2.704H386.303z"/>
		<path style="fill:#E25D3A;" d="M390.458,142.201h-4.238l0.03-0.098c0.036-0.112,0.883-2.745,2.088-2.749c0.001,0,0.002,0,0.002,0
			c1.162,0,2.048,2.635,2.085,2.748L390.458,142.201z M386.389,142.059h3.897c-0.174-0.482-0.981-2.562-1.946-2.562
			c0,0-0.001,0-0.002,0C387.334,139.5,386.555,141.579,386.389,142.059z"/>
	</g>
	<g>
		<g>
			<rect x="386.792" y="143.445" style="fill:#E25D3A;" width="0.124" height="6.281"/>
		</g>
		<g>
			<rect x="387.432" y="143.445" style="fill:#E25D3A;" width="0.124" height="6.281"/>
		</g>
	</g>
	<g>
		<rect x="386.285" y="143.317" style="fill:#E25D3A;" width="1.777" height="0.232"/>
	</g>
	<g>
		<rect x="386.285" y="146.456" style="fill:#E25D3A;" width="1.777" height="0.258"/>
	</g>
	<g>
		<rect x="386.285" y="149.597" style="fill:#E25D3A;" width="1.777" height="0.258"/>
	</g>
	<g>
		<rect x="388.596" y="143.445" style="fill:#E25D3A;" width="1.777" height="6.281"/>
		<path style="fill:#E25D3A;" d="M390.429,149.842h-1.89v-6.514h1.89V149.842z M388.652,149.61h1.664v-6.048h-1.664V149.61z"/>
	</g>
	<g>
		<g>
			<rect x="389.102" y="143.445" style="fill:#E25D3A;" width="0.124" height="6.281"/>
		</g>
		<g>
			<rect x="389.742" y="143.445" style="fill:#E25D3A;" width="0.124" height="6.281"/>
		</g>
	</g>
	<g>
		<rect x="388.596" y="143.317" style="fill:#E25D3A;" width="1.777" height="0.232"/>
	</g>
	<g>
		<rect x="388.596" y="146.456" style="fill:#E25D3A;" width="1.777" height="0.258"/>
	</g>
	<g>
		<rect x="388.596" y="149.597" style="fill:#E25D3A;" width="1.777" height="0.258"/>
	</g>
	<g>
		<rect x="388.596" y="150.896" style="fill:#E25D3A;" width="1.777" height="6.281"/>
		<path style="fill:#E25D3A;" d="M390.429,157.293h-1.89v-6.514h1.89V157.293z M388.652,157.06h1.664v-6.048h-1.664V157.06z"/>
	</g>
	<g>
		<g>
			<rect x="389.102" y="150.896" style="fill:#E25D3A;" width="0.124" height="6.281"/>
		</g>
		<g>
			<rect x="389.742" y="150.896" style="fill:#E25D3A;" width="0.124" height="6.281"/>
		</g>
	</g>
	<g>
		<rect x="388.596" y="150.767" style="fill:#E25D3A;" width="1.777" height="0.258"/>
	</g>
	<g>
		<rect x="388.596" y="153.907" style="fill:#E25D3A;" width="1.777" height="0.258"/>
	</g>
	<g>
		<rect x="388.596" y="157.048" style="fill:#E25D3A;" width="1.777" height="0.258"/>
	</g>
	<g>
		<rect x="386.285" y="150.896" style="fill:#E25D3A;" width="1.777" height="6.281"/>
		<path style="fill:#E25D3A;" d="M388.119,157.293h-1.89v-6.514h1.89V157.293z M386.342,157.06h1.664v-6.048h-1.664V157.06z"/>
	</g>
	<g>
		<g>
			<rect x="386.792" y="150.896" style="fill:#E25D3A;" width="0.124" height="6.281"/>
		</g>
		<g>
			<rect x="387.432" y="150.896" style="fill:#E25D3A;" width="0.124" height="6.281"/>
		</g>
	</g>
	<g>
		<rect x="386.285" y="150.767" style="fill:#E25D3A;" width="1.777" height="0.258"/>
	</g>
	<g>
		<rect x="386.285" y="153.907" style="fill:#E25D3A;" width="1.777" height="0.258"/>
	</g>
	<g>
		<rect x="386.285" y="157.048" style="fill:#E25D3A;" width="1.777" height="0.258"/>
	</g>
	<g>
		<defs>
			<path id="SVGID_57_" d="M386.303,142.13c0,0,0.854-2.7,2.035-2.704c1.138-0.004,2.035,2.704,2.035,2.704H386.303z"/>
		</defs>
		<use xlink:href="#SVGID_57_"  style="overflow:visible;fill:#E25D3A;"/>
		<clipPath id="SVGID_4_">
			<use xlink:href="#SVGID_57_"  style="overflow:visible;"/>
		</clipPath>
		<g style="clip-path:url(#SVGID_4_);">
			<g>
				<g>
					<rect x="386.775" y="138.268" style="fill:#E25D3A;" width="0.124" height="3.831"/>
				</g>
				<g>
					<rect x="387.396" y="138.268" style="fill:#E25D3A;" width="0.124" height="3.831"/>
				</g>
			</g>
			<g>
				<g>
					<rect x="387.965" y="138.268" style="fill:#E25D3A;" width="0.124" height="3.831"/>
				</g>
				<g>
					<rect x="388.586" y="138.268" style="fill:#E25D3A;" width="0.124" height="3.831"/>
				</g>
			</g>
			<g>
				<g>
					<rect x="389.155" y="138.268" style="fill:#E25D3A;" width="0.124" height="3.831"/>
				</g>
				<g>
					<rect x="389.776" y="138.268" style="fill:#E25D3A;" width="0.124" height="3.831"/>
				</g>
			</g>
		</g>
		<g style="clip-path:url(#SVGID_4_);">
			<g>
				<g>
					<rect x="386.294" y="139.727" style="fill:#E25D3A;" width="4.397" height="0.157"/>
				</g>
			</g>
			<g>
				<g>
					<rect x="386.397" y="140.852" style="fill:#E25D3A;" width="4.397" height="0.157"/>
				</g>
				<g>
					<rect x="386.294" y="142.066" style="fill:#E25D3A;" width="4.397" height="0.157"/>
				</g>
			</g>
		</g>
	</g>
</g>
<g>
	<g>
		<rect x="379.222" y="143.445" style="fill:#E25D3A;" width="1.777" height="6.281"/>
		<path style="fill:#E25D3A;" d="M381.055,149.842h-1.89v-6.514h1.89V149.842z M379.278,149.61h1.664v-6.048h-1.664V149.61z"/>
	</g>
	<g>
		<path style="fill:#E25D3A;" d="M379.239,142.13c0,0,0.854-2.7,2.035-2.704c1.138-0.004,2.035,2.704,2.035,2.704H379.239z"/>
		<path style="fill:#E25D3A;" d="M383.394,142.201h-4.238l0.03-0.098c0.036-0.112,0.883-2.745,2.088-2.749c0.001,0,0.002,0,0.002,0
			c1.162,0,2.048,2.635,2.085,2.748L383.394,142.201z M379.325,142.059h3.897c-0.174-0.482-0.981-2.562-1.946-2.562
			c0,0-0.001,0-0.002,0C380.27,139.5,379.492,141.579,379.325,142.059z"/>
	</g>
	<g>
		<g>
			<rect x="379.728" y="143.445" style="fill:#E25D3A;" width="0.124" height="6.281"/>
		</g>
		<g>
			<rect x="380.368" y="143.445" style="fill:#E25D3A;" width="0.124" height="6.281"/>
		</g>
	</g>
	<g>
		<rect x="379.222" y="143.317" style="fill:#E25D3A;" width="1.777" height="0.232"/>
	</g>
	<g>
		<rect x="379.222" y="146.456" style="fill:#E25D3A;" width="1.777" height="0.258"/>
	</g>
	<g>
		<rect x="379.222" y="149.597" style="fill:#E25D3A;" width="1.777" height="0.258"/>
	</g>
	<g>
		<rect x="381.532" y="143.445" style="fill:#E25D3A;" width="1.777" height="6.281"/>
		<path style="fill:#E25D3A;" d="M383.366,149.842h-1.89v-6.514h1.89V149.842z M381.589,149.61h1.664v-6.048h-1.664V149.61z"/>
	</g>
	<g>
		<g>
			<rect x="382.038" y="143.445" style="fill:#E25D3A;" width="0.124" height="6.281"/>
		</g>
		<g>
			<rect x="382.678" y="143.445" style="fill:#E25D3A;" width="0.124" height="6.281"/>
		</g>
	</g>
	<g>
		<rect x="381.532" y="143.317" style="fill:#E25D3A;" width="1.777" height="0.232"/>
	</g>
	<g>
		<rect x="381.532" y="146.456" style="fill:#E25D3A;" width="1.777" height="0.258"/>
	</g>
	<g>
		<rect x="381.532" y="149.597" style="fill:#E25D3A;" width="1.777" height="0.258"/>
	</g>
	<g>
		<rect x="381.532" y="150.896" style="fill:#E25D3A;" width="1.777" height="6.281"/>
		<path style="fill:#E25D3A;" d="M383.366,157.293h-1.89v-6.514h1.89V157.293z M381.589,157.06h1.664v-6.048h-1.664V157.06z"/>
	</g>
	<g>
		<g>
			<rect x="382.038" y="150.896" style="fill:#E25D3A;" width="0.124" height="6.281"/>
		</g>
		<g>
			<rect x="382.678" y="150.896" style="fill:#E25D3A;" width="0.124" height="6.281"/>
		</g>
	</g>
	<g>
		<rect x="381.532" y="150.767" style="fill:#E25D3A;" width="1.777" height="0.258"/>
	</g>
	<g>
		<rect x="381.532" y="153.907" style="fill:#E25D3A;" width="1.777" height="0.258"/>
	</g>
	<g>
		<rect x="381.532" y="157.048" style="fill:#E25D3A;" width="1.777" height="0.258"/>
	</g>
	<g>
		<rect x="379.222" y="150.896" style="fill:#E25D3A;" width="1.777" height="6.281"/>
		<path style="fill:#E25D3A;" d="M381.055,157.293h-1.89v-6.514h1.89V157.293z M379.278,157.06h1.664v-6.048h-1.664V157.06z"/>
	</g>
	<g>
		<g>
			<rect x="379.728" y="150.896" style="fill:#E25D3A;" width="0.124" height="6.281"/>
		</g>
		<g>
			<rect x="380.368" y="150.896" style="fill:#E25D3A;" width="0.124" height="6.281"/>
		</g>
	</g>
	<g>
		<rect x="379.222" y="150.767" style="fill:#E25D3A;" width="1.777" height="0.258"/>
	</g>
	<g>
		<rect x="379.222" y="153.907" style="fill:#E25D3A;" width="1.777" height="0.258"/>
	</g>
	<g>
		<rect x="379.222" y="157.048" style="fill:#E25D3A;" width="1.777" height="0.258"/>
	</g>
	<g>
		<defs>
			<path id="SVGID_59_" d="M379.239,142.13c0,0,0.854-2.7,2.035-2.704c1.138-0.004,2.035,2.704,2.035,2.704H379.239z"/>
		</defs>
		<use xlink:href="#SVGID_59_"  style="overflow:visible;fill:#E25D3A;"/>
		<clipPath id="SVGID_6_">
			<use xlink:href="#SVGID_59_"  style="overflow:visible;"/>
		</clipPath>
		<g style="clip-path:url(#SVGID_6_);">
			<g>
				<g>
					<rect x="379.711" y="138.268" style="fill:#E25D3A;" width="0.124" height="3.831"/>
				</g>
				<g>
					<rect x="380.332" y="138.268" style="fill:#E25D3A;" width="0.124" height="3.831"/>
				</g>
			</g>
			<g>
				<g>
					<rect x="380.901" y="138.268" style="fill:#E25D3A;" width="0.124" height="3.831"/>
				</g>
				<g>
					<rect x="381.522" y="138.268" style="fill:#E25D3A;" width="0.124" height="3.831"/>
				</g>
			</g>
			<g>
				<g>
					<rect x="382.092" y="138.268" style="fill:#E25D3A;" width="0.124" height="3.831"/>
				</g>
				<g>
					<rect x="382.713" y="138.268" style="fill:#E25D3A;" width="0.124" height="3.831"/>
				</g>
			</g>
		</g>
		<g style="clip-path:url(#SVGID_6_);">
			<g>
				<g>
					<rect x="379.231" y="139.727" style="fill:#E25D3A;" width="4.397" height="0.157"/>
				</g>
			</g>
			<g>
				<g>
					<rect x="379.333" y="140.852" style="fill:#E25D3A;" width="4.397" height="0.157"/>
				</g>
				<g>
					<rect x="379.231" y="142.066" style="fill:#E25D3A;" width="4.397" height="0.157"/>
				</g>
			</g>
		</g>
	</g>
</g>
<g>
	<g>
		<rect x="448.593" y="143.445" style="fill:#E25D3A;" width="1.777" height="6.281"/>
		<path style="fill:#E25D3A;" d="M450.427,149.842h-1.89v-6.514h1.89V149.842z M448.65,149.61h1.664v-6.048h-1.664V149.61z"/>
	</g>
	<g>
		<path style="fill:#E25D3A;" d="M448.611,142.13c0,0,0.854-2.7,2.035-2.704c1.138-0.004,2.035,2.704,2.035,2.704H448.611z"/>
		<path style="fill:#E25D3A;" d="M452.766,142.201h-4.238l0.03-0.098c0.035-0.112,0.883-2.745,2.088-2.749c0.001,0,0.002,0,0.002,0
			c1.162,0,2.048,2.635,2.085,2.748L452.766,142.201z M448.697,142.059h3.897c-0.174-0.482-0.981-2.562-1.946-2.562
			c0,0-0.001,0-0.002,0C449.642,139.5,448.863,141.579,448.697,142.059z"/>
	</g>
	<g>
		<g>
			<rect x="449.1" y="143.445" style="fill:#E25D3A;" width="0.124" height="6.281"/>
		</g>
		<g>
			<rect x="449.739" y="143.445" style="fill:#E25D3A;" width="0.124" height="6.281"/>
		</g>
	</g>
	<g>
		<rect x="448.593" y="143.317" style="fill:#E25D3A;" width="1.777" height="0.232"/>
	</g>
	<g>
		<rect x="448.593" y="146.456" style="fill:#E25D3A;" width="1.777" height="0.258"/>
	</g>
	<g>
		<rect x="448.593" y="149.597" style="fill:#E25D3A;" width="1.777" height="0.258"/>
	</g>
	<g>
		<rect x="450.903" y="143.445" style="fill:#E25D3A;" width="1.777" height="6.281"/>
		<path style="fill:#E25D3A;" d="M452.737,149.842h-1.89v-6.514h1.89V149.842z M450.96,149.61h1.664v-6.048h-1.664V149.61z"/>
	</g>
	<g>
		<g>
			<rect x="451.41" y="143.445" style="fill:#E25D3A;" width="0.124" height="6.281"/>
		</g>
		<g>
			<rect x="452.05" y="143.445" style="fill:#E25D3A;" width="0.124" height="6.281"/>
		</g>
	</g>
	<g>
		<rect x="450.903" y="143.317" style="fill:#E25D3A;" width="1.777" height="0.232"/>
	</g>
	<g>
		<rect x="450.903" y="146.456" style="fill:#E25D3A;" width="1.777" height="0.258"/>
	</g>
	<g>
		<rect x="450.903" y="149.597" style="fill:#E25D3A;" width="1.777" height="0.258"/>
	</g>
	<g>
		<rect x="450.903" y="150.896" style="fill:#E25D3A;" width="1.777" height="6.281"/>
		<path style="fill:#E25D3A;" d="M452.737,157.293h-1.89v-6.514h1.89V157.293z M450.96,157.06h1.664v-6.048h-1.664V157.06z"/>
	</g>
	<g>
		<g>
			<rect x="451.41" y="150.896" style="fill:#E25D3A;" width="0.124" height="6.281"/>
		</g>
		<g>
			<rect x="452.05" y="150.896" style="fill:#E25D3A;" width="0.124" height="6.281"/>
		</g>
	</g>
	<g>
		<rect x="450.903" y="150.767" style="fill:#E25D3A;" width="1.777" height="0.258"/>
	</g>
	<g>
		<rect x="450.903" y="153.907" style="fill:#E25D3A;" width="1.777" height="0.258"/>
	</g>
	<g>
		<rect x="450.903" y="157.048" style="fill:#E25D3A;" width="1.777" height="0.258"/>
	</g>
	<g>
		<rect x="448.593" y="150.896" style="fill:#E25D3A;" width="1.777" height="6.281"/>
		<path style="fill:#E25D3A;" d="M450.427,157.293h-1.89v-6.514h1.89V157.293z M448.65,157.06h1.664v-6.048h-1.664V157.06z"/>
	</g>
	<g>
		<g>
			<rect x="449.1" y="150.896" style="fill:#E25D3A;" width="0.124" height="6.281"/>
		</g>
		<g>
			<rect x="449.739" y="150.896" style="fill:#E25D3A;" width="0.124" height="6.281"/>
		</g>
	</g>
	<g>
		<rect x="448.593" y="150.767" style="fill:#E25D3A;" width="1.777" height="0.258"/>
	</g>
	<g>
		<rect x="448.593" y="153.907" style="fill:#E25D3A;" width="1.777" height="0.258"/>
	</g>
	<g>
		<rect x="448.593" y="157.048" style="fill:#E25D3A;" width="1.777" height="0.258"/>
	</g>
	<g>
		<defs>
			<path id="SVGID_61_" d="M448.611,142.13c0,0,0.854-2.7,2.035-2.704c1.138-0.004,2.035,2.704,2.035,2.704H448.611z"/>
		</defs>
		<use xlink:href="#SVGID_61_"  style="overflow:visible;fill:#E25D3A;"/>
		<clipPath id="SVGID_8_">
			<use xlink:href="#SVGID_61_"  style="overflow:visible;"/>
		</clipPath>
		<g style="clip-path:url(#SVGID_8_);">
			<g>
				<g>
					<rect x="449.083" y="138.268" style="fill:#E25D3A;" width="0.124" height="3.831"/>
				</g>
				<g>
					<rect x="449.704" y="138.268" style="fill:#E25D3A;" width="0.124" height="3.831"/>
				</g>
			</g>
			<g>
				<g>
					<rect x="450.273" y="138.268" style="fill:#E25D3A;" width="0.124" height="3.831"/>
				</g>
				<g>
					<rect x="450.893" y="138.268" style="fill:#E25D3A;" width="0.124" height="3.831"/>
				</g>
			</g>
			<g>
				<g>
					<rect x="451.463" y="138.268" style="fill:#E25D3A;" width="0.124" height="3.831"/>
				</g>
				<g>
					<rect x="452.084" y="138.268" style="fill:#E25D3A;" width="0.124" height="3.831"/>
				</g>
			</g>
		</g>
		<g style="clip-path:url(#SVGID_8_);">
			<g>
				<g>
					<rect x="448.602" y="139.727" style="fill:#E25D3A;" width="4.397" height="0.157"/>
				</g>
			</g>
			<g>
				<g>
					<rect x="448.705" y="140.852" style="fill:#E25D3A;" width="4.397" height="0.157"/>
				</g>
				<g>
					<rect x="448.602" y="142.066" style="fill:#E25D3A;" width="4.397" height="0.157"/>
				</g>
			</g>
		</g>
	</g>
</g>
<g>
	<g>
		<rect x="441.53" y="143.445" style="fill:#E25D3A;" width="1.777" height="6.281"/>
		<path style="fill:#E25D3A;" d="M443.363,149.842h-1.89v-6.514h1.89V149.842z M441.586,149.61h1.664v-6.048h-1.664V149.61z"/>
	</g>
	<g>
		<path style="fill:#E25D3A;" d="M441.547,142.13c0,0,0.854-2.7,2.035-2.704c1.138-0.004,2.035,2.704,2.035,2.704H441.547z"/>
		<path style="fill:#E25D3A;" d="M445.702,142.201h-4.238l0.03-0.098c0.035-0.112,0.883-2.745,2.088-2.749c0.001,0,0.002,0,0.002,0
			c1.162,0,2.048,2.635,2.085,2.748L445.702,142.201z M441.633,142.059h3.897c-0.174-0.482-0.981-2.562-1.946-2.562
			c0,0-0.001,0-0.002,0C442.578,139.5,441.8,141.579,441.633,142.059z"/>
	</g>
	<g>
		<g>
			<rect x="442.036" y="143.445" style="fill:#E25D3A;" width="0.124" height="6.281"/>
		</g>
		<g>
			<rect x="442.676" y="143.445" style="fill:#E25D3A;" width="0.124" height="6.281"/>
		</g>
	</g>
	<g>
		<rect x="441.53" y="143.317" style="fill:#E25D3A;" width="1.777" height="0.232"/>
	</g>
	<g>
		<rect x="441.53" y="146.456" style="fill:#E25D3A;" width="1.777" height="0.258"/>
	</g>
	<g>
		<rect x="441.53" y="149.597" style="fill:#E25D3A;" width="1.777" height="0.258"/>
	</g>
	<g>
		<rect x="443.84" y="143.445" style="fill:#E25D3A;" width="1.777" height="6.281"/>
		<path style="fill:#E25D3A;" d="M445.674,149.842h-1.89v-6.514h1.89V149.842z M443.896,149.61h1.664v-6.048h-1.664V149.61z"/>
	</g>
	<g>
		<g>
			<rect x="444.346" y="143.445" style="fill:#E25D3A;" width="0.124" height="6.281"/>
		</g>
		<g>
			<rect x="444.986" y="143.445" style="fill:#E25D3A;" width="0.124" height="6.281"/>
		</g>
	</g>
	<g>
		<rect x="443.84" y="143.317" style="fill:#E25D3A;" width="1.777" height="0.232"/>
	</g>
	<g>
		<rect x="443.84" y="146.456" style="fill:#E25D3A;" width="1.777" height="0.258"/>
	</g>
	<g>
		<rect x="443.84" y="149.597" style="fill:#E25D3A;" width="1.777" height="0.258"/>
	</g>
	<g>
		<rect x="443.84" y="150.896" style="fill:#E25D3A;" width="1.777" height="6.281"/>
		<path style="fill:#E25D3A;" d="M445.674,157.293h-1.89v-6.514h1.89V157.293z M443.896,157.06h1.664v-6.048h-1.664V157.06z"/>
	</g>
	<g>
		<g>
			<rect x="444.346" y="150.896" style="fill:#E25D3A;" width="0.124" height="6.281"/>
		</g>
		<g>
			<rect x="444.986" y="150.896" style="fill:#E25D3A;" width="0.124" height="6.281"/>
		</g>
	</g>
	<g>
		<rect x="443.84" y="150.767" style="fill:#E25D3A;" width="1.777" height="0.258"/>
	</g>
	<g>
		<rect x="443.84" y="153.907" style="fill:#E25D3A;" width="1.777" height="0.258"/>
	</g>
	<g>
		<rect x="443.84" y="157.048" style="fill:#E25D3A;" width="1.777" height="0.258"/>
	</g>
	<g>
		<rect x="441.53" y="150.896" style="fill:#E25D3A;" width="1.777" height="6.281"/>
		<path style="fill:#E25D3A;" d="M443.363,157.293h-1.89v-6.514h1.89V157.293z M441.586,157.06h1.664v-6.048h-1.664V157.06z"/>
	</g>
	<g>
		<g>
			<rect x="442.036" y="150.896" style="fill:#E25D3A;" width="0.124" height="6.281"/>
		</g>
		<g>
			<rect x="442.676" y="150.896" style="fill:#E25D3A;" width="0.124" height="6.281"/>
		</g>
	</g>
	<g>
		<rect x="441.53" y="150.767" style="fill:#E25D3A;" width="1.777" height="0.258"/>
	</g>
	<g>
		<rect x="441.53" y="153.907" style="fill:#E25D3A;" width="1.777" height="0.258"/>
	</g>
	<g>
		<rect x="441.53" y="157.048" style="fill:#E25D3A;" width="1.777" height="0.258"/>
	</g>
</g>
<g>
	<g>
		<rect x="462.721" y="143.445" style="fill:#E25D3A;" width="1.777" height="6.281"/>
		<path style="fill:#E25D3A;" d="M464.554,149.842h-1.89v-6.514h1.89V149.842z M462.777,149.61h1.664v-6.048h-1.664V149.61z"/>
	</g>
	<g>
		<path style="fill:#E25D3A;" d="M462.738,142.13c0,0,0.854-2.7,2.035-2.704c1.138-0.004,2.035,2.704,2.035,2.704H462.738z"/>
		<path style="fill:#E25D3A;" d="M466.893,142.201h-4.238l0.03-0.098c0.036-0.112,0.883-2.745,2.088-2.749c0.001,0,0.002,0,0.002,0
			c1.162,0,2.048,2.635,2.085,2.748L466.893,142.201z M462.824,142.059h3.897c-0.174-0.482-0.981-2.562-1.946-2.562
			c0,0-0.001,0-0.002,0C463.769,139.5,462.99,141.579,462.824,142.059z"/>
	</g>
	<g>
		<g>
			<rect x="463.227" y="143.445" style="fill:#E25D3A;" width="0.124" height="6.281"/>
		</g>
		<g>
			<rect x="463.867" y="143.445" style="fill:#E25D3A;" width="0.124" height="6.281"/>
		</g>
	</g>
	<g>
		<rect x="462.721" y="143.317" style="fill:#E25D3A;" width="1.777" height="0.232"/>
	</g>
	<g>
		<rect x="462.721" y="146.456" style="fill:#E25D3A;" width="1.777" height="0.258"/>
	</g>
	<g>
		<rect x="462.721" y="149.597" style="fill:#E25D3A;" width="1.777" height="0.258"/>
	</g>
	<g>
		<rect x="465.031" y="143.445" style="fill:#E25D3A;" width="1.777" height="6.281"/>
		<path style="fill:#E25D3A;" d="M466.864,149.842h-1.89v-6.514h1.89V149.842z M465.087,149.61h1.664v-6.048h-1.664V149.61z"/>
	</g>
	<g>
		<g>
			<rect x="465.537" y="143.445" style="fill:#E25D3A;" width="0.124" height="6.281"/>
		</g>
		<g>
			<rect x="466.177" y="143.445" style="fill:#E25D3A;" width="0.124" height="6.281"/>
		</g>
	</g>
	<g>
		<rect x="465.031" y="143.317" style="fill:#E25D3A;" width="1.777" height="0.232"/>
	</g>
	<g>
		<rect x="465.031" y="146.456" style="fill:#E25D3A;" width="1.777" height="0.258"/>
	</g>
	<g>
		<rect x="465.031" y="149.597" style="fill:#E25D3A;" width="1.777" height="0.258"/>
	</g>
	<g>
		<rect x="465.031" y="150.896" style="fill:#E25D3A;" width="1.777" height="6.281"/>
		<path style="fill:#E25D3A;" d="M466.864,157.293h-1.89v-6.514h1.89V157.293z M465.087,157.06h1.664v-6.048h-1.664V157.06z"/>
	</g>
	<g>
		<g>
			<rect x="465.537" y="150.896" style="fill:#E25D3A;" width="0.124" height="6.281"/>
		</g>
		<g>
			<rect x="466.177" y="150.896" style="fill:#E25D3A;" width="0.124" height="6.281"/>
		</g>
	</g>
	<g>
		<rect x="465.031" y="150.767" style="fill:#E25D3A;" width="1.777" height="0.258"/>
	</g>
	<g>
		<rect x="465.031" y="153.907" style="fill:#E25D3A;" width="1.777" height="0.258"/>
	</g>
	<g>
		<rect x="465.031" y="157.048" style="fill:#E25D3A;" width="1.777" height="0.258"/>
	</g>
	<g>
		<rect x="462.721" y="150.896" style="fill:#E25D3A;" width="1.777" height="6.281"/>
		<path style="fill:#E25D3A;" d="M464.554,157.293h-1.89v-6.514h1.89V157.293z M462.777,157.06h1.664v-6.048h-1.664V157.06z"/>
	</g>
	<g>
		<g>
			<rect x="463.227" y="150.896" style="fill:#E25D3A;" width="0.124" height="6.281"/>
		</g>
		<g>
			<rect x="463.867" y="150.896" style="fill:#E25D3A;" width="0.124" height="6.281"/>
		</g>
	</g>
	<g>
		<rect x="462.721" y="150.767" style="fill:#E25D3A;" width="1.777" height="0.258"/>
	</g>
	<g>
		<rect x="462.721" y="153.907" style="fill:#E25D3A;" width="1.777" height="0.258"/>
	</g>
	<g>
		<rect x="462.721" y="157.048" style="fill:#E25D3A;" width="1.777" height="0.258"/>
	</g>
	<g>
		<defs>
			<path id="SVGID_63_" d="M462.738,142.13c0,0,0.854-2.7,2.035-2.704c1.138-0.004,2.035,2.704,2.035,2.704H462.738z"/>
		</defs>
		<use xlink:href="#SVGID_63_"  style="overflow:visible;fill:#E25D3A;"/>
		<clipPath id="SVGID_10_">
			<use xlink:href="#SVGID_63_"  style="overflow:visible;"/>
		</clipPath>
		<g style="clip-path:url(#SVGID_10_);">
			<g>
				<g>
					<rect x="463.21" y="138.268" style="fill:#E25D3A;" width="0.124" height="3.831"/>
				</g>
				<g>
					<rect x="463.831" y="138.268" style="fill:#E25D3A;" width="0.124" height="3.831"/>
				</g>
			</g>
			<g>
				<g>
					<rect x="464.4" y="138.268" style="fill:#E25D3A;" width="0.124" height="3.831"/>
				</g>
				<g>
					<rect x="465.021" y="138.268" style="fill:#E25D3A;" width="0.124" height="3.831"/>
				</g>
			</g>
			<g>
				<g>
					<rect x="465.591" y="138.268" style="fill:#E25D3A;" width="0.124" height="3.831"/>
				</g>
				<g>
					<rect x="466.211" y="138.268" style="fill:#E25D3A;" width="0.124" height="3.831"/>
				</g>
			</g>
		</g>
		<g style="clip-path:url(#SVGID_10_);">
			<g>
				<g>
					<rect x="462.729" y="139.727" style="fill:#E25D3A;" width="4.397" height="0.157"/>
				</g>
			</g>
			<g>
				<g>
					<rect x="462.832" y="140.852" style="fill:#E25D3A;" width="4.397" height="0.157"/>
				</g>
				<g>
					<rect x="462.729" y="142.066" style="fill:#E25D3A;" width="4.397" height="0.157"/>
				</g>
			</g>
		</g>
	</g>
</g>
<g>
	<g>
		<rect x="455.657" y="143.445" style="fill:#E25D3A;" width="1.777" height="6.281"/>
		<path style="fill:#E25D3A;" d="M457.491,149.842h-1.89v-6.514h1.89V149.842z M455.714,149.61h1.664v-6.048h-1.664V149.61z"/>
	</g>
	<g>
		<path style="fill:#E25D3A;" d="M455.674,142.13c0,0,0.854-2.7,2.035-2.704c1.138-0.004,2.035,2.704,2.035,2.704H455.674z"/>
		<path style="fill:#E25D3A;" d="M459.83,142.201h-4.238l0.03-0.098c0.035-0.112,0.883-2.745,2.088-2.749c0.001,0,0.002,0,0.002,0
			c1.162,0,2.048,2.635,2.085,2.748L459.83,142.201z M455.76,142.059h3.897c-0.174-0.482-0.981-2.562-1.946-2.562
			c0,0-0.001,0-0.002,0C456.705,139.5,455.927,141.579,455.76,142.059z"/>
	</g>
	<g>
		<g>
			<rect x="456.163" y="143.445" style="fill:#E25D3A;" width="0.124" height="6.281"/>
		</g>
		<g>
			<rect x="456.803" y="143.445" style="fill:#E25D3A;" width="0.124" height="6.281"/>
		</g>
	</g>
	<g>
		<rect x="455.657" y="143.317" style="fill:#E25D3A;" width="1.777" height="0.232"/>
	</g>
	<g>
		<rect x="455.657" y="146.456" style="fill:#E25D3A;" width="1.777" height="0.258"/>
	</g>
	<g>
		<rect x="455.657" y="149.597" style="fill:#E25D3A;" width="1.777" height="0.258"/>
	</g>
	<g>
		<rect x="457.967" y="143.445" style="fill:#E25D3A;" width="1.777" height="6.281"/>
		<path style="fill:#E25D3A;" d="M459.801,149.842h-1.89v-6.514h1.89V149.842z M458.024,149.61h1.664v-6.048h-1.664V149.61z"/>
	</g>
	<g>
		<g>
			<rect x="458.474" y="143.445" style="fill:#E25D3A;" width="0.124" height="6.281"/>
		</g>
		<g>
			<rect x="459.113" y="143.445" style="fill:#E25D3A;" width="0.124" height="6.281"/>
		</g>
	</g>
	<g>
		<rect x="457.967" y="143.317" style="fill:#E25D3A;" width="1.777" height="0.232"/>
	</g>
	<g>
		<rect x="457.967" y="146.456" style="fill:#E25D3A;" width="1.777" height="0.258"/>
	</g>
	<g>
		<rect x="457.967" y="149.597" style="fill:#E25D3A;" width="1.777" height="0.258"/>
	</g>
	<g>
		<rect x="457.967" y="150.896" style="fill:#E25D3A;" width="1.777" height="6.281"/>
		<path style="fill:#E25D3A;" d="M459.801,157.293h-1.89v-6.514h1.89V157.293z M458.024,157.06h1.664v-6.048h-1.664V157.06z"/>
	</g>
	<g>
		<g>
			<rect x="458.474" y="150.896" style="fill:#E25D3A;" width="0.124" height="6.281"/>
		</g>
		<g>
			<rect x="459.113" y="150.896" style="fill:#E25D3A;" width="0.124" height="6.281"/>
		</g>
	</g>
	<g>
		<rect x="457.967" y="150.767" style="fill:#E25D3A;" width="1.777" height="0.258"/>
	</g>
	<g>
		<rect x="457.967" y="153.907" style="fill:#E25D3A;" width="1.777" height="0.258"/>
	</g>
	<g>
		<rect x="457.967" y="157.048" style="fill:#E25D3A;" width="1.777" height="0.258"/>
	</g>
	<g>
		<rect x="455.657" y="150.896" style="fill:#E25D3A;" width="1.777" height="6.281"/>
		<path style="fill:#E25D3A;" d="M457.491,157.293h-1.89v-6.514h1.89V157.293z M455.714,157.06h1.664v-6.048h-1.664V157.06z"/>
	</g>
	<g>
		<g>
			<rect x="456.163" y="150.896" style="fill:#E25D3A;" width="0.124" height="6.281"/>
		</g>
		<g>
			<rect x="456.803" y="150.896" style="fill:#E25D3A;" width="0.124" height="6.281"/>
		</g>
	</g>
	<g>
		<rect x="455.657" y="150.767" style="fill:#E25D3A;" width="1.777" height="0.258"/>
	</g>
	<g>
		<rect x="455.657" y="153.907" style="fill:#E25D3A;" width="1.777" height="0.258"/>
	</g>
	<g>
		<rect x="455.657" y="157.048" style="fill:#E25D3A;" width="1.777" height="0.258"/>
	</g>
	<g>
		<defs>
			<path id="SVGID_65_" d="M455.674,142.13c0,0,0.854-2.7,2.035-2.704c1.138-0.004,2.035,2.704,2.035,2.704H455.674z"/>
		</defs>
		<use xlink:href="#SVGID_65_"  style="overflow:visible;fill:#E25D3A;"/>
		<clipPath id="SVGID_12_">
			<use xlink:href="#SVGID_65_"  style="overflow:visible;"/>
		</clipPath>
		<g style="clip-path:url(#SVGID_12_);">
			<g>
				<g>
					<rect x="456.147" y="138.268" style="fill:#E25D3A;" width="0.124" height="3.831"/>
				</g>
				<g>
					<rect x="456.768" y="138.268" style="fill:#E25D3A;" width="0.124" height="3.831"/>
				</g>
			</g>
			<g>
				<g>
					<rect x="457.336" y="138.268" style="fill:#E25D3A;" width="0.124" height="3.831"/>
				</g>
				<g>
					<rect x="457.957" y="138.268" style="fill:#E25D3A;" width="0.124" height="3.831"/>
				</g>
			</g>
			<g>
				<g>
					<rect x="458.527" y="138.268" style="fill:#E25D3A;" width="0.124" height="3.831"/>
				</g>
				<g>
					<rect x="459.148" y="138.268" style="fill:#E25D3A;" width="0.124" height="3.831"/>
				</g>
			</g>
		</g>
		<g style="clip-path:url(#SVGID_12_);">
			<g>
				<g>
					<rect x="455.666" y="139.727" style="fill:#E25D3A;" width="4.397" height="0.157"/>
				</g>
			</g>
			<g>
				<g>
					<rect x="455.769" y="140.852" style="fill:#E25D3A;" width="4.397" height="0.157"/>
				</g>
				<g>
					<rect x="455.666" y="142.066" style="fill:#E25D3A;" width="4.397" height="0.157"/>
				</g>
			</g>
		</g>
	</g>
</g>
<g>
	<g>
		<rect x="412.699" y="134.438" style="fill:#E2795D;" width="3.083" height="10.896"/>
		<path style="fill:#E2795D;" d="M415.88,145.536h-3.279v-11.3h3.279V145.536z M412.797,145.132h2.886V134.64h-2.886V145.132z"/>
	</g>
	<g>
		<g>
			<rect x="413.578" y="134.438" style="fill:#E2795D;" width="0.216" height="10.896"/>
		</g>
		<g>
			<rect x="414.688" y="134.438" style="fill:#E2795D;" width="0.216" height="10.896"/>
		</g>
	</g>
	<g>
		<rect x="412.699" y="134.217" style="fill:#E2795D;" width="3.083" height="0.403"/>
	</g>
	<g>
		<rect x="412.699" y="139.662" style="fill:#E2795D;" width="3.083" height="0.447"/>
	</g>
	<g>
		<rect x="412.699" y="145.11" style="fill:#E2795D;" width="3.083" height="0.447"/>
	</g>
	<g>
		<rect x="416.707" y="134.438" style="fill:#E2795D;" width="3.083" height="10.896"/>
		<path style="fill:#E2795D;" d="M419.888,145.536h-3.279v-11.3h3.279V145.536z M416.805,145.132h2.886V134.64h-2.886V145.132z"/>
	</g>
	<g>
		<g>
			<rect x="417.585" y="134.438" style="fill:#E2795D;" width="0.216" height="10.896"/>
		</g>
		<g>
			<rect x="418.695" y="134.438" style="fill:#E2795D;" width="0.216" height="10.896"/>
		</g>
	</g>
	<g>
		<rect x="416.707" y="134.217" style="fill:#E2795D;" width="3.083" height="0.403"/>
	</g>
	<g>
		<rect x="416.707" y="139.662" style="fill:#E2795D;" width="3.083" height="0.447"/>
	</g>
	<g>
		<rect x="416.707" y="145.11" style="fill:#E2795D;" width="3.083" height="0.447"/>
	</g>
	<g>
		<rect x="416.707" y="147.364" style="fill:#E2795D;" width="3.083" height="10.896"/>
		<path style="fill:#E2795D;" d="M419.888,158.461h-3.279v-11.3h3.279V158.461z M416.805,158.058h2.886v-10.492h-2.886V158.058z"/>
	</g>
	<g>
		<g>
			<rect x="417.585" y="147.364" style="fill:#E2795D;" width="0.216" height="10.896"/>
		</g>
		<g>
			<rect x="418.695" y="147.364" style="fill:#E2795D;" width="0.216" height="10.896"/>
		</g>
	</g>
	<g>
		<rect x="416.707" y="147.14" style="fill:#E2795D;" width="3.083" height="0.447"/>
	</g>
	<g>
		<rect x="416.707" y="152.587" style="fill:#E2795D;" width="3.083" height="0.447"/>
	</g>
	<g>
		<rect x="416.707" y="158.036" style="fill:#E2795D;" width="3.083" height="0.447"/>
	</g>
	<g>
		<rect x="412.699" y="147.364" style="fill:#E2795D;" width="3.083" height="10.896"/>
		<path style="fill:#E2795D;" d="M415.88,158.461h-3.279v-11.3h3.279V158.461z M412.797,158.058h2.886v-10.492h-2.886V158.058z"/>
	</g>
	<g>
		<g>
			<rect x="413.578" y="147.364" style="fill:#E2795D;" width="0.216" height="10.896"/>
		</g>
		<g>
			<rect x="414.688" y="147.364" style="fill:#E2795D;" width="0.216" height="10.896"/>
		</g>
	</g>
	<g>
		<rect x="412.699" y="147.14" style="fill:#E2795D;" width="3.083" height="0.447"/>
	</g>
	<g>
		<rect x="412.699" y="152.587" style="fill:#E2795D;" width="3.083" height="0.447"/>
	</g>
	<g>
		<rect x="412.699" y="158.036" style="fill:#E2795D;" width="3.083" height="0.447"/>
	</g>
	<g>
		<defs>
			<path id="SVGID_67_" d="M412.729,133.235c0,0,1.482-4.684,3.53-4.691c1.974-0.007,3.53,4.691,3.53,4.691H412.729z"/>
		</defs>
		<use xlink:href="#SVGID_67_"  style="overflow:visible;fill:#E2795D;"/>
		<clipPath id="SVGID_14_">
			<use xlink:href="#SVGID_67_"  style="overflow:visible;"/>
		</clipPath>
		<g style="clip-path:url(#SVGID_14_);">
			<g>
				<g>
					<rect x="413.549" y="126.536" style="fill:#E2795D;" width="0.216" height="6.646"/>
				</g>
				<g>
					<rect x="414.626" y="126.536" style="fill:#E2795D;" width="0.216" height="6.646"/>
				</g>
			</g>
			<g>
				<g>
					<rect x="415.612" y="126.536" style="fill:#E2795D;" width="0.216" height="6.646"/>
				</g>
				<g>
					<rect x="416.689" y="126.536" style="fill:#E2795D;" width="0.216" height="6.646"/>
				</g>
			</g>
			<g>
				<g>
					<rect x="417.678" y="126.536" style="fill:#E2795D;" width="0.216" height="6.646"/>
				</g>
				<g>
					<rect x="418.755" y="126.536" style="fill:#E2795D;" width="0.216" height="6.646"/>
				</g>
			</g>
		</g>
		<g style="clip-path:url(#SVGID_14_);">
			<g>
				<g>
					<rect x="412.715" y="129.068" style="fill:#E2795D;" width="7.628" height="0.273"/>
				</g>
			</g>
			<g>
				<g>
					<rect x="412.893" y="131.019" style="fill:#E2795D;" width="7.628" height="0.273"/>
				</g>
				<g>
					<rect x="412.715" y="133.126" style="fill:#E2795D;" width="7.628" height="0.273"/>
				</g>
			</g>
		</g>
	</g>
</g>
<g>
	<g>
		<rect x="403.539" y="144.712" style="fill:#E2795D;" width="1.777" height="6.281"/>
		<path style="fill:#E2795D;" d="M405.372,151.109h-1.89v-6.514h1.89V151.109z M403.595,150.876h1.664v-6.048h-1.664V150.876z"/>
	</g>
	<g>
		<path style="fill:#E2795D;" d="M403.555,143.957c0,0,0.854-2.7,2.035-2.704c1.138-0.004,2.035,2.704,2.035,2.704H403.555z"/>
		<path style="fill:#E2795D;" d="M407.71,144.029h-4.238l0.03-0.097c0.036-0.112,0.883-2.745,2.088-2.749c0.001,0,0.002,0,0.002,0
			c1.162,0,2.048,2.635,2.085,2.748L407.71,144.029z M403.64,143.886h3.897c-0.174-0.482-0.981-2.562-1.946-2.562
			c0,0-0.001,0-0.002,0C404.586,141.328,403.807,143.407,403.64,143.886z"/>
	</g>
	<g>
		<g>
			<rect x="404.045" y="144.712" style="fill:#E2795D;" width="0.124" height="6.281"/>
		</g>
		<g>
			<rect x="404.685" y="144.712" style="fill:#E2795D;" width="0.124" height="6.281"/>
		</g>
	</g>
	<g>
		<rect x="403.539" y="144.584" style="fill:#E2795D;" width="1.777" height="0.232"/>
	</g>
	<g>
		<rect x="403.539" y="147.723" style="fill:#E2795D;" width="1.777" height="0.258"/>
	</g>
	<g>
		<rect x="403.539" y="150.864" style="fill:#E2795D;" width="1.777" height="0.258"/>
	</g>
	<g>
		<rect x="405.849" y="144.712" style="fill:#E2795D;" width="1.777" height="6.281"/>
		<path style="fill:#E2795D;" d="M407.683,151.109h-1.89v-6.514h1.89V151.109z M405.906,150.876h1.664v-6.048h-1.664V150.876z"/>
	</g>
	<g>
		<g>
			<rect x="406.355" y="144.712" style="fill:#E2795D;" width="0.124" height="6.281"/>
		</g>
		<g>
			<rect x="406.995" y="144.712" style="fill:#E2795D;" width="0.124" height="6.281"/>
		</g>
	</g>
	<g>
		<rect x="405.849" y="144.584" style="fill:#E2795D;" width="1.777" height="0.232"/>
	</g>
	<g>
		<rect x="405.849" y="147.723" style="fill:#E2795D;" width="1.777" height="0.258"/>
	</g>
	<g>
		<rect x="405.849" y="150.864" style="fill:#E2795D;" width="1.777" height="0.258"/>
	</g>
	<g>
		<rect x="405.849" y="152.163" style="fill:#E2795D;" width="1.777" height="6.281"/>
		<path style="fill:#E2795D;" d="M407.683,158.56h-1.89v-6.514h1.89V158.56z M405.906,158.327h1.664v-6.048h-1.664V158.327z"/>
	</g>
	<g>
		<g>
			<rect x="406.355" y="152.163" style="fill:#E2795D;" width="0.124" height="6.281"/>
		</g>
		<g>
			<rect x="406.995" y="152.163" style="fill:#E2795D;" width="0.124" height="6.281"/>
		</g>
	</g>
	<g>
		<rect x="405.849" y="152.034" style="fill:#E2795D;" width="1.777" height="0.258"/>
	</g>
	<g>
		<rect x="405.849" y="155.174" style="fill:#E2795D;" width="1.777" height="0.258"/>
	</g>
	<g>
		<rect x="405.849" y="158.315" style="fill:#E2795D;" width="1.777" height="0.258"/>
	</g>
	<g>
		<rect x="403.539" y="152.163" style="fill:#E2795D;" width="1.777" height="6.281"/>
		<path style="fill:#E2795D;" d="M405.372,158.56h-1.89v-6.514h1.89V158.56z M403.595,158.327h1.664v-6.048h-1.664V158.327z"/>
	</g>
	<g>
		<g>
			<rect x="404.045" y="152.163" style="fill:#E2795D;" width="0.124" height="6.281"/>
		</g>
		<g>
			<rect x="404.685" y="152.163" style="fill:#E2795D;" width="0.124" height="6.281"/>
		</g>
	</g>
	<g>
		<rect x="403.539" y="152.034" style="fill:#E2795D;" width="1.777" height="0.258"/>
	</g>
	<g>
		<rect x="403.539" y="155.174" style="fill:#E2795D;" width="1.777" height="0.258"/>
	</g>
	<g>
		<rect x="403.539" y="158.315" style="fill:#E2795D;" width="1.777" height="0.258"/>
	</g>
</g>
<g>
	<g>
		<rect x="424.677" y="144.712" style="fill:#E2795D;" width="1.777" height="6.281"/>
		<path style="fill:#E2795D;" d="M426.51,151.109h-1.89v-6.514h1.89V151.109z M424.733,150.876h1.664v-6.048h-1.664V150.876z"/>
	</g>
	<g>
		<path style="fill:#E2795D;" d="M424.694,143.936c0,0,0.854-2.7,2.035-2.704c1.138-0.004,2.035,2.704,2.035,2.704H424.694z"/>
		<path style="fill:#E2795D;" d="M428.849,144.007h-4.238l0.03-0.098c0.035-0.112,0.883-2.744,2.088-2.749c0.001,0,0.002,0,0.002,0
			c1.162,0,2.048,2.635,2.085,2.748L428.849,144.007z M424.78,143.865h3.897c-0.174-0.482-0.981-2.562-1.946-2.562
			c0,0-0.001,0-0.002,0C425.725,141.306,424.947,143.385,424.78,143.865z"/>
	</g>
	<g>
		<g>
			<rect x="425.183" y="144.712" style="fill:#E2795D;" width="0.124" height="6.281"/>
		</g>
		<g>
			<rect x="425.823" y="144.712" style="fill:#E2795D;" width="0.124" height="6.281"/>
		</g>
	</g>
	<g>
		<rect x="424.677" y="144.584" style="fill:#E2795D;" width="1.777" height="0.232"/>
	</g>
	<g>
		<rect x="424.677" y="147.723" style="fill:#E2795D;" width="1.777" height="0.258"/>
	</g>
	<g>
		<rect x="424.677" y="150.864" style="fill:#E2795D;" width="1.777" height="0.258"/>
	</g>
	<g>
		<rect x="426.987" y="144.712" style="fill:#E2795D;" width="1.777" height="6.281"/>
		<path style="fill:#E2795D;" d="M428.821,151.109h-1.89v-6.514h1.89V151.109z M427.044,150.876h1.664v-6.048h-1.664V150.876z"/>
	</g>
	<g>
		<g>
			<rect x="427.493" y="144.712" style="fill:#E2795D;" width="0.124" height="6.281"/>
		</g>
		<g>
			<rect x="428.133" y="144.712" style="fill:#E2795D;" width="0.124" height="6.281"/>
		</g>
	</g>
	<g>
		<rect x="426.987" y="144.584" style="fill:#E2795D;" width="1.777" height="0.232"/>
	</g>
	<g>
		<rect x="426.987" y="147.723" style="fill:#E2795D;" width="1.777" height="0.258"/>
	</g>
	<g>
		<rect x="426.987" y="150.864" style="fill:#E2795D;" width="1.777" height="0.258"/>
	</g>
	<g>
		<rect x="426.987" y="152.163" style="fill:#E2795D;" width="1.777" height="6.281"/>
		<path style="fill:#E2795D;" d="M428.821,158.56h-1.89v-6.514h1.89V158.56z M427.044,158.327h1.664v-6.048h-1.664V158.327z"/>
	</g>
	<g>
		<g>
			<rect x="427.493" y="152.163" style="fill:#E2795D;" width="0.124" height="6.281"/>
		</g>
		<g>
			<rect x="428.133" y="152.163" style="fill:#E2795D;" width="0.124" height="6.281"/>
		</g>
	</g>
	<g>
		<rect x="426.987" y="152.034" style="fill:#E2795D;" width="1.777" height="0.258"/>
	</g>
	<g>
		<rect x="426.987" y="155.174" style="fill:#E2795D;" width="1.777" height="0.258"/>
	</g>
	<g>
		<rect x="426.987" y="158.315" style="fill:#E2795D;" width="1.777" height="0.258"/>
	</g>
	<g>
		<rect x="424.677" y="152.163" style="fill:#E2795D;" width="1.777" height="6.281"/>
		<path style="fill:#E2795D;" d="M426.51,158.56h-1.89v-6.514h1.89V158.56z M424.733,158.327h1.664v-6.048h-1.664V158.327z"/>
	</g>
	<g>
		<g>
			<rect x="425.183" y="152.163" style="fill:#E2795D;" width="0.124" height="6.281"/>
		</g>
		<g>
			<rect x="425.823" y="152.163" style="fill:#E2795D;" width="0.124" height="6.281"/>
		</g>
	</g>
	<g>
		<rect x="424.677" y="152.034" style="fill:#E2795D;" width="1.777" height="0.258"/>
	</g>
	<g>
		<rect x="424.677" y="155.174" style="fill:#E2795D;" width="1.777" height="0.258"/>
	</g>
	<g>
		<rect x="424.677" y="158.315" style="fill:#E2795D;" width="1.777" height="0.258"/>
	</g>
</g>
<path style="fill:#E2836A;" d="M400.328,156.889v4.252h32.62v-4.252H400.328z M402.924,159.703c0,0.297-0.243,0.54-0.539,0.54
	c-0.297,0-0.54-0.243-0.54-0.54v-1.376c0-0.297,0.243-0.539,0.54-0.539c0.297,0,0.539,0.243,0.539,0.539V159.703z M404.581,159.703
	c0,0.297-0.243,0.54-0.539,0.54c-0.297,0-0.54-0.243-0.54-0.54v-1.376c0-0.297,0.243-0.539,0.54-0.539
	c0.297,0,0.539,0.243,0.539,0.539V159.703z M407.812,159.703c0,0.297-0.243,0.54-0.54,0.54c-0.297,0-0.539-0.243-0.539-0.54v-1.376
	c0-0.297,0.243-0.539,0.539-0.539c0.297,0,0.54,0.243,0.54,0.539V159.703z M409.469,159.703c0,0.297-0.243,0.54-0.539,0.54
	c-0.297,0-0.54-0.243-0.54-0.54v-1.376c0-0.297,0.243-0.539,0.54-0.539c0.297,0,0.539,0.243,0.539,0.539V159.703z M412.847,159.703
	c0,0.297-0.243,0.54-0.54,0.54c-0.297,0-0.539-0.243-0.539-0.54v-1.376c0-0.297,0.243-0.539,0.539-0.539
	c0.297,0,0.54,0.243,0.54,0.539V159.703z M414.413,159.703c0,0.297-0.243,0.54-0.54,0.54c-0.297,0-0.539-0.243-0.539-0.54v-1.376
	c0-0.297,0.243-0.539,0.539-0.539c0.297,0,0.54,0.243,0.54,0.539V159.703z M415.978,159.703c0,0.297-0.243,0.54-0.54,0.54
	c-0.297,0-0.539-0.243-0.539-0.54v-1.376c0-0.297,0.243-0.539,0.539-0.539c0.297,0,0.54,0.243,0.54,0.539V159.703z M418.378,159.703
	c0,0.297-0.243,0.54-0.54,0.54c-0.297,0-0.539-0.243-0.539-0.54v-1.376c0-0.297,0.243-0.539,0.539-0.539
	c0.297,0,0.54,0.243,0.54,0.539V159.703z M419.943,159.703c0,0.297-0.243,0.54-0.54,0.54c-0.297,0-0.539-0.243-0.539-0.54v-1.376
	c0-0.297,0.243-0.539,0.539-0.539c0.297,0,0.54,0.243,0.54,0.539V159.703z M421.509,159.703c0,0.297-0.243,0.54-0.539,0.54
	c-0.297,0-0.54-0.243-0.54-0.54v-1.376c0-0.297,0.243-0.539,0.54-0.539c0.297,0,0.539,0.243,0.539,0.539V159.703z M424.887,159.703
	c0,0.297-0.243,0.54-0.539,0.54s-0.54-0.243-0.54-0.54v-1.376c0-0.297,0.243-0.539,0.54-0.539s0.539,0.243,0.539,0.539V159.703z
	 M426.543,159.703c0,0.297-0.243,0.54-0.54,0.54c-0.297,0-0.539-0.243-0.539-0.54v-1.376c0-0.297,0.243-0.539,0.539-0.539
	c0.297,0,0.54,0.243,0.54,0.539V159.703z M429.775,159.703c0,0.297-0.243,0.54-0.539,0.54c-0.297,0-0.54-0.243-0.54-0.54v-1.376
	c0-0.297,0.243-0.539,0.54-0.539c0.297,0,0.539,0.243,0.539,0.539V159.703z M431.432,159.703c0,0.297-0.243,0.54-0.539,0.54
	s-0.54-0.243-0.54-0.54v-1.376c0-0.297,0.243-0.539,0.54-0.539s0.539,0.243,0.539,0.539V159.703z"/>
<rect x="401.663" y="161.141" style="fill:#E37254;" width="1.079" height="3.326"/>
<rect x="411.227" y="161.141" style="fill:#E37254;" width="1.079" height="3.326"/>
<rect x="420.79" y="161.141" style="fill:#E37254;" width="1.079" height="3.326"/>
<rect x="430.353" y="161.141" style="fill:#E37254;" width="1.079" height="3.326"/>
<rect x="406.445" y="161.141" style="fill:#E38065;" width="1.079" height="2.247"/>
<rect x="416.008" y="161.141" style="fill:#E38065;" width="1.079" height="2.247"/>
<rect x="425.571" y="161.141" style="fill:#E38065;" width="1.079" height="2.247"/>
<g>
	<g>
		<rect x="426.624" y="170.58" style="fill:#E2795D;" width="1.777" height="5.879"/>
		<path style="fill:#E2795D;" d="M428.457,176.568h-1.89v-6.097h1.89V176.568z M426.68,176.35h1.664v-5.661h-1.664V176.35z"/>
	</g>
	<g>
		<path style="fill:#E2795D;" d="M426.641,169.395c0,0,0.854-2.7,2.035-2.704c1.138-0.004,2.035,2.704,2.035,2.704H426.641z"/>
		<path style="fill:#E2795D;" d="M430.796,169.466h-4.238l0.03-0.098c0.035-0.112,0.883-2.744,2.088-2.749c0.001,0,0.002,0,0.002,0
			c1.162,0,2.048,2.635,2.085,2.748L430.796,169.466z M426.727,169.324h3.897c-0.174-0.482-0.981-2.562-1.946-2.562
			c0,0-0.001,0-0.002,0C427.672,166.765,426.894,168.844,426.727,169.324z"/>
	</g>
	<g>
		<rect x="428.934" y="170.58" style="fill:#E2795D;" width="1.777" height="5.879"/>
		<path style="fill:#E2795D;" d="M430.768,176.568h-1.89v-6.097h1.89V176.568z M428.991,176.35h1.664v-5.661h-1.664V176.35z"/>
	</g>
</g>
<g>
	<g>
		<rect x="403.206" y="170.58" style="fill:#E2795D;" width="1.777" height="5.879"/>
		<path style="fill:#E2795D;" d="M405.039,176.568h-1.89v-6.097h1.89V176.568z M403.262,176.35h1.664v-5.661h-1.664V176.35z"/>
	</g>
	<g>
		<path style="fill:#E2795D;" d="M403.223,169.395c0,0,0.854-2.7,2.035-2.704c1.138-0.004,2.035,2.704,2.035,2.704H403.223z"/>
		<path style="fill:#E2795D;" d="M407.378,169.466h-4.238l0.03-0.097c0.035-0.112,0.883-2.745,2.088-2.749c0.001,0,0.002,0,0.002,0
			c1.162,0,2.048,2.635,2.085,2.748L407.378,169.466z M403.309,169.324h3.897c-0.174-0.482-0.981-2.562-1.946-2.562
			c0,0-0.001,0-0.002,0C404.254,166.765,403.475,168.844,403.309,169.324z"/>
	</g>
	<g>
		<rect x="405.516" y="170.58" style="fill:#E2795D;" width="1.777" height="5.879"/>
		<path style="fill:#E2795D;" d="M407.349,176.568h-1.89v-6.097h1.89V176.568z M405.572,176.35h1.664v-5.661h-1.664V176.35z"/>
	</g>
</g>
<g>
	<g>
		<g>
			<rect x="441.591" y="169.801" style="fill:#E25D3A;" width="3.976" height="6.281"/>
			<path style="fill:#E25D3A;" d="M445.694,176.198h-4.229v-6.514h4.229V176.198z M441.718,175.965h3.723v-6.048h-3.723V175.965z"/>
		</g>
		<g>
			<rect x="441.521" y="167.361" style="fill:#E25D3A;" width="1.777" height="1.824"/>
			<path style="fill:#E25D3A;" d="M443.354,169.219h-1.89v-1.892h1.89V169.219z M441.577,169.151h1.664v-1.757h-1.664V169.151z"/>
		</g>
		<g>
			<rect x="443.869" y="167.361" style="fill:#E25D3A;" width="1.777" height="1.824"/>
			<path style="fill:#E25D3A;" d="M445.702,169.219h-1.89v-1.892h1.89V169.219z M443.925,169.151h1.664v-1.757h-1.664V169.151z"/>
		</g>
		<g>
			<rect x="441.595" y="178.191" style="fill:#E25D3A;" width="3.976" height="3.847"/>
			<path style="fill:#E25D3A;" d="M445.698,182.109h-4.229v-3.99h4.229V182.109z M441.722,181.967h3.723v-3.705h-3.723V181.967z"/>
		</g>
	</g>
	<g>
		<rect x="448.654" y="169.801" style="fill:#E25D3A;" width="3.976" height="6.281"/>
		<path style="fill:#E25D3A;" d="M452.757,176.198h-4.229v-6.514h4.229V176.198z M448.781,175.965h3.723v-6.048h-3.723V175.965z"/>
	</g>
	<g>
		<rect x="448.584" y="167.361" style="fill:#E25D3A;" width="1.777" height="1.824"/>
		<path style="fill:#E25D3A;" d="M450.418,169.219h-1.89v-1.892h1.89V169.219z M448.641,169.151h1.664v-1.757h-1.664V169.151z"/>
	</g>
	<g>
		<rect x="450.932" y="167.361" style="fill:#E25D3A;" width="1.777" height="1.824"/>
		<path style="fill:#E25D3A;" d="M452.766,169.219h-1.89v-1.892h1.89V169.219z M450.989,169.151h1.664v-1.757h-1.664V169.151z"/>
	</g>
	<g>
		<rect x="448.659" y="178.191" style="fill:#E25D3A;" width="3.976" height="3.847"/>
		<path style="fill:#E25D3A;" d="M452.762,182.109h-4.229v-3.99h4.229V182.109z M448.786,181.967h3.723v-3.705h-3.723V181.967z"/>
	</g>
</g>
<g>
	<g>
		<rect x="455.718" y="169.801" style="fill:#E25D3A;" width="3.976" height="6.281"/>
		<path style="fill:#E25D3A;" d="M459.821,176.198h-4.229v-6.514h4.229V176.198z M455.845,175.965h3.723v-6.048h-3.723V175.965z"/>
	</g>
	<g>
		<rect x="455.648" y="167.361" style="fill:#E25D3A;" width="1.777" height="1.824"/>
		<path style="fill:#E25D3A;" d="M457.482,169.219h-1.89v-1.892h1.89V169.219z M455.705,169.151h1.664v-1.757h-1.664V169.151z"/>
	</g>
	<g>
		<rect x="457.996" y="167.361" style="fill:#E25D3A;" width="1.777" height="1.824"/>
		<path style="fill:#E25D3A;" d="M459.83,169.219h-1.89v-1.892h1.89V169.219z M458.053,169.151h1.664v-1.757h-1.664V169.151z"/>
	</g>
	<g>
		<rect x="455.723" y="178.191" style="fill:#E25D3A;" width="3.976" height="3.847"/>
		<path style="fill:#E25D3A;" d="M459.825,182.109h-4.229v-3.99h4.229V182.109z M455.849,181.967h3.723v-3.705h-3.723V181.967z"/>
	</g>
</g>
<g>
	<g>
		<rect x="462.61" y="169.801" style="fill:#E25D3A;" width="3.976" height="6.281"/>
		<path style="fill:#E25D3A;" d="M466.712,176.198h-4.229v-6.514h4.229V176.198z M462.736,175.965h3.723v-6.048h-3.723V175.965z"/>
	</g>
	<g>
		<rect x="462.539" y="167.361" style="fill:#E25D3A;" width="1.777" height="1.824"/>
		<path style="fill:#E25D3A;" d="M464.373,169.219h-1.89v-1.892h1.89V169.219z M462.596,169.151h1.664v-1.757h-1.664V169.151z"/>
	</g>
	<g>
		<rect x="464.887" y="167.361" style="fill:#E25D3A;" width="1.777" height="1.824"/>
		<path style="fill:#E25D3A;" d="M466.721,169.219h-1.89v-1.892h1.89V169.219z M464.944,169.151h1.664v-1.757h-1.664V169.151z"/>
	</g>
	<g>
		<rect x="462.614" y="178.191" style="fill:#E25D3A;" width="3.976" height="3.847"/>
		<path style="fill:#E25D3A;" d="M466.717,182.109h-4.229v-3.99h4.229V182.109z M462.741,181.967h3.722v-3.705h-3.722V181.967z"/>
	</g>
</g>
<g>
	<g>
		<g>
			<g>
				<rect x="365.165" y="169.801" style="fill:#E25D3A;" width="3.976" height="6.281"/>
				<path style="fill:#E25D3A;" d="M369.267,176.198h-4.229v-6.514h4.229V176.198z M365.291,175.965h3.723v-6.048h-3.723V175.965z"
					/>
			</g>
			<g>
				<rect x="365.094" y="167.361" style="fill:#E25D3A;" width="1.777" height="1.824"/>
				<path style="fill:#E25D3A;" d="M366.928,169.219h-1.89v-1.892h1.89V169.219z M365.151,169.151h1.664v-1.757h-1.664V169.151z"/>
			</g>
			<g>
				<rect x="367.442" y="167.361" style="fill:#E25D3A;" width="1.777" height="1.824"/>
				<path style="fill:#E25D3A;" d="M369.276,169.219h-1.89v-1.892h1.89V169.219z M367.499,169.151h1.664v-1.757h-1.664V169.151z"/>
			</g>
			<g>
				<rect x="365.169" y="178.191" style="fill:#E25D3A;" width="3.976" height="3.847"/>
				<path style="fill:#E25D3A;" d="M369.272,182.109h-4.229v-3.99h4.229V182.109z M365.296,181.967h3.722v-3.705h-3.722V181.967z"/>
			</g>
		</g>
		<g>
			<rect x="372.228" y="169.801" style="fill:#E25D3A;" width="3.976" height="6.281"/>
			<path style="fill:#E25D3A;" d="M376.331,176.198h-4.229v-6.514h4.229V176.198z M372.355,175.965h3.723v-6.048h-3.723V175.965z"/>
		</g>
		<g>
			<rect x="372.158" y="167.361" style="fill:#E25D3A;" width="1.777" height="1.824"/>
			<path style="fill:#E25D3A;" d="M373.992,169.219h-1.89v-1.892h1.89V169.219z M372.215,169.151h1.664v-1.757h-1.664V169.151z"/>
		</g>
		<g>
			<rect x="374.506" y="167.361" style="fill:#E25D3A;" width="1.777" height="1.824"/>
			<path style="fill:#E25D3A;" d="M376.34,169.219h-1.89v-1.892h1.89V169.219z M374.563,169.151h1.664v-1.757h-1.664V169.151z"/>
		</g>
		<g>
			<rect x="372.233" y="178.191" style="fill:#E25D3A;" width="3.976" height="3.847"/>
			<path style="fill:#E25D3A;" d="M376.335,182.109h-4.229v-3.99h4.229V182.109z M372.359,181.967h3.723v-3.705h-3.723V181.967z"/>
		</g>
	</g>
	<g>
		<g>
			<rect x="379.292" y="169.801" style="fill:#E25D3A;" width="3.976" height="6.281"/>
			<path style="fill:#E25D3A;" d="M383.394,176.198h-4.229v-6.514h4.229V176.198z M379.419,175.965h3.723v-6.048h-3.723V175.965z"/>
		</g>
		<g>
			<rect x="379.222" y="167.361" style="fill:#E25D3A;" width="1.777" height="1.824"/>
			<path style="fill:#E25D3A;" d="M381.055,169.219h-1.89v-1.892h1.89V169.219z M379.278,169.151h1.664v-1.757h-1.664V169.151z"/>
		</g>
		<g>
			<rect x="381.57" y="167.361" style="fill:#E25D3A;" width="1.777" height="1.824"/>
			<path style="fill:#E25D3A;" d="M383.403,169.219h-1.89v-1.892h1.89V169.219z M381.626,169.151h1.664v-1.757h-1.664V169.151z"/>
		</g>
		<g>
			<rect x="379.296" y="178.191" style="fill:#E25D3A;" width="3.976" height="3.847"/>
			<path style="fill:#E25D3A;" d="M383.399,182.109h-4.229v-3.99h4.229V182.109z M379.423,181.967h3.723v-3.705h-3.723V181.967z"/>
		</g>
	</g>
	<g>
		<g>
			<rect x="386.183" y="169.801" style="fill:#E25D3A;" width="3.976" height="6.281"/>
			<path style="fill:#E25D3A;" d="M390.286,176.198h-4.229v-6.514h4.229V176.198z M386.31,175.965h3.723v-6.048h-3.723V175.965z"/>
		</g>
		<g>
			<rect x="386.113" y="167.361" style="fill:#E25D3A;" width="1.777" height="1.824"/>
			<path style="fill:#E25D3A;" d="M387.947,169.219h-1.89v-1.892h1.89V169.219z M386.17,169.151h1.664v-1.757h-1.664V169.151z"/>
		</g>
		<g>
			<rect x="388.461" y="167.361" style="fill:#E25D3A;" width="1.777" height="1.824"/>
			<path style="fill:#E25D3A;" d="M390.295,169.219h-1.89v-1.892h1.89V169.219z M388.518,169.151h1.664v-1.757h-1.664V169.151z"/>
		</g>
		<g>
			<rect x="386.188" y="178.191" style="fill:#E25D3A;" width="3.976" height="3.847"/>
			<path style="fill:#E25D3A;" d="M390.29,182.109h-4.229v-3.99h4.229V182.109z M386.314,181.967h3.722v-3.705h-3.722V181.967z"/>
		</g>
	</g>
</g>
<g>
	<g>
		<g>
			<rect x="482.584" y="134.424" style="fill:#E2795D;" width="3.083" height="10.896"/>
			<path style="fill:#E2795D;" d="M485.765,145.521h-3.279v-11.3h3.279V145.521z M482.682,145.118h2.886v-10.492h-2.886V145.118z"/>
		</g>
		<g>
			<g>
				<rect x="483.462" y="134.424" style="fill:#E2795D;" width="0.216" height="10.896"/>
			</g>
			<g>
				<rect x="484.572" y="134.424" style="fill:#E2795D;" width="0.216" height="10.896"/>
			</g>
		</g>
		<g>
			<rect x="482.584" y="134.202" style="fill:#E2795D;" width="3.083" height="0.403"/>
		</g>
		<g>
			<rect x="482.584" y="139.647" style="fill:#E2795D;" width="3.083" height="0.447"/>
		</g>
		<g>
			<rect x="482.584" y="145.096" style="fill:#E2795D;" width="3.083" height="0.447"/>
		</g>
		<g>
			<rect x="486.592" y="134.424" style="fill:#E2795D;" width="3.083" height="10.896"/>
			<path style="fill:#E2795D;" d="M489.773,145.521h-3.279v-11.3h3.279V145.521z M486.69,145.118h2.886v-10.492h-2.886V145.118z"/>
		</g>
		<g>
			<g>
				<rect x="487.47" y="134.424" style="fill:#E2795D;" width="0.216" height="10.896"/>
			</g>
			<g>
				<rect x="488.58" y="134.424" style="fill:#E2795D;" width="0.216" height="10.896"/>
			</g>
		</g>
		<g>
			<rect x="486.592" y="134.202" style="fill:#E2795D;" width="3.083" height="0.403"/>
		</g>
		<g>
			<rect x="486.592" y="139.647" style="fill:#E2795D;" width="3.083" height="0.447"/>
		</g>
		<g>
			<rect x="486.592" y="145.096" style="fill:#E2795D;" width="3.083" height="0.447"/>
		</g>
		<g>
			<rect x="486.592" y="147.349" style="fill:#E2795D;" width="3.083" height="10.896"/>
			<path style="fill:#E2795D;" d="M489.773,158.447h-3.279v-11.3h3.279V158.447z M486.69,158.043h2.886v-10.492h-2.886V158.043z"/>
		</g>
		<g>
			<g>
				<rect x="487.47" y="147.349" style="fill:#E2795D;" width="0.216" height="10.896"/>
			</g>
			<g>
				<rect x="488.58" y="147.349" style="fill:#E2795D;" width="0.216" height="10.896"/>
			</g>
		</g>
		<g>
			<rect x="486.592" y="147.125" style="fill:#E2795D;" width="3.083" height="0.447"/>
		</g>
		<g>
			<rect x="486.592" y="152.572" style="fill:#E2795D;" width="3.083" height="0.447"/>
		</g>
		<g>
			<rect x="486.592" y="158.021" style="fill:#E2795D;" width="3.083" height="0.447"/>
		</g>
		<g>
			<rect x="482.584" y="147.349" style="fill:#E2795D;" width="3.083" height="10.896"/>
			<path style="fill:#E2795D;" d="M485.765,158.447h-3.279v-11.3h3.279V158.447z M482.682,158.043h2.886v-10.492h-2.886V158.043z"/>
		</g>
		<g>
			<g>
				<rect x="483.462" y="147.349" style="fill:#E2795D;" width="0.216" height="10.896"/>
			</g>
			<g>
				<rect x="484.572" y="147.349" style="fill:#E2795D;" width="0.216" height="10.896"/>
			</g>
		</g>
		<g>
			<rect x="482.584" y="147.125" style="fill:#E2795D;" width="3.083" height="0.447"/>
		</g>
		<g>
			<rect x="482.584" y="152.572" style="fill:#E2795D;" width="3.083" height="0.447"/>
		</g>
		<g>
			<rect x="482.584" y="158.021" style="fill:#E2795D;" width="3.083" height="0.447"/>
		</g>
		<g>
			<defs>
				<path id="SVGID_69_" d="M482.614,133.221c0,0,1.482-4.684,3.53-4.691c1.974-0.007,3.53,4.691,3.53,4.691H482.614z"/>
			</defs>
			<use xlink:href="#SVGID_69_"  style="overflow:visible;fill:#E2795D;"/>
			<clipPath id="SVGID_16_">
				<use xlink:href="#SVGID_69_"  style="overflow:visible;"/>
			</clipPath>
			<g style="clip-path:url(#SVGID_16_);">
				<g>
					<g>
						<rect x="483.434" y="126.521" style="fill:#E2795D;" width="0.216" height="6.646"/>
					</g>
					<g>
						<rect x="484.511" y="126.521" style="fill:#E2795D;" width="0.216" height="6.646"/>
					</g>
				</g>
				<g>
					<g>
						<rect x="485.497" y="126.521" style="fill:#E2795D;" width="0.216" height="6.646"/>
					</g>
					<g>
						<rect x="486.574" y="126.521" style="fill:#E2795D;" width="0.216" height="6.646"/>
					</g>
				</g>
				<g>
					<g>
						<rect x="487.563" y="126.521" style="fill:#E2795D;" width="0.216" height="6.646"/>
					</g>
					<g>
						<rect x="488.64" y="126.521" style="fill:#E2795D;" width="0.216" height="6.646"/>
					</g>
				</g>
			</g>
			<g style="clip-path:url(#SVGID_16_);">
				<g>
					<g>
						<rect x="482.599" y="129.053" style="fill:#E2795D;" width="7.628" height="0.273"/>
					</g>
				</g>
				<g>
					<g>
						<rect x="482.778" y="131.004" style="fill:#E2795D;" width="7.628" height="0.273"/>
					</g>
					<g>
						<rect x="482.599" y="133.111" style="fill:#E2795D;" width="7.628" height="0.273"/>
					</g>
				</g>
			</g>
		</g>
	</g>
	<rect x="476.36" y="161.097" style="fill:#E37254;" width="1.079" height="3.326"/>
	<rect x="485.923" y="161.097" style="fill:#E37254;" width="1.079" height="3.326"/>
	<rect x="495.486" y="161.097" style="fill:#E37254;" width="1.079" height="3.326"/>
	<rect x="481.141" y="161.097" style="fill:#E38065;" width="1.079" height="2.247"/>
	<rect x="490.705" y="161.097" style="fill:#E38065;" width="1.079" height="2.247"/>
	<path style="fill:#E2836A;" d="M475.358,161.127h22.269v-4.252h-22.269V161.127z M495.349,158.313c0-0.297,0.243-0.54,0.539-0.54
		c0.297,0,0.54,0.243,0.54,0.54v1.376c0,0.297-0.243,0.539-0.54,0.539c-0.297,0-0.539-0.243-0.539-0.539V158.313z M493.692,158.313
		c0-0.297,0.243-0.54,0.539-0.54c0.297,0,0.539,0.243,0.539,0.54v1.376c0,0.297-0.243,0.539-0.539,0.539
		c-0.297,0-0.539-0.243-0.539-0.539V158.313z M490.314,158.313c0-0.297,0.243-0.54,0.54-0.54c0.297,0,0.539,0.243,0.539,0.54v1.376
		c0,0.297-0.243,0.539-0.539,0.539c-0.297,0-0.54-0.243-0.54-0.539V158.313z M488.749,158.313c0-0.297,0.243-0.54,0.539-0.54
		c0.297,0,0.54,0.243,0.54,0.54v1.376c0,0.297-0.243,0.539-0.54,0.539c-0.297,0-0.539-0.243-0.539-0.539V158.313z M487.183,158.313
		c0-0.297,0.243-0.54,0.539-0.54c0.297,0,0.54,0.243,0.54,0.54v1.376c0,0.297-0.243,0.539-0.54,0.539
		c-0.297,0-0.539-0.243-0.539-0.539V158.313z M484.784,158.313c0-0.297,0.243-0.54,0.54-0.54c0.297,0,0.54,0.243,0.54,0.54v1.376
		c0,0.297-0.243,0.539-0.54,0.539c-0.297,0-0.54-0.243-0.54-0.539V158.313z M483.219,158.313c0-0.297,0.243-0.54,0.539-0.54
		c0.297,0,0.54,0.243,0.54,0.54v1.376c0,0.297-0.243,0.539-0.54,0.539c-0.297,0-0.539-0.243-0.539-0.539V158.313z M481.653,158.313
		c0-0.297,0.243-0.54,0.539-0.54c0.297,0,0.54,0.243,0.54,0.54v1.376c0,0.297-0.243,0.539-0.54,0.539
		c-0.297,0-0.539-0.243-0.539-0.539V158.313z M478.275,158.313c0-0.297,0.243-0.54,0.54-0.54s0.539,0.243,0.539,0.54v1.376
		c0,0.297-0.243,0.539-0.539,0.539s-0.54-0.243-0.54-0.539V158.313z M477.158,157.773c0.297,0,0.54,0.243,0.54,0.54v1.376
		c0,0.297-0.243,0.539-0.54,0.539c-0.297,0-0.54-0.243-0.54-0.539v-1.376C476.618,158.016,476.861,157.773,477.158,157.773z"/>
</g>
<g>
	<g>
		<g>
			<rect x="342.639" y="134.403" style="fill:#E2795D;" width="3.083" height="10.896"/>
			<path style="fill:#E2795D;" d="M345.82,145.501h-3.279v-11.3h3.279V145.501z M342.738,145.097h2.886v-10.492h-2.886V145.097z"/>
		</g>
		<g>
			<g>
				<rect x="343.518" y="134.403" style="fill:#E2795D;" width="0.216" height="10.896"/>
			</g>
			<g>
				<rect x="344.628" y="134.403" style="fill:#E2795D;" width="0.216" height="10.896"/>
			</g>
		</g>
		<g>
			<rect x="342.639" y="134.182" style="fill:#E2795D;" width="3.083" height="0.403"/>
		</g>
		<g>
			<rect x="342.639" y="139.626" style="fill:#E2795D;" width="3.083" height="0.447"/>
		</g>
		<g>
			<rect x="342.639" y="145.075" style="fill:#E2795D;" width="3.083" height="0.447"/>
		</g>
		<g>
			<rect x="346.647" y="134.403" style="fill:#E2795D;" width="3.083" height="10.896"/>
			<path style="fill:#E2795D;" d="M349.828,145.501h-3.279v-11.3h3.279V145.501z M346.745,145.097h2.886v-10.492h-2.886V145.097z"/>
		</g>
		<g>
			<g>
				<rect x="347.526" y="134.403" style="fill:#E2795D;" width="0.216" height="10.896"/>
			</g>
			<g>
				<rect x="348.635" y="134.403" style="fill:#E2795D;" width="0.216" height="10.896"/>
			</g>
		</g>
		<g>
			<rect x="346.647" y="134.182" style="fill:#E2795D;" width="3.083" height="0.403"/>
		</g>
		<g>
			<rect x="346.647" y="139.626" style="fill:#E2795D;" width="3.083" height="0.447"/>
		</g>
		<g>
			<rect x="346.647" y="145.075" style="fill:#E2795D;" width="3.083" height="0.447"/>
		</g>
		<g>
			<rect x="346.647" y="147.328" style="fill:#E2795D;" width="3.083" height="10.896"/>
			<path style="fill:#E2795D;" d="M349.828,158.426h-3.279v-11.3h3.279V158.426z M346.745,158.022h2.886V147.53h-2.886V158.022z"/>
		</g>
		<g>
			<g>
				<rect x="347.526" y="147.328" style="fill:#E2795D;" width="0.216" height="10.896"/>
			</g>
			<g>
				<rect x="348.635" y="147.328" style="fill:#E2795D;" width="0.216" height="10.896"/>
			</g>
		</g>
		<g>
			<rect x="346.647" y="147.105" style="fill:#E2795D;" width="3.083" height="0.447"/>
		</g>
		<g>
			<rect x="346.647" y="152.552" style="fill:#E2795D;" width="3.083" height="0.447"/>
		</g>
		<g>
			<rect x="346.647" y="158.001" style="fill:#E2795D;" width="3.083" height="0.447"/>
		</g>
		<g>
			<rect x="342.639" y="147.328" style="fill:#E2795D;" width="3.083" height="10.896"/>
			<path style="fill:#E2795D;" d="M345.82,158.426h-3.279v-11.3h3.279V158.426z M342.738,158.022h2.886V147.53h-2.886V158.022z"/>
		</g>
		<g>
			<g>
				<rect x="343.518" y="147.328" style="fill:#E2795D;" width="0.216" height="10.896"/>
			</g>
			<g>
				<rect x="344.628" y="147.328" style="fill:#E2795D;" width="0.216" height="10.896"/>
			</g>
		</g>
		<g>
			<rect x="342.639" y="147.105" style="fill:#E2795D;" width="3.083" height="0.447"/>
		</g>
		<g>
			<rect x="342.639" y="152.552" style="fill:#E2795D;" width="3.083" height="0.447"/>
		</g>
		<g>
			<rect x="342.639" y="158.001" style="fill:#E2795D;" width="3.083" height="0.447"/>
		</g>
		<g>
			<defs>
				<path id="SVGID_71_" d="M342.67,133.2c0,0,1.482-4.684,3.53-4.691c1.974-0.007,3.53,4.691,3.53,4.691H342.67z"/>
			</defs>
			<use xlink:href="#SVGID_71_"  style="overflow:visible;fill:#E2795D;"/>
			<clipPath id="SVGID_18_">
				<use xlink:href="#SVGID_71_"  style="overflow:visible;"/>
			</clipPath>
			<g style="clip-path:url(#SVGID_18_);">
				<g>
					<g>
						<rect x="343.489" y="126.501" style="fill:#E2795D;" width="0.216" height="6.646"/>
					</g>
					<g>
						<rect x="344.566" y="126.501" style="fill:#E2795D;" width="0.216" height="6.646"/>
					</g>
				</g>
				<g>
					<g>
						<rect x="345.553" y="126.501" style="fill:#E2795D;" width="0.216" height="6.646"/>
					</g>
					<g>
						<rect x="346.63" y="126.501" style="fill:#E2795D;" width="0.216" height="6.646"/>
					</g>
				</g>
				<g>
					<g>
						<rect x="347.618" y="126.501" style="fill:#E2795D;" width="0.216" height="6.646"/>
					</g>
					<g>
						<rect x="348.695" y="126.501" style="fill:#E2795D;" width="0.216" height="6.646"/>
					</g>
				</g>
			</g>
			<g style="clip-path:url(#SVGID_18_);">
				<g>
					<g>
						<rect x="342.655" y="129.032" style="fill:#E2795D;" width="7.628" height="0.273"/>
					</g>
				</g>
				<g>
					<g>
						<rect x="342.833" y="130.984" style="fill:#E2795D;" width="7.628" height="0.273"/>
					</g>
					<g>
						<rect x="342.655" y="133.091" style="fill:#E2795D;" width="7.628" height="0.273"/>
					</g>
				</g>
			</g>
		</g>
	</g>
	<rect x="336.415" y="161.076" style="fill:#E37254;" width="1.079" height="3.326"/>
	<rect x="345.978" y="161.076" style="fill:#E37254;" width="1.079" height="3.326"/>
	<rect x="355.542" y="161.076" style="fill:#E37254;" width="1.079" height="3.326"/>
	<rect x="341.197" y="161.076" style="fill:#E38065;" width="1.079" height="2.247"/>
	<rect x="350.76" y="161.076" style="fill:#E38065;" width="1.079" height="2.247"/>
	<path style="fill:#E2836A;" d="M335.414,161.106h22.269v-4.252h-22.269V161.106z M355.405,158.292c0-0.297,0.243-0.54,0.539-0.54
		c0.297,0,0.539,0.243,0.539,0.54v1.376c0,0.297-0.243,0.54-0.539,0.54c-0.297,0-0.539-0.243-0.539-0.54V158.292z M353.748,158.292
		c0-0.297,0.243-0.54,0.54-0.54c0.297,0,0.539,0.243,0.539,0.54v1.376c0,0.297-0.243,0.54-0.539,0.54c-0.297,0-0.54-0.243-0.54-0.54
		V158.292z M350.37,158.292c0-0.297,0.243-0.54,0.54-0.54c0.297,0,0.54,0.243,0.54,0.54v1.376c0,0.297-0.243,0.54-0.54,0.54
		c-0.297,0-0.54-0.243-0.54-0.54V158.292z M348.804,158.292c0-0.297,0.243-0.54,0.539-0.54s0.539,0.243,0.539,0.54v1.376
		c0,0.297-0.243,0.54-0.539,0.54s-0.539-0.243-0.539-0.54V158.292z M347.239,158.292c0-0.297,0.243-0.54,0.539-0.54
		c0.297,0,0.539,0.243,0.539,0.54v1.376c0,0.297-0.243,0.54-0.539,0.54c-0.297,0-0.539-0.243-0.539-0.54V158.292z M344.839,158.292
		c0-0.297,0.243-0.54,0.539-0.54c0.297,0,0.54,0.243,0.54,0.54v1.376c0,0.297-0.243,0.54-0.54,0.54c-0.297,0-0.539-0.243-0.539-0.54
		V158.292z M343.274,158.292c0-0.297,0.243-0.54,0.54-0.54s0.539,0.243,0.539,0.54v1.376c0,0.297-0.243,0.54-0.539,0.54
		s-0.54-0.243-0.54-0.54V158.292z M341.709,158.292c0-0.297,0.243-0.54,0.54-0.54c0.297,0,0.539,0.243,0.539,0.54v1.376
		c0,0.297-0.243,0.54-0.539,0.54c-0.297,0-0.54-0.243-0.54-0.54V158.292z M338.331,158.292c0-0.297,0.243-0.54,0.54-0.54
		c0.297,0,0.539,0.243,0.539,0.54v1.376c0,0.297-0.243,0.54-0.539,0.54c-0.297,0-0.54-0.243-0.54-0.54V158.292z M337.213,157.753
		c0.297,0,0.54,0.243,0.54,0.54v1.376c0,0.297-0.243,0.54-0.54,0.54c-0.297,0-0.539-0.243-0.539-0.54v-1.376
		C336.674,157.996,336.916,157.753,337.213,157.753z"/>
</g>
<g>
	<g>
		<rect x="484.47" y="169.801" style="fill:#E2836A;" width="3.976" height="6.281"/>
		<path style="fill:#E2836A;" d="M488.573,176.198h-4.229v-6.514h4.229V176.198z M484.597,175.965h3.723v-6.048h-3.723V175.965z"/>
	</g>
	<g>
		<rect x="484.4" y="167.361" style="fill:#E2836A;" width="1.777" height="1.824"/>
		<path style="fill:#E2836A;" d="M486.234,169.219h-1.89v-1.892h1.89V169.219z M484.457,169.151h1.664v-1.757h-1.664V169.151z"/>
	</g>
	<g>
		<rect x="486.748" y="167.361" style="fill:#E2836A;" width="1.777" height="1.824"/>
		<path style="fill:#E2836A;" d="M488.582,169.219h-1.89v-1.892h1.89V169.219z M486.805,169.151h1.664v-1.757h-1.664V169.151z"/>
	</g>
	<g>
		<rect x="484.475" y="178.191" style="fill:#E2836A;" width="3.976" height="3.847"/>
		<path style="fill:#E2836A;" d="M488.577,182.109h-4.229v-3.99h4.229V182.109z M484.601,181.967h3.723v-3.705h-3.723V181.967z"/>
	</g>
</g>
<g>
	<g>
		<rect x="343.926" y="169.801" style="fill:#E2836A;" width="3.976" height="6.281"/>
		<path style="fill:#E2836A;" d="M348.029,176.198h-4.229v-6.514h4.229V176.198z M344.053,175.965h3.722v-6.048h-3.722V175.965z"/>
	</g>
	<g>
		<rect x="343.856" y="167.361" style="fill:#E2836A;" width="1.777" height="1.824"/>
		<path style="fill:#E2836A;" d="M345.69,169.219h-1.89v-1.892h1.89V169.219z M343.913,169.151h1.664v-1.757h-1.664V169.151z"/>
	</g>
	<g>
		<rect x="346.204" y="167.361" style="fill:#E2836A;" width="1.777" height="1.824"/>
		<path style="fill:#E2836A;" d="M348.038,169.219h-1.89v-1.892h1.89V169.219z M346.261,169.151h1.664v-1.757h-1.664V169.151z"/>
	</g>
	<g>
		<rect x="343.931" y="178.191" style="fill:#E2836A;" width="3.976" height="3.847"/>
		<path style="fill:#E2836A;" d="M348.033,182.109h-4.229v-3.99h4.229V182.109z M344.057,181.967h3.723v-3.705h-3.723V181.967z"/>
	</g>
</g>
<rect x="403.452" y="180.608" style="fill:#E37254;" width="14.933" height="3.23"/>
<path style="fill:#E37254;" d="M395.779,177.24v2.874h0.729v-1.568c0-0.235,0.173-0.427,0.385-0.427
	c0.212,0,0.385,0.192,0.385,0.427v1.568h0.917v-1.568c0-0.235,0.173-0.427,0.385-0.427c0.212,0,0.385,0.192,0.385,0.427v1.568h0.917
	v-1.568c0-0.235,0.173-0.427,0.385-0.427c0.212,0,0.385,0.192,0.385,0.427v1.568h0.917v-1.568c0-0.235,0.173-0.427,0.385-0.427
	c0.212,0,0.385,0.192,0.385,0.427v1.568h0.917v-1.568c0-0.235,0.173-0.427,0.385-0.427l0,0c0.212,0,0.385,0.192,0.385,0.427v1.568
	h0.917v-1.568c0-0.235,0.173-0.427,0.385-0.427s0.385,0.192,0.385,0.427v1.568h0.917v-1.568c0-0.235,0.173-0.427,0.385-0.427
	c0.212,0,0.385,0.192,0.385,0.427v1.568h0.917v-1.568c0-0.235,0.173-0.427,0.385-0.427c0.212,0,0.385,0.192,0.385,0.427v1.568h0.917
	v-1.568c0-0.235,0.173-0.427,0.385-0.427s0.385,0.192,0.385,0.427v1.568h1.128v-2.874H395.779z"/>
<rect x="426.643" y="180.62" style="fill:#E37254;" width="15.157" height="3.23"/>
<path style="fill:#E37254;" d="M420.574,177.253v2.874h0.75v-1.568c0-0.235,0.178-0.427,0.396-0.427
	c0.218,0,0.396,0.192,0.396,0.427v1.568h0.943v-1.568c0-0.235,0.178-0.427,0.396-0.427c0.218,0,0.396,0.192,0.396,0.427v1.568h0.943
	v-1.568c0-0.235,0.178-0.427,0.396-0.427c0.218,0,0.396,0.192,0.396,0.427v1.568h0.943v-1.568c0-0.235,0.178-0.427,0.396-0.427
	c0.218,0,0.396,0.192,0.396,0.427v1.568h0.943v-1.568c0-0.235,0.178-0.427,0.396-0.427h0c0.218,0,0.396,0.192,0.396,0.427v1.568H430
	v-1.568c0-0.235,0.178-0.427,0.396-0.427c0.218,0,0.396,0.192,0.396,0.427v1.568h0.943v-1.568c0-0.235,0.178-0.427,0.396-0.427
	c0.218,0,0.396,0.192,0.396,0.427v1.568h0.943v-1.568c0-0.235,0.178-0.427,0.396-0.427c0.218,0,0.396,0.192,0.396,0.427v1.568h0.943
	v-1.568c0-0.235,0.178-0.427,0.396-0.427c0.218,0,0.396,0.192,0.396,0.427v1.568h1.161v-2.874H420.574z"/>
<rect x="417.574" y="181.572" style="fill:#E38065;" width="8.46" height="0.423"/>
<rect x="417.325" y="181.925" style="fill:#E2795D;" width="9.033" height="0.597"/>
<rect x="418.057" y="182.329" style="fill:#E38065;" width="9.579" height="0.597"/>
<rect x="417.494" y="182.832" style="fill:#E2795D;" width="10.637" height="0.597"/>
<rect x="417.14" y="183.253" style="fill:#E38065;" width="10.991" height="0.597"/>
<rect x="417.753" y="181.187" style="fill:#E2795D;" width="8.282" height="0.385"/>
<g>
	<polygon style="fill:#E2795D;" points="410.522,183.607 409.469,183.607 409.469,181.168 410.069,181.168 411.451,178.093 
		411.451,181.985 	"/>
	<rect x="411.451" y="177.253" style="fill:#E2795D;" width="0.567" height="4.733"/>
</g>
<g>
	<polygon style="fill:#E2795D;" points="421.45,183.607 422.368,183.607 422.368,181.168 421.845,181.168 420.64,178.093 
		420.64,181.985 	"/>
	<rect x="420.146" y="177.253" style="fill:#E2795D;" width="0.494" height="4.733"/>
</g>
<g>
	<path style="fill:#E2795D;" d="M412.969,169.395c0,0,1.256-2.7,2.991-2.704c1.673-0.004,2.991,2.704,2.991,2.704H412.969z"/>
	<path style="fill:#E2795D;" d="M419.077,169.466h-6.23l0.044-0.097c0.052-0.112,1.298-2.745,3.069-2.749c0.002,0,0.003,0,0.003,0
		c1.708,0,3.011,2.635,3.064,2.748L419.077,169.466z M413.095,169.324h5.729c-0.256-0.482-1.442-2.562-2.86-2.562
		c0,0-0.002,0-0.003,0C414.485,166.765,413.34,168.844,413.095,169.324z"/>
</g>
<rect x="412.932" y="170.471" style="fill:#E2795D;" width="2.912" height="10.269"/>
<rect x="416.04" y="170.471" style="fill:#E2795D;" width="2.912" height="10.269"/>
<rect x="413.954" y="174.584" style="fill:#E25D3A;" width="0.943" height="1.03"/>
<rect x="413.954" y="176.294" style="fill:#E25D3A;" width="0.943" height="1.03"/>
<rect x="417.024" y="174.584" style="fill:#E25D3A;" width="0.943" height="1.03"/>
<rect x="417.024" y="176.294" style="fill:#E25D3A;" width="0.943" height="1.03"/>
<rect x="413.133" y="170.741" style="fill:#E25D3A;" width="2.511" height="2.2"/>
<rect x="416.24" y="170.741" style="fill:#E25D3A;" width="2.511" height="2.2"/>
<rect x="331.838" y="117.419" style="fill:#8EC5D3;" width="3.724" height="1.233"/>
<rect x="357.423" y="117.419" style="fill:#8EC5D3;" width="3.724" height="1.233"/>
<rect x="353.53" y="111.214" style="fill:#8EC5D3;" width="3.909" height="1.233"/>
<rect x="349.449" y="105.583" style="fill:#8EC5D3;" width="4.081" height="1.233"/>
<rect x="343.548" y="99.817" style="fill:#8EC5D3;" width="5.901" height="1.011"/>
<rect x="339.467" y="105.583" style="fill:#8EC5D3;" width="4.042" height="1.233"/>
<rect x="335.558" y="111.214" style="fill:#8EC5D3;" width="3.909" height="1.233"/>
<rect x="471.226" y="117.535" style="fill:#8EC5D3;" width="3.724" height="1.233"/>
<rect x="496.802" y="117.535" style="fill:#8EC5D3;" width="3.736" height="1.233"/>
<rect x="492.91" y="111.33" style="fill:#8EC5D3;" width="3.893" height="1.233"/>
<rect x="488.829" y="105.879" style="fill:#8EC5D3;" width="4.081" height="1.233"/>
<rect x="482.932" y="100.087" style="fill:#8EC5D3;" width="5.901" height="1.011"/>
<rect x="478.802" y="105.879" style="fill:#8EC5D3;" width="4.13" height="1.233"/>
<rect x="474.958" y="111.33" style="fill:#8EC5D3;" width="3.844" height="1.233"/>
<rect x="432.246" y="122.525" style="fill:#8EC5D3;" width="4.911" height="1.233"/>
<rect x="428.537" y="117.198" style="fill:#8EC5D3;" width="3.727" height="1.233"/>
<rect x="425.502" y="111.15" style="fill:#8EC5D3;" width="3.035" height="1.233"/>
<rect x="422.333" y="104.879" style="fill:#8EC5D3;" width="3.188" height="1.233"/>
<rect x="418.927" y="98.742" style="fill:#8EC5D3;" width="3.406" height="1.233"/>
<rect x="414.01" y="93.658" style="fill:#8EC5D3;" width="4.917" height="0.616"/>
<rect x="400.673" y="117.198" style="fill:#8EC5D3;" width="3.727" height="1.233"/>
<rect x="404.4" y="111.15" style="fill:#8EC5D3;" width="3.035" height="1.233"/>
<rect x="407.417" y="104.879" style="fill:#8EC5D3;" width="3.188" height="1.233"/>
<rect x="410.604" y="98.742" style="fill:#8EC5D3;" width="3.406" height="1.233"/>
<rect x="395.779" y="122.525" style="fill:#8EC5D3;" width="4.911" height="1.233"/>
<g>
	<rect x="362.486" y="128.703" style="fill:#E2795D;" width="1.776" height="1.619"/>
	<rect x="364.712" y="128.703" style="fill:#E2795D;" width="1.776" height="1.619"/>
</g>
<g>
	<rect x="371.395" y="128.703" style="fill:#E2795D;" width="1.776" height="1.619"/>
	<rect x="373.621" y="128.703" style="fill:#E2795D;" width="1.776" height="1.619"/>
</g>
<g>
	<rect x="380.304" y="128.703" style="fill:#E2795D;" width="1.776" height="1.619"/>
	<rect x="382.529" y="128.703" style="fill:#E2795D;" width="1.776" height="1.619"/>
</g>
<g>
	<rect x="389.212" y="128.703" style="fill:#E2795D;" width="1.776" height="1.619"/>
	<rect x="391.438" y="128.703" style="fill:#E2795D;" width="1.776" height="1.619"/>
</g>
<g>
	<rect x="438.532" y="128.53" style="fill:#E2795D;" width="1.776" height="1.619"/>
	<rect x="440.758" y="128.53" style="fill:#E2795D;" width="1.776" height="1.619"/>
</g>
<g>
	<rect x="447.441" y="128.53" style="fill:#E2795D;" width="1.776" height="1.619"/>
	<rect x="449.666" y="128.53" style="fill:#E2795D;" width="1.776" height="1.619"/>
</g>
<g>
	<rect x="456.349" y="128.53" style="fill:#E2795D;" width="1.776" height="1.619"/>
	<rect x="458.575" y="128.53" style="fill:#E2795D;" width="1.776" height="1.619"/>
</g>
<g>
	<rect x="465.258" y="128.53" style="fill:#E2795D;" width="1.776" height="1.619"/>
	<rect x="467.483" y="128.53" style="fill:#E2795D;" width="1.776" height="1.619"/>
</g>
<rect x="295.36" y="183.838" style="fill:#BDC3C7;" width="238.038" height="13.121"/>
<path style="fill:#265387;" d="M0,198.506c15.019-8.61,28.324-9.764,45.628-9c17.893,0.79,36.898,3.601,54.523,6.231
	c21.932,3.272,44.439-1.816,66.477-1.145c22.007,0.67,42.145-0.174,63.937-4.172c22.261-4.084,40.021-0.177,61.917,4
	c18.215,3.475,36.476-0.23,54.68-1.702c18.291-1.479,36.066,2.227,54.307,2.109c12.418-0.08,24.45-3.652,36.839-4.052
	c17.125-0.552,33.968,5.648,51.101,3.62c17.608-2.084,33.345-1.719,51.267,0.773c23.991,3.336-5.666,3.336-5.666,3.336"/>
<path style="fill:#BDC3C7;" d="M234.253,185.375c5.633,0,10.23,2.579,10.596,5.838h4.064c0.365-3.259,4.963-5.838,10.596-5.838
	c5.633,0,10.23,2.579,10.596,5.838h4.064c0.365-3.259,4.963-5.838,10.596-5.838s10.23,2.579,10.596,5.838h20.139
	c0-7.592-25.068-13.746-55.99-13.746c-30.923,0-55.99,6.154-55.99,13.746h20.139C224.023,187.953,228.62,185.375,234.253,185.375z"
	/>
</svg>
