<?xml version="1.0" encoding="iso-8859-1"?>
<!-- Generator: Adobe Illustrator 19.1.0, SVG Export Plug-In . SVG Version: 6.00 Build 0)  -->
<svg version="1.1" id="Layer_1" xmlns="http://www.w3.org/2000/svg" xmlns:xlink="http://www.w3.org/1999/xlink" x="0px" y="0px"
	 viewBox="0 0 122.086 25" style="enable-background:new 0 0 122.086 25;" xml:space="preserve">
<g>
	<path style="fill:#D05E33;" d="M50.135,7.946c-2.312,0-4.185,1.874-4.185,4.186c0,2.311,1.873,4.185,4.185,4.185
		c2.311,0,4.185-1.873,4.185-4.185C54.32,9.821,52.446,7.946,50.135,7.946z M50.109,14.643c-1.387,0-2.511-1.124-2.511-2.511
		c0-1.388,1.124-2.512,2.511-2.512c1.387,0,2.512,1.124,2.512,2.512C52.621,13.519,51.496,14.643,50.109,14.643z"/>
</g>
<g>
	<path style="fill:#D05E33;" d="M87.721,12.476c0,1.219-0.926,2.573-2.194,3.943l-3.12,3.307h5.863v1.818h-8.534V20.07l4.422-4.748
		c0.874-0.89,1.457-1.868,1.457-2.554c0-0.96-0.755-1.542-2.005-1.542c-1.047,0-2.264,0.582-3.274,1.507l-0.807-1.56
		c1.305-1.061,2.828-1.712,4.37-1.712C86.16,9.461,87.721,10.644,87.721,12.476z"/>
	<path style="fill:#D05E33;" d="M100.063,15.545c0,3.89-1.817,6.05-5.091,6.05c-3.29,0-5.108-2.16-5.108-6.05
		c0-3.89,1.818-6.05,5.108-6.05C98.246,9.495,100.063,11.655,100.063,15.545z M91.94,15.545c0,3.033,1.01,4.456,3.033,4.456
		c2.006,0,3.016-1.422,3.016-4.456c0-3.05-1.01-4.455-3.016-4.455C92.95,11.089,91.94,12.495,91.94,15.545z"/>
	<path style="fill:#D05E33;" d="M103.459,21.544V11.346h-2.35V9.547h4.371v11.997H103.459z"/>
	<path style="fill:#D05E33;" d="M117.102,10.369l-0.791,1.526c-0.733-0.48-1.746-0.754-2.652-0.754
		c-2.332,0-3.411,1.749-3.343,4.337c0.633-1.115,1.766-1.698,3.274-1.698c2.4,0,3.855,1.493,3.855,3.823
		c0,2.485-1.661,4.028-4.217,4.028c-3.033,0-4.884-2.159-4.884-5.845c0-3.822,2.004-6.324,5.176-6.324
		C114.703,9.461,116.126,9.821,117.102,10.369z M110.641,17.652c-0.017,1.046,0.755,2.229,2.486,2.229
		c1.457,0,2.434-0.84,2.434-2.297c0-1.372-0.892-2.211-2.349-2.211C111.584,15.373,110.624,16.419,110.641,17.652z"/>
</g>
<g>
	<path style="fill:#FFFFFF;" d="M50.26,12.158h-0.182c0-1.827,1.44-3.313,3.211-3.313v0.182C51.619,9.027,50.26,10.431,50.26,12.158
		z"/>
</g>
<g>
	<path style="fill:#FFFFFF;" d="M53.213,15.039c-1.743,0-3.161-1.372-3.161-3.059h0.183c0,1.587,1.336,2.877,2.978,2.877V15.039z"/>
</g>
<g>
	<path style="fill:#FFFFFF;" d="M44.056,15.267v-0.182c3.279,0,5.945-1.382,5.945-3.08h0.183
		C50.184,13.804,47.435,15.267,44.056,15.267z"/>
</g>
<g>
	<path style="fill:#FFFFFF;" d="M50.184,11.827h-0.183c0-2.355-2.314-4.272-5.159-4.272V7.373
		C47.788,7.373,50.184,9.372,50.184,11.827z"/>
</g>
<g>
	<path style="fill:#FFFFFF;" d="M52.553,12.73c-1.217,0-2.527-0.195-2.527-0.624h0.183c0,0.154,0.805,0.441,2.344,0.441V12.73z"/>
</g>
<g>
	<path style="fill:#FFFFFF;" d="M50.159,12.081h-0.183c0-0.591,1.065-1.055,2.426-1.055v0.182
		C51.06,11.208,50.159,11.66,50.159,12.081z"/>
</g>
<g>
	<path style="fill:#FFFFFF;" d="M48.14,15.825v-0.182c1.012,0,1.836-1.62,1.836-3.612h0.183
		C50.159,14.123,49.253,15.825,48.14,15.825z"/>
</g>
<g>
	<path style="fill:#FFFFFF;" d="M53.213,16.942c-1.813,0-3.288-2.363-3.288-5.266h0.183c0,2.803,1.393,5.084,3.105,5.084V16.942z"/>
</g>
<g>
	<path style="fill:#FFFFFF;" d="M50.108,11.98h-0.183c0-0.817-0.732-1.481-1.633-1.481v-0.182
		C49.293,10.316,50.108,11.062,50.108,11.98z"/>
</g>
<g>
	<path style="fill:#FFFFFF;" d="M18.422,17.509v3.91H5.953V3.046h4.673v14.463H18.422z"/>
	<path style="fill:#FFFFFF;" d="M32.943,21.419v-7.139h-7.611v7.139h-4.673V3.046h4.673v7.559h7.611V3.046h4.673v18.373H32.943z"/>
	<path style="fill:#FFFFFF;" d="M57.312,5.987L54.61,9.189c-1.207-1.47-2.995-2.387-4.619-2.387c-2.914,0-5.119,2.308-5.119,5.328
		c0,3.071,2.205,5.406,5.119,5.406c1.547,0,3.33-0.839,4.619-2.152l2.727,2.888c-1.967,2.02-4.881,3.358-7.585,3.358
		c-5.538,0-9.659-4.069-9.659-9.449c0-5.302,4.226-9.291,9.817-9.291C52.639,2.89,55.475,4.097,57.312,5.987z"/>
	<path style="fill:#FFFFFF;" d="M67.48,3.046c4.699,0,7.402,2.31,7.402,6.404c0,4.306-2.703,6.798-7.402,6.798h-3.335v5.17h-4.672
		V3.046H67.48z M64.145,12.574h3.097c2.049,0,3.229-1.022,3.229-2.965c0-1.917-1.179-2.888-3.229-2.888h-3.097V12.574z"/>
</g>
</svg>
