<?xml version="1.0" encoding="iso-8859-1"?>
<!-- Generator: Adobe Illustrator 19.1.0, SVG Export Plug-In . SVG Version: 6.00 Build 0)  -->
<svg version="1.1" id="Layer_1" xmlns="http://www.w3.org/2000/svg" xmlns:xlink="http://www.w3.org/1999/xlink" x="0px" y="0px"
	 viewBox="0 0 96.5 35.167" style="enable-background:new 0 0 96.5 35.167;" xml:space="preserve">
<g>
	<g>
		<path style="fill:#5FB7CB;" d="M27.088,18.84c-3.564,0-7.4-0.572-7.4-1.827h0.535c0,0.451,2.359,1.292,6.865,1.292V18.84z"/>
	</g>
</g>
<g>
	<path style="fill:#0096AD;" d="M19.855,4.98c-6.606,0-11.958,5.355-11.958,11.96c0,6.604,5.352,11.956,11.958,11.956
		c6.604,0,11.957-5.353,11.957-11.956C31.812,10.334,26.459,4.98,19.855,4.98z M19.782,24.113c-3.962,0-7.175-3.211-7.175-7.173
		c0-3.965,3.213-7.177,7.175-7.177c3.964,0,7.175,3.212,7.175,7.177C26.957,20.902,23.746,24.113,19.782,24.113z"/>
</g>
<g>
	<path style="fill:#E25D3A;" d="M70.266,24.682c0,0.979-0.743,2.065-1.761,3.164l-2.504,2.653h4.704v1.459h-6.848v-1.183l3.548-3.81
		c0.701-0.714,1.169-1.499,1.169-2.049c0-0.771-0.605-1.237-1.608-1.237c-0.84,0-1.816,0.467-2.627,1.209l-0.647-1.252
		c1.047-0.852,2.27-1.374,3.507-1.374C69.013,22.263,70.266,23.212,70.266,24.682z"/>
	<path style="fill:#E25D3A;" d="M80.169,27.145c0,3.121-1.458,4.854-4.085,4.854c-2.64,0-4.099-1.733-4.099-4.854
		s1.459-4.854,4.099-4.854C78.711,22.29,80.169,24.024,80.169,27.145z M73.65,27.145c0,2.434,0.811,3.575,2.434,3.575
		c1.609,0,2.42-1.141,2.42-3.575c0-2.448-0.811-3.575-2.42-3.575C74.461,23.569,73.65,24.697,73.65,27.145z"/>
	<path style="fill:#E25D3A;" d="M82.894,31.958v-8.183h-1.886v-1.444h3.508v9.626H82.894z"/>
	<path style="fill:#E25D3A;" d="M93.841,22.991l-0.635,1.224c-0.588-0.385-1.401-0.605-2.128-0.605c-1.871,0-2.737,1.403-2.683,3.48
		c0.508-0.894,1.417-1.362,2.627-1.362c1.926,0,3.094,1.198,3.094,3.067c0,1.994-1.333,3.232-3.384,3.232
		c-2.434,0-3.919-1.732-3.919-4.69c0-3.067,1.608-5.074,4.153-5.074C91.916,22.263,93.058,22.552,93.841,22.991z M88.656,28.836
		c-0.014,0.839,0.605,1.789,1.995,1.789c1.169,0,1.953-0.674,1.953-1.843c0-1.101-0.716-1.774-1.885-1.774
		C89.413,27.007,88.643,27.846,88.656,28.836z"/>
</g>
<g>
	<g>
		<path style="fill:#5FB7CB;" d="M20.221,17.013h-0.534c0-5.351,4.219-9.704,9.406-9.704v0.534
			C24.202,7.842,20.221,11.956,20.221,17.013z"/>
	</g>
</g>
<g>
	<g>
		<path style="fill:#5FB7CB;" d="M28.871,25.454c-5.105,0-9.258-4.02-9.258-8.962h0.535c0,4.647,3.913,8.426,8.722,8.426V25.454z"/>
	</g>
</g>
<g>
	<g>
		<path style="fill:#5FB7CB;" d="M2.048,26.123v-0.534c9.604,0,17.415-4.049,17.415-9.022H20C20,21.836,11.947,26.123,2.048,26.123z
			"/>
	</g>
</g>
<g>
	<g>
		<path style="fill:#5FB7CB;" d="M20,16.046h-0.537c0-6.899-6.778-12.513-15.113-12.513V2.999C12.98,2.999,20,8.853,20,16.046z"/>
	</g>
</g>
<g>
	<path style="fill:#0096AD;" d="M19.924,16.79H19.39c0-1.732,3.119-3.091,7.105-3.091v0.534
		C22.566,14.233,19.924,15.556,19.924,16.79z"/>
</g>
<g>
	<path style="fill:#0096AD;" d="M14.295,27.222v-0.509c2.822,0,5.12-4.518,5.12-10.072h0.509
		C19.924,22.476,17.399,27.222,14.295,27.222z"/>
</g>
<g>
	<path style="fill:#0096AD;" d="M28.871,31.027c-5.309,0-9.631-6.921-9.631-15.426h0.537c0,8.21,4.081,14.891,9.094,14.891V31.027z"
		/>
</g>
<g>
	<path style="fill:#0096AD;" d="M19.777,15.688H19.24c0-2.392-2.145-4.34-4.784-4.34v-0.534
		C17.39,10.814,19.777,13.001,19.777,15.688z"/>
</g>
<g>
	<path style="fill:#0096AD;" d="M48.963,14.871v3.138H38.958V3.266h3.75v11.605H48.963z"/>
	<path style="fill:#0096AD;" d="M60.615,18.009v-5.728h-6.107v5.728h-3.75V3.266h3.75v6.066h6.107V3.266h3.75v14.743H60.615z"/>
	<path style="fill:#0096AD;" d="M80.169,5.626l-2.168,2.569c-0.969-1.18-2.403-1.915-3.707-1.915c-2.338,0-4.107,1.852-4.107,4.275
		c0,2.464,1.769,4.338,4.107,4.338c1.242,0,2.672-0.673,3.707-1.727l2.188,2.317c-1.579,1.621-3.917,2.695-6.086,2.695
		c-4.444,0-7.75-3.265-7.75-7.582c0-4.254,3.391-7.455,7.877-7.455C76.42,3.141,78.695,4.11,80.169,5.626z"/>
	<path style="fill:#0096AD;" d="M88.328,3.266c3.771,0,5.939,1.853,5.939,5.139c0,3.455-2.169,5.455-5.939,5.455h-2.676v4.149
		h-3.748V3.266H88.328z M85.652,10.912h2.485c1.644,0,2.591-0.82,2.591-2.379c0-1.538-0.946-2.317-2.591-2.317h-2.485V10.912z"/>
</g>
</svg>
