<?xml version="1.0" encoding="iso-8859-1"?>
<!-- Generator: Adobe Illustrator 19.1.0, SVG Export Plug-In . SVG Version: 6.00 Build 0)  -->
<svg version="1.1" id="Layer_1" xmlns="http://www.w3.org/2000/svg" xmlns:xlink="http://www.w3.org/1999/xlink" x="0px" y="0px"
	 viewBox="0 0 98.25 40" style="enable-background:new 0 0 98.25 40;" xml:space="preserve">
<g>
	<path style="fill:#0096AD;" d="M20.605,4.511c-6.773,0-12.26,5.49-12.26,12.263c0,6.771,5.488,12.258,12.26,12.258
		c6.77,0,12.259-5.488,12.259-12.258C32.865,10.001,27.376,4.511,20.605,4.511z M20.53,24.128c-4.062,0-7.356-3.293-7.356-7.355
		c0-4.065,3.294-7.358,7.356-7.358c4.064,0,7.357,3.293,7.357,7.358C27.886,20.835,24.594,24.128,20.53,24.128z"/>
</g>
<g>
	<path style="fill:#E25D3A;" d="M72.016,29.516c0,0.979-0.743,2.064-1.761,3.164l-2.504,2.653h4.704v1.459h-6.848v-1.183l3.548-3.81
		c0.701-0.714,1.169-1.499,1.169-2.049c0-0.771-0.605-1.237-1.608-1.237c-0.84,0-1.816,0.467-2.627,1.21l-0.647-1.252
		c1.047-0.851,2.27-1.374,3.507-1.374C70.763,27.096,72.016,28.045,72.016,29.516z"/>
	<path style="fill:#E25D3A;" d="M81.919,31.978c0,3.121-1.458,4.854-4.085,4.854c-2.64,0-4.099-1.733-4.099-4.854
		c0-3.121,1.459-4.854,4.099-4.854C80.461,27.124,81.919,28.857,81.919,31.978z M75.4,31.978c0,2.434,0.811,3.575,2.434,3.575
		c1.609,0,2.42-1.141,2.42-3.575c0-2.448-0.811-3.575-2.42-3.575C76.211,28.403,75.4,29.53,75.4,31.978z"/>
	<path style="fill:#E25D3A;" d="M84.644,36.792v-8.183h-1.886v-1.444h3.508v9.626H84.644z"/>
	<path style="fill:#E25D3A;" d="M95.591,27.825l-0.635,1.224c-0.588-0.385-1.401-0.605-2.128-0.605c-1.871,0-2.737,1.403-2.683,3.48
		c0.508-0.895,1.417-1.362,2.627-1.362c1.926,0,3.094,1.198,3.094,3.067c0,1.994-1.333,3.232-3.384,3.232
		c-2.434,0-3.919-1.733-3.919-4.69c0-3.067,1.608-5.074,4.153-5.074C93.666,27.096,94.808,27.385,95.591,27.825z M90.406,33.669
		c-0.014,0.839,0.605,1.789,1.995,1.789c1.169,0,1.953-0.674,1.953-1.843c0-1.101-0.716-1.774-1.885-1.774
		C91.163,31.84,90.393,32.679,90.406,33.669z"/>
</g>
<g>
	<g>
		<path style="fill:#5FB7CB;" d="M20.971,16.846h-0.534c0-5.351,4.219-9.704,9.406-9.704v0.534
			C24.952,7.676,20.971,11.79,20.971,16.846z"/>
	</g>
</g>
<g>
	<g>
		<path style="fill:#5FB7CB;" d="M29.621,25.287c-5.105,0-9.258-4.02-9.258-8.962h0.535c0,4.648,3.913,8.426,8.723,8.426V25.287z"/>
	</g>
</g>
<g>
	<g>
		<path style="fill:#5FB7CB;" d="M2.798,25.956v-0.534c9.604,0,17.415-4.049,17.415-9.022h0.537
			C20.75,21.669,12.697,25.956,2.798,25.956z"/>
	</g>
</g>
<g>
	<g>
		<path style="fill:#5FB7CB;" d="M20.75,15.879h-0.537c0-6.9-6.777-12.513-15.113-12.513V2.833
			C13.73,2.833,20.75,8.686,20.75,15.879z"/>
	</g>
</g>
<g>
	<g>
		<path style="fill:#5FB7CB;" d="M27.689,18.524c-3.564,0-7.4-0.572-7.4-1.827h0.535c0,0.451,2.359,1.292,6.865,1.292V18.524z"/>
	</g>
</g>
<g>
	<path style="fill:#0096AD;" d="M20.675,16.623H20.14c0-1.732,3.119-3.091,7.105-3.091v0.534
		C23.316,14.066,20.675,15.389,20.675,16.623z"/>
</g>
<g>
	<path style="fill:#0096AD;" d="M14.761,27.59v-0.534c2.964,0,5.379-4.746,5.379-10.581h0.535
		C20.675,22.604,18.021,27.59,14.761,27.59z"/>
</g>
<g>
	<path style="fill:#0096AD;" d="M29.621,30.86c-5.309,0-9.631-6.921-9.631-15.427h0.537c0,8.21,4.081,14.891,9.094,14.891V30.86z"/>
</g>
<g>
	<path style="fill:#0096AD;" d="M20.527,16.325H19.99c0-2.393-2.145-4.34-4.784-4.34v-0.534
		C18.14,11.451,20.527,13.638,20.527,16.325z"/>
</g>
<g>
	<path style="fill:#0096AD;" d="M50.713,19.705v3.138H40.708V8.1h3.75v11.605H50.713z"/>
	<path style="fill:#0096AD;" d="M62.365,22.842v-5.728h-6.107v5.728h-3.75V8.1h3.75v6.066h6.107V8.1h3.75v14.743H62.365z"/>
	<path style="fill:#0096AD;" d="M81.919,10.459l-2.168,2.569c-0.969-1.18-2.403-1.916-3.707-1.916c-2.338,0-4.107,1.852-4.107,4.275
		c0,2.464,1.769,4.338,4.107,4.338c1.242,0,2.672-0.673,3.707-1.727l2.188,2.317c-1.579,1.621-3.917,2.695-6.086,2.695
		c-4.444,0-7.751-3.265-7.751-7.582c0-4.254,3.391-7.455,7.877-7.455C78.17,7.974,80.445,8.943,81.919,10.459z"/>
	<path style="fill:#0096AD;" d="M90.078,8.1c3.771,0,5.939,1.854,5.939,5.139c0,3.455-2.169,5.455-5.939,5.455h-2.676v4.149h-3.748
		V8.1H90.078z M87.402,15.745h2.485c1.645,0,2.591-0.82,2.591-2.379c0-1.538-0.946-2.317-2.591-2.317h-2.485V15.745z"/>
</g>
</svg>
