<?xml version="1.0" encoding="iso-8859-1"?>
<!-- Generator: Adobe Illustrator 19.1.0, SVG Export Plug-In . SVG Version: 6.00 Build 0)  -->
<svg version="1.1" id="Layer_1" xmlns="http://www.w3.org/2000/svg" xmlns:xlink="http://www.w3.org/1999/xlink" x="0px" y="0px"
	 viewBox="0 0 81.265 47.325" style="enable-background:new 0 0 81.265 47.325;" xml:space="preserve">
<g>
	<path style="fill:#D05E33;" d="M50.135,11.696c-2.312,0-4.186,1.874-4.186,4.186c0,2.311,1.873,4.185,4.186,4.185
		c2.311,0,4.185-1.873,4.185-4.185C54.32,13.57,52.446,11.696,50.135,11.696z M50.109,18.393c-1.387,0-2.511-1.124-2.511-2.511
		c0-1.388,1.124-2.512,2.511-2.512c1.387,0,2.511,1.124,2.511,2.512C52.621,17.269,51.497,18.393,50.109,18.393z"/>
</g>
<g>
	<path style="fill:#D05E33;" d="M46.572,31.379c0,1.219-0.926,2.573-2.194,3.943l-3.12,3.307h5.862v1.818h-8.534v-1.474l4.422-4.748
		c0.874-0.89,1.457-1.868,1.457-2.554c0-0.96-0.754-1.542-2.004-1.542c-1.047,0-2.264,0.582-3.274,1.507l-0.807-1.56
		c1.305-1.061,2.828-1.712,4.37-1.712C45.011,28.364,46.572,29.546,46.572,31.379z"/>
	<path style="fill:#D05E33;" d="M58.914,34.447c0,3.89-1.817,6.05-5.091,6.05c-3.29,0-5.108-2.16-5.108-6.05s1.818-6.05,5.108-6.05
		C57.097,28.398,58.914,30.558,58.914,34.447z M50.79,34.447c0,3.033,1.01,4.456,3.033,4.456c2.006,0,3.016-1.422,3.016-4.456
		c0-3.05-1.01-4.456-3.016-4.456C51.8,29.992,50.79,31.397,50.79,34.447z"/>
	<path style="fill:#D05E33;" d="M62.309,40.446V30.249h-2.35v-1.799h4.372v11.997H62.309z"/>
	<path style="fill:#D05E33;" d="M75.952,29.271l-0.791,1.526c-0.733-0.48-1.746-0.754-2.652-0.754c-2.332,0-3.411,1.749-3.343,4.337
		c0.633-1.115,1.766-1.698,3.274-1.698c2.4,0,3.855,1.493,3.855,3.823c0,2.485-1.661,4.028-4.217,4.028
		c-3.033,0-4.884-2.159-4.884-5.845c0-3.822,2.004-6.324,5.176-6.324C73.553,28.364,74.976,28.724,75.952,29.271z M69.491,36.555
		c-0.017,1.046,0.754,2.229,2.486,2.229c1.457,0,2.434-0.84,2.434-2.297c0-1.372-0.892-2.211-2.349-2.211
		C70.434,34.276,69.474,35.321,69.491,36.555z"/>
</g>
<g>
	<path style="fill:#FFFFFF;" d="M50.26,15.907h-0.182c0-1.827,1.44-3.313,3.211-3.313v0.182
		C51.619,12.777,50.26,14.181,50.26,15.907z"/>
</g>
<g>
	<path style="fill:#FFFFFF;" d="M53.213,18.789c-1.743,0-3.161-1.372-3.161-3.059h0.183c0,1.587,1.336,2.876,2.978,2.876V18.789z"/>
</g>
<g>
	<path style="fill:#FFFFFF;" d="M44.056,19.017v-0.182c3.279,0,5.945-1.382,5.945-3.08h0.183
		C50.184,17.554,47.435,19.017,44.056,19.017z"/>
</g>
<g>
	<path style="fill:#FFFFFF;" d="M50.184,15.577h-0.183c0-2.355-2.314-4.272-5.159-4.272v-0.182
		C47.788,11.123,50.184,13.122,50.184,15.577z"/>
</g>
<g>
	<path style="fill:#FFFFFF;" d="M52.553,16.48c-1.217,0-2.526-0.195-2.526-0.624h0.183c0,0.154,0.805,0.441,2.344,0.441V16.48z"/>
</g>
<g>
	<path style="fill:#FFFFFF;" d="M50.159,15.831h-0.183c0-0.591,1.065-1.055,2.426-1.055v0.182
		C51.06,14.958,50.159,15.41,50.159,15.831z"/>
</g>
<g>
	<path style="fill:#FFFFFF;" d="M48.14,19.575v-0.182c1.012,0,1.836-1.62,1.836-3.612h0.183
		C50.159,17.873,49.253,19.575,48.14,19.575z"/>
</g>
<g>
	<path style="fill:#FFFFFF;" d="M53.213,20.692c-1.813,0-3.288-2.363-3.288-5.266h0.183c0,2.803,1.393,5.084,3.105,5.084V20.692z"/>
</g>
<g>
	<path style="fill:#FFFFFF;" d="M50.108,15.73h-0.183c0-0.817-0.732-1.482-1.633-1.482v-0.182
		C49.293,14.066,50.108,14.812,50.108,15.73z"/>
</g>
<g>
	<path style="fill:#FFFFFF;" d="M18.422,21.259v3.91H5.954V6.796h4.673v14.463H18.422z"/>
	<path style="fill:#FFFFFF;" d="M32.943,25.169v-7.138h-7.611v7.138h-4.673V6.796h4.673v7.56h7.611v-7.56h4.673v18.373H32.943z"/>
	<path style="fill:#FFFFFF;" d="M57.312,9.737l-2.702,3.202c-1.207-1.47-2.995-2.387-4.619-2.387c-2.914,0-5.119,2.308-5.119,5.328
		c0,3.071,2.205,5.406,5.119,5.406c1.547,0,3.33-0.839,4.619-2.152l2.727,2.888c-1.967,2.02-4.881,3.358-7.585,3.358
		c-5.538,0-9.659-4.068-9.659-9.449c0-5.302,4.226-9.291,9.817-9.291C52.639,6.64,55.475,7.847,57.312,9.737z"/>
	<path style="fill:#FFFFFF;" d="M67.48,6.796c4.699,0,7.402,2.31,7.402,6.404c0,4.306-2.703,6.798-7.402,6.798h-3.335v5.171h-4.672
		V6.796H67.48z M64.145,16.324h3.097c2.049,0,3.229-1.022,3.229-2.965c0-1.917-1.179-2.888-3.229-2.888h-3.097V16.324z"/>
</g>
</svg>
