<?xml version="1.0" encoding="iso-8859-1"?>
<!-- Generator: Adobe Illustrator 19.1.0, SVG Export Plug-In . SVG Version: 6.00 Build 0)  -->
<svg version="1.1" id="Layer_1" xmlns="http://www.w3.org/2000/svg" xmlns:xlink="http://www.w3.org/1999/xlink" x="0px" y="0px"
	 viewBox="0 0 57.44 62.387" style="enable-background:new 0 0 57.44 62.387;" xml:space="preserve">
<g>
	<path style="fill:#FFD400;" d="M26.442,22.859c0.827-0.358,1.697-0.628,2.564-0.811l-0.04-11.599
		c-2.996,0.042-5.79,0.909-8.169,2.386l5.174,10.241C26.126,23.003,26.279,22.929,26.442,22.859z"/>
	<path style="fill:#FFD400;" d="M24.791,23.717l-6.658-8.806c-2.115,2.039-3.668,4.656-4.402,7.598l8.877,3.401
		C23.044,25.062,23.795,24.34,24.791,23.717z"/>
	<path style="fill:#FFD400;" d="M36.001,23.865c2.012,4.125-2.616,4.025-0.704,7.244c0.888,1.496,3.687,3.447,6.429,5.108
		c2.13-2.71,3.403-6.124,3.403-9.837c0-3.243-0.971-6.258-2.635-8.775l-6.931,5.62C35.733,23.42,35.885,23.628,36.001,23.865z"/>
	<path style="fill:#FFD400;" d="M34.546,22.429l5.758-7.468c-2.11-2.053-4.784-3.527-7.771-4.164l-2.204,11.042
		C31.935,21.674,33.444,21.849,34.546,22.429z"/>
	<path style="fill:#ED1C2C;" d="M32.177,35.537c-3.22-2.918-7.144-0.805-9.156-4.729c-0.715-1.393-0.953-2.591-0.808-3.633
		l-8.95-1.101c-0.002,0.103-0.008,0.204-0.008,0.308c0,8.802,7.135,15.937,15.937,15.937c2.439,0,4.75-0.55,6.816-1.529
		C34.95,38.891,33.604,36.829,32.177,35.537z M27.968,40.822c-0.956,0-1.73-0.775-1.73-1.73c0-0.956,0.775-1.73,1.73-1.73
		c0.956,0,1.73,0.775,1.73,1.73C29.698,40.047,28.924,40.822,27.968,40.822z"/>
	<path style="fill:#ED1C2C;" d="M13.139,46.161c-1.471-0.645-2.348-0.894-3.21-0.894c-0.907,0-1.486,0.322-1.486,0.821
		c0,1.51,5.157,1.085,5.157,4.574c0,1.92-1.635,3.034-3.894,3.034c-1.769,0-2.645-0.455-3.656-0.968v-2.155
		c1.456,0.953,2.348,1.29,3.463,1.29c0.966,0,1.486-0.337,1.486-0.924c0-1.642-5.157-1.041-5.157-4.632
		c0-1.73,1.516-2.873,3.864-2.873c1.129,0,2.155,0.235,3.433,0.777V46.161z"/>
	<path style="fill:#ED1C2C;" d="M20.005,48.257l4.473,5.307h-3.166L17.3,48.873v4.691h-2.526v-9.997H17.3v4.53h0.03l3.195-4.53
		h2.779L20.005,48.257z"/>
	<path style="fill:#ED1C2C;" d="M43.33,53.564h-2.125l-4.464-6.406v6.406h-2.527v-9.997h2.319l4.27,6.113v-6.113h2.527V53.564z"/>
	<path style="fill:#ED1C2C;" d="M52.597,53.564h-7.623v-9.997h7.519v1.832h-4.993v2.096h4.77v1.832h-4.77v2.404h5.097V53.564z"/>
	<path style="fill:#ED1C2C;" d="M6.693,40.228c0.402,0,0.641,0.32,0.641,0.667c0,0.255-0.112,0.446-0.336,0.569
		c0.201,0.119,0.262,0.405,0.537,1.086H6.997c-0.21-0.497-0.287-0.943-0.552-0.943H6.305v0.943H5.816v-2.322H6.693z M6.305,41.181
		h0.259c0.135,0,0.267-0.068,0.267-0.265c0-0.174-0.095-0.262-0.279-0.262H6.305V41.181z"/>
	<path style="fill:#ED1C2C;" d="M9.242,42.549H7.797v-2.322h1.425v0.426H8.285v0.487h0.894v0.426H8.285v0.558h0.957V42.549z"/>
	<path style="fill:#ED1C2C;" d="M11.429,40.895c-0.25-0.143-0.491-0.214-0.733-0.214c-0.532,0-0.718,0.388-0.718,0.732
		c0,0.412,0.273,0.684,0.678,0.684c0.121,0,0.181-0.014,0.325-0.082v-0.272h-0.284v-0.425h0.773v0.95
		c-0.146,0.18-0.509,0.313-0.825,0.313c-0.684,0-1.17-0.494-1.17-1.188c0-0.708,0.483-1.195,1.181-1.195
		c0.293,0,0.577,0.078,0.773,0.191V40.895z"/>
	<path style="fill:#ED1C2C;" d="M12.419,42.549h-0.488v-2.322h0.488V42.549z"/>
	<path style="fill:#ED1C2C;" d="M13.897,42.58c-0.718,0-1.123-0.599-1.123-1.192c0-0.562,0.385-1.191,1.123-1.191
		c0.738,0,1.121,0.633,1.121,1.191C15.018,41.984,14.601,42.58,13.897,42.58z M13.897,40.681c-0.374,0-0.621,0.282-0.621,0.708
		c0,0.425,0.247,0.708,0.621,0.708c0.371,0,0.618-0.283,0.618-0.708C14.515,40.963,14.268,40.681,13.897,40.681z"/>
	<path style="fill:#ED1C2C;" d="M17.315,42.549h-0.411l-1.083-1.488v1.488h-0.489v-2.322h0.448l1.046,1.42v-1.42h0.488V42.549z"/>
	<path style="fill:#ED1C2C;" d="M33.9,53.563h-2.72l-0.833-1.979h-4.534l-0.758,1.979h-2.676l4.088-10h2.928L33.9,53.563z
		 M27.969,45.954l-1.486,3.885h3.122L27.969,45.954z"/>
</g>
</svg>
